<?xml version="1.0" encoding="utf-8" standalone="no"?>
<!DOCTYPE svg PUBLIC "-//W3C//DTD SVG 1.1//EN"
  "http://www.w3.org/Graphics/SVG/1.1/DTD/svg11.dtd">
<svg xmlns:xlink="http://www.w3.org/1999/xlink" width="460.8pt" height="345.6pt" viewBox="0 0 460.8 345.6" xmlns="http://www.w3.org/2000/svg" version="1.1">
 <metadata>
  <rdf:RDF xmlns:dc="http://purl.org/dc/elements/1.1/" xmlns:cc="http://creativecommons.org/ns#" xmlns:rdf="http://www.w3.org/1999/02/22-rdf-syntax-ns#">
   <cc:Work>
    <dc:type rdf:resource="http://purl.org/dc/dcmitype/StillImage"/>
    <dc:date>2022-01-05T12:32:17.698160</dc:date>
    <dc:format>image/svg+xml</dc:format>
    <dc:creator>
     <cc:Agent>
      <dc:title>Matplotlib v3.5.1, https://matplotlib.org/</dc:title>
     </cc:Agent>
    </dc:creator>
   </cc:Work>
  </rdf:RDF>
 </metadata>
 <defs>
  <style type="text/css">*{stroke-linejoin: round; stroke-linecap: butt}</style>
 </defs>
 <g id="figure_1">
  <g id="patch_1">
   <path d="M 0 345.6
L 460.8 345.6
L 460.8 0
L 0 0
z
" style="fill: #ffffff"/>
  </g>
  <g id="axes_1">
   <g id="patch_2">
    <path d="M 57.6 307.584
L 414.72 307.584
L 414.72 41.472
L 57.6 41.472
z
" style="fill: #ffffff"/>
   </g>
   <g id="matplotlib.axis_1">
    <g id="xtick_1">
     <g id="line2d_1">
      <defs>
       <path id="m35112d59c5" d="M 0 0
L 0 3.5
" style="stroke: #000000; stroke-width: 0.8"/>
      </defs>
      <g>
       <use xlink:href="#m35112d59c5" x="73.832727" y="307.584" style="stroke: #000000; stroke-width: 0.8"/>
      </g>
     </g>
     <g id="text_1">
      <!-- −10.0 -->
      <g transform="translate(58.510071 322.182437)scale(0.1 -0.1)">
       <defs>
        <path id="DejaVuSans-2212" d="M 678 2272
L 4684 2272
L 4684 1741
L 678 1741
L 678 2272
z
" transform="scale(0.015625)"/>
        <path id="DejaVuSans-31" d="M 794 531
L 1825 531
L 1825 4091
L 703 3866
L 703 4441
L 1819 4666
L 2450 4666
L 2450 531
L 3481 531
L 3481 0
L 794 0
L 794 531
z
" transform="scale(0.015625)"/>
        <path id="DejaVuSans-30" d="M 2034 4250
Q 1547 4250 1301 3770
Q 1056 3291 1056 2328
Q 1056 1369 1301 889
Q 1547 409 2034 409
Q 2525 409 2770 889
Q 3016 1369 3016 2328
Q 3016 3291 2770 3770
Q 2525 4250 2034 4250
z
M 2034 4750
Q 2819 4750 3233 4129
Q 3647 3509 3647 2328
Q 3647 1150 3233 529
Q 2819 -91 2034 -91
Q 1250 -91 836 529
Q 422 1150 422 2328
Q 422 3509 836 4129
Q 1250 4750 2034 4750
z
" transform="scale(0.015625)"/>
        <path id="DejaVuSans-2e" d="M 684 794
L 1344 794
L 1344 0
L 684 0
L 684 794
z
" transform="scale(0.015625)"/>
       </defs>
       <use xlink:href="#DejaVuSans-2212"/>
       <use xlink:href="#DejaVuSans-31" x="83.789062"/>
       <use xlink:href="#DejaVuSans-30" x="147.412109"/>
       <use xlink:href="#DejaVuSans-2e" x="211.035156"/>
       <use xlink:href="#DejaVuSans-30" x="242.822266"/>
      </g>
     </g>
    </g>
    <g id="xtick_2">
     <g id="line2d_2">
      <g>
       <use xlink:href="#m35112d59c5" x="114.414545" y="307.584" style="stroke: #000000; stroke-width: 0.8"/>
      </g>
     </g>
     <g id="text_2">
      <!-- −7.5 -->
      <g transform="translate(102.273139 322.182437)scale(0.1 -0.1)">
       <defs>
        <path id="DejaVuSans-37" d="M 525 4666
L 3525 4666
L 3525 4397
L 1831 0
L 1172 0
L 2766 4134
L 525 4134
L 525 4666
z
" transform="scale(0.015625)"/>
        <path id="DejaVuSans-35" d="M 691 4666
L 3169 4666
L 3169 4134
L 1269 4134
L 1269 2991
Q 1406 3038 1543 3061
Q 1681 3084 1819 3084
Q 2600 3084 3056 2656
Q 3513 2228 3513 1497
Q 3513 744 3044 326
Q 2575 -91 1722 -91
Q 1428 -91 1123 -41
Q 819 9 494 109
L 494 744
Q 775 591 1075 516
Q 1375 441 1709 441
Q 2250 441 2565 725
Q 2881 1009 2881 1497
Q 2881 1984 2565 2268
Q 2250 2553 1709 2553
Q 1456 2553 1204 2497
Q 953 2441 691 2322
L 691 4666
z
" transform="scale(0.015625)"/>
       </defs>
       <use xlink:href="#DejaVuSans-2212"/>
       <use xlink:href="#DejaVuSans-37" x="83.789062"/>
       <use xlink:href="#DejaVuSans-2e" x="147.412109"/>
       <use xlink:href="#DejaVuSans-35" x="179.199219"/>
      </g>
     </g>
    </g>
    <g id="xtick_3">
     <g id="line2d_3">
      <g>
       <use xlink:href="#m35112d59c5" x="154.996364" y="307.584" style="stroke: #000000; stroke-width: 0.8"/>
      </g>
     </g>
     <g id="text_3">
      <!-- −5.0 -->
      <g transform="translate(142.854957 322.182437)scale(0.1 -0.1)">
       <use xlink:href="#DejaVuSans-2212"/>
       <use xlink:href="#DejaVuSans-35" x="83.789062"/>
       <use xlink:href="#DejaVuSans-2e" x="147.412109"/>
       <use xlink:href="#DejaVuSans-30" x="179.199219"/>
      </g>
     </g>
    </g>
    <g id="xtick_4">
     <g id="line2d_4">
      <g>
       <use xlink:href="#m35112d59c5" x="195.578182" y="307.584" style="stroke: #000000; stroke-width: 0.8"/>
      </g>
     </g>
     <g id="text_4">
      <!-- −2.5 -->
      <g transform="translate(183.436776 322.182437)scale(0.1 -0.1)">
       <defs>
        <path id="DejaVuSans-32" d="M 1228 531
L 3431 531
L 3431 0
L 469 0
L 469 531
Q 828 903 1448 1529
Q 2069 2156 2228 2338
Q 2531 2678 2651 2914
Q 2772 3150 2772 3378
Q 2772 3750 2511 3984
Q 2250 4219 1831 4219
Q 1534 4219 1204 4116
Q 875 4013 500 3803
L 500 4441
Q 881 4594 1212 4672
Q 1544 4750 1819 4750
Q 2544 4750 2975 4387
Q 3406 4025 3406 3419
Q 3406 3131 3298 2873
Q 3191 2616 2906 2266
Q 2828 2175 2409 1742
Q 1991 1309 1228 531
z
" transform="scale(0.015625)"/>
       </defs>
       <use xlink:href="#DejaVuSans-2212"/>
       <use xlink:href="#DejaVuSans-32" x="83.789062"/>
       <use xlink:href="#DejaVuSans-2e" x="147.412109"/>
       <use xlink:href="#DejaVuSans-35" x="179.199219"/>
      </g>
     </g>
    </g>
    <g id="xtick_5">
     <g id="line2d_5">
      <g>
       <use xlink:href="#m35112d59c5" x="236.16" y="307.584" style="stroke: #000000; stroke-width: 0.8"/>
      </g>
     </g>
     <g id="text_5">
      <!-- 0.0 -->
      <g transform="translate(228.208438 322.182437)scale(0.1 -0.1)">
       <use xlink:href="#DejaVuSans-30"/>
       <use xlink:href="#DejaVuSans-2e" x="63.623047"/>
       <use xlink:href="#DejaVuSans-30" x="95.410156"/>
      </g>
     </g>
    </g>
    <g id="xtick_6">
     <g id="line2d_6">
      <g>
       <use xlink:href="#m35112d59c5" x="276.741818" y="307.584" style="stroke: #000000; stroke-width: 0.8"/>
      </g>
     </g>
     <g id="text_6">
      <!-- 2.5 -->
      <g transform="translate(268.790256 322.182437)scale(0.1 -0.1)">
       <use xlink:href="#DejaVuSans-32"/>
       <use xlink:href="#DejaVuSans-2e" x="63.623047"/>
       <use xlink:href="#DejaVuSans-35" x="95.410156"/>
      </g>
     </g>
    </g>
    <g id="xtick_7">
     <g id="line2d_7">
      <g>
       <use xlink:href="#m35112d59c5" x="317.323636" y="307.584" style="stroke: #000000; stroke-width: 0.8"/>
      </g>
     </g>
     <g id="text_7">
      <!-- 5.0 -->
      <g transform="translate(309.372074 322.182437)scale(0.1 -0.1)">
       <use xlink:href="#DejaVuSans-35"/>
       <use xlink:href="#DejaVuSans-2e" x="63.623047"/>
       <use xlink:href="#DejaVuSans-30" x="95.410156"/>
      </g>
     </g>
    </g>
    <g id="xtick_8">
     <g id="line2d_8">
      <g>
       <use xlink:href="#m35112d59c5" x="357.905455" y="307.584" style="stroke: #000000; stroke-width: 0.8"/>
      </g>
     </g>
     <g id="text_8">
      <!-- 7.5 -->
      <g transform="translate(349.953892 322.182437)scale(0.1 -0.1)">
       <use xlink:href="#DejaVuSans-37"/>
       <use xlink:href="#DejaVuSans-2e" x="63.623047"/>
       <use xlink:href="#DejaVuSans-35" x="95.410156"/>
      </g>
     </g>
    </g>
    <g id="xtick_9">
     <g id="line2d_9">
      <g>
       <use xlink:href="#m35112d59c5" x="398.487273" y="307.584" style="stroke: #000000; stroke-width: 0.8"/>
      </g>
     </g>
     <g id="text_9">
      <!-- 10.0 -->
      <g transform="translate(387.35446 322.182437)scale(0.1 -0.1)">
       <use xlink:href="#DejaVuSans-31"/>
       <use xlink:href="#DejaVuSans-30" x="63.623047"/>
       <use xlink:href="#DejaVuSans-2e" x="127.246094"/>
       <use xlink:href="#DejaVuSans-30" x="159.033203"/>
      </g>
     </g>
    </g>
   </g>
   <g id="matplotlib.axis_2">
    <g id="ytick_1">
     <g id="line2d_10">
      <defs>
       <path id="mdaac72df13" d="M 0 0
L -3.5 0
" style="stroke: #000000; stroke-width: 0.8"/>
      </defs>
      <g>
       <use xlink:href="#mdaac72df13" x="57.6" y="289.394966" style="stroke: #000000; stroke-width: 0.8"/>
      </g>
     </g>
     <g id="text_10">
      <!-- −0.4 -->
      <g transform="translate(26.317187 293.194185)scale(0.1 -0.1)">
       <defs>
        <path id="DejaVuSans-34" d="M 2419 4116
L 825 1625
L 2419 1625
L 2419 4116
z
M 2253 4666
L 3047 4666
L 3047 1625
L 3713 1625
L 3713 1100
L 3047 1100
L 3047 0
L 2419 0
L 2419 1100
L 313 1100
L 313 1709
L 2253 4666
z
" transform="scale(0.015625)"/>
       </defs>
       <use xlink:href="#DejaVuSans-2212"/>
       <use xlink:href="#DejaVuSans-30" x="83.789062"/>
       <use xlink:href="#DejaVuSans-2e" x="147.412109"/>
       <use xlink:href="#DejaVuSans-34" x="179.199219"/>
      </g>
     </g>
    </g>
    <g id="ytick_2">
     <g id="line2d_11">
      <g>
       <use xlink:href="#mdaac72df13" x="57.6" y="255.704998" style="stroke: #000000; stroke-width: 0.8"/>
      </g>
     </g>
     <g id="text_11">
      <!-- −0.2 -->
      <g transform="translate(26.317187 259.504216)scale(0.1 -0.1)">
       <use xlink:href="#DejaVuSans-2212"/>
       <use xlink:href="#DejaVuSans-30" x="83.789062"/>
       <use xlink:href="#DejaVuSans-2e" x="147.412109"/>
       <use xlink:href="#DejaVuSans-32" x="179.199219"/>
      </g>
     </g>
    </g>
    <g id="ytick_3">
     <g id="line2d_12">
      <g>
       <use xlink:href="#mdaac72df13" x="57.6" y="222.015029" style="stroke: #000000; stroke-width: 0.8"/>
      </g>
     </g>
     <g id="text_12">
      <!-- 0.0 -->
      <g transform="translate(34.696875 225.814248)scale(0.1 -0.1)">
       <use xlink:href="#DejaVuSans-30"/>
       <use xlink:href="#DejaVuSans-2e" x="63.623047"/>
       <use xlink:href="#DejaVuSans-30" x="95.410156"/>
      </g>
     </g>
    </g>
    <g id="ytick_4">
     <g id="line2d_13">
      <g>
       <use xlink:href="#mdaac72df13" x="57.6" y="188.325061" style="stroke: #000000; stroke-width: 0.8"/>
      </g>
     </g>
     <g id="text_13">
      <!-- 0.2 -->
      <g transform="translate(34.696875 192.124279)scale(0.1 -0.1)">
       <use xlink:href="#DejaVuSans-30"/>
       <use xlink:href="#DejaVuSans-2e" x="63.623047"/>
       <use xlink:href="#DejaVuSans-32" x="95.410156"/>
      </g>
     </g>
    </g>
    <g id="ytick_5">
     <g id="line2d_14">
      <g>
       <use xlink:href="#mdaac72df13" x="57.6" y="154.635092" style="stroke: #000000; stroke-width: 0.8"/>
      </g>
     </g>
     <g id="text_14">
      <!-- 0.4 -->
      <g transform="translate(34.696875 158.434311)scale(0.1 -0.1)">
       <use xlink:href="#DejaVuSans-30"/>
       <use xlink:href="#DejaVuSans-2e" x="63.623047"/>
       <use xlink:href="#DejaVuSans-34" x="95.410156"/>
      </g>
     </g>
    </g>
    <g id="ytick_6">
     <g id="line2d_15">
      <g>
       <use xlink:href="#mdaac72df13" x="57.6" y="120.945124" style="stroke: #000000; stroke-width: 0.8"/>
      </g>
     </g>
     <g id="text_15">
      <!-- 0.6 -->
      <g transform="translate(34.696875 124.744343)scale(0.1 -0.1)">
       <defs>
        <path id="DejaVuSans-36" d="M 2113 2584
Q 1688 2584 1439 2293
Q 1191 2003 1191 1497
Q 1191 994 1439 701
Q 1688 409 2113 409
Q 2538 409 2786 701
Q 3034 994 3034 1497
Q 3034 2003 2786 2293
Q 2538 2584 2113 2584
z
M 3366 4563
L 3366 3988
Q 3128 4100 2886 4159
Q 2644 4219 2406 4219
Q 1781 4219 1451 3797
Q 1122 3375 1075 2522
Q 1259 2794 1537 2939
Q 1816 3084 2150 3084
Q 2853 3084 3261 2657
Q 3669 2231 3669 1497
Q 3669 778 3244 343
Q 2819 -91 2113 -91
Q 1303 -91 875 529
Q 447 1150 447 2328
Q 447 3434 972 4092
Q 1497 4750 2381 4750
Q 2619 4750 2861 4703
Q 3103 4656 3366 4563
z
" transform="scale(0.015625)"/>
       </defs>
       <use xlink:href="#DejaVuSans-30"/>
       <use xlink:href="#DejaVuSans-2e" x="63.623047"/>
       <use xlink:href="#DejaVuSans-36" x="95.410156"/>
      </g>
     </g>
    </g>
    <g id="ytick_7">
     <g id="line2d_16">
      <g>
       <use xlink:href="#mdaac72df13" x="57.6" y="87.255155" style="stroke: #000000; stroke-width: 0.8"/>
      </g>
     </g>
     <g id="text_16">
      <!-- 0.8 -->
      <g transform="translate(34.696875 91.054374)scale(0.1 -0.1)">
       <defs>
        <path id="DejaVuSans-38" d="M 2034 2216
Q 1584 2216 1326 1975
Q 1069 1734 1069 1313
Q 1069 891 1326 650
Q 1584 409 2034 409
Q 2484 409 2743 651
Q 3003 894 3003 1313
Q 3003 1734 2745 1975
Q 2488 2216 2034 2216
z
M 1403 2484
Q 997 2584 770 2862
Q 544 3141 544 3541
Q 544 4100 942 4425
Q 1341 4750 2034 4750
Q 2731 4750 3128 4425
Q 3525 4100 3525 3541
Q 3525 3141 3298 2862
Q 3072 2584 2669 2484
Q 3125 2378 3379 2068
Q 3634 1759 3634 1313
Q 3634 634 3220 271
Q 2806 -91 2034 -91
Q 1263 -91 848 271
Q 434 634 434 1313
Q 434 1759 690 2068
Q 947 2378 1403 2484
z
M 1172 3481
Q 1172 3119 1398 2916
Q 1625 2713 2034 2713
Q 2441 2713 2670 2916
Q 2900 3119 2900 3481
Q 2900 3844 2670 4047
Q 2441 4250 2034 4250
Q 1625 4250 1398 4047
Q 1172 3844 1172 3481
z
" transform="scale(0.015625)"/>
       </defs>
       <use xlink:href="#DejaVuSans-30"/>
       <use xlink:href="#DejaVuSans-2e" x="63.623047"/>
       <use xlink:href="#DejaVuSans-38" x="95.410156"/>
      </g>
     </g>
    </g>
    <g id="ytick_8">
     <g id="line2d_17">
      <g>
       <use xlink:href="#mdaac72df13" x="57.6" y="53.565187" style="stroke: #000000; stroke-width: 0.8"/>
      </g>
     </g>
     <g id="text_17">
      <!-- 1.0 -->
      <g transform="translate(34.696875 57.364406)scale(0.1 -0.1)">
       <use xlink:href="#DejaVuSans-31"/>
       <use xlink:href="#DejaVuSans-2e" x="63.623047"/>
       <use xlink:href="#DejaVuSans-30" x="95.410156"/>
      </g>
     </g>
    </g>
   </g>
   <g id="line2d_18">
    <path d="M 73.832727 231.179056
L 76.432563 228.918273
L 79.357379 226.073452
L 82.932154 222.276659
L 95.281376 208.840179
L 98.206192 206.170213
L 100.481048 204.371161
L 102.755905 202.862598
L 104.705782 201.830596
L 106.655659 201.062786
L 108.280557 200.638492
L 109.905455 200.420046
L 111.530352 200.414924
L 113.15525 200.628776
L 114.780147 201.065333
L 116.405045 201.726324
L 118.029943 202.611416
L 119.65484 203.718169
L 121.604717 205.332266
L 123.554595 207.24685
L 125.829451 209.838149
L 128.104308 212.782336
L 130.704144 216.525861
L 133.62896 221.13162
L 137.528714 227.715853
L 146.303161 242.70534
L 149.227977 247.18869
L 151.502834 250.316797
L 153.452711 252.684478
L 155.402588 254.713828
L 157.027486 256.114582
L 158.652383 257.225516
L 159.952301 257.890306
L 161.252219 258.34424
L 162.552138 258.577247
L 163.852056 258.580076
L 165.151974 258.34436
L 166.451892 257.862661
L 167.75181 257.128527
L 169.051728 256.136537
L 170.351646 254.882339
L 171.651564 253.362689
L 173.276462 251.08674
L 174.90136 248.391274
L 176.526257 245.277651
L 178.476134 240.995603
L 180.426011 236.130828
L 182.375889 230.702516
L 184.650745 223.691222
L 187.250581 214.846262
L 189.850418 205.201981
L 192.775233 193.531789
L 196.350008 178.339219
L 201.549681 155.133463
L 209.349189 120.359505
L 212.923964 105.476703
L 215.84878 94.204851
L 218.448616 85.053892
L 220.723473 77.830064
L 222.67335 72.286797
L 224.623227 67.392259
L 226.248124 63.839393
L 227.873022 60.787356
L 229.49792 58.254377
L 230.797838 56.612005
L 232.097756 55.31789
L 233.397674 54.377002
L 234.372613 53.905368
L 235.347551 53.635506
L 236.32249 53.568
L 237.297428 53.702996
L 238.272367 54.040202
L 239.247305 54.578888
L 240.547224 55.608475
L 241.847142 56.990172
L 243.14706 58.718675
L 244.446978 60.787356
L 246.071876 63.839393
L 247.696773 67.392259
L 249.64665 72.286797
L 251.596527 77.830064
L 253.871384 85.053892
L 256.146241 93.01303
L 258.746077 102.892378
L 261.995872 116.200559
L 265.895627 133.17319
L 279.544767 193.531789
L 282.794562 206.447688
L 285.719378 217.136305
L 288.319214 225.766464
L 290.59407 232.573134
L 292.868927 238.635
L 294.818804 243.210429
L 296.768681 247.195829
L 298.393579 250.058885
L 300.018477 252.502617
L 301.643374 254.527414
L 302.943292 255.847715
L 304.24321 256.904892
L 305.543129 257.703023
L 306.843047 258.247265
L 308.142965 258.543818
L 309.442883 258.599876
L 310.742801 258.423579
L 312.042719 258.023964
L 313.342637 257.410902
L 314.967535 256.360702
L 316.592432 255.016025
L 318.21733 253.400749
L 320.167207 251.140798
L 322.442064 248.118603
L 325.0419 244.248668
L 328.291695 238.956675
L 333.816347 229.407152
L 338.69104 221.13162
L 341.940835 216.038074
L 344.540672 212.341617
L 346.815528 209.445489
L 349.090385 206.907528
L 351.040262 205.042004
L 352.990139 203.479275
L 354.940016 202.230596
L 356.564914 201.43497
L 358.189812 200.86383
L 359.814709 200.516676
L 361.439607 200.39097
L 363.064505 200.482204
L 364.689402 200.783985
L 366.3143 201.288136
L 368.264177 202.146265
L 370.214054 203.261604
L 372.488911 204.857357
L 374.763767 206.73162
L 377.363604 209.15781
L 380.613399 212.513027
L 385.488092 217.919318
L 391.662703 224.726243
L 394.912498 228.002059
L 397.837314 230.640467
L 398.487273 231.179056
L 398.487273 231.179056
" clip-path="url(#p83c3127efc)" style="fill: none; stroke: #1f77b4; stroke-width: 1.5; stroke-linecap: square"/>
   </g>
   <g id="line2d_19">
    <path d="M 73.832727 208.797285
L 76.432563 207.05099
L 78.70742 205.786749
L 80.657297 204.924057
L 82.607174 204.283458
L 84.557052 203.879427
L 86.506929 203.72357
L 88.456806 203.824407
L 90.406683 204.187194
L 92.35656 204.813777
L 94.306437 205.702493
L 96.256314 206.848112
L 98.206192 208.241825
L 100.481048 210.164705
L 102.755905 212.38273
L 105.355741 215.238056
L 108.280557 218.790624
L 111.855332 223.488549
L 123.554595 239.162167
L 126.154431 242.167109
L 128.429287 244.504024
L 130.704144 246.511742
L 132.654021 247.93266
L 134.278919 248.883071
L 135.903817 249.604806
L 137.528714 250.084263
L 139.153612 250.309523
L 140.778509 250.27048
L 142.403407 249.958956
L 144.028305 249.368797
L 145.653202 248.495967
L 147.2781 247.338611
L 148.902998 245.897107
L 150.527895 244.174106
L 152.477772 241.742038
L 154.427649 238.924709
L 156.377527 235.739667
L 158.652383 231.588789
L 161.252219 226.324244
L 164.177035 219.829397
L 167.42683 212.05106
L 171.976544 200.534888
L 179.776052 180.714395
L 183.025848 173.062654
L 185.625684 167.432256
L 187.900541 162.959791
L 190.175397 158.98497
L 192.125274 156.02328
L 193.750172 153.897652
L 195.37507 152.104001
L 196.999967 150.659515
L 198.299885 149.765454
L 199.599803 149.11105
L 200.899722 148.701874
L 202.19964 148.542457
L 203.499558 148.636268
L 204.799476 148.985688
L 206.099394 149.59199
L 207.399312 150.455333
L 208.69923 151.574752
L 209.999148 152.948156
L 211.624046 155.017079
L 213.248943 157.469044
L 214.873841 160.292678
L 216.823718 164.151796
L 218.773595 168.496988
L 221.048452 174.135361
L 223.648288 181.25347
L 226.573104 189.995751
L 229.822899 200.426893
L 234.372613 215.839845
L 243.14706 245.738854
L 246.721835 257.025578
L 249.64665 265.524286
L 252.246486 272.382737
L 254.521343 277.764425
L 256.47122 281.870504
L 258.421097 285.475436
L 260.045995 288.07758
L 261.670893 290.300916
L 263.29579 292.13566
L 264.595708 293.318815
L 265.895627 294.246312
L 267.195545 294.916903
L 268.495463 295.330467
L 269.795381 295.488
L 271.095299 295.391607
L 272.395217 295.044487
L 273.695135 294.450908
L 274.995053 293.616183
L 276.294971 292.54664
L 277.919869 290.890715
L 279.544767 288.895678
L 281.169664 286.579988
L 283.119541 283.406819
L 285.394398 279.210451
L 287.669255 274.545934
L 290.269091 268.734776
L 293.518886 260.918407
L 298.393579 248.524206
L 305.543129 230.384634
L 309.117903 221.975334
L 312.042719 215.670743
L 314.642555 210.607299
L 316.917412 206.653183
L 318.867289 203.649515
L 320.817166 201.022914
L 322.767043 198.788597
L 324.391941 197.234048
L 326.016839 195.962861
L 327.641736 194.976319
L 329.266634 194.273456
L 330.891532 193.851099
L 332.516429 193.703934
L 334.141327 193.82458
L 335.766224 194.20369
L 337.391122 194.830055
L 339.01602 195.690729
L 340.965897 197.012242
L 342.915774 198.622267
L 345.190631 200.82447
L 347.790467 203.704139
L 350.715283 207.307162
L 354.615037 212.503829
L 364.039443 225.239435
L 367.289238 229.165882
L 369.889075 231.981121
L 372.163931 234.158785
L 374.438788 236.037266
L 376.388665 237.390393
L 378.338542 238.493711
L 380.288419 239.339005
L 382.238296 239.921641
L 384.188174 240.240548
L 386.138051 240.298148
L 388.087928 240.100251
L 390.037805 239.655905
L 391.987682 238.977212
L 393.937559 238.079099
L 396.212416 236.777459
L 398.487273 235.232773
L 398.487273 235.232773
" clip-path="url(#p83c3127efc)" style="fill: none; stroke-dasharray: 5.55,2.4; stroke-dashoffset: 0; stroke: #ff7f0e; stroke-width: 1.5"/>
   </g>
   <g id="patch_3">
    <path d="M 57.6 307.584
L 57.6 41.472
" style="fill: none; stroke: #000000; stroke-width: 0.8; stroke-linejoin: miter; stroke-linecap: square"/>
   </g>
   <g id="patch_4">
    <path d="M 414.72 307.584
L 414.72 41.472
" style="fill: none; stroke: #000000; stroke-width: 0.8; stroke-linejoin: miter; stroke-linecap: square"/>
   </g>
   <g id="patch_5">
    <path d="M 57.6 307.584
L 414.72 307.584
" style="fill: none; stroke: #000000; stroke-width: 0.8; stroke-linejoin: miter; stroke-linecap: square"/>
   </g>
   <g id="patch_6">
    <path d="M 57.6 41.472
L 414.72 41.472
" style="fill: none; stroke: #000000; stroke-width: 0.8; stroke-linejoin: miter; stroke-linecap: square"/>
   </g>
   <g id="legend_1">
    <g id="patch_7">
     <path d="M 300.05125 78.82825
L 407.72 78.82825
Q 409.72 78.82825 409.72 76.82825
L 409.72 48.472
Q 409.72 46.472 407.72 46.472
L 300.05125 46.472
Q 298.05125 46.472 298.05125 48.472
L 298.05125 76.82825
Q 298.05125 78.82825 300.05125 78.82825
z
" style="fill: #ffffff; opacity: 0.8; stroke: #cccccc; stroke-linejoin: miter"/>
    </g>
    <g id="line2d_20">
     <path d="M 302.05125 54.570437
L 312.05125 54.570437
L 322.05125 54.570437
" style="fill: none; stroke: #1f77b4; stroke-width: 1.5; stroke-linecap: square"/>
    </g>
    <g id="text_18">
     <!-- f(x) = sin(x) / x -->
     <g transform="translate(330.05125 58.070437)scale(0.1 -0.1)">
      <defs>
       <path id="DejaVuSans-66" d="M 2375 4863
L 2375 4384
L 1825 4384
Q 1516 4384 1395 4259
Q 1275 4134 1275 3809
L 1275 3500
L 2222 3500
L 2222 3053
L 1275 3053
L 1275 0
L 697 0
L 697 3053
L 147 3053
L 147 3500
L 697 3500
L 697 3744
Q 697 4328 969 4595
Q 1241 4863 1831 4863
L 2375 4863
z
" transform="scale(0.015625)"/>
       <path id="DejaVuSans-28" d="M 1984 4856
Q 1566 4138 1362 3434
Q 1159 2731 1159 2009
Q 1159 1288 1364 580
Q 1569 -128 1984 -844
L 1484 -844
Q 1016 -109 783 600
Q 550 1309 550 2009
Q 550 2706 781 3412
Q 1013 4119 1484 4856
L 1984 4856
z
" transform="scale(0.015625)"/>
       <path id="DejaVuSans-78" d="M 3513 3500
L 2247 1797
L 3578 0
L 2900 0
L 1881 1375
L 863 0
L 184 0
L 1544 1831
L 300 3500
L 978 3500
L 1906 2253
L 2834 3500
L 3513 3500
z
" transform="scale(0.015625)"/>
       <path id="DejaVuSans-29" d="M 513 4856
L 1013 4856
Q 1481 4119 1714 3412
Q 1947 2706 1947 2009
Q 1947 1309 1714 600
Q 1481 -109 1013 -844
L 513 -844
Q 928 -128 1133 580
Q 1338 1288 1338 2009
Q 1338 2731 1133 3434
Q 928 4138 513 4856
z
" transform="scale(0.015625)"/>
       <path id="DejaVuSans-20" transform="scale(0.015625)"/>
       <path id="DejaVuSans-3d" d="M 678 2906
L 4684 2906
L 4684 2381
L 678 2381
L 678 2906
z
M 678 1631
L 4684 1631
L 4684 1100
L 678 1100
L 678 1631
z
" transform="scale(0.015625)"/>
       <path id="DejaVuSans-73" d="M 2834 3397
L 2834 2853
Q 2591 2978 2328 3040
Q 2066 3103 1784 3103
Q 1356 3103 1142 2972
Q 928 2841 928 2578
Q 928 2378 1081 2264
Q 1234 2150 1697 2047
L 1894 2003
Q 2506 1872 2764 1633
Q 3022 1394 3022 966
Q 3022 478 2636 193
Q 2250 -91 1575 -91
Q 1294 -91 989 -36
Q 684 19 347 128
L 347 722
Q 666 556 975 473
Q 1284 391 1588 391
Q 1994 391 2212 530
Q 2431 669 2431 922
Q 2431 1156 2273 1281
Q 2116 1406 1581 1522
L 1381 1569
Q 847 1681 609 1914
Q 372 2147 372 2553
Q 372 3047 722 3315
Q 1072 3584 1716 3584
Q 2034 3584 2315 3537
Q 2597 3491 2834 3397
z
" transform="scale(0.015625)"/>
       <path id="DejaVuSans-69" d="M 603 3500
L 1178 3500
L 1178 0
L 603 0
L 603 3500
z
M 603 4863
L 1178 4863
L 1178 4134
L 603 4134
L 603 4863
z
" transform="scale(0.015625)"/>
       <path id="DejaVuSans-6e" d="M 3513 2113
L 3513 0
L 2938 0
L 2938 2094
Q 2938 2591 2744 2837
Q 2550 3084 2163 3084
Q 1697 3084 1428 2787
Q 1159 2491 1159 1978
L 1159 0
L 581 0
L 581 3500
L 1159 3500
L 1159 2956
Q 1366 3272 1645 3428
Q 1925 3584 2291 3584
Q 2894 3584 3203 3211
Q 3513 2838 3513 2113
z
" transform="scale(0.015625)"/>
       <path id="DejaVuSans-2f" d="M 1625 4666
L 2156 4666
L 531 -594
L 0 -594
L 1625 4666
z
" transform="scale(0.015625)"/>
      </defs>
      <use xlink:href="#DejaVuSans-66"/>
      <use xlink:href="#DejaVuSans-28" x="35.205078"/>
      <use xlink:href="#DejaVuSans-78" x="74.21875"/>
      <use xlink:href="#DejaVuSans-29" x="133.398438"/>
      <use xlink:href="#DejaVuSans-20" x="172.412109"/>
      <use xlink:href="#DejaVuSans-3d" x="204.199219"/>
      <use xlink:href="#DejaVuSans-20" x="287.988281"/>
      <use xlink:href="#DejaVuSans-73" x="319.775391"/>
      <use xlink:href="#DejaVuSans-69" x="371.875"/>
      <use xlink:href="#DejaVuSans-6e" x="399.658203"/>
      <use xlink:href="#DejaVuSans-28" x="463.037109"/>
      <use xlink:href="#DejaVuSans-78" x="502.050781"/>
      <use xlink:href="#DejaVuSans-29" x="561.230469"/>
      <use xlink:href="#DejaVuSans-20" x="600.244141"/>
      <use xlink:href="#DejaVuSans-2f" x="632.03125"/>
      <use xlink:href="#DejaVuSans-20" x="665.722656"/>
      <use xlink:href="#DejaVuSans-78" x="697.509766"/>
     </g>
    </g>
    <g id="line2d_21">
     <path d="M 302.05125 69.248562
L 312.05125 69.248562
L 322.05125 69.248562
" style="fill: none; stroke-dasharray: 5.55,2.4; stroke-dashoffset: 0; stroke: #ff7f0e; stroke-width: 1.5"/>
    </g>
    <g id="text_19">
     <!-- f'(x) -->
     <g transform="translate(330.05125 72.748562)scale(0.1 -0.1)">
      <defs>
       <path id="DejaVuSans-27" d="M 1147 4666
L 1147 2931
L 616 2931
L 616 4666
L 1147 4666
z
" transform="scale(0.015625)"/>
      </defs>
      <use xlink:href="#DejaVuSans-66"/>
      <use xlink:href="#DejaVuSans-27" x="35.205078"/>
      <use xlink:href="#DejaVuSans-28" x="62.695312"/>
      <use xlink:href="#DejaVuSans-78" x="101.708984"/>
      <use xlink:href="#DejaVuSans-29" x="160.888672"/>
     </g>
    </g>
   </g>
  </g>
 </g>
 <defs>
  <clipPath id="p83c3127efc">
   <rect x="57.6" y="41.472" width="357.12" height="266.112"/>
  </clipPath>
 </defs>
</svg>
