<?xml version="1.0" encoding="utf-8" standalone="no"?>
<!DOCTYPE svg PUBLIC "-//W3C//DTD SVG 1.1//EN"
  "http://www.w3.org/Graphics/SVG/1.1/DTD/svg11.dtd">
<svg xmlns:xlink="http://www.w3.org/1999/xlink" width="460.8pt" height="345.6pt" viewBox="0 0 460.8 345.6" xmlns="http://www.w3.org/2000/svg" version="1.1">
 <metadata>
  <rdf:RDF xmlns:dc="http://purl.org/dc/elements/1.1/" xmlns:cc="http://creativecommons.org/ns#" xmlns:rdf="http://www.w3.org/1999/02/22-rdf-syntax-ns#">
   <cc:Work>
    <dc:type rdf:resource="http://purl.org/dc/dcmitype/StillImage"/>
    <dc:date>2022-09-15T20:44:30.912442</dc:date>
    <dc:format>image/svg+xml</dc:format>
    <dc:creator>
     <cc:Agent>
      <dc:title>Matplotlib v3.5.3, https://matplotlib.org/</dc:title>
     </cc:Agent>
    </dc:creator>
   </cc:Work>
  </rdf:RDF>
 </metadata>
 <defs>
  <style type="text/css">*{stroke-linejoin: round; stroke-linecap: butt}</style>
 </defs>
 <g id="figure_1">
  <g id="patch_1">
   <path d="M 0 345.6
L 460.8 345.6
L 460.8 0
L 0 0
z
" style="fill: #ffffff"/>
  </g>
  <g id="axes_1">
   <g id="patch_2">
    <path d="M 57.6 307.584
L 414.72 307.584
L 414.72 41.472
L 57.6 41.472
z
" style="fill: #ffffff"/>
   </g>
   <g id="PolyCollection_1">
    <path d="M 73.832727 153.565769
L 73.832727 157.12039
L 75.464157 155.728812
L 77.095587 154.129488
L 78.727017 154.052906
L 80.358447 153.947884
L 81.989877 153.217322
L 83.621307 152.261182
L 85.252736 152.41534
L 86.884166 153.180634
L 88.515596 152.73211
L 90.147026 153.27028
L 91.778456 153.670778
L 93.409886 155.101719
L 95.041316 155.338497
L 96.672746 156.144482
L 98.304175 157.656056
L 99.935605 157.305102
L 101.567035 160.582972
L 103.198465 159.500522
L 104.829895 163.666195
L 106.461325 162.52348
L 108.092755 162.666283
L 109.724185 165.640513
L 111.355614 174.729959
L 112.987044 166.024087
L 114.618474 167.576546
L 116.249904 177.949619
L 117.881334 170.894652
L 119.512764 175.955368
L 121.144194 177.156047
L 122.775624 175.695826
L 124.407053 177.321872
L 126.038483 177.609254
L 127.669913 178.524008
L 129.301343 181.252941
L 130.932773 180.243874
L 132.564203 181.204317
L 134.195633 181.707756
L 135.827063 182.248813
L 137.458492 182.710249
L 139.089922 188.124923
L 140.721352 182.56131
L 142.352782 182.968061
L 143.984212 185.319366
L 145.615642 183.401331
L 147.247072 183.488967
L 148.878502 180.894658
L 150.509931 198.229589
L 152.141361 181.277483
L 153.772791 184.077551
L 155.404221 175.608754
L 157.035651 173.736446
L 158.667081 177.181391
L 160.298511 168.483503
L 161.929941 166.862513
L 163.56137 166.740399
L 165.1928 162.671743
L 166.82423 164.50485
L 168.45566 158.721507
L 170.08709 154.115107
L 171.71852 151.256023
L 173.34995 149.609725
L 174.98138 147.861389
L 176.61281 142.408025
L 178.244239 140.493103
L 179.875669 138.891059
L 181.507099 134.814758
L 183.138529 133.872082
L 184.769959 129.414969
L 186.401389 127.934952
L 188.032819 125.662566
L 189.664249 126.565232
L 191.295678 122.789717
L 192.927108 128.220507
L 194.558538 124.89456
L 196.189968 125.641295
L 197.821398 119.310336
L 199.452828 121.485301
L 201.084258 118.730094
L 202.715688 126.820904
L 204.347117 125.891269
L 205.978547 132.45427
L 207.609977 128.157269
L 209.241407 118.315288
L 210.872837 145.80449
L 212.504267 127.666937
L 214.135697 132.76922
L 215.767127 129.57294
L 217.398556 152.53578
L 219.029986 142.847773
L 220.661416 142.794772
L 222.292846 170.719403
L 223.924276 150.027761
L 225.555706 144.990127
L 227.187136 148.527647
L 228.818566 163.14816
L 230.449995 176.751664
L 232.081425 155.736191
L 233.712855 163.950228
L 235.344285 172.238899
L 236.975715 186.686856
L 238.607145 177.926357
L 240.238575 180.537668
L 241.870005 194.345749
L 243.501434 183.649659
L 245.132864 191.519298
L 246.764294 208.712459
L 248.395724 295.488
L 250.027154 198.616842
L 251.658584 206.764523
L 253.290014 238.949554
L 254.921444 205.741644
L 256.552873 232.492636
L 258.184303 267.97317
L 259.815733 207.469401
L 261.447163 217.385694
L 263.078593 227.510741
L 264.710023 223.785764
L 266.341453 227.551499
L 267.972883 216.917153
L 269.604312 230.726871
L 271.235742 216.768916
L 272.867172 218.432502
L 274.498602 213.696243
L 276.130032 235.399759
L 277.761462 214.538962
L 279.392892 208.552699
L 281.024322 209.829437
L 282.655751 207.030017
L 284.287181 203.456852
L 285.918611 201.095143
L 287.550041 198.644412
L 289.181471 198.032489
L 290.812901 194.627515
L 292.444331 202.30955
L 294.075761 193.65853
L 295.70719 188.752906
L 297.33862 186.982228
L 298.97005 192.701501
L 300.60148 194.947744
L 302.23291 177.127344
L 303.86434 184.410307
L 305.49577 171.612829
L 307.1272 168.791325
L 308.75863 167.452314
L 310.390059 164.071546
L 312.021489 166.828252
L 313.652919 161.433428
L 315.284349 156.391083
L 316.915779 156.108831
L 318.547209 152.722022
L 320.178639 158.032817
L 321.810069 151.501356
L 323.441498 153.154201
L 325.072928 155.86438
L 326.704358 158.932495
L 328.335788 147.231451
L 329.967218 151.940127
L 331.598648 147.556265
L 333.230078 146.802636
L 334.861508 146.106225
L 336.492937 146.092527
L 338.124367 146.448481
L 339.755797 147.281232
L 341.387227 150.279959
L 343.018657 150.686067
L 344.650087 151.282013
L 346.281517 151.339052
L 347.912947 152.519663
L 349.544376 154.457801
L 351.175806 155.16635
L 352.807236 160.265221
L 354.438666 161.112425
L 356.070096 168.096219
L 357.701526 161.108365
L 359.332956 162.07027
L 360.964386 163.699723
L 362.595815 167.431444
L 364.227245 172.245537
L 365.858675 169.702062
L 367.490105 172.449869
L 369.121535 171.529115
L 370.752965 171.77467
L 372.384395 173.492618
L 374.015825 175.146049
L 375.647254 175.677762
L 377.278684 176.210935
L 378.910114 177.079968
L 380.541544 175.618677
L 382.172974 176.741291
L 383.804404 176.155391
L 385.435834 177.177467
L 387.067264 176.405438
L 388.698693 175.838018
L 390.330123 175.67287
L 391.961553 176.213815
L 393.592983 174.679895
L 395.224413 174.279114
L 396.855843 176.176297
L 398.487273 174.460251
L 398.487273 170.90563
L 398.487273 170.90563
L 396.855843 170.673253
L 395.224413 173.896532
L 393.592983 174.648147
L 391.961553 174.078136
L 390.330123 175.381225
L 388.698693 175.764838
L 387.067264 175.522971
L 385.435834 174.845386
L 383.804404 175.72492
L 382.172974 174.75574
L 380.541544 175.252776
L 378.910114 172.924301
L 377.278684 172.687523
L 375.647254 171.881538
L 374.015825 170.848326
L 372.384395 170.720918
L 370.752965 170.454198
L 369.121535 168.525498
L 367.490105 165.257224
L 365.858675 165.50254
L 364.227245 160.321738
L 362.595815 162.385507
L 360.964386 163.277289
L 359.332956 162.001933
L 357.701526 160.020078
L 356.070096 150.076401
L 354.438666 154.119949
L 352.807236 152.070652
L 351.175806 154.345225
L 349.544376 152.330194
L 347.912947 151.673786
L 346.281517 150.416766
L 344.650087 148.220282
L 343.018657 146.773079
L 341.387227 145.371504
L 339.755797 146.821703
L 338.124367 146.387139
L 336.492937 145.777207
L 334.861508 145.117216
L 333.230078 144.110035
L 331.598648 143.394679
L 329.967218 139.409093
L 328.335788 144.884304
L 326.704358 134.323499
L 325.072928 138.908096
L 323.441498 143.510557
L 321.810069 147.428017
L 320.178639 143.526994
L 318.547209 151.824488
L 316.915779 151.768061
L 315.284349 155.144329
L 313.652919 154.070208
L 312.021489 152.932084
L 310.390059 160.21008
L 308.75863 161.588784
L 307.1272 165.218678
L 305.49577 167.544602
L 303.86434 160.040222
L 302.23291 172.727384
L 300.60148 160.386241
L 298.97005 168.149543
L 297.33862 179.385477
L 295.70719 183.092202
L 294.075761 183.585491
L 292.444331 180.215586
L 290.812901 193.021855
L 289.181471 194.545668
L 287.550041 198.629346
L 285.918611 200.604405
L 284.287181 202.363454
L 282.655751 202.572481
L 281.024322 203.185105
L 279.392892 207.474368
L 277.761462 204.074193
L 276.130032 185.348804
L 274.498602 208.715684
L 272.867172 205.152447
L 271.235742 207.483639
L 269.604312 193.676165
L 267.972883 207.111005
L 266.341453 195.57175
L 264.710023 197.901495
L 263.078593 192.212054
L 261.447163 199.850426
L 259.815733 206.767732
L 258.184303 142.766146
L 256.552873 174.267022
L 254.921444 196.5769
L 253.290014 158.490072
L 251.658584 185.385142
L 250.027154 187.861504
L 248.395724 84.970077
L 246.764294 165.411302
L 245.132864 175.993256
L 243.501434 177.013936
L 241.870005 159.271984
L 240.238575 165.879566
L 238.607145 161.179121
L 236.975715 145.039787
L 235.344285 152.086497
L 233.712855 152.996335
L 232.081425 153.898615
L 230.449995 125.682643
L 228.818566 132.240285
L 227.187136 140.011839
L 225.555706 136.938152
L 223.924276 125.566202
L 222.292846 98.854291
L 220.661416 121.107603
L 219.029986 115.76464
L 217.398556 101.197715
L 215.767127 119.719441
L 214.135697 112.543503
L 212.504267 114.14797
L 210.872837 93.01143
L 209.241407 118.013957
L 207.609977 106.207512
L 205.978547 100.474521
L 204.347117 106.132614
L 202.715688 104.8281
L 201.084258 113.06939
L 199.452828 110.98179
L 197.821398 114.329777
L 196.189968 109.662182
L 194.558538 112.544325
L 192.927108 111.804466
L 191.295678 120.247781
L 189.664249 119.88431
L 188.032819 124.569168
L 186.401389 126.417539
L 184.769959 129.363313
L 183.138529 129.601801
L 181.507099 133.587913
L 179.875669 134.635845
L 178.244239 138.314916
L 176.61281 141.798907
L 174.98138 141.822946
L 173.34995 145.591271
L 171.71852 149.462032
L 170.08709 152.082204
L 168.45566 152.880004
L 166.82423 152.38976
L 165.1928 159.370294
L 163.56137 160.270542
L 161.929941 164.907902
L 160.298511 167.808201
L 158.667081 163.367013
L 157.035651 170.780181
L 155.404221 172.566394
L 153.772791 167.427979
L 152.141361 173.214746
L 150.509931 158.893077
L 148.878502 178.492625
L 147.247072 177.790597
L 145.615642 179.394715
L 143.984212 178.61692
L 142.352782 181.734759
L 140.721352 182.539786
L 139.089922 177.014446
L 137.458492 182.11835
L 135.827063 181.933493
L 134.195633 181.508663
L 132.564203 180.744788
L 130.932773 180.156703
L 129.301343 177.339953
L 127.669913 178.025737
L 126.038483 176.686968
L 124.407053 174.536719
L 122.775624 173.568219
L 121.144194 169.384417
L 119.512764 167.760799
L 117.881334 169.925014
L 116.249904 159.929801
L 114.618474 167.347051
L 112.987044 165.95575
L 111.355614 154.345069
L 109.724185 160.594576
L 108.092755 160.818483
L 106.461325 158.323958
L 104.829895 154.678751
L 103.198465 156.496905
L 101.567035 153.2402
L 99.935605 154.533402
L 98.304175 152.401609
L 96.672746 152.348258
L 95.041316 151.815085
L 93.409886 150.946052
L 91.778456 151.509809
L 90.147026 151.284729
L 88.515596 151.439619
L 86.884166 150.848553
L 85.252736 151.70829
L 83.621307 152.188002
L 81.989877 151.780622
L 80.358447 151.812205
L 78.727017 152.671092
L 77.095587 153.746906
L 75.464157 153.473678
L 73.832727 153.565769
z
" clip-path="url(#p925c437248)" style="fill: #1f77b4; fill-opacity: 0.5"/>
   </g>
   <g id="matplotlib.axis_1">
    <g id="xtick_1">
     <g id="line2d_1">
      <defs>
       <path id="m0570a71bb0" d="M 0 0
L 0 3.5
" style="stroke: #000000; stroke-width: 0.8"/>
      </defs>
      <g>
       <use xlink:href="#m0570a71bb0" x="73.832727" y="307.584" style="stroke: #000000; stroke-width: 0.8"/>
      </g>
     </g>
     <g id="text_1">
      <!-- −10.0 -->
      <g transform="translate(58.510071 322.182437)scale(0.1 -0.1)">
       <defs>
        <path id="DejaVuSans-2212" d="M 678 2272
L 4684 2272
L 4684 1741
L 678 1741
L 678 2272
z
" transform="scale(0.015625)"/>
        <path id="DejaVuSans-31" d="M 794 531
L 1825 531
L 1825 4091
L 703 3866
L 703 4441
L 1819 4666
L 2450 4666
L 2450 531
L 3481 531
L 3481 0
L 794 0
L 794 531
z
" transform="scale(0.015625)"/>
        <path id="DejaVuSans-30" d="M 2034 4250
Q 1547 4250 1301 3770
Q 1056 3291 1056 2328
Q 1056 1369 1301 889
Q 1547 409 2034 409
Q 2525 409 2770 889
Q 3016 1369 3016 2328
Q 3016 3291 2770 3770
Q 2525 4250 2034 4250
z
M 2034 4750
Q 2819 4750 3233 4129
Q 3647 3509 3647 2328
Q 3647 1150 3233 529
Q 2819 -91 2034 -91
Q 1250 -91 836 529
Q 422 1150 422 2328
Q 422 3509 836 4129
Q 1250 4750 2034 4750
z
" transform="scale(0.015625)"/>
        <path id="DejaVuSans-2e" d="M 684 794
L 1344 794
L 1344 0
L 684 0
L 684 794
z
" transform="scale(0.015625)"/>
       </defs>
       <use xlink:href="#DejaVuSans-2212"/>
       <use xlink:href="#DejaVuSans-31" x="83.789062"/>
       <use xlink:href="#DejaVuSans-30" x="147.412109"/>
       <use xlink:href="#DejaVuSans-2e" x="211.035156"/>
       <use xlink:href="#DejaVuSans-30" x="242.822266"/>
      </g>
     </g>
    </g>
    <g id="xtick_2">
     <g id="line2d_2">
      <g>
       <use xlink:href="#m0570a71bb0" x="114.414545" y="307.584" style="stroke: #000000; stroke-width: 0.8"/>
      </g>
     </g>
     <g id="text_2">
      <!-- −7.5 -->
      <g transform="translate(102.273139 322.182437)scale(0.1 -0.1)">
       <defs>
        <path id="DejaVuSans-37" d="M 525 4666
L 3525 4666
L 3525 4397
L 1831 0
L 1172 0
L 2766 4134
L 525 4134
L 525 4666
z
" transform="scale(0.015625)"/>
        <path id="DejaVuSans-35" d="M 691 4666
L 3169 4666
L 3169 4134
L 1269 4134
L 1269 2991
Q 1406 3038 1543 3061
Q 1681 3084 1819 3084
Q 2600 3084 3056 2656
Q 3513 2228 3513 1497
Q 3513 744 3044 326
Q 2575 -91 1722 -91
Q 1428 -91 1123 -41
Q 819 9 494 109
L 494 744
Q 775 591 1075 516
Q 1375 441 1709 441
Q 2250 441 2565 725
Q 2881 1009 2881 1497
Q 2881 1984 2565 2268
Q 2250 2553 1709 2553
Q 1456 2553 1204 2497
Q 953 2441 691 2322
L 691 4666
z
" transform="scale(0.015625)"/>
       </defs>
       <use xlink:href="#DejaVuSans-2212"/>
       <use xlink:href="#DejaVuSans-37" x="83.789062"/>
       <use xlink:href="#DejaVuSans-2e" x="147.412109"/>
       <use xlink:href="#DejaVuSans-35" x="179.199219"/>
      </g>
     </g>
    </g>
    <g id="xtick_3">
     <g id="line2d_3">
      <g>
       <use xlink:href="#m0570a71bb0" x="154.996364" y="307.584" style="stroke: #000000; stroke-width: 0.8"/>
      </g>
     </g>
     <g id="text_3">
      <!-- −5.0 -->
      <g transform="translate(142.854957 322.182437)scale(0.1 -0.1)">
       <use xlink:href="#DejaVuSans-2212"/>
       <use xlink:href="#DejaVuSans-35" x="83.789062"/>
       <use xlink:href="#DejaVuSans-2e" x="147.412109"/>
       <use xlink:href="#DejaVuSans-30" x="179.199219"/>
      </g>
     </g>
    </g>
    <g id="xtick_4">
     <g id="line2d_4">
      <g>
       <use xlink:href="#m0570a71bb0" x="195.578182" y="307.584" style="stroke: #000000; stroke-width: 0.8"/>
      </g>
     </g>
     <g id="text_4">
      <!-- −2.5 -->
      <g transform="translate(183.436776 322.182437)scale(0.1 -0.1)">
       <defs>
        <path id="DejaVuSans-32" d="M 1228 531
L 3431 531
L 3431 0
L 469 0
L 469 531
Q 828 903 1448 1529
Q 2069 2156 2228 2338
Q 2531 2678 2651 2914
Q 2772 3150 2772 3378
Q 2772 3750 2511 3984
Q 2250 4219 1831 4219
Q 1534 4219 1204 4116
Q 875 4013 500 3803
L 500 4441
Q 881 4594 1212 4672
Q 1544 4750 1819 4750
Q 2544 4750 2975 4387
Q 3406 4025 3406 3419
Q 3406 3131 3298 2873
Q 3191 2616 2906 2266
Q 2828 2175 2409 1742
Q 1991 1309 1228 531
z
" transform="scale(0.015625)"/>
       </defs>
       <use xlink:href="#DejaVuSans-2212"/>
       <use xlink:href="#DejaVuSans-32" x="83.789062"/>
       <use xlink:href="#DejaVuSans-2e" x="147.412109"/>
       <use xlink:href="#DejaVuSans-35" x="179.199219"/>
      </g>
     </g>
    </g>
    <g id="xtick_5">
     <g id="line2d_5">
      <g>
       <use xlink:href="#m0570a71bb0" x="236.16" y="307.584" style="stroke: #000000; stroke-width: 0.8"/>
      </g>
     </g>
     <g id="text_5">
      <!-- 0.0 -->
      <g transform="translate(228.208438 322.182437)scale(0.1 -0.1)">
       <use xlink:href="#DejaVuSans-30"/>
       <use xlink:href="#DejaVuSans-2e" x="63.623047"/>
       <use xlink:href="#DejaVuSans-30" x="95.410156"/>
      </g>
     </g>
    </g>
    <g id="xtick_6">
     <g id="line2d_6">
      <g>
       <use xlink:href="#m0570a71bb0" x="276.741818" y="307.584" style="stroke: #000000; stroke-width: 0.8"/>
      </g>
     </g>
     <g id="text_6">
      <!-- 2.5 -->
      <g transform="translate(268.790256 322.182437)scale(0.1 -0.1)">
       <use xlink:href="#DejaVuSans-32"/>
       <use xlink:href="#DejaVuSans-2e" x="63.623047"/>
       <use xlink:href="#DejaVuSans-35" x="95.410156"/>
      </g>
     </g>
    </g>
    <g id="xtick_7">
     <g id="line2d_7">
      <g>
       <use xlink:href="#m0570a71bb0" x="317.323636" y="307.584" style="stroke: #000000; stroke-width: 0.8"/>
      </g>
     </g>
     <g id="text_7">
      <!-- 5.0 -->
      <g transform="translate(309.372074 322.182437)scale(0.1 -0.1)">
       <use xlink:href="#DejaVuSans-35"/>
       <use xlink:href="#DejaVuSans-2e" x="63.623047"/>
       <use xlink:href="#DejaVuSans-30" x="95.410156"/>
      </g>
     </g>
    </g>
    <g id="xtick_8">
     <g id="line2d_8">
      <g>
       <use xlink:href="#m0570a71bb0" x="357.905455" y="307.584" style="stroke: #000000; stroke-width: 0.8"/>
      </g>
     </g>
     <g id="text_8">
      <!-- 7.5 -->
      <g transform="translate(349.953892 322.182437)scale(0.1 -0.1)">
       <use xlink:href="#DejaVuSans-37"/>
       <use xlink:href="#DejaVuSans-2e" x="63.623047"/>
       <use xlink:href="#DejaVuSans-35" x="95.410156"/>
      </g>
     </g>
    </g>
    <g id="xtick_9">
     <g id="line2d_9">
      <g>
       <use xlink:href="#m0570a71bb0" x="398.487273" y="307.584" style="stroke: #000000; stroke-width: 0.8"/>
      </g>
     </g>
     <g id="text_9">
      <!-- 10.0 -->
      <g transform="translate(387.35446 322.182437)scale(0.1 -0.1)">
       <use xlink:href="#DejaVuSans-31"/>
       <use xlink:href="#DejaVuSans-30" x="63.623047"/>
       <use xlink:href="#DejaVuSans-2e" x="127.246094"/>
       <use xlink:href="#DejaVuSans-30" x="159.033203"/>
      </g>
     </g>
    </g>
   </g>
   <g id="matplotlib.axis_2">
    <g id="ytick_1">
     <g id="line2d_10">
      <defs>
       <path id="m5a05edff33" d="M 0 0
L -3.5 0
" style="stroke: #000000; stroke-width: 0.8"/>
      </defs>
      <g>
       <use xlink:href="#m5a05edff33" x="57.6" y="274.504516" style="stroke: #000000; stroke-width: 0.8"/>
      </g>
     </g>
     <g id="text_10">
      <!-- −1.0 -->
      <g transform="translate(26.317187 278.303735)scale(0.1 -0.1)">
       <use xlink:href="#DejaVuSans-2212"/>
       <use xlink:href="#DejaVuSans-31" x="83.789062"/>
       <use xlink:href="#DejaVuSans-2e" x="147.412109"/>
       <use xlink:href="#DejaVuSans-30" x="179.199219"/>
      </g>
     </g>
    </g>
    <g id="ytick_2">
     <g id="line2d_11">
      <g>
       <use xlink:href="#m5a05edff33" x="57.6" y="219.258763" style="stroke: #000000; stroke-width: 0.8"/>
      </g>
     </g>
     <g id="text_11">
      <!-- −0.5 -->
      <g transform="translate(26.317187 223.057982)scale(0.1 -0.1)">
       <use xlink:href="#DejaVuSans-2212"/>
       <use xlink:href="#DejaVuSans-30" x="83.789062"/>
       <use xlink:href="#DejaVuSans-2e" x="147.412109"/>
       <use xlink:href="#DejaVuSans-35" x="179.199219"/>
      </g>
     </g>
    </g>
    <g id="ytick_3">
     <g id="line2d_12">
      <g>
       <use xlink:href="#m5a05edff33" x="57.6" y="164.01301" style="stroke: #000000; stroke-width: 0.8"/>
      </g>
     </g>
     <g id="text_12">
      <!-- 0.0 -->
      <g transform="translate(34.696875 167.812229)scale(0.1 -0.1)">
       <use xlink:href="#DejaVuSans-30"/>
       <use xlink:href="#DejaVuSans-2e" x="63.623047"/>
       <use xlink:href="#DejaVuSans-30" x="95.410156"/>
      </g>
     </g>
    </g>
    <g id="ytick_4">
     <g id="line2d_13">
      <g>
       <use xlink:href="#m5a05edff33" x="57.6" y="108.767257" style="stroke: #000000; stroke-width: 0.8"/>
      </g>
     </g>
     <g id="text_13">
      <!-- 0.5 -->
      <g transform="translate(34.696875 112.566476)scale(0.1 -0.1)">
       <use xlink:href="#DejaVuSans-30"/>
       <use xlink:href="#DejaVuSans-2e" x="63.623047"/>
       <use xlink:href="#DejaVuSans-35" x="95.410156"/>
      </g>
     </g>
    </g>
    <g id="ytick_5">
     <g id="line2d_14">
      <g>
       <use xlink:href="#m5a05edff33" x="57.6" y="53.521504" style="stroke: #000000; stroke-width: 0.8"/>
      </g>
     </g>
     <g id="text_14">
      <!-- 1.0 -->
      <g transform="translate(34.696875 57.320723)scale(0.1 -0.1)">
       <use xlink:href="#DejaVuSans-31"/>
       <use xlink:href="#DejaVuSans-2e" x="63.623047"/>
       <use xlink:href="#DejaVuSans-30" x="95.410156"/>
      </g>
     </g>
    </g>
   </g>
   <g id="line2d_15">
    <path d="M 73.832727 170.023981
L 77.095587 168.134809
L 80.358447 165.997061
L 85.252736 162.492358
L 93.409886 156.602521
L 96.672746 154.508698
L 99.935605 152.706451
L 103.198465 151.282206
L 104.829895 150.736049
L 106.461325 150.311831
L 108.092755 150.016843
L 109.724185 149.857317
L 111.355614 149.838351
L 112.987044 149.963832
L 114.618474 150.236373
L 116.249904 150.657259
L 117.881334 151.226404
L 119.512764 151.94232
L 121.144194 152.802094
L 122.775624 153.801381
L 126.038483 156.193985
L 129.301343 159.057167
L 132.564203 162.306549
L 137.458492 167.672733
L 145.615642 176.85427
L 148.878502 180.190038
L 152.141361 183.108195
L 153.772791 184.36458
L 155.404221 185.462186
L 157.035651 186.38412
L 158.667081 187.114344
L 160.298511 187.637818
L 161.929941 187.940633
L 163.56137 188.010148
L 165.1928 187.835106
L 166.82423 187.405751
L 168.45566 186.71393
L 170.08709 185.753185
L 171.71852 184.518832
L 173.34995 183.008032
L 174.98138 181.219841
L 176.61281 179.155254
L 178.244239 176.817227
L 179.875669 174.210694
L 181.507099 171.342557
L 183.138529 168.221672
L 186.401389 161.266621
L 189.664249 153.453771
L 192.927108 144.918905
L 196.189968 135.822221
L 202.715688 116.682071
L 209.241407 97.638159
L 212.504267 88.680904
L 215.767127 80.376083
L 219.029986 72.916832
L 220.661416 69.559964
L 222.292846 66.478634
L 223.924276 63.691205
L 225.555706 61.214343
L 227.187136 59.062905
L 228.818566 57.24983
L 230.449995 55.786046
L 232.081425 54.680389
L 233.712855 53.939546
L 235.344285 53.568
L 236.975715 53.568
L 238.607145 53.939546
L 240.238575 54.680389
L 241.870005 55.786046
L 243.501434 57.24983
L 245.132864 59.062905
L 246.764294 61.214343
L 248.395724 63.691205
L 250.027154 66.478634
L 251.658584 69.559964
L 253.290014 72.916832
L 256.552873 80.376083
L 259.815733 88.680904
L 263.078593 97.638159
L 267.972883 111.846211
L 276.130032 135.822221
L 279.392892 144.918905
L 282.655751 153.453771
L 285.918611 161.266621
L 289.181471 168.221672
L 290.812901 171.342557
L 292.444331 174.210694
L 294.075761 176.817227
L 295.70719 179.155254
L 297.33862 181.219841
L 298.97005 183.008032
L 300.60148 184.518832
L 302.23291 185.753185
L 303.86434 186.71393
L 305.49577 187.405751
L 307.1272 187.835106
L 308.75863 188.010148
L 310.390059 187.940633
L 312.021489 187.637818
L 313.652919 187.114344
L 315.284349 186.38412
L 316.915779 185.462186
L 318.547209 184.36458
L 320.178639 183.108195
L 323.441498 180.190038
L 326.704358 176.85427
L 331.598648 171.39687
L 338.124367 164.04429
L 341.387227 160.639646
L 344.650087 157.571544
L 347.912947 154.934407
L 351.175806 152.802094
L 352.807236 151.94232
L 354.438666 151.226404
L 356.070096 150.657259
L 357.701526 150.236373
L 359.332956 149.963832
L 360.964386 149.838351
L 362.595815 149.857317
L 364.227245 150.016843
L 365.858675 150.311831
L 367.490105 150.736049
L 370.752965 151.942049
L 374.015825 153.56552
L 377.278684 155.52488
L 380.541544 157.729751
L 388.698693 163.686256
L 393.592983 167.092551
L 396.855843 169.114729
L 398.487273 170.023981
L 398.487273 170.023981
" clip-path="url(#p925c437248)" style="fill: none; stroke: #000000; stroke-width: 1.5; stroke-linecap: square"/>
   </g>
   <g id="line2d_16">
    <path d="M 73.832727 155.343079
L 77.095587 153.938197
L 80.358447 152.880045
L 83.621307 152.224592
L 85.252736 152.061815
L 86.884166 152.014594
L 88.515596 152.085864
L 90.147026 152.277505
L 91.778456 152.590293
L 93.409886 153.023885
L 96.672746 154.24637
L 99.935605 155.919252
L 103.198465 157.998714
L 106.461325 160.423719
L 109.724185 163.117544
L 116.249904 168.93971
L 121.144194 173.270232
L 124.407053 175.929296
L 127.669913 178.274872
L 130.932773 180.200289
L 132.564203 180.974553
L 134.195633 181.60821
L 135.827063 182.091153
L 137.458492 182.4143
L 139.089922 182.569685
L 140.721352 182.550548
L 142.352782 182.35141
L 143.984212 181.968143
L 145.615642 181.398023
L 147.247072 180.639782
L 148.878502 179.693641
L 150.509931 178.561333
L 152.141361 177.246115
L 153.772791 175.752765
L 155.404221 174.087574
L 158.667081 170.274202
L 161.929941 165.885207
L 165.1928 161.021019
L 170.08709 153.098656
L 179.875669 136.763452
L 183.138529 131.736942
L 186.401389 127.176246
L 189.664249 123.224771
L 191.295678 121.518749
L 192.927108 120.012487
L 194.558538 118.719442
L 196.189968 117.651739
L 197.821398 116.820056
L 199.452828 116.233546
L 201.084258 115.899742
L 202.715688 115.824502
L 204.347117 116.011941
L 205.978547 116.464396
L 207.609977 117.18239
L 209.241407 118.164623
L 210.872837 119.40796
L 212.504267 120.907454
L 214.135697 122.656362
L 215.767127 124.646191
L 217.398556 126.866748
L 219.029986 129.306207
L 222.292846 134.786847
L 225.555706 140.964139
L 228.818566 147.694223
L 233.712855 158.473281
L 241.870005 176.808866
L 245.132864 183.756277
L 248.395724 190.229038
L 251.658584 196.074832
L 254.921444 201.159272
L 256.552873 203.379829
L 258.184303 205.369658
L 259.815733 207.118566
L 261.447163 208.61806
L 263.078593 209.861397
L 264.710023 210.84363
L 266.341453 211.561624
L 267.972883 212.014079
L 269.604312 212.201518
L 271.235742 212.126278
L 272.867172 211.792474
L 274.498602 211.205964
L 276.130032 210.374281
L 277.761462 209.306578
L 279.392892 208.013533
L 281.024322 206.507271
L 282.655751 204.801249
L 285.918611 200.849774
L 289.181471 196.289078
L 292.444331 191.262568
L 297.33862 183.183852
L 305.49577 169.578715
L 308.75863 164.520549
L 312.021489 159.880168
L 315.284349 155.767706
L 318.547209 152.273255
L 320.178639 150.779905
L 321.810069 149.464687
L 323.441498 148.332379
L 325.072928 147.386238
L 326.704358 146.627997
L 328.335788 146.057877
L 329.967218 145.67461
L 331.598648 145.475472
L 333.230078 145.456335
L 334.861508 145.61172
L 336.492937 145.934867
L 338.124367 146.41781
L 339.755797 147.051467
L 341.387227 147.825731
L 344.650087 149.751148
L 347.912947 152.096724
L 351.175806 154.755788
L 356.070096 159.08631
L 362.595815 164.908476
L 365.858675 167.602301
L 369.121535 170.027306
L 372.384395 172.106768
L 375.647254 173.77965
L 378.910114 175.002135
L 380.541544 175.435727
L 382.172974 175.748515
L 383.804404 175.940156
L 385.435834 176.011426
L 387.067264 175.964205
L 390.330123 175.527048
L 393.592983 174.664021
L 396.855843 173.424775
L 398.487273 172.682941
L 398.487273 172.682941
" clip-path="url(#p925c437248)" style="fill: none; stroke: #1f77b4; stroke-width: 1.5; stroke-linecap: square"/>
   </g>
   <g id="patch_3">
    <path d="M 57.6 307.584
L 57.6 41.472
" style="fill: none; stroke: #000000; stroke-width: 0.8; stroke-linejoin: miter; stroke-linecap: square"/>
   </g>
   <g id="patch_4">
    <path d="M 414.72 307.584
L 414.72 41.472
" style="fill: none; stroke: #000000; stroke-width: 0.8; stroke-linejoin: miter; stroke-linecap: square"/>
   </g>
   <g id="patch_5">
    <path d="M 57.6 307.584
L 414.72 307.584
" style="fill: none; stroke: #000000; stroke-width: 0.8; stroke-linejoin: miter; stroke-linecap: square"/>
   </g>
   <g id="patch_6">
    <path d="M 57.6 41.472
L 414.72 41.472
" style="fill: none; stroke: #000000; stroke-width: 0.8; stroke-linejoin: miter; stroke-linecap: square"/>
   </g>
   <g id="legend_1">
    <g id="patch_7">
     <path d="M 64.6 302.584
L 227.7 302.584
Q 229.7 302.584 229.7 300.584
L 229.7 256.605875
Q 229.7 254.605875 227.7 254.605875
L 64.6 254.605875
Q 62.6 254.605875 62.6 256.605875
L 62.6 300.584
Q 62.6 302.584 64.6 302.584
z
" style="fill: #ffffff; opacity: 0.8; stroke: #cccccc; stroke-linejoin: miter"/>
    </g>
    <g id="line2d_17">
     <path d="M 66.6 262.704313
L 76.6 262.704313
L 86.6 262.704313
" style="fill: none; stroke: #000000; stroke-width: 1.5; stroke-linecap: square"/>
    </g>
    <g id="text_15">
     <!-- $f(x) = sin(x) / x$ -->
     <g transform="translate(94.6 266.204313)scale(0.1 -0.1)">
      <defs>
       <path id="DejaVuSans-Oblique-66" d="M 3059 4863
L 2969 4384
L 2419 4384
Q 2106 4384 1964 4261
Q 1822 4138 1753 3809
L 1691 3500
L 2638 3500
L 2553 3053
L 1606 3053
L 1013 0
L 434 0
L 1031 3053
L 481 3053
L 563 3500
L 1113 3500
L 1159 3744
Q 1278 4363 1576 4613
Q 1875 4863 2516 4863
L 3059 4863
z
" transform="scale(0.015625)"/>
       <path id="DejaVuSans-28" d="M 1984 4856
Q 1566 4138 1362 3434
Q 1159 2731 1159 2009
Q 1159 1288 1364 580
Q 1569 -128 1984 -844
L 1484 -844
Q 1016 -109 783 600
Q 550 1309 550 2009
Q 550 2706 781 3412
Q 1013 4119 1484 4856
L 1984 4856
z
" transform="scale(0.015625)"/>
       <path id="DejaVuSans-Oblique-78" d="M 3841 3500
L 2234 1784
L 3219 0
L 2559 0
L 1819 1388
L 531 0
L -166 0
L 1556 1844
L 641 3500
L 1300 3500
L 1972 2234
L 3144 3500
L 3841 3500
z
" transform="scale(0.015625)"/>
       <path id="DejaVuSans-29" d="M 513 4856
L 1013 4856
Q 1481 4119 1714 3412
Q 1947 2706 1947 2009
Q 1947 1309 1714 600
Q 1481 -109 1013 -844
L 513 -844
Q 928 -128 1133 580
Q 1338 1288 1338 2009
Q 1338 2731 1133 3434
Q 928 4138 513 4856
z
" transform="scale(0.015625)"/>
       <path id="DejaVuSans-3d" d="M 678 2906
L 4684 2906
L 4684 2381
L 678 2381
L 678 2906
z
M 678 1631
L 4684 1631
L 4684 1100
L 678 1100
L 678 1631
z
" transform="scale(0.015625)"/>
       <path id="DejaVuSans-Oblique-73" d="M 3200 3397
L 3091 2853
Q 2863 2978 2609 3040
Q 2356 3103 2088 3103
Q 1634 3103 1373 2948
Q 1113 2794 1113 2528
Q 1113 2219 1719 2053
Q 1766 2041 1788 2034
L 1972 1978
Q 2547 1819 2739 1644
Q 2931 1469 2931 1166
Q 2931 609 2489 259
Q 2047 -91 1331 -91
Q 1053 -91 747 -37
Q 441 16 72 128
L 184 722
Q 500 559 806 475
Q 1113 391 1394 391
Q 1816 391 2080 572
Q 2344 753 2344 1031
Q 2344 1331 1650 1516
L 1591 1531
L 1394 1581
Q 956 1697 753 1886
Q 550 2075 550 2369
Q 550 2928 970 3256
Q 1391 3584 2113 3584
Q 2397 3584 2667 3537
Q 2938 3491 3200 3397
z
" transform="scale(0.015625)"/>
       <path id="DejaVuSans-Oblique-69" d="M 1172 4863
L 1747 4863
L 1606 4134
L 1031 4134
L 1172 4863
z
M 909 3500
L 1484 3500
L 800 0
L 225 0
L 909 3500
z
" transform="scale(0.015625)"/>
       <path id="DejaVuSans-Oblique-6e" d="M 3566 2113
L 3156 0
L 2578 0
L 2988 2091
Q 3016 2238 3031 2350
Q 3047 2463 3047 2528
Q 3047 2791 2881 2937
Q 2716 3084 2419 3084
Q 1956 3084 1622 2776
Q 1288 2469 1184 1941
L 800 0
L 225 0
L 903 3500
L 1478 3500
L 1363 2950
Q 1603 3253 1940 3418
Q 2278 3584 2650 3584
Q 3113 3584 3367 3334
Q 3622 3084 3622 2631
Q 3622 2519 3608 2391
Q 3594 2263 3566 2113
z
" transform="scale(0.015625)"/>
       <path id="DejaVuSans-2f" d="M 1625 4666
L 2156 4666
L 531 -594
L 0 -594
L 1625 4666
z
" transform="scale(0.015625)"/>
      </defs>
      <use xlink:href="#DejaVuSans-Oblique-66" transform="translate(0 0.015625)"/>
      <use xlink:href="#DejaVuSans-28" transform="translate(35.205078 0.015625)"/>
      <use xlink:href="#DejaVuSans-Oblique-78" transform="translate(74.21875 0.015625)"/>
      <use xlink:href="#DejaVuSans-29" transform="translate(133.398438 0.015625)"/>
      <use xlink:href="#DejaVuSans-3d" transform="translate(191.894531 0.015625)"/>
      <use xlink:href="#DejaVuSans-Oblique-73" transform="translate(295.166016 0.015625)"/>
      <use xlink:href="#DejaVuSans-Oblique-69" transform="translate(347.265625 0.015625)"/>
      <use xlink:href="#DejaVuSans-Oblique-6e" transform="translate(375.048828 0.015625)"/>
      <use xlink:href="#DejaVuSans-28" transform="translate(438.427734 0.015625)"/>
      <use xlink:href="#DejaVuSans-Oblique-78" transform="translate(477.441406 0.015625)"/>
      <use xlink:href="#DejaVuSans-29" transform="translate(536.621094 0.015625)"/>
      <use xlink:href="#DejaVuSans-2f" transform="translate(575.634766 0.015625)"/>
      <use xlink:href="#DejaVuSans-Oblique-78" transform="translate(609.326172 0.015625)"/>
     </g>
    </g>
    <g id="line2d_18">
     <path d="M 66.6 277.584
L 76.6 277.584
L 86.6 277.584
" style="fill: none; stroke: #1f77b4; stroke-width: 1.5; stroke-linecap: square"/>
    </g>
    <g id="text_16">
     <!-- $f'(x)$ computed with jacobi -->
     <g transform="translate(94.6 281.084)scale(0.1 -0.1)">
      <defs>
       <path id="Cmsy10-30" d="M 225 347
Q 184 359 184 409
L 966 3316
Q 1003 3434 1093 3506
Q 1184 3578 1300 3578
Q 1450 3578 1564 3479
Q 1678 3381 1678 3231
Q 1678 3166 1644 3084
L 488 319
Q 466 275 428 275
Q 394 275 320 306
Q 247 338 225 347
z
" transform="scale(0.015625)"/>
       <path id="DejaVuSans-20" transform="scale(0.015625)"/>
       <path id="DejaVuSans-63" d="M 3122 3366
L 3122 2828
Q 2878 2963 2633 3030
Q 2388 3097 2138 3097
Q 1578 3097 1268 2742
Q 959 2388 959 1747
Q 959 1106 1268 751
Q 1578 397 2138 397
Q 2388 397 2633 464
Q 2878 531 3122 666
L 3122 134
Q 2881 22 2623 -34
Q 2366 -91 2075 -91
Q 1284 -91 818 406
Q 353 903 353 1747
Q 353 2603 823 3093
Q 1294 3584 2113 3584
Q 2378 3584 2631 3529
Q 2884 3475 3122 3366
z
" transform="scale(0.015625)"/>
       <path id="DejaVuSans-6f" d="M 1959 3097
Q 1497 3097 1228 2736
Q 959 2375 959 1747
Q 959 1119 1226 758
Q 1494 397 1959 397
Q 2419 397 2687 759
Q 2956 1122 2956 1747
Q 2956 2369 2687 2733
Q 2419 3097 1959 3097
z
M 1959 3584
Q 2709 3584 3137 3096
Q 3566 2609 3566 1747
Q 3566 888 3137 398
Q 2709 -91 1959 -91
Q 1206 -91 779 398
Q 353 888 353 1747
Q 353 2609 779 3096
Q 1206 3584 1959 3584
z
" transform="scale(0.015625)"/>
       <path id="DejaVuSans-6d" d="M 3328 2828
Q 3544 3216 3844 3400
Q 4144 3584 4550 3584
Q 5097 3584 5394 3201
Q 5691 2819 5691 2113
L 5691 0
L 5113 0
L 5113 2094
Q 5113 2597 4934 2840
Q 4756 3084 4391 3084
Q 3944 3084 3684 2787
Q 3425 2491 3425 1978
L 3425 0
L 2847 0
L 2847 2094
Q 2847 2600 2669 2842
Q 2491 3084 2119 3084
Q 1678 3084 1418 2786
Q 1159 2488 1159 1978
L 1159 0
L 581 0
L 581 3500
L 1159 3500
L 1159 2956
Q 1356 3278 1631 3431
Q 1906 3584 2284 3584
Q 2666 3584 2933 3390
Q 3200 3197 3328 2828
z
" transform="scale(0.015625)"/>
       <path id="DejaVuSans-70" d="M 1159 525
L 1159 -1331
L 581 -1331
L 581 3500
L 1159 3500
L 1159 2969
Q 1341 3281 1617 3432
Q 1894 3584 2278 3584
Q 2916 3584 3314 3078
Q 3713 2572 3713 1747
Q 3713 922 3314 415
Q 2916 -91 2278 -91
Q 1894 -91 1617 61
Q 1341 213 1159 525
z
M 3116 1747
Q 3116 2381 2855 2742
Q 2594 3103 2138 3103
Q 1681 3103 1420 2742
Q 1159 2381 1159 1747
Q 1159 1113 1420 752
Q 1681 391 2138 391
Q 2594 391 2855 752
Q 3116 1113 3116 1747
z
" transform="scale(0.015625)"/>
       <path id="DejaVuSans-75" d="M 544 1381
L 544 3500
L 1119 3500
L 1119 1403
Q 1119 906 1312 657
Q 1506 409 1894 409
Q 2359 409 2629 706
Q 2900 1003 2900 1516
L 2900 3500
L 3475 3500
L 3475 0
L 2900 0
L 2900 538
Q 2691 219 2414 64
Q 2138 -91 1772 -91
Q 1169 -91 856 284
Q 544 659 544 1381
z
M 1991 3584
L 1991 3584
z
" transform="scale(0.015625)"/>
       <path id="DejaVuSans-74" d="M 1172 4494
L 1172 3500
L 2356 3500
L 2356 3053
L 1172 3053
L 1172 1153
Q 1172 725 1289 603
Q 1406 481 1766 481
L 2356 481
L 2356 0
L 1766 0
Q 1100 0 847 248
Q 594 497 594 1153
L 594 3053
L 172 3053
L 172 3500
L 594 3500
L 594 4494
L 1172 4494
z
" transform="scale(0.015625)"/>
       <path id="DejaVuSans-65" d="M 3597 1894
L 3597 1613
L 953 1613
Q 991 1019 1311 708
Q 1631 397 2203 397
Q 2534 397 2845 478
Q 3156 559 3463 722
L 3463 178
Q 3153 47 2828 -22
Q 2503 -91 2169 -91
Q 1331 -91 842 396
Q 353 884 353 1716
Q 353 2575 817 3079
Q 1281 3584 2069 3584
Q 2775 3584 3186 3129
Q 3597 2675 3597 1894
z
M 3022 2063
Q 3016 2534 2758 2815
Q 2500 3097 2075 3097
Q 1594 3097 1305 2825
Q 1016 2553 972 2059
L 3022 2063
z
" transform="scale(0.015625)"/>
       <path id="DejaVuSans-64" d="M 2906 2969
L 2906 4863
L 3481 4863
L 3481 0
L 2906 0
L 2906 525
Q 2725 213 2448 61
Q 2172 -91 1784 -91
Q 1150 -91 751 415
Q 353 922 353 1747
Q 353 2572 751 3078
Q 1150 3584 1784 3584
Q 2172 3584 2448 3432
Q 2725 3281 2906 2969
z
M 947 1747
Q 947 1113 1208 752
Q 1469 391 1925 391
Q 2381 391 2643 752
Q 2906 1113 2906 1747
Q 2906 2381 2643 2742
Q 2381 3103 1925 3103
Q 1469 3103 1208 2742
Q 947 2381 947 1747
z
" transform="scale(0.015625)"/>
       <path id="DejaVuSans-77" d="M 269 3500
L 844 3500
L 1563 769
L 2278 3500
L 2956 3500
L 3675 769
L 4391 3500
L 4966 3500
L 4050 0
L 3372 0
L 2619 2869
L 1863 0
L 1184 0
L 269 3500
z
" transform="scale(0.015625)"/>
       <path id="DejaVuSans-69" d="M 603 3500
L 1178 3500
L 1178 0
L 603 0
L 603 3500
z
M 603 4863
L 1178 4863
L 1178 4134
L 603 4134
L 603 4863
z
" transform="scale(0.015625)"/>
       <path id="DejaVuSans-68" d="M 3513 2113
L 3513 0
L 2938 0
L 2938 2094
Q 2938 2591 2744 2837
Q 2550 3084 2163 3084
Q 1697 3084 1428 2787
Q 1159 2491 1159 1978
L 1159 0
L 581 0
L 581 4863
L 1159 4863
L 1159 2956
Q 1366 3272 1645 3428
Q 1925 3584 2291 3584
Q 2894 3584 3203 3211
Q 3513 2838 3513 2113
z
" transform="scale(0.015625)"/>
       <path id="DejaVuSans-6a" d="M 603 3500
L 1178 3500
L 1178 -63
Q 1178 -731 923 -1031
Q 669 -1331 103 -1331
L -116 -1331
L -116 -844
L 38 -844
Q 366 -844 484 -692
Q 603 -541 603 -63
L 603 3500
z
M 603 4863
L 1178 4863
L 1178 4134
L 603 4134
L 603 4863
z
" transform="scale(0.015625)"/>
       <path id="DejaVuSans-61" d="M 2194 1759
Q 1497 1759 1228 1600
Q 959 1441 959 1056
Q 959 750 1161 570
Q 1363 391 1709 391
Q 2188 391 2477 730
Q 2766 1069 2766 1631
L 2766 1759
L 2194 1759
z
M 3341 1997
L 3341 0
L 2766 0
L 2766 531
Q 2569 213 2275 61
Q 1981 -91 1556 -91
Q 1019 -91 701 211
Q 384 513 384 1019
Q 384 1609 779 1909
Q 1175 2209 1959 2209
L 2766 2209
L 2766 2266
Q 2766 2663 2505 2880
Q 2244 3097 1772 3097
Q 1472 3097 1187 3025
Q 903 2953 641 2809
L 641 3341
Q 956 3463 1253 3523
Q 1550 3584 1831 3584
Q 2591 3584 2966 3190
Q 3341 2797 3341 1997
z
" transform="scale(0.015625)"/>
       <path id="DejaVuSans-62" d="M 3116 1747
Q 3116 2381 2855 2742
Q 2594 3103 2138 3103
Q 1681 3103 1420 2742
Q 1159 2381 1159 1747
Q 1159 1113 1420 752
Q 1681 391 2138 391
Q 2594 391 2855 752
Q 3116 1113 3116 1747
z
M 1159 2969
Q 1341 3281 1617 3432
Q 1894 3584 2278 3584
Q 2916 3584 3314 3078
Q 3713 2572 3713 1747
Q 3713 922 3314 415
Q 2916 -91 2278 -91
Q 1894 -91 1617 61
Q 1341 213 1159 525
L 1159 0
L 581 0
L 581 4863
L 1159 4863
L 1159 2969
z
" transform="scale(0.015625)"/>
      </defs>
      <use xlink:href="#DejaVuSans-Oblique-66" transform="translate(0 0.584375)"/>
      <use xlink:href="#Cmsy10-30" transform="translate(42.652786 38.865625)scale(0.7)"/>
      <use xlink:href="#DejaVuSans-28" transform="translate(64.630326 0.584375)"/>
      <use xlink:href="#DejaVuSans-Oblique-78" transform="translate(103.643997 0.584375)"/>
      <use xlink:href="#DejaVuSans-29" transform="translate(162.823685 0.584375)"/>
      <use xlink:href="#DejaVuSans-20" transform="translate(201.837357 0.584375)"/>
      <use xlink:href="#DejaVuSans-63" transform="translate(233.624466 0.584375)"/>
      <use xlink:href="#DejaVuSans-6f" transform="translate(288.604935 0.584375)"/>
      <use xlink:href="#DejaVuSans-6d" transform="translate(349.786576 0.584375)"/>
      <use xlink:href="#DejaVuSans-70" transform="translate(447.198685 0.584375)"/>
      <use xlink:href="#DejaVuSans-75" transform="translate(510.675247 0.584375)"/>
      <use xlink:href="#DejaVuSans-74" transform="translate(574.054154 0.584375)"/>
      <use xlink:href="#DejaVuSans-65" transform="translate(613.263138 0.584375)"/>
      <use xlink:href="#DejaVuSans-64" transform="translate(674.786576 0.584375)"/>
      <use xlink:href="#DejaVuSans-20" transform="translate(738.263138 0.584375)"/>
      <use xlink:href="#DejaVuSans-77" transform="translate(770.050247 0.584375)"/>
      <use xlink:href="#DejaVuSans-69" transform="translate(851.837357 0.584375)"/>
      <use xlink:href="#DejaVuSans-74" transform="translate(879.62056 0.584375)"/>
      <use xlink:href="#DejaVuSans-68" transform="translate(918.829544 0.584375)"/>
      <use xlink:href="#DejaVuSans-20" transform="translate(982.208451 0.584375)"/>
      <use xlink:href="#DejaVuSans-6a" transform="translate(1013.99556 0.584375)"/>
      <use xlink:href="#DejaVuSans-61" transform="translate(1041.778763 0.584375)"/>
      <use xlink:href="#DejaVuSans-63" transform="translate(1103.05806 0.584375)"/>
      <use xlink:href="#DejaVuSans-6f" transform="translate(1158.038529 0.584375)"/>
      <use xlink:href="#DejaVuSans-62" transform="translate(1219.220169 0.584375)"/>
      <use xlink:href="#DejaVuSans-69" transform="translate(1282.696732 0.584375)"/>
     </g>
    </g>
    <g id="patch_8">
     <path d="M 66.6 296.504312
L 86.6 296.504312
L 86.6 289.504312
L 66.6 289.504312
z
" style="fill: #1f77b4; fill-opacity: 0.5"/>
    </g>
    <g id="text_17">
     <!-- $f'(x)$ error estimate$\times \, 10^{14}$ -->
     <g transform="translate(94.6 296.504312)scale(0.1 -0.1)">
      <defs>
       <path id="DejaVuSans-72" d="M 2631 2963
Q 2534 3019 2420 3045
Q 2306 3072 2169 3072
Q 1681 3072 1420 2755
Q 1159 2438 1159 1844
L 1159 0
L 581 0
L 581 3500
L 1159 3500
L 1159 2956
Q 1341 3275 1631 3429
Q 1922 3584 2338 3584
Q 2397 3584 2469 3576
Q 2541 3569 2628 3553
L 2631 2963
z
" transform="scale(0.015625)"/>
       <path id="DejaVuSans-73" d="M 2834 3397
L 2834 2853
Q 2591 2978 2328 3040
Q 2066 3103 1784 3103
Q 1356 3103 1142 2972
Q 928 2841 928 2578
Q 928 2378 1081 2264
Q 1234 2150 1697 2047
L 1894 2003
Q 2506 1872 2764 1633
Q 3022 1394 3022 966
Q 3022 478 2636 193
Q 2250 -91 1575 -91
Q 1294 -91 989 -36
Q 684 19 347 128
L 347 722
Q 666 556 975 473
Q 1284 391 1588 391
Q 1994 391 2212 530
Q 2431 669 2431 922
Q 2431 1156 2273 1281
Q 2116 1406 1581 1522
L 1381 1569
Q 847 1681 609 1914
Q 372 2147 372 2553
Q 372 3047 722 3315
Q 1072 3584 1716 3584
Q 2034 3584 2315 3537
Q 2597 3491 2834 3397
z
" transform="scale(0.015625)"/>
       <path id="DejaVuSans-d7" d="M 4488 3438
L 3059 2003
L 4488 575
L 4116 197
L 2681 1631
L 1247 197
L 878 575
L 2303 2003
L 878 3438
L 1247 3816
L 2681 2381
L 4116 3816
L 4488 3438
z
" transform="scale(0.015625)"/>
       <path id="DejaVuSans-34" d="M 2419 4116
L 825 1625
L 2419 1625
L 2419 4116
z
M 2253 4666
L 3047 4666
L 3047 1625
L 3713 1625
L 3713 1100
L 3047 1100
L 3047 0
L 2419 0
L 2419 1100
L 313 1100
L 313 1709
L 2253 4666
z
" transform="scale(0.015625)"/>
      </defs>
      <use xlink:href="#DejaVuSans-Oblique-66" transform="translate(0 0.684375)"/>
      <use xlink:href="#Cmsy10-30" transform="translate(42.652786 38.965625)scale(0.7)"/>
      <use xlink:href="#DejaVuSans-28" transform="translate(64.630326 0.684375)"/>
      <use xlink:href="#DejaVuSans-Oblique-78" transform="translate(103.643997 0.684375)"/>
      <use xlink:href="#DejaVuSans-29" transform="translate(162.823685 0.684375)"/>
      <use xlink:href="#DejaVuSans-20" transform="translate(201.837357 0.684375)"/>
      <use xlink:href="#DejaVuSans-65" transform="translate(233.624466 0.684375)"/>
      <use xlink:href="#DejaVuSans-72" transform="translate(295.147904 0.684375)"/>
      <use xlink:href="#DejaVuSans-72" transform="translate(336.261185 0.684375)"/>
      <use xlink:href="#DejaVuSans-6f" transform="translate(377.374466 0.684375)"/>
      <use xlink:href="#DejaVuSans-72" transform="translate(438.556107 0.684375)"/>
      <use xlink:href="#DejaVuSans-20" transform="translate(479.669388 0.684375)"/>
      <use xlink:href="#DejaVuSans-65" transform="translate(511.456497 0.684375)"/>
      <use xlink:href="#DejaVuSans-73" transform="translate(572.979935 0.684375)"/>
      <use xlink:href="#DejaVuSans-74" transform="translate(625.079544 0.684375)"/>
      <use xlink:href="#DejaVuSans-69" transform="translate(664.288529 0.684375)"/>
      <use xlink:href="#DejaVuSans-6d" transform="translate(692.071732 0.684375)"/>
      <use xlink:href="#DejaVuSans-61" transform="translate(789.483841 0.684375)"/>
      <use xlink:href="#DejaVuSans-74" transform="translate(850.763138 0.684375)"/>
      <use xlink:href="#DejaVuSans-65" transform="translate(889.972122 0.684375)"/>
      <use xlink:href="#DejaVuSans-d7" transform="translate(951.49556 0.684375)"/>
      <use xlink:href="#DejaVuSans-31" transform="translate(1051.520299 0.684375)"/>
      <use xlink:href="#DejaVuSans-30" transform="translate(1115.143346 0.684375)"/>
      <use xlink:href="#DejaVuSans-31" transform="translate(1179.723424 38.965625)scale(0.7)"/>
      <use xlink:href="#DejaVuSans-34" transform="translate(1224.259556 38.965625)scale(0.7)"/>
     </g>
    </g>
   </g>
  </g>
 </g>
 <defs>
  <clipPath id="p925c437248">
   <rect x="57.6" y="41.472" width="357.12" height="266.112"/>
  </clipPath>
 </defs>
</svg>
