<?xml version="1.0" encoding="UTF-8" standalone="no"?>
<svg
   xmlns:dc="http://purl.org/dc/elements/1.1/"
   xmlns:cc="http://creativecommons.org/ns#"
   xmlns:rdf="http://www.w3.org/1999/02/22-rdf-syntax-ns#"
   xmlns:svg="http://www.w3.org/2000/svg"
   xmlns="http://www.w3.org/2000/svg"
   xmlns:sodipodi="http://sodipodi.sourceforge.net/DTD/sodipodi-0.dtd"
   xmlns:inkscape="http://www.inkscape.org/namespaces/inkscape"
   width="70mm"
   height="20mm"
   viewBox="0 0 70 20"
   version="1.1"
   id="svg8"
   inkscape:version="1.0.2 (e86c8708, 2021-01-15)"
   sodipodi:docname="logo.svg">
  <defs
     id="defs2" />
  <sodipodi:namedview
     id="base"
     pagecolor="#ffffff"
     bordercolor="#666666"
     borderopacity="1.0"
     inkscape:pageopacity="0.0"
     inkscape:pageshadow="2"
     inkscape:zoom="1.979899"
     inkscape:cx="114.85954"
     inkscape:cy="28.739293"
     inkscape:document-units="mm"
     inkscape:current-layer="layer1"
     inkscape:document-rotation="0"
     showgrid="false"
     showguides="true"
     inkscape:guide-bbox="true"
     inkscape:window-width="1252"
     inkscape:window-height="943"
     inkscape:window-x="271"
     inkscape:window-y="25"
     inkscape:window-maximized="0">
    <sodipodi:guide
       position="24.187892,5.4338108"
       orientation="0,-1"
       id="guide1049" />
  </sodipodi:namedview>
  <metadata
     id="metadata5">
    <rdf:RDF>
      <cc:Work
         rdf:about="">
        <dc:format>image/svg+xml</dc:format>
        <dc:type
           rdf:resource="http://purl.org/dc/dcmitype/StillImage" />
        <dc:title></dc:title>
      </cc:Work>
    </rdf:RDF>
  </metadata>
  <g
     inkscape:label="Layer 1"
     inkscape:groupmode="layer"
     id="layer1"
     transform="translate(-18.167264,-62.778195)">
    <g
       aria-label="ðœ•x"
       id="text835"
       style="font-size:14.1111px;line-height:0;font-family:'Linux Libertine';-inkscape-font-specification:'Linux Libertine';word-spacing:0px;stroke-width:0.264583"
       transform="translate(1.5875,1.0583333)">
      <path
         d="m 58.738678,75.903987 q -0.355706,-0.721575 -1.199238,-0.721575 -1.107771,0 -1.554945,1.504129 -0.254076,0.853695 -0.254076,1.880162 0,0.772391 0.325218,1.311032 0.33538,0.528478 0.995977,0.528478 0.863858,0 1.382173,-1.03663 0.528478,-1.046793 0.528478,-2.307009 0,-0.691087 -0.223587,-1.158587 z m -0.05082,-0.650434 q 0.294728,0.33538 0.528478,0.955325 0.13212,-0.782553 0.162609,-1.046792 0.04065,-0.437011 0.04065,-1.016304 0,-1.575271 -0.243913,-2.246031 -0.23375,-0.680924 -0.80288,-0.680924 -0.182935,0 -0.345543,0.08131 -0.152446,0.07114 -0.33538,0.294728 l -0.223587,0.274402 q -0.223587,0.274402 -0.355707,0.365869 -0.121956,0.09147 -0.365869,0.09147 -0.284565,0 -0.447174,-0.162608 -0.162608,-0.172772 -0.162608,-0.416685 0,-0.518315 0.487826,-0.782554 0.497988,-0.264239 1.148423,-0.264239 1.392336,0 2.022444,1.300869 0.630108,1.290706 0.630108,3.008259 0,2.052934 -0.762227,3.668856 -0.975652,2.032608 -2.74402,2.032608 -1.067119,0 -1.73788,-0.782554 -0.67076,-0.792717 -0.67076,-1.94114 0,-1.209401 0.792717,-2.256194 0.792717,-1.056956 1.971629,-1.056956 0.884184,0 1.412662,0.579293 z"
         style="font-size:20.8139px;line-height:0;fill:#000080"
         id="path852" />
      <path
         d="m 65.347403,80.619637 v -0.296278 q 0.172255,-0.01378 0.323839,-0.04134 0.151584,-0.02756 0.234266,-0.08957 0.08957,-0.06201 0.08957,-0.172255 0,-0.117133 -0.137803,-0.303168 l -1.364257,-1.85346 -1.302245,1.85346 q -0.130914,0.186035 -0.103353,0.303168 0.02756,0.110243 0.144694,0.172255 0.117133,0.06201 0.289388,0.08957 0.179145,0.02756 0.344509,0.04134 v 0.296278 h -2.61138 v -0.296278 q 0.275607,-0.04134 0.468532,-0.103353 0.192925,-0.0689 0.323839,-0.151584 0.137804,-0.08957 0.227376,-0.186035 0.09646,-0.103353 0.172255,-0.206706 l 1.674315,-2.328883 -1.619194,-2.218639 q -0.08957,-0.124024 -0.179145,-0.227377 -0.08957,-0.110243 -0.220486,-0.186035 -0.124023,-0.08268 -0.310058,-0.130913 -0.186035,-0.05512 -0.461642,-0.07579 v -0.296278 h 2.893878 v 0.296278 q -0.213596,0.02067 -0.37207,0.06201 -0.151584,0.03445 -0.234267,0.103352 -0.07579,0.06201 -0.0689,0.172255 0.01378,0.103353 0.137804,0.268717 l 1.10932,1.529621 1.061089,-1.529621 q 0.124023,-0.165364 0.137803,-0.275607 0.01378,-0.110243 -0.06201,-0.172255 -0.0689,-0.0689 -0.220486,-0.103353 -0.151584,-0.03445 -0.36518,-0.05512 v -0.296278 h 2.625161 v 0.296278 q -0.558105,0.04134 -0.868164,0.206705 -0.303168,0.158475 -0.482313,0.413412 l -1.446939,2.032604 1.83968,2.514918 q 0.08268,0.103353 0.179145,0.206706 0.09646,0.09646 0.220486,0.186035 0.130913,0.08957 0.303168,0.158474 0.172254,0.0689 0.399631,0.09646 v 0.296278 z"
         style="line-height:0;fill:#0000ff"
         id="path854" />
    </g>
    <g
       aria-label="ðœ•f"
       id="text1027"
       style="font-size:14.1111px;line-height:1.25;font-family:'Linux Libertine';-inkscape-font-specification:'Linux Libertine';word-spacing:0px;stroke-width:0.264583"
       transform="translate(1.5875,1.0583333)">
      <path
         d="m 44.495125,67.98167 q -0.355706,-0.721576 -1.199238,-0.721576 -1.107771,0 -1.554945,1.50413 -0.254076,0.853695 -0.254076,1.880162 0,0.77239 0.325217,1.311031 0.335381,0.528478 0.995978,0.528478 0.863858,0 1.382173,-1.03663 0.528478,-1.046792 0.528478,-2.307009 0,-0.691086 -0.223587,-1.158586 z m -0.05082,-0.650435 q 0.294728,0.335381 0.528478,0.955326 0.132119,-0.782554 0.162609,-1.046793 0.04065,-0.43701 0.04065,-1.016304 0,-1.57527 -0.243913,-2.246031 -0.23375,-0.680923 -0.80288,-0.680923 -0.182935,0 -0.345543,0.0813 -0.152446,0.07114 -0.335381,0.294728 l -0.223586,0.274402 q -0.223587,0.274402 -0.355707,0.365869 -0.121956,0.09147 -0.365869,0.09147 -0.284565,0 -0.447174,-0.162609 -0.162608,-0.172771 -0.162608,-0.416684 0,-0.518315 0.487825,-0.782554 0.497989,-0.264239 1.148424,-0.264239 1.392336,0 2.022444,1.300869 0.630108,1.290705 0.630108,3.008259 0,2.052933 -0.762227,3.668856 -0.975652,2.032607 -2.74402,2.032607 -1.067119,0 -1.73788,-0.782553 -0.67076,-0.792717 -0.67076,-1.941141 0,-1.209401 0.792717,-2.256194 0.792717,-1.056956 1.971629,-1.056956 0.884184,0 1.412662,0.579293 z"
         style="font-size:20.8139px;fill:#800000"
         id="path847" />
      <path
         d="m 49.339962,70.974773 q 0,0.875053 0.179145,1.061088 0.179145,0.179145 1.005967,0.227376 0.0689,0.0689 0.0689,0.241157 0.0069,0.165364 -0.0689,0.220486 -0.985296,-0.02756 -1.729436,-0.02756 -0.564996,0 -1.557182,0.02756 -0.05512,-0.05512 -0.05512,-0.220486 0,-0.172255 0.05512,-0.241157 0.620116,-0.04134 0.806151,-0.248046 0.186035,-0.206706 0.186035,-1.040418 v -3.782712 h -0.978406 q -0.0689,0 -0.0689,-0.08268 v -0.186035 q 0,-0.282497 0.323839,-0.282497 h 0.723469 v -0.564995 q 0,-1.536512 0.751031,-2.384005 0.75792,-0.847492 1.743217,-0.847492 0.847492,0 1.267794,0.303168 0.454752,0.337619 0.454752,0.716579 0,0.213596 -0.199815,0.399631 -0.192926,0.179145 -0.378961,0.179145 -0.365179,0 -0.564995,-0.454753 -0.137804,-0.365179 -0.330729,-0.509873 -0.192925,-0.151584 -0.516764,-0.151584 -1.11621,0 -1.11621,2.514917 v 0.799262 h 1.529621 q 0.110243,0 0.110243,0.08957 v 0.282498 q 0,0.186035 -0.323838,0.179145 h -1.316026 z"
         style="fill:#d40000"
         id="path849" />
    </g>
    <text
       xml:space="preserve"
       style="font-size:25.483px;line-height:1.25;font-family:'Linux Libertine';-inkscape-font-specification:'Linux Libertine';word-spacing:0px;stroke-width:0.477805"
       x="50.851807"
       y="80.300041"
       id="text1039"><tspan
         sodipodi:role="line"
         id="tspan1037"
         x="50.851807"
         y="80.300041"
         style="stroke-width:0.477805">/</tspan></text>
    <text
       xml:space="preserve"
       style="font-size:14.1111px;line-height:1.25;font-family:'Linux Libertine';-inkscape-font-specification:'Linux Libertine';word-spacing:0px;stroke-width:0.264583"
       x="20.430004"
       y="77.363777"
       id="text1043"><tspan
         sodipodi:role="line"
         id="tspan1041"
         x="20.430004"
         y="77.363777"
         style="stroke-width:0.264583">jac<tspan
   style="font-size:16.9333px"
   id="tspan1055">(</tspan></tspan></text>
    <text
       xml:space="preserve"
       style="font-size:14.1111px;line-height:1.25;font-family:'Linux Libertine';-inkscape-font-specification:'Linux Libertine';word-spacing:0px;stroke-width:0.264583"
       x="71.077576"
       y="77.363785"
       id="text1047"><tspan
         sodipodi:role="line"
         id="tspan1045"
         x="71.077576"
         y="77.363785"
         style="stroke-width:0.264583"><tspan
   style="font-size:16.9333px"
   id="tspan1051">)</tspan>bi</tspan></text>
  </g>
</svg>
