<?xml version="1.0" encoding="UTF-8" standalone="no"?>
<svg
   xmlns:dc="http://purl.org/dc/elements/1.1/"
   xmlns:cc="http://creativecommons.org/ns#"
   xmlns:rdf="http://www.w3.org/1999/02/22-rdf-syntax-ns#"
   xmlns:svg="http://www.w3.org/2000/svg"
   xmlns="http://www.w3.org/2000/svg"
   xmlns:sodipodi="http://sodipodi.sourceforge.net/DTD/sodipodi-0.dtd"
   xmlns:inkscape="http://www.inkscape.org/namespaces/inkscape"
   width="70mm"
   height="20mm"
   viewBox="0 0 70 20"
   version="1.1"
   id="svg8"
   inkscape:version="1.0.2 (e86c8708, 2021-01-15)"
   sodipodi:docname="logo.svg">
  <defs
     id="defs2" />
  <sodipodi:namedview
     id="base"
     pagecolor="#ffffff"
     bordercolor="#666666"
     borderopacity="1.0"
     inkscape:pageopacity="0.0"
     inkscape:pageshadow="2"
     inkscape:zoom="1.979899"
     inkscape:cx="114.85954"
     inkscape:cy="28.739293"
     inkscape:document-units="mm"
     inkscape:current-layer="layer1"
     inkscape:document-rotation="0"
     showgrid="false"
     showguides="true"
     inkscape:guide-bbox="true"
     inkscape:window-width="1252"
     inkscape:window-height="943"
     inkscape:window-x="271"
     inkscape:window-y="25"
     inkscape:window-maximized="0">
    <sodipodi:guide
       position="24.187892,5.4338108"
       orientation="0,-1"
       id="guide1049" />
  </sodipodi:namedview>
  <metadata
     id="metadata5">
    <rdf:RDF>
      <cc:Work
         rdf:about="">
        <dc:format>image/svg+xml</dc:format>
        <dc:type
           rdf:resource="http://purl.org/dc/dcmitype/StillImage" />
        <dc:title />
      </cc:Work>
    </rdf:RDF>
  </metadata>
  <g
     inkscape:label="Layer 1"
     inkscape:groupmode="layer"
     id="layer1"
     transform="translate(-18.167264,-62.778195)">
    <g
       aria-label="ðœ•x"
       id="text835"
       style="font-size:14.1111px;line-height:0;font-family:'Linux Libertine';-inkscape-font-specification:'Linux Libertine';word-spacing:0px;stroke-width:0.264583"
       transform="translate(1.5875,1.0583333)">
      <path
         d="m 58.738678,75.903987 q -0.355706,-0.721575 -1.199238,-0.721575 -1.107771,0 -1.554945,1.504129 -0.254076,0.853695 -0.254076,1.880162 0,0.772391 0.325218,1.311032 0.33538,0.528478 0.995977,0.528478 0.863858,0 1.382173,-1.03663 0.528478,-1.046793 0.528478,-2.307009 0,-0.691087 -0.223587,-1.158587 z m -0.05082,-0.650434 q 0.294728,0.33538 0.528478,0.955325 0.13212,-0.782553 0.162609,-1.046792 0.04065,-0.437011 0.04065,-1.016304 0,-1.575271 -0.243913,-2.246031 -0.23375,-0.680924 -0.80288,-0.680924 -0.182935,0 -0.345543,0.08131 -0.152446,0.07114 -0.33538,0.294728 l -0.223587,0.274402 q -0.223587,0.274402 -0.355707,0.365869 -0.121956,0.09147 -0.365869,0.09147 -0.284565,0 -0.447174,-0.162608 -0.162608,-0.172772 -0.162608,-0.416685 0,-0.518315 0.487826,-0.782554 0.497988,-0.264239 1.148423,-0.264239 1.392336,0 2.022444,1.300869 0.630108,1.290706 0.630108,3.008259 0,2.052934 -0.762227,3.668856 -0.975652,2.032608 -2.74402,2.032608 -1.067119,0 -1.73788,-0.782554 -0.67076,-0.792717 -0.67076,-1.94114 0,-1.209401 0.792717,-2.256194 0.792717,-1.056956 1.971629,-1.056956 0.884184,0 1.412662,0.579293 z"
         style="font-size:20.8139px;line-height:0;fill:#000080"
         id="path852" />
      <path
         d="m 65.347403,80.619637 v -0.296278 q 0.172255,-0.01378 0.323839,-0.04134 0.151584,-0.02756 0.234266,-0.08957 0.08957,-0.06201 0.08957,-0.172255 0,-0.117133 -0.137803,-0.303168 l -1.364257,-1.85346 -1.302245,1.85346 q -0.130914,0.186035 -0.103353,0.303168 0.02756,0.110243 0.144694,0.172255 0.117133,0.06201 0.289388,0.08957 0.179145,0.02756 0.344509,0.04134 v 0.296278 h -2.61138 v -0.296278 q 0.275607,-0.04134 0.468532,-0.103353 0.192925,-0.0689 0.323839,-0.151584 0.137804,-0.08957 0.227376,-0.186035 0.09646,-0.103353 0.172255,-0.206706 l 1.674315,-2.328883 -1.619194,-2.218639 q -0.08957,-0.124024 -0.179145,-0.227377 -0.08957,-0.110243 -0.220486,-0.186035 -0.124023,-0.08268 -0.310058,-0.130913 -0.186035,-0.05512 -0.461642,-0.07579 v -0.296278 h 2.893878 v 0.296278 q -0.213596,0.02067 -0.37207,0.06201 -0.151584,0.03445 -0.234267,0.103352 -0.07579,0.06201 -0.0689,0.172255 0.01378,0.103353 0.137804,0.268717 l 1.10932,1.529621 1.061089,-1.529621 q 0.124023,-0.165364 0.137803,-0.275607 0.01378,-0.110243 -0.06201,-0.172255 -0.0689,-0.0689 -0.220486,-0.103353 -0.151584,-0.03445 -0.36518,-0.05512 v -0.296278 h 2.625161 v 0.296278 q -0.558105,0.04134 -0.868164,0.206705 -0.303168,0.158475 -0.482313,0.413412 l -1.446939,2.032604 1.83968,2.514918 q 0.08268,0.103353 0.179145,0.206706 0.09646,0.09646 0.220486,0.186035 0.130913,0.08957 0.303168,0.158474 0.172254,0.0689 0.399631,0.09646 v 0.296278 z"
         style="line-height:0;fill:#0000ff"
         id="path854" />
    </g>
    <g
       aria-label="ðœ•f"
       id="text1027"
       style="font-size:14.1111px;line-height:1.25;font-family:'Linux Libertine';-inkscape-font-specification:'Linux Libertine';word-spacing:0px;stroke-width:0.264583"
       transform="translate(1.5875,1.0583333)">
      <path
         d="m 44.495125,67.98167 q -0.355706,-0.721576 -1.199238,-0.721576 -1.107771,0 -1.554945,1.50413 -0.254076,0.853695 -0.254076,1.880162 0,0.77239 0.325217,1.311031 0.335381,0.528478 0.995978,0.528478 0.863858,0 1.382173,-1.03663 0.528478,-1.046792 0.528478,-2.307009 0,-0.691086 -0.223587,-1.158586 z m -0.05082,-0.650435 q 0.294728,0.335381 0.528478,0.955326 0.132119,-0.782554 0.162609,-1.046793 0.04065,-0.43701 0.04065,-1.016304 0,-1.57527 -0.243913,-2.246031 -0.23375,-0.680923 -0.80288,-0.680923 -0.182935,0 -0.345543,0.0813 -0.152446,0.07114 -0.335381,0.294728 l -0.223586,0.274402 q -0.223587,0.274402 -0.355707,0.365869 -0.121956,0.09147 -0.365869,0.09147 -0.284565,0 -0.447174,-0.162609 -0.162608,-0.172771 -0.162608,-0.416684 0,-0.518315 0.487825,-0.782554 0.497989,-0.264239 1.148424,-0.264239 1.392336,0 2.022444,1.300869 0.630108,1.290705 0.630108,3.008259 0,2.052933 -0.762227,3.668856 -0.975652,2.032607 -2.74402,2.032607 -1.067119,0 -1.73788,-0.782553 -0.67076,-0.792717 -0.67076,-1.941141 0,-1.209401 0.792717,-2.256194 0.792717,-1.056956 1.971629,-1.056956 0.884184,0 1.412662,0.579293 z"
         style="font-size:20.8139px;fill:#800000"
         id="path847" />
      <path
         d="m 49.339962,70.974773 q 0,0.875053 0.179145,1.061088 0.179145,0.179145 1.005967,0.227376 0.0689,0.0689 0.0689,0.241157 0.0069,0.165364 -0.0689,0.220486 -0.985296,-0.02756 -1.729436,-0.02756 -0.564996,0 -1.557182,0.02756 -0.05512,-0.05512 -0.05512,-0.220486 0,-0.172255 0.05512,-0.241157 0.620116,-0.04134 0.806151,-0.248046 0.186035,-0.206706 0.186035,-1.040418 v -3.782712 h -0.978406 q -0.0689,0 -0.0689,-0.08268 v -0.186035 q 0,-0.282497 0.323839,-0.282497 h 0.723469 v -0.564995 q 0,-1.536512 0.751031,-2.384005 0.75792,-0.847492 1.743217,-0.847492 0.847492,0 1.267794,0.303168 0.454752,0.337619 0.454752,0.716579 0,0.213596 -0.199815,0.399631 -0.192926,0.179145 -0.378961,0.179145 -0.365179,0 -0.564995,-0.454753 -0.137804,-0.365179 -0.330729,-0.509873 -0.192925,-0.151584 -0.516764,-0.151584 -1.11621,0 -1.11621,2.514917 v 0.799262 h 1.529621 q 0.110243,0 0.110243,0.08957 v 0.282498 q 0,0.186035 -0.323838,0.179145 h -1.316026 z"
         style="fill:#d40000"
         id="path849" />
    </g>
    <g
       aria-label="/"
       id="text1039"
       style="font-size:25.483px;line-height:1.25;font-family:'Linux Libertine';-inkscape-font-specification:'Linux Libertine';word-spacing:0px;stroke-width:0.477805">
      <path
         d="M 58.317529,63.838123 52.282737,81.805629 H 51.237536 L 57.272328,63.838123 Z"
         style="stroke-width:0.477805"
         id="path869" />
    </g>
    <g
       aria-label="jac("
       id="text1043"
       style="font-size:14.1111px;line-height:1.25;font-family:'Linux Libertine';-inkscape-font-specification:'Linux Libertine';word-spacing:0px;stroke-width:0.264583">
      <path
         d="m 21.828712,68.909519 q 0,-0.254936 0.234266,-0.461642 0.241157,-0.213596 0.496093,-0.213596 0.268718,0 0.475423,0.234266 0.206706,0.234267 0.206706,0.496094 0,0.241156 -0.227376,0.461642 -0.227376,0.220486 -0.509874,0.220486 -0.254937,0 -0.468533,-0.234266 -0.206705,-0.234266 -0.206705,-0.502984 z m 0.192925,3.982528 q 0,-0.592556 -0.165364,-0.74414 -0.158475,-0.158475 -0.751031,-0.213596 -0.08268,-0.241157 -0.02756,-0.399631 1.343586,-0.172255 1.936142,-0.406521 0.186035,0 0.179145,0.09646 -0.05512,0.902614 -0.05512,1.612303 v 2.97656 q 0,1.901692 -0.261827,2.838757 -0.261827,0.943955 -0.792371,1.378037 -0.578776,0.482313 -1.557182,0.482313 -0.254937,0 -0.509874,-0.165364 -0.261827,-0.158475 -0.261827,-0.440972 0,-0.186035 0.165364,-0.36518 0.158475,-0.172255 0.282498,-0.172255 0.0689,0 0.144694,0.02067 0.0689,0.02067 0.117133,0.04134 0.04823,0.02067 0.110243,0.0689 0.0689,0.04823 0.09646,0.0689 0.02756,0.02756 0.08268,0.08957 0.05512,0.06201 0.0689,0.07579 0.158474,0.158474 0.440972,0.158474 0.482313,0 0.620116,-0.937065 0.137804,-0.930175 0.137804,-2.666502 z"
         style="stroke-width:0.264583"
         id="path860" />
      <path
         d="m 28.395059,74.077159 -1.11621,0.296278 q -1.343587,0.337619 -1.336696,1.550291 0,0.378961 0.254936,0.695909 0.261827,0.310058 0.757921,0.310058 0.482313,0 1.240233,-0.627006 0.199816,-0.158475 0.199816,-0.36518 z m 0,2.61138 h -0.02756 L 28.085,76.909025 q -0.76481,0.592556 -1.536511,0.592556 -1.777668,0 -1.777668,-1.522731 0,-0.702799 0.640787,-1.240234 0.640787,-0.537434 1.688096,-0.806151 l 1.212672,-0.296278 q 0.08268,-0.02756 0.08268,-0.165365 0,-1.832789 -1.143771,-1.832789 -0.468533,0 -0.799262,0.151584 -0.330729,0.144694 -0.330729,0.440972 0,0.199815 0.02756,0.275607 0.04134,0.08268 0.04823,0.254937 0,0.158474 -0.192925,0.323839 -0.192925,0.158474 -0.475423,0.158474 -0.496093,0 -0.489203,-0.509874 0,-0.592556 0.72347,-1.074869 0.730359,-0.489203 1.605413,-0.489203 2.129067,0 2.129067,2.384005 v 2.073945 q 0,0.296278 0.0069,0.468533 0.0069,0.165364 0.04823,0.36518 0.04134,0.199815 0.130913,0.282497 0.09646,0.08268 0.234267,0.08268 0.254937,0 0.523654,-0.227376 0.199815,0.110243 0.241156,0.38585 -0.537434,0.523654 -1.343586,0.516764 -0.482313,0 -0.682128,-0.206706 -0.192926,-0.213595 -0.261827,-0.606336 z"
         style="stroke-width:0.264583"
         id="path862" />
      <path
         d="m 36.325663,76.082203 q -0.496094,0.819932 -1.047309,1.1231 -0.544324,0.296278 -1.254013,0.296278 -1.309136,0 -2.053276,-0.833713 -0.73725,-0.840602 -0.73725,-2.23931 0,-1.426268 0.888834,-2.342663 0.888834,-0.916395 2.005044,-0.916395 0.999077,0 1.577853,0.37207 0.578775,0.37207 0.578775,0.964626 0,0.296278 -0.220486,0.461643 -0.220485,0.165364 -0.468532,0.165364 -0.482313,0 -0.537435,-0.509874 -0.02756,-0.310058 -0.09646,-0.482313 -0.06201,-0.179144 -0.289388,-0.337619 -0.220486,-0.165364 -0.620117,-0.165364 -0.702799,0 -1.157551,0.668348 -0.447862,0.668348 -0.447862,1.812119 0,1.212672 0.551215,1.956812 0.551215,0.73725 1.336696,0.73725 0.971516,0 1.694986,-0.930175 0.227376,0.02756 0.296278,0.199816 z"
         style="stroke-width:0.264583"
         id="path864" />
      <path
         d="m 37.490103,73.097379 q 0,-2.26549 1.000454,-4.29947 1.000454,-2.033981 2.587951,-3.406504 0.256314,0.01654 0.355533,0.305924 -2.538342,2.860801 -2.538342,7.40005 0,4.506176 2.538342,7.433124 -0.08268,0.239778 -0.355533,0.289387 -1.000454,-0.859894 -1.719789,-1.918225 -0.719334,-1.050063 -1.066599,-1.885153 -0.347265,-0.835089 -0.55397,-1.761129 -0.198438,-0.92604 -0.223242,-1.339451 -0.02481,-0.41341 -0.02481,-0.818553 z"
         style="font-size:16.9333px"
         id="path866" />
    </g>
    <g
       aria-label=")bi"
       id="text1047"
       style="font-size:14.1111px;line-height:1.25;font-family:'Linux Libertine';-inkscape-font-specification:'Linux Libertine';word-spacing:0px;stroke-width:0.264583">
      <path
         d="m 75.377046,73.097387 q 0,2.26549 -1.000453,4.299471 -0.992186,2.03398 -2.587951,3.406503 -0.256315,-0.01654 -0.355533,-0.305924 2.538341,-2.860801 2.538341,-7.40005 0,-4.506176 -2.538341,-7.433123 0.08268,-0.239779 0.355533,-0.289388 1.000454,0.859894 1.719788,1.909957 0.719335,1.050063 1.0666,1.893421 0.347265,0.83509 0.545702,1.761129 0.206705,0.917772 0.23151,1.339451 0.0248,0.413411 0.0248,0.818553 z"
         style="font-size:16.9333px"
         id="path853" />
      <path
         d="m 78.590628,72.244377 q -0.241156,0.213596 -0.234266,0.592556 v 3.527775 q 0.537434,0.661458 1.012857,0.661458 0.971516,0 1.48139,-0.778591 0.509874,-0.785481 0.509874,-2.046385 0,-1.012858 -0.461643,-1.708766 -0.454752,-0.702799 -1.10932,-0.702799 -0.689018,0 -1.198892,0.454752 z m -0.09646,-0.440972 q 0.702798,-0.633897 1.577852,-0.633897 0.971516,0 1.736327,0.778591 0.76481,0.771701 0.76481,1.998154 0,1.577852 -0.978406,2.570039 -0.971516,0.985297 -2.142848,0.985297 -0.826822,0 -1.240233,-0.34451 -0.117133,-0.09646 -0.199815,-0.08957 -0.07579,0 -0.186036,0.124023 -0.103352,0.117133 -0.330728,0.344509 -0.213596,0 -0.310059,-0.172254 0.05512,-0.268717 0.05512,-0.999077 v -6.890186 q 0,-0.454752 -0.02067,-0.675238 -0.02067,-0.227376 -0.179145,-0.330729 -0.151584,-0.110243 -0.241156,-0.117133 -0.08268,-0.0069 -0.461643,-0.03445 -0.158474,-0.158474 -0.08957,-0.420301 1.254014,-0.09646 1.977483,-0.385851 0.186035,0 0.186035,0.144694 -0.05512,0.564995 -0.05512,1.48139 v 2.5976 q 0,0.192925 0.137804,0.0689 z"
         style="stroke-width:0.264583"
         id="path855" />
      <path
         d="m 84.350823,68.909527 q 0,-0.254937 0.241156,-0.461642 0.241157,-0.213596 0.496094,-0.213596 0.268717,0 0.468532,0.234266 0.206706,0.234266 0.206706,0.496093 0,0.241157 -0.227376,0.461643 -0.220486,0.220486 -0.502984,0.220486 -0.254937,0 -0.468532,-0.234266 -0.213596,-0.234267 -0.213596,-0.502984 z m 1.288465,6.731711 q 0,0.847493 0.165364,1.047309 0.172255,0.192925 0.847493,0.241156 0.0689,0.0689 0.0689,0.241157 0,0.165364 -0.0689,0.220486 -0.930175,-0.02756 -1.564072,-0.02756 -0.647678,0 -1.584743,0.02756 -0.05512,-0.05512 -0.05512,-0.220486 0,-0.172255 0.05512,-0.241157 0.675238,-0.05512 0.847493,-0.248047 0.172255,-0.192925 0.172255,-1.040418 v -2.749184 q 0,-0.592556 -0.165365,-0.74414 -0.158474,-0.158474 -0.75103,-0.213595 -0.08268,-0.241157 -0.02756,-0.399631 1.309135,-0.172255 1.929252,-0.406521 0.186035,0 0.186035,0.09646 -0.05512,0.902615 -0.05512,1.605414 z"
         style="stroke-width:0.264583"
         id="path857" />
    </g>
  </g>
</svg>
