<?xml version="1.0" encoding="utf-8" standalone="no"?>
<!DOCTYPE svg PUBLIC "-//W3C//DTD SVG 1.1//EN"
  "http://www.w3.org/Graphics/SVG/1.1/DTD/svg11.dtd">
<svg xmlns:xlink="http://www.w3.org/1999/xlink" width="460.8pt" height="345.6pt" viewBox="0 0 460.8 345.6" xmlns="http://www.w3.org/2000/svg" version="1.1">
 <metadata>
  <rdf:RDF xmlns:dc="http://purl.org/dc/elements/1.1/" xmlns:cc="http://creativecommons.org/ns#" xmlns:rdf="http://www.w3.org/1999/02/22-rdf-syntax-ns#">
   <cc:Work>
    <dc:type rdf:resource="http://purl.org/dc/dcmitype/StillImage"/>
    <dc:date>2022-09-15T16:54:32.080938</dc:date>
    <dc:format>image/svg+xml</dc:format>
    <dc:creator>
     <cc:Agent>
      <dc:title>Matplotlib v3.5.3, https://matplotlib.org/</dc:title>
     </cc:Agent>
    </dc:creator>
   </cc:Work>
  </rdf:RDF>
 </metadata>
 <defs>
  <style type="text/css">*{stroke-linejoin: round; stroke-linecap: butt}</style>
 </defs>
 <g id="figure_1">
  <g id="patch_1">
   <path d="M 0 345.6
L 460.8 345.6
L 460.8 0
L 0 0
z
" style="fill: #ffffff"/>
  </g>
  <g id="axes_1">
   <g id="patch_2">
    <path d="M 37.90024 325.921635
L 457.79976 325.921635
L 457.79976 18.118365
L 37.90024 18.118365
z
" style="fill: #ffffff"/>
   </g>
   <g id="matplotlib.axis_1">
    <g id="xtick_1">
     <g id="line2d_1">
      <defs>
       <path id="m7026150373" d="M 0 0
L 0 3.5
" style="stroke: #000000; stroke-width: 0.8"/>
      </defs>
      <g>
       <use xlink:href="#m7026150373" x="56.986582" y="325.921635" style="stroke: #000000; stroke-width: 0.8"/>
      </g>
     </g>
     <g id="text_1">
      <!-- −10.0 -->
      <g transform="translate(41.663926 340.520072)scale(0.1 -0.1)">
       <defs>
        <path id="DejaVuSans-2212" d="M 678 2272
L 4684 2272
L 4684 1741
L 678 1741
L 678 2272
z
" transform="scale(0.015625)"/>
        <path id="DejaVuSans-31" d="M 794 531
L 1825 531
L 1825 4091
L 703 3866
L 703 4441
L 1819 4666
L 2450 4666
L 2450 531
L 3481 531
L 3481 0
L 794 0
L 794 531
z
" transform="scale(0.015625)"/>
        <path id="DejaVuSans-30" d="M 2034 4250
Q 1547 4250 1301 3770
Q 1056 3291 1056 2328
Q 1056 1369 1301 889
Q 1547 409 2034 409
Q 2525 409 2770 889
Q 3016 1369 3016 2328
Q 3016 3291 2770 3770
Q 2525 4250 2034 4250
z
M 2034 4750
Q 2819 4750 3233 4129
Q 3647 3509 3647 2328
Q 3647 1150 3233 529
Q 2819 -91 2034 -91
Q 1250 -91 836 529
Q 422 1150 422 2328
Q 422 3509 836 4129
Q 1250 4750 2034 4750
z
" transform="scale(0.015625)"/>
        <path id="DejaVuSans-2e" d="M 684 794
L 1344 794
L 1344 0
L 684 0
L 684 794
z
" transform="scale(0.015625)"/>
       </defs>
       <use xlink:href="#DejaVuSans-2212"/>
       <use xlink:href="#DejaVuSans-31" x="83.789062"/>
       <use xlink:href="#DejaVuSans-30" x="147.412109"/>
       <use xlink:href="#DejaVuSans-2e" x="211.035156"/>
       <use xlink:href="#DejaVuSans-30" x="242.822266"/>
      </g>
     </g>
    </g>
    <g id="xtick_2">
     <g id="line2d_2">
      <g>
       <use xlink:href="#m7026150373" x="104.702436" y="325.921635" style="stroke: #000000; stroke-width: 0.8"/>
      </g>
     </g>
     <g id="text_2">
      <!-- −7.5 -->
      <g transform="translate(92.56103 340.520072)scale(0.1 -0.1)">
       <defs>
        <path id="DejaVuSans-37" d="M 525 4666
L 3525 4666
L 3525 4397
L 1831 0
L 1172 0
L 2766 4134
L 525 4134
L 525 4666
z
" transform="scale(0.015625)"/>
        <path id="DejaVuSans-35" d="M 691 4666
L 3169 4666
L 3169 4134
L 1269 4134
L 1269 2991
Q 1406 3038 1543 3061
Q 1681 3084 1819 3084
Q 2600 3084 3056 2656
Q 3513 2228 3513 1497
Q 3513 744 3044 326
Q 2575 -91 1722 -91
Q 1428 -91 1123 -41
Q 819 9 494 109
L 494 744
Q 775 591 1075 516
Q 1375 441 1709 441
Q 2250 441 2565 725
Q 2881 1009 2881 1497
Q 2881 1984 2565 2268
Q 2250 2553 1709 2553
Q 1456 2553 1204 2497
Q 953 2441 691 2322
L 691 4666
z
" transform="scale(0.015625)"/>
       </defs>
       <use xlink:href="#DejaVuSans-2212"/>
       <use xlink:href="#DejaVuSans-37" x="83.789062"/>
       <use xlink:href="#DejaVuSans-2e" x="147.412109"/>
       <use xlink:href="#DejaVuSans-35" x="179.199219"/>
      </g>
     </g>
    </g>
    <g id="xtick_3">
     <g id="line2d_3">
      <g>
       <use xlink:href="#m7026150373" x="152.418291" y="325.921635" style="stroke: #000000; stroke-width: 0.8"/>
      </g>
     </g>
     <g id="text_3">
      <!-- −5.0 -->
      <g transform="translate(140.276885 340.520072)scale(0.1 -0.1)">
       <use xlink:href="#DejaVuSans-2212"/>
       <use xlink:href="#DejaVuSans-35" x="83.789062"/>
       <use xlink:href="#DejaVuSans-2e" x="147.412109"/>
       <use xlink:href="#DejaVuSans-30" x="179.199219"/>
      </g>
     </g>
    </g>
    <g id="xtick_4">
     <g id="line2d_4">
      <g>
       <use xlink:href="#m7026150373" x="200.134145" y="325.921635" style="stroke: #000000; stroke-width: 0.8"/>
      </g>
     </g>
     <g id="text_4">
      <!-- −2.5 -->
      <g transform="translate(187.992739 340.520072)scale(0.1 -0.1)">
       <defs>
        <path id="DejaVuSans-32" d="M 1228 531
L 3431 531
L 3431 0
L 469 0
L 469 531
Q 828 903 1448 1529
Q 2069 2156 2228 2338
Q 2531 2678 2651 2914
Q 2772 3150 2772 3378
Q 2772 3750 2511 3984
Q 2250 4219 1831 4219
Q 1534 4219 1204 4116
Q 875 4013 500 3803
L 500 4441
Q 881 4594 1212 4672
Q 1544 4750 1819 4750
Q 2544 4750 2975 4387
Q 3406 4025 3406 3419
Q 3406 3131 3298 2873
Q 3191 2616 2906 2266
Q 2828 2175 2409 1742
Q 1991 1309 1228 531
z
" transform="scale(0.015625)"/>
       </defs>
       <use xlink:href="#DejaVuSans-2212"/>
       <use xlink:href="#DejaVuSans-32" x="83.789062"/>
       <use xlink:href="#DejaVuSans-2e" x="147.412109"/>
       <use xlink:href="#DejaVuSans-35" x="179.199219"/>
      </g>
     </g>
    </g>
    <g id="xtick_5">
     <g id="line2d_5">
      <g>
       <use xlink:href="#m7026150373" x="247.85" y="325.921635" style="stroke: #000000; stroke-width: 0.8"/>
      </g>
     </g>
     <g id="text_5">
      <!-- 0.0 -->
      <g transform="translate(239.898438 340.520072)scale(0.1 -0.1)">
       <use xlink:href="#DejaVuSans-30"/>
       <use xlink:href="#DejaVuSans-2e" x="63.623047"/>
       <use xlink:href="#DejaVuSans-30" x="95.410156"/>
      </g>
     </g>
    </g>
    <g id="xtick_6">
     <g id="line2d_6">
      <g>
       <use xlink:href="#m7026150373" x="295.565855" y="325.921635" style="stroke: #000000; stroke-width: 0.8"/>
      </g>
     </g>
     <g id="text_6">
      <!-- 2.5 -->
      <g transform="translate(287.614292 340.520072)scale(0.1 -0.1)">
       <use xlink:href="#DejaVuSans-32"/>
       <use xlink:href="#DejaVuSans-2e" x="63.623047"/>
       <use xlink:href="#DejaVuSans-35" x="95.410156"/>
      </g>
     </g>
    </g>
    <g id="xtick_7">
     <g id="line2d_7">
      <g>
       <use xlink:href="#m7026150373" x="343.281709" y="325.921635" style="stroke: #000000; stroke-width: 0.8"/>
      </g>
     </g>
     <g id="text_7">
      <!-- 5.0 -->
      <g transform="translate(335.330147 340.520072)scale(0.1 -0.1)">
       <use xlink:href="#DejaVuSans-35"/>
       <use xlink:href="#DejaVuSans-2e" x="63.623047"/>
       <use xlink:href="#DejaVuSans-30" x="95.410156"/>
      </g>
     </g>
    </g>
    <g id="xtick_8">
     <g id="line2d_8">
      <g>
       <use xlink:href="#m7026150373" x="390.997564" y="325.921635" style="stroke: #000000; stroke-width: 0.8"/>
      </g>
     </g>
     <g id="text_8">
      <!-- 7.5 -->
      <g transform="translate(383.046001 340.520072)scale(0.1 -0.1)">
       <use xlink:href="#DejaVuSans-37"/>
       <use xlink:href="#DejaVuSans-2e" x="63.623047"/>
       <use xlink:href="#DejaVuSans-35" x="95.410156"/>
      </g>
     </g>
    </g>
    <g id="xtick_9">
     <g id="line2d_9">
      <g>
       <use xlink:href="#m7026150373" x="438.713418" y="325.921635" style="stroke: #000000; stroke-width: 0.8"/>
      </g>
     </g>
     <g id="text_9">
      <!-- 10.0 -->
      <g transform="translate(427.580606 340.520072)scale(0.1 -0.1)">
       <use xlink:href="#DejaVuSans-31"/>
       <use xlink:href="#DejaVuSans-30" x="63.623047"/>
       <use xlink:href="#DejaVuSans-2e" x="127.246094"/>
       <use xlink:href="#DejaVuSans-30" x="159.033203"/>
      </g>
     </g>
    </g>
   </g>
   <g id="matplotlib.axis_2">
    <g id="ytick_1">
     <g id="line2d_10">
      <defs>
       <path id="m470cabdc88" d="M 0 0
L -3.5 0
" style="stroke: #000000; stroke-width: 0.8"/>
      </defs>
      <g>
       <use xlink:href="#m470cabdc88" x="37.90024" y="325.921635" style="stroke: #000000; stroke-width: 0.8"/>
      </g>
     </g>
     <g id="text_10">
      <!-- $\mathdefault{10^{-16}}$ -->
      <g transform="translate(3.00024 329.720854)scale(0.1 -0.1)">
       <defs>
        <path id="DejaVuSans-36" d="M 2113 2584
Q 1688 2584 1439 2293
Q 1191 2003 1191 1497
Q 1191 994 1439 701
Q 1688 409 2113 409
Q 2538 409 2786 701
Q 3034 994 3034 1497
Q 3034 2003 2786 2293
Q 2538 2584 2113 2584
z
M 3366 4563
L 3366 3988
Q 3128 4100 2886 4159
Q 2644 4219 2406 4219
Q 1781 4219 1451 3797
Q 1122 3375 1075 2522
Q 1259 2794 1537 2939
Q 1816 3084 2150 3084
Q 2853 3084 3261 2657
Q 3669 2231 3669 1497
Q 3669 778 3244 343
Q 2819 -91 2113 -91
Q 1303 -91 875 529
Q 447 1150 447 2328
Q 447 3434 972 4092
Q 1497 4750 2381 4750
Q 2619 4750 2861 4703
Q 3103 4656 3366 4563
z
" transform="scale(0.015625)"/>
       </defs>
       <use xlink:href="#DejaVuSans-31" transform="translate(0 0.765625)"/>
       <use xlink:href="#DejaVuSans-30" transform="translate(63.623047 0.765625)"/>
       <use xlink:href="#DejaVuSans-2212" transform="translate(128.203125 39.046875)scale(0.7)"/>
       <use xlink:href="#DejaVuSans-31" transform="translate(186.855469 39.046875)scale(0.7)"/>
       <use xlink:href="#DejaVuSans-36" transform="translate(231.391602 39.046875)scale(0.7)"/>
      </g>
     </g>
    </g>
    <g id="ytick_2">
     <g id="line2d_11">
      <g>
       <use xlink:href="#m470cabdc88" x="37.90024" y="264.360981" style="stroke: #000000; stroke-width: 0.8"/>
      </g>
     </g>
     <g id="text_11">
      <!-- $\mathdefault{10^{-15}}$ -->
      <g transform="translate(3.00024 268.1602)scale(0.1 -0.1)">
       <use xlink:href="#DejaVuSans-31" transform="translate(0 0.684375)"/>
       <use xlink:href="#DejaVuSans-30" transform="translate(63.623047 0.684375)"/>
       <use xlink:href="#DejaVuSans-2212" transform="translate(128.203125 38.965625)scale(0.7)"/>
       <use xlink:href="#DejaVuSans-31" transform="translate(186.855469 38.965625)scale(0.7)"/>
       <use xlink:href="#DejaVuSans-35" transform="translate(231.391602 38.965625)scale(0.7)"/>
      </g>
     </g>
    </g>
    <g id="ytick_3">
     <g id="line2d_12">
      <g>
       <use xlink:href="#m470cabdc88" x="37.90024" y="202.800327" style="stroke: #000000; stroke-width: 0.8"/>
      </g>
     </g>
     <g id="text_12">
      <!-- $\mathdefault{10^{-14}}$ -->
      <g transform="translate(3.00024 206.599546)scale(0.1 -0.1)">
       <defs>
        <path id="DejaVuSans-34" d="M 2419 4116
L 825 1625
L 2419 1625
L 2419 4116
z
M 2253 4666
L 3047 4666
L 3047 1625
L 3713 1625
L 3713 1100
L 3047 1100
L 3047 0
L 2419 0
L 2419 1100
L 313 1100
L 313 1709
L 2253 4666
z
" transform="scale(0.015625)"/>
       </defs>
       <use xlink:href="#DejaVuSans-31" transform="translate(0 0.684375)"/>
       <use xlink:href="#DejaVuSans-30" transform="translate(63.623047 0.684375)"/>
       <use xlink:href="#DejaVuSans-2212" transform="translate(128.203125 38.965625)scale(0.7)"/>
       <use xlink:href="#DejaVuSans-31" transform="translate(186.855469 38.965625)scale(0.7)"/>
       <use xlink:href="#DejaVuSans-34" transform="translate(231.391602 38.965625)scale(0.7)"/>
      </g>
     </g>
    </g>
    <g id="ytick_4">
     <g id="line2d_13">
      <g>
       <use xlink:href="#m470cabdc88" x="37.90024" y="141.239673" style="stroke: #000000; stroke-width: 0.8"/>
      </g>
     </g>
     <g id="text_13">
      <!-- $\mathdefault{10^{-13}}$ -->
      <g transform="translate(3.00024 145.038892)scale(0.1 -0.1)">
       <defs>
        <path id="DejaVuSans-33" d="M 2597 2516
Q 3050 2419 3304 2112
Q 3559 1806 3559 1356
Q 3559 666 3084 287
Q 2609 -91 1734 -91
Q 1441 -91 1130 -33
Q 819 25 488 141
L 488 750
Q 750 597 1062 519
Q 1375 441 1716 441
Q 2309 441 2620 675
Q 2931 909 2931 1356
Q 2931 1769 2642 2001
Q 2353 2234 1838 2234
L 1294 2234
L 1294 2753
L 1863 2753
Q 2328 2753 2575 2939
Q 2822 3125 2822 3475
Q 2822 3834 2567 4026
Q 2313 4219 1838 4219
Q 1578 4219 1281 4162
Q 984 4106 628 3988
L 628 4550
Q 988 4650 1302 4700
Q 1616 4750 1894 4750
Q 2613 4750 3031 4423
Q 3450 4097 3450 3541
Q 3450 3153 3228 2886
Q 3006 2619 2597 2516
z
" transform="scale(0.015625)"/>
       </defs>
       <use xlink:href="#DejaVuSans-31" transform="translate(0 0.765625)"/>
       <use xlink:href="#DejaVuSans-30" transform="translate(63.623047 0.765625)"/>
       <use xlink:href="#DejaVuSans-2212" transform="translate(128.203125 39.046875)scale(0.7)"/>
       <use xlink:href="#DejaVuSans-31" transform="translate(186.855469 39.046875)scale(0.7)"/>
       <use xlink:href="#DejaVuSans-33" transform="translate(231.391602 39.046875)scale(0.7)"/>
      </g>
     </g>
    </g>
    <g id="ytick_5">
     <g id="line2d_14">
      <g>
       <use xlink:href="#m470cabdc88" x="37.90024" y="79.679019" style="stroke: #000000; stroke-width: 0.8"/>
      </g>
     </g>
     <g id="text_14">
      <!-- $\mathdefault{10^{-12}}$ -->
      <g transform="translate(3.00024 83.478238)scale(0.1 -0.1)">
       <use xlink:href="#DejaVuSans-31" transform="translate(0 0.765625)"/>
       <use xlink:href="#DejaVuSans-30" transform="translate(63.623047 0.765625)"/>
       <use xlink:href="#DejaVuSans-2212" transform="translate(128.203125 39.046875)scale(0.7)"/>
       <use xlink:href="#DejaVuSans-31" transform="translate(186.855469 39.046875)scale(0.7)"/>
       <use xlink:href="#DejaVuSans-32" transform="translate(231.391602 39.046875)scale(0.7)"/>
      </g>
     </g>
    </g>
    <g id="ytick_6">
     <g id="line2d_15">
      <g>
       <use xlink:href="#m470cabdc88" x="37.90024" y="18.118365" style="stroke: #000000; stroke-width: 0.8"/>
      </g>
     </g>
     <g id="text_15">
      <!-- $\mathdefault{10^{-11}}$ -->
      <g transform="translate(3.00024 21.917584)scale(0.1 -0.1)">
       <use xlink:href="#DejaVuSans-31" transform="translate(0 0.684375)"/>
       <use xlink:href="#DejaVuSans-30" transform="translate(63.623047 0.684375)"/>
       <use xlink:href="#DejaVuSans-2212" transform="translate(128.203125 38.965625)scale(0.7)"/>
       <use xlink:href="#DejaVuSans-31" transform="translate(186.855469 38.965625)scale(0.7)"/>
       <use xlink:href="#DejaVuSans-31" transform="translate(231.391602 38.965625)scale(0.7)"/>
      </g>
     </g>
    </g>
    <g id="ytick_7">
     <g id="line2d_16">
      <defs>
       <path id="ma0a6dc8495" d="M 0 0
L -2 0
" style="stroke: #000000; stroke-width: 0.6"/>
      </defs>
      <g>
       <use xlink:href="#ma0a6dc8495" x="37.90024" y="307.390032" style="stroke: #000000; stroke-width: 0.6"/>
      </g>
     </g>
    </g>
    <g id="ytick_8">
     <g id="line2d_17">
      <g>
       <use xlink:href="#ma0a6dc8495" x="37.90024" y="296.549739" style="stroke: #000000; stroke-width: 0.6"/>
      </g>
     </g>
    </g>
    <g id="ytick_9">
     <g id="line2d_18">
      <g>
       <use xlink:href="#ma0a6dc8495" x="37.90024" y="288.858428" style="stroke: #000000; stroke-width: 0.6"/>
      </g>
     </g>
    </g>
    <g id="ytick_10">
     <g id="line2d_19">
      <g>
       <use xlink:href="#ma0a6dc8495" x="37.90024" y="282.892584" style="stroke: #000000; stroke-width: 0.6"/>
      </g>
     </g>
    </g>
    <g id="ytick_11">
     <g id="line2d_20">
      <g>
       <use xlink:href="#ma0a6dc8495" x="37.90024" y="278.018135" style="stroke: #000000; stroke-width: 0.6"/>
      </g>
     </g>
    </g>
    <g id="ytick_12">
     <g id="line2d_21">
      <g>
       <use xlink:href="#ma0a6dc8495" x="37.90024" y="273.896847" style="stroke: #000000; stroke-width: 0.6"/>
      </g>
     </g>
    </g>
    <g id="ytick_13">
     <g id="line2d_22">
      <g>
       <use xlink:href="#ma0a6dc8495" x="37.90024" y="270.326825" style="stroke: #000000; stroke-width: 0.6"/>
      </g>
     </g>
    </g>
    <g id="ytick_14">
     <g id="line2d_23">
      <g>
       <use xlink:href="#ma0a6dc8495" x="37.90024" y="267.177842" style="stroke: #000000; stroke-width: 0.6"/>
      </g>
     </g>
    </g>
    <g id="ytick_15">
     <g id="line2d_24">
      <g>
       <use xlink:href="#ma0a6dc8495" x="37.90024" y="245.829378" style="stroke: #000000; stroke-width: 0.6"/>
      </g>
     </g>
    </g>
    <g id="ytick_16">
     <g id="line2d_25">
      <g>
       <use xlink:href="#ma0a6dc8495" x="37.90024" y="234.989085" style="stroke: #000000; stroke-width: 0.6"/>
      </g>
     </g>
    </g>
    <g id="ytick_17">
     <g id="line2d_26">
      <g>
       <use xlink:href="#ma0a6dc8495" x="37.90024" y="227.297774" style="stroke: #000000; stroke-width: 0.6"/>
      </g>
     </g>
    </g>
    <g id="ytick_18">
     <g id="line2d_27">
      <g>
       <use xlink:href="#ma0a6dc8495" x="37.90024" y="221.33193" style="stroke: #000000; stroke-width: 0.6"/>
      </g>
     </g>
    </g>
    <g id="ytick_19">
     <g id="line2d_28">
      <g>
       <use xlink:href="#ma0a6dc8495" x="37.90024" y="216.457481" style="stroke: #000000; stroke-width: 0.6"/>
      </g>
     </g>
    </g>
    <g id="ytick_20">
     <g id="line2d_29">
      <g>
       <use xlink:href="#ma0a6dc8495" x="37.90024" y="212.336193" style="stroke: #000000; stroke-width: 0.6"/>
      </g>
     </g>
    </g>
    <g id="ytick_21">
     <g id="line2d_30">
      <g>
       <use xlink:href="#ma0a6dc8495" x="37.90024" y="208.766171" style="stroke: #000000; stroke-width: 0.6"/>
      </g>
     </g>
    </g>
    <g id="ytick_22">
     <g id="line2d_31">
      <g>
       <use xlink:href="#ma0a6dc8495" x="37.90024" y="205.617188" style="stroke: #000000; stroke-width: 0.6"/>
      </g>
     </g>
    </g>
    <g id="ytick_23">
     <g id="line2d_32">
      <g>
       <use xlink:href="#ma0a6dc8495" x="37.90024" y="184.268724" style="stroke: #000000; stroke-width: 0.6"/>
      </g>
     </g>
    </g>
    <g id="ytick_24">
     <g id="line2d_33">
      <g>
       <use xlink:href="#ma0a6dc8495" x="37.90024" y="173.428431" style="stroke: #000000; stroke-width: 0.6"/>
      </g>
     </g>
    </g>
    <g id="ytick_25">
     <g id="line2d_34">
      <g>
       <use xlink:href="#ma0a6dc8495" x="37.90024" y="165.73712" style="stroke: #000000; stroke-width: 0.6"/>
      </g>
     </g>
    </g>
    <g id="ytick_26">
     <g id="line2d_35">
      <g>
       <use xlink:href="#ma0a6dc8495" x="37.90024" y="159.771276" style="stroke: #000000; stroke-width: 0.6"/>
      </g>
     </g>
    </g>
    <g id="ytick_27">
     <g id="line2d_36">
      <g>
       <use xlink:href="#ma0a6dc8495" x="37.90024" y="154.896827" style="stroke: #000000; stroke-width: 0.6"/>
      </g>
     </g>
    </g>
    <g id="ytick_28">
     <g id="line2d_37">
      <g>
       <use xlink:href="#ma0a6dc8495" x="37.90024" y="150.775539" style="stroke: #000000; stroke-width: 0.6"/>
      </g>
     </g>
    </g>
    <g id="ytick_29">
     <g id="line2d_38">
      <g>
       <use xlink:href="#ma0a6dc8495" x="37.90024" y="147.205517" style="stroke: #000000; stroke-width: 0.6"/>
      </g>
     </g>
    </g>
    <g id="ytick_30">
     <g id="line2d_39">
      <g>
       <use xlink:href="#ma0a6dc8495" x="37.90024" y="144.056534" style="stroke: #000000; stroke-width: 0.6"/>
      </g>
     </g>
    </g>
    <g id="ytick_31">
     <g id="line2d_40">
      <g>
       <use xlink:href="#ma0a6dc8495" x="37.90024" y="122.70807" style="stroke: #000000; stroke-width: 0.6"/>
      </g>
     </g>
    </g>
    <g id="ytick_32">
     <g id="line2d_41">
      <g>
       <use xlink:href="#ma0a6dc8495" x="37.90024" y="111.867777" style="stroke: #000000; stroke-width: 0.6"/>
      </g>
     </g>
    </g>
    <g id="ytick_33">
     <g id="line2d_42">
      <g>
       <use xlink:href="#ma0a6dc8495" x="37.90024" y="104.176466" style="stroke: #000000; stroke-width: 0.6"/>
      </g>
     </g>
    </g>
    <g id="ytick_34">
     <g id="line2d_43">
      <g>
       <use xlink:href="#ma0a6dc8495" x="37.90024" y="98.210622" style="stroke: #000000; stroke-width: 0.6"/>
      </g>
     </g>
    </g>
    <g id="ytick_35">
     <g id="line2d_44">
      <g>
       <use xlink:href="#ma0a6dc8495" x="37.90024" y="93.336173" style="stroke: #000000; stroke-width: 0.6"/>
      </g>
     </g>
    </g>
    <g id="ytick_36">
     <g id="line2d_45">
      <g>
       <use xlink:href="#ma0a6dc8495" x="37.90024" y="89.214885" style="stroke: #000000; stroke-width: 0.6"/>
      </g>
     </g>
    </g>
    <g id="ytick_37">
     <g id="line2d_46">
      <g>
       <use xlink:href="#ma0a6dc8495" x="37.90024" y="85.644863" style="stroke: #000000; stroke-width: 0.6"/>
      </g>
     </g>
    </g>
    <g id="ytick_38">
     <g id="line2d_47">
      <g>
       <use xlink:href="#ma0a6dc8495" x="37.90024" y="82.49588" style="stroke: #000000; stroke-width: 0.6"/>
      </g>
     </g>
    </g>
    <g id="ytick_39">
     <g id="line2d_48">
      <g>
       <use xlink:href="#ma0a6dc8495" x="37.90024" y="61.147416" style="stroke: #000000; stroke-width: 0.6"/>
      </g>
     </g>
    </g>
    <g id="ytick_40">
     <g id="line2d_49">
      <g>
       <use xlink:href="#ma0a6dc8495" x="37.90024" y="50.307123" style="stroke: #000000; stroke-width: 0.6"/>
      </g>
     </g>
    </g>
    <g id="ytick_41">
     <g id="line2d_50">
      <g>
       <use xlink:href="#ma0a6dc8495" x="37.90024" y="42.615812" style="stroke: #000000; stroke-width: 0.6"/>
      </g>
     </g>
    </g>
    <g id="ytick_42">
     <g id="line2d_51">
      <g>
       <use xlink:href="#ma0a6dc8495" x="37.90024" y="36.649968" style="stroke: #000000; stroke-width: 0.6"/>
      </g>
     </g>
    </g>
    <g id="ytick_43">
     <g id="line2d_52">
      <g>
       <use xlink:href="#ma0a6dc8495" x="37.90024" y="31.775519" style="stroke: #000000; stroke-width: 0.6"/>
      </g>
     </g>
    </g>
    <g id="ytick_44">
     <g id="line2d_53">
      <g>
       <use xlink:href="#ma0a6dc8495" x="37.90024" y="27.654231" style="stroke: #000000; stroke-width: 0.6"/>
      </g>
     </g>
    </g>
    <g id="ytick_45">
     <g id="line2d_54">
      <g>
       <use xlink:href="#ma0a6dc8495" x="37.90024" y="24.084209" style="stroke: #000000; stroke-width: 0.6"/>
      </g>
     </g>
    </g>
    <g id="ytick_46">
     <g id="line2d_55">
      <g>
       <use xlink:href="#ma0a6dc8495" x="37.90024" y="20.935226" style="stroke: #000000; stroke-width: 0.6"/>
      </g>
     </g>
    </g>
   </g>
   <g id="line2d_56">
    <path d="M 56.986582 226.586628
L 57.7508 252.56976
L 58.132909 256.691048
L 58.515018 230.468135
L 58.897127 220.765692
L 59.279235 256.691048
L 59.661344 254.55107
L 60.043453 323.126152
L 60.425562 205.970687
L 60.807671 286.062945
L 61.18978 293.754255
L 61.571889 323.126152
L 61.953998 267.531341
L 62.718216 275.222652
L 63.100325 267.531341
L 63.864543 304.594548
L 64.246652 243.033894
L 64.628761 237.06805
L 65.01087 286.062945
L 65.392979 267.531341
L 65.775088 275.222652
L 66.157197 275.222652
L 66.539305 304.594548
L 66.921414 267.531341
L 67.303523 280.097101
L 67.303943 346.6
M 68.449469 346.6
L 68.44985 286.062945
L 68.831959 280.097101
L 69.214068 304.594548
L 69.596177 280.097101
L 69.978286 304.594548
L 70.360395 286.062945
L 70.742504 228.847308
L 71.506722 275.222652
L 71.888831 323.126152
L 72.27094 323.126152
L 72.653049 286.062945
L 73.035158 304.594548
L 73.417266 304.594548
L 73.799375 247.378911
L 74.181484 286.062945
L 74.563593 304.594548
L 75.327811 240.485733
L 75.70992 248.999738
L 76.092029 234.038157
L 76.474138 245.850755
L 76.856247 252.56976
L 77.238356 323.126152
L 77.620465 259.017337
L 78.002574 254.55107
L 78.384683 232.193601
L 78.766792 252.56976
L 79.148901 223.197864
L 79.53101 219.627841
L 79.913119 211.52202
L 80.295227 212.357571
L 80.677336 200.004844
L 81.059445 192.180189
L 81.441554 227.319152
L 81.823663 248.999738
L 82.205772 200.273544
L 82.587881 280.097101
L 82.96999 275.222652
L 83.352099 211.52202
L 83.734208 304.594548
L 84.116317 243.033894
L 84.498426 286.062945
L 84.880535 215.988286
L 85.262644 280.097101
L 85.644753 221.95413
L 86.026862 237.06805
L 86.408971 256.691048
L 86.79108 186.454846
L 87.173188 238.159445
L 87.555297 220.765692
L 87.937406 275.222652
L 88.319515 264.382359
L 88.701624 216.478859
L 89.083733 208.418778
L 89.465842 224.502291
L 89.847951 221.95413
L 90.23006 190.629873
L 90.612169 212.785347
L 90.994278 221.95413
L 91.376387 304.594548
L 92.140605 206.64757
L 92.522714 248.999738
L 92.904823 240.485733
L 93.286932 160.151525
L 93.669041 204.66626
L 94.05115 215.506553
L 94.433258 198.195959
L 94.815367 232.193601
L 95.197476 144.544046
L 95.579585 184.890923
L 95.961694 169.929342
L 96.343803 223.842123
L 96.725912 183.41345
L 97.108021 247.378911
L 97.49013 160.393476
L 97.872239 164.595904
L 98.254348 135.847463
L 98.636457 182.287581
L 99.018566 132.138304
L 99.400675 174.458813
L 100.164893 97.018259
L 100.547002 74.267407
L 100.929111 143.490296
L 101.311219 173.056633
L 101.693328 182.287581
L 102.075437 149.961366
L 102.457546 152.732564
L 102.839655 184.439046
L 103.221764 234.038157
L 103.603873 174.977964
L 103.985982 254.55107
L 104.368091 211.936531
L 104.7502 206.64757
L 105.132309 191.784101
L 105.514418 171.173076
L 105.896527 234.038157
L 106.278636 219.627841
L 106.660745 236.019467
L 107.042854 182.013369
L 107.424963 190.629873
L 107.807072 267.531341
L 108.18918 220.765692
L 108.571289 264.382359
L 108.953398 286.062945
L 109.335507 234.038157
L 109.717616 222.568765
L 110.099725 252.56976
L 110.481834 232.193601
L 110.863943 264.382359
L 111.246052 256.691048
L 111.628161 261.565498
L 112.01027 261.565498
L 112.392379 275.222652
L 112.774488 223.197864
L 113.156597 254.55107
L 113.538706 229.64544
L 113.920815 245.850755
L 114.302924 225.87364
L 114.685033 227.319152
L 115.067142 202.234089
L 115.44925 219.627841
L 115.831359 218.536447
L 116.213468 207.342037
L 116.595577 230.468135
L 116.977686 211.52202
L 117.359795 323.126152
L 117.741904 247.378911
L 118.124013 304.594548
L 118.506122 245.850755
L 118.888231 259.017337
L 119.27034 254.55107
L 119.652449 304.594548
L 120.034558 286.062945
L 120.798776 219.076575
L 121.180885 271.101364
L 121.562994 271.101364
L 121.945103 256.691048
L 122.327211 264.382359
L 122.70932 275.222652
L 123.091429 240.485733
L 123.473538 234.038157
L 123.855647 280.097101
L 124.237756 261.565498
L 124.619865 304.594548
L 125.001974 254.55107
L 125.384083 252.56976
L 125.766192 304.594548
L 126.148301 286.062945
L 126.53041 261.565498
L 126.530946 346.6
M 127.294209 346.6
L 127.294628 280.097101
L 127.676737 286.062945
L 128.058846 304.594548
L 128.823064 304.594548
L 129.205172 275.222652
L 129.587281 275.222652
L 129.96939 280.097101
L 130.351499 304.594548
L 130.733608 256.691048
L 130.734175 346.6
M 131.497445 346.6
L 131.497826 286.062945
L 131.879935 293.754255
L 132.262044 230.468135
L 132.644153 271.101364
L 133.026262 286.062945
L 133.408371 293.754255
L 133.79048 286.062945
L 134.172589 245.850755
L 134.554698 243.033894
L 134.936807 243.033894
L 135.318916 225.87364
L 135.701025 275.222652
L 136.083133 243.033894
L 136.465242 252.56976
L 136.847351 228.847308
L 137.22946 250.725204
L 137.611569 235.010462
L 137.993678 293.754255
L 138.375787 238.159445
L 138.757896 259.017337
L 139.140005 264.382359
L 139.522114 226.586628
L 139.904223 216.478859
L 140.286332 231.31695
L 140.668441 218.536447
L 141.05055 227.319152
L 141.432659 226.586628
L 141.814768 208.055024
L 142.196877 239.297295
L 142.578986 211.936531
L 142.961095 196.036768
L 143.343203 226.586628
L 143.725312 206.306987
L 144.107421 204.349861
L 144.48953 208.787548
L 144.871639 293.754255
L 145.253748 194.688476
L 145.635857 193.614619
L 146.017966 212.785347
L 146.400075 221.95413
L 146.782184 304.594548
L 147.164293 209.54071
L 147.546402 211.936531
L 147.928511 211.113837
L 148.31062 206.306987
L 148.692729 271.101364
L 149.074838 192.582233
L 149.456947 210.315704
L 149.839056 235.010462
L 150.221164 194.253744
L 150.603273 201.65911
L 150.985382 219.627841
L 151.367491 228.847308
L 152.131709 187.775383
L 152.513818 190.255945
L 152.895927 230.468135
L 153.278036 198.446998
L 153.660145 293.754255
L 154.042254 188.115967
L 154.424363 224.502291
L 154.806472 173.350971
L 155.188581 208.055024
L 155.57069 217.487863
L 155.952799 208.787548
L 156.334908 221.95413
L 156.717017 211.936531
L 157.099125 206.306987
L 157.481234 323.126152
L 158.245452 173.848852
L 158.627561 155.317249
L 159.00967 234.038157
L 159.391779 180.424657
L 159.773888 213.661998
L 160.155997 165.025974
L 160.538106 144.044925
L 160.920215 227.319152
L 161.684433 107.147059
L 162.066542 43.697658
L 162.448651 143.847857
L 162.83076 182.564635
L 163.212869 138.019808
L 163.594978 172.287214
L 163.977087 141.559774
L 164.359195 192.582233
L 165.123413 176.376919
L 165.505522 170.991818
L 165.887631 156.341721
L 166.26974 189.16455
L 166.651849 169.929342
L 167.033958 204.986449
L 167.416067 226.586628
L 167.798176 204.66626
L 168.180285 172.862192
L 168.562394 202.234089
L 168.944503 198.446998
L 169.326612 196.501744
L 170.09083 188.986906
L 170.472939 178.80383
L 170.855048 235.010462
L 171.237156 214.568371
L 171.619265 177.736641
L 172.001374 248.999738
L 172.383483 218.536447
L 172.765592 248.999738
L 173.147701 192.990416
L 173.52981 209.54071
L 173.911919 240.485733
L 174.294028 259.017337
L 175.058246 223.197864
L 175.440355 215.988286
L 175.822464 220.765692
L 176.204573 267.531341
L 176.586682 232.193601
L 176.968791 275.222652
L 177.733009 194.253744
L 178.115117 275.222652
L 178.497226 228.847308
L 178.879335 214.568371
L 179.261444 219.627841
L 179.643553 256.691048
L 180.025662 275.222652
L 180.407771 221.95413
L 180.78988 259.017337
L 181.171989 256.691048
L 181.554098 286.062945
L 181.936207 304.594548
L 182.318316 245.850755
L 182.700425 237.06805
L 183.082534 238.159445
L 183.464643 304.594548
L 183.846752 286.062945
L 184.61097 286.062945
L 184.993078 232.193601
L 185.757296 267.531341
L 186.139405 271.101364
L 186.139881 346.6
M 186.903242 346.6
L 186.903623 286.062945
L 187.285732 304.594548
L 187.667841 286.062945
L 187.668223 346.6
M 188.431677 346.6
L 188.432059 286.062945
L 188.814168 304.594548
L 189.196277 286.062945
L 190.342604 256.691048
L 190.724713 239.297295
L 191.106822 244.405244
L 191.488931 261.565498
L 191.87104 252.56976
L 192.253148 286.062945
L 192.635257 261.565498
L 193.017366 259.017337
L 193.399475 304.594548
L 193.781584 304.594548
L 194.163693 226.586628
L 194.545802 248.999738
L 194.927911 252.56976
L 195.31002 232.193601
L 195.692129 234.038157
L 196.074238 250.725204
L 196.456347 232.193601
L 196.838456 248.999738
L 197.220565 293.754255
L 197.602674 243.033894
L 197.984783 226.586628
L 198.366892 259.017337
L 198.749001 245.850755
L 199.131109 245.850755
L 199.513218 252.56976
L 199.895327 223.197864
L 200.277436 240.485733
L 200.659545 228.072313
L 201.041654 252.56976
L 201.805872 210.315704
L 202.187981 211.113837
L 202.57009 243.033894
L 202.952199 256.691048
L 203.334308 275.222652
L 203.716417 243.033894
L 204.098526 252.56976
L 204.480635 225.87364
L 204.862744 261.565498
L 205.244853 286.062945
L 206.00907 267.531341
L 206.391179 225.87364
L 206.773288 239.297295
L 207.155397 218.536447
L 207.537506 271.101364
L 207.919615 275.222652
L 208.301724 240.485733
L 208.683833 219.627841
L 209.065942 245.850755
L 209.448051 264.382359
L 209.83016 234.038157
L 210.212269 217.487863
L 210.594378 245.850755
L 210.976487 238.159445
L 211.358596 248.999738
L 211.740705 198.446998
L 212.122814 201.65911
L 212.504923 196.97495
L 212.887032 196.501744
L 213.26914 304.594548
L 213.651249 240.485733
L 214.033358 286.062945
L 214.415467 256.691048
L 214.797576 194.039
L 215.179685 267.531341
L 215.561794 238.159445
L 215.943903 219.627841
L 216.326012 223.197864
L 216.708121 194.039
L 217.09023 205.310519
L 217.472339 198.95626
L 217.854448 201.65911
L 218.236557 196.268245
L 218.618666 201.65911
L 219.000775 286.062945
L 219.001156 346.6
M 219.764027 346.6
L 219.764993 193.196869
L 220.147101 236.019467
L 220.52921 256.691048
L 220.911319 220.190714
L 221.293428 221.95413
L 221.675537 216.478859
L 222.057646 304.594548
L 222.821864 178.683128
L 223.203973 182.84459
L 223.586082 200.819184
L 223.968191 232.193601
L 224.3503 209.161477
L 224.732409 271.101364
L 225.114518 286.062945
L 225.496627 191.784101
L 225.878736 210.711792
L 226.260845 191.784101
L 226.642954 264.382359
L 227.025062 280.097101
L 227.407171 196.501744
L 227.78928 199.475411
L 228.171389 185.975989
L 228.553498 190.629873
L 228.935607 188.115967
L 229.317716 191.009106
L 229.699825 184.890923
L 230.081934 224.502291
L 230.464043 189.704679
L 230.846152 181.207214
L 231.228261 201.096238
L 231.229177 346.6
M 231.991404 346.6
L 231.992479 175.72214
L 232.374588 176.82252
L 232.756697 219.627841
L 233.138806 155.519027
L 233.520915 323.126152
L 233.903023 189.523421
L 234.285132 190.255945
L 234.667241 206.64757
L 235.04935 177.736641
L 235.431459 165.610379
L 235.813568 238.159445
L 236.195677 234.038157
L 236.577786 256.691048
L 237.342004 165.982227
L 237.724113 172.09827
L 238.106222 167.923242
L 238.488331 211.936531
L 238.87044 216.478859
L 239.252549 186.942436
L 239.634658 213.661998
L 240.016767 205.310519
L 240.398876 183.702485
L 240.780985 193.404928
L 241.163093 172.862192
L 241.545202 143.782489
L 241.927311 172.287214
L 242.30942 160.211807
L 242.691529 179.915395
L 243.073638 136.337137
L 243.455747 132.909572
L 243.837856 184.890923
L 244.219965 156.76276
L 244.602074 108.586582
L 244.984183 152.55069
L 245.366292 117.608586
L 245.748401 164.172642
L 246.13051 137.44707
L 246.512619 87.542643
L 246.894728 113.41731
L 247.276837 120.046599
L 247.658946 54.236756
L 248.041054 54.236756
L 248.423163 120.046599
L 248.805272 113.41731
L 249.187381 87.542643
L 249.56949 137.44707
L 249.951599 164.172642
L 250.333708 117.608586
L 250.715817 152.55069
L 251.097926 108.586582
L 251.480035 156.76276
L 251.862144 184.890923
L 252.244253 132.909572
L 252.626362 136.337137
L 253.008471 179.915395
L 253.39058 160.211807
L 253.772689 172.287214
L 254.154798 143.782489
L 254.536907 172.862192
L 254.919015 193.404928
L 255.301124 183.702485
L 255.683233 205.310519
L 256.065342 213.661998
L 256.447451 186.942436
L 256.82956 216.478859
L 257.211669 211.936531
L 257.593778 167.923242
L 257.975887 172.09827
L 258.357996 165.982227
L 259.122214 256.691048
L 259.504323 234.038157
L 259.886432 238.159445
L 260.268541 165.610379
L 260.65065 177.736641
L 261.032759 206.64757
L 261.414868 190.255945
L 261.796977 189.523421
L 262.179085 323.126152
L 262.561194 155.519027
L 262.943303 219.627841
L 263.325412 176.82252
L 263.707521 175.72214
L 263.708596 346.6
M 264.470823 346.6
L 264.471739 201.096238
L 264.853848 181.207214
L 265.235957 189.704679
L 265.618066 224.502291
L 266.000175 184.890923
L 266.382284 191.009106
L 266.764393 188.115967
L 267.146502 190.629873
L 267.528611 185.975989
L 267.91072 199.475411
L 268.292829 196.501744
L 268.674938 280.097101
L 269.057046 264.382359
L 269.439155 191.784101
L 269.821264 210.711792
L 270.203373 191.784101
L 270.585482 286.062945
L 270.967591 271.101364
L 271.3497 209.161477
L 271.731809 232.193601
L 272.113918 200.819184
L 272.496027 182.84459
L 272.878136 178.683128
L 273.642354 304.594548
L 274.024463 216.478859
L 274.406572 221.95413
L 274.788681 220.190714
L 275.17079 256.691048
L 275.552899 236.019467
L 275.935007 193.196869
L 275.935973 346.6
M 276.698844 346.6
L 276.699225 286.062945
L 277.081334 201.65911
L 277.463443 196.268245
L 277.845552 201.65911
L 278.227661 198.95626
L 278.60977 205.310519
L 278.991879 194.039
L 279.373988 223.197864
L 279.756097 219.627841
L 280.138206 238.159445
L 280.520315 267.531341
L 280.902424 194.039
L 281.284533 256.691048
L 281.666642 286.062945
L 282.048751 240.485733
L 282.43086 304.594548
L 282.812968 196.501744
L 283.195077 196.97495
L 283.577186 201.65911
L 283.959295 198.446998
L 284.341404 248.999738
L 284.723513 238.159445
L 285.105622 245.850755
L 285.487731 217.487863
L 285.86984 234.038157
L 286.251949 275.222652
L 286.634058 243.033894
L 287.016167 280.097101
L 287.398276 236.019467
L 287.780385 275.222652
L 288.162494 219.627841
L 288.544603 223.197864
L 288.926712 267.531341
L 289.308821 234.038157
L 289.69093 236.019467
L 290.073038 223.197864
L 290.455147 237.06805
L 290.837256 230.468135
L 291.219365 204.037162
L 291.601474 230.468135
L 291.983583 223.197864
L 292.365692 243.033894
L 292.747801 219.627841
L 293.12991 214.111344
L 293.512019 254.55107
L 293.894128 245.850755
L 294.276237 252.56976
L 294.658346 232.193601
L 294.659066 346.6
M 295.421741 346.6
L 295.422564 215.988286
L 296.186782 259.017337
L 296.568891 218.536447
L 296.950999 243.033894
L 297.333108 210.315704
L 297.715217 234.038157
L 298.097326 286.062945
L 298.479435 275.222652
L 298.861544 237.06805
L 299.243653 221.95413
L 299.625762 323.126152
L 300.007871 275.222652
L 300.38998 323.126152
L 300.772089 248.999738
L 301.154198 286.062945
L 301.536307 286.062945
L 301.918416 231.31695
L 302.300525 275.222652
L 302.682634 261.565498
L 303.064743 261.565498
L 303.446852 267.531341
L 303.82896 304.594548
L 304.211069 252.56976
L 304.593178 267.531341
L 304.975287 261.565498
L 305.357396 293.754255
L 305.739505 304.594548
L 305.73977 346.6
M 306.503458 346.6
L 306.503723 304.594548
L 306.885832 286.062945
L 307.267941 286.062945
L 307.268323 346.6
M 308.031777 346.6
L 308.032159 286.062945
L 308.414268 293.754255
L 308.796377 304.594548
L 309.178486 280.097101
L 309.560595 304.594548
L 309.56086 346.6
M 310.706403 346.6
L 310.706922 264.382359
L 311.08903 286.062945
L 311.471139 286.062945
L 311.853248 267.531341
L 312.235357 267.531341
L 312.617466 304.594548
L 312.999575 240.485733
L 313.381684 225.179174
L 313.763793 286.062945
L 314.145902 240.485733
L 314.528011 252.56976
L 314.91012 275.222652
L 315.292229 286.062945
L 315.674338 252.56976
L 316.438556 219.627841
L 316.820665 214.568371
L 317.202774 228.847308
L 317.584883 275.222652
L 317.966991 194.253744
L 318.731209 275.222652
L 319.113318 232.193601
L 319.495427 267.531341
L 319.877536 220.765692
L 320.259645 215.988286
L 320.641754 223.197864
L 321.405972 259.017337
L 321.788081 240.485733
L 322.17019 209.54071
L 322.552299 192.990416
L 322.934408 248.999738
L 323.316517 218.536447
L 323.698626 248.999738
L 324.080735 177.736641
L 324.462844 214.568371
L 324.844952 235.010462
L 325.227061 178.80383
L 325.60917 188.986906
L 326.373388 196.501744
L 326.755497 198.446998
L 327.137606 202.234089
L 327.519715 172.862192
L 327.901824 204.66626
L 328.283933 226.586628
L 328.666042 204.986449
L 329.048151 169.929342
L 329.43026 189.16455
L 329.812369 156.341721
L 330.194478 170.991818
L 330.576587 176.376919
L 331.340805 192.582233
L 331.722913 141.559774
L 332.105022 172.287214
L 332.487131 138.019808
L 332.86924 182.564635
L 333.251349 143.847857
L 333.633458 43.697658
L 334.779785 227.319152
L 335.161894 144.044925
L 335.544003 165.025974
L 335.926112 213.661998
L 336.308221 180.424657
L 336.69033 234.038157
L 337.072439 155.317249
L 337.454548 173.848852
L 338.218766 323.126152
L 338.600875 206.306987
L 338.982983 211.936531
L 339.365092 221.95413
L 339.747201 208.787548
L 340.12931 217.487863
L 340.511419 208.055024
L 340.893528 173.350971
L 341.275637 224.502291
L 341.657746 188.115967
L 342.039855 293.754255
L 342.421964 198.446998
L 342.804073 230.468135
L 343.186182 190.255945
L 343.568291 187.775383
L 344.332509 228.847308
L 344.714618 219.627841
L 345.096727 201.65911
L 345.478836 194.253744
L 345.860944 235.010462
L 346.625162 192.582233
L 347.007271 271.101364
L 347.38938 206.306987
L 347.771489 211.113837
L 348.153598 211.936531
L 348.535707 209.54071
L 348.917816 304.594548
L 349.299925 221.95413
L 349.682034 212.785347
L 350.064143 193.614619
L 350.446252 194.688476
L 350.828361 293.754255
L 351.21047 208.787548
L 351.592579 204.349861
L 351.974688 206.306987
L 352.356797 226.586628
L 352.738905 196.036768
L 353.121014 211.936531
L 353.503123 239.297295
L 353.885232 208.055024
L 354.267341 226.586628
L 354.64945 227.319152
L 355.031559 218.536447
L 355.413668 231.31695
L 355.795777 216.478859
L 356.177886 226.586628
L 356.559995 264.382359
L 356.942104 259.017337
L 357.324213 238.159445
L 357.706322 293.754255
L 358.088431 235.010462
L 358.47054 250.725204
L 358.852649 228.847308
L 359.234758 252.56976
L 359.616867 243.033894
L 359.998975 275.222652
L 360.381084 225.87364
L 360.763193 243.033894
L 361.145302 243.033894
L 361.527411 245.850755
L 361.90952 286.062945
L 362.291629 293.754255
L 362.673738 248.999738
L 363.055847 293.754255
L 363.437956 271.101364
L 363.820065 286.062945
L 364.202174 267.531341
L 364.584283 280.097101
L 364.966392 252.56976
L 365.348501 275.222652
L 365.73061 286.062945
L 365.730991 346.6
M 366.494329 346.6
L 366.494828 267.531341
L 366.495326 346.6
M 367.258712 346.6
L 367.259045 293.754255
L 367.641154 304.594548
L 368.787481 304.594548
L 369.16959 293.754255
L 369.169923 346.6
M 369.93331 346.6
L 369.933808 267.531341
L 370.315917 293.754255
L 370.698026 261.565498
L 371.080135 267.531341
L 371.462244 248.999738
L 371.844353 224.502291
L 372.226462 304.594548
L 372.608571 252.56976
L 372.99068 256.691048
L 373.372789 248.999738
L 373.754897 271.101364
L 374.137006 247.378911
L 374.519115 236.019467
L 374.901224 247.378911
L 375.283333 244.405244
L 375.665442 248.999738
L 376.047551 248.999738
L 376.42966 323.126152
L 376.811769 243.033894
L 377.193878 275.222652
L 377.575987 196.7373
L 377.958096 280.097101
L 378.340205 218.007015
L 378.722314 221.353308
L 379.104423 261.565498
L 379.486532 228.072313
L 379.868641 228.072313
L 380.632858 203.120428
L 381.014967 234.038157
L 381.397076 254.55107
L 381.779185 232.193601
L 382.161294 223.197864
L 382.543403 261.565498
L 382.925512 184.588824
L 383.307621 211.936531
L 383.68973 182.013369
L 384.071839 236.019467
L 384.453948 211.113837
L 384.836057 197.456683
L 385.218166 213.661998
L 385.600275 238.159445
L 385.982384 217.487863
L 386.746602 261.565498
L 387.128711 176.376919
L 387.51082 211.52202
L 387.892928 189.887174
L 388.275037 286.062945
L 388.657146 224.502291
L 389.039255 214.568371
L 389.421364 183.41345
L 389.803473 286.062945
L 390.185582 239.297295
L 390.567691 211.52202
L 391.331909 176.047525
L 391.714018 264.382359
L 392.096127 154.918205
L 392.478236 161.5102
L 392.860345 180.041804
L 393.242454 245.850755
L 393.624563 172.573157
L 394.006672 125.023349
L 394.388781 153.285731
L 394.770889 169.756296
L 395.152998 76.82745
L 395.535107 96.612571
L 395.917216 136.485805
L 396.299325 162.281469
L 396.681434 150.292459
L 397.063543 132.499743
L 397.445652 206.306987
L 397.827761 177.97014
L 398.20987 158.63006
L 398.591979 199.738817
L 398.974088 189.523421
L 399.356197 144.476956
L 400.120415 200.004844
L 400.502524 188.460945
L 400.884633 232.193601
L 401.266742 198.195959
L 401.64885 215.506553
L 402.030959 204.66626
L 402.413068 160.151525
L 402.795177 240.485733
L 403.177286 248.999738
L 403.559395 206.64757
L 404.323613 304.594548
L 404.705722 221.95413
L 405.087831 212.785347
L 405.46994 190.629873
L 405.852049 221.95413
L 406.234158 224.502291
L 406.616267 208.418778
L 406.998376 216.478859
L 407.380485 264.382359
L 407.762594 275.222652
L 408.144703 220.765692
L 408.526812 238.159445
L 408.90892 186.454846
L 409.291029 256.691048
L 410.055247 221.95413
L 410.437356 280.097101
L 410.819465 215.988286
L 411.201574 286.062945
L 411.583683 243.033894
L 411.965792 304.594548
L 412.347901 211.52202
L 412.73001 275.222652
L 413.112119 280.097101
L 413.494228 200.273544
L 413.876337 248.999738
L 414.258446 227.319152
L 414.640555 192.180189
L 415.022664 200.004844
L 415.404773 212.357571
L 415.786881 211.52202
L 416.16899 219.627841
L 416.551099 223.197864
L 416.933208 252.56976
L 417.315317 232.193601
L 417.697426 254.55107
L 418.079535 259.017337
L 418.461644 323.126152
L 418.843753 252.56976
L 419.225862 245.850755
L 419.607971 234.038157
L 419.99008 248.999738
L 420.372189 240.485733
L 421.136407 304.594548
L 421.518516 286.062945
L 421.900625 247.378911
L 422.282734 304.594548
L 422.664842 304.594548
L 423.046951 286.062945
L 423.42906 323.126152
L 423.811169 323.126152
L 424.193278 275.222652
L 424.957496 228.847308
L 425.339605 286.062945
L 425.721714 304.594548
L 426.103823 280.097101
L 426.485932 304.594548
L 426.868041 280.097101
L 427.25015 286.062945
L 427.250531 346.6
M 428.396057 346.6
L 428.396477 280.097101
L 428.778586 267.531341
L 429.160695 304.594548
L 429.542803 275.222652
L 429.924912 275.222652
L 430.307021 267.531341
L 430.68913 286.062945
L 431.071239 237.06805
L 431.453348 243.033894
L 431.835457 304.594548
L 432.599675 267.531341
L 432.981784 275.222652
L 433.746002 267.531341
L 434.128111 323.126152
L 434.51022 293.754255
L 434.892329 286.062945
L 435.274438 205.970687
L 435.656547 323.126152
L 436.038656 254.55107
L 436.420765 256.691048
L 436.802873 220.765692
L 437.184982 230.468135
L 437.567091 256.691048
L 437.9492 252.56976
L 438.713418 226.586628
L 438.713418 226.586628
" clip-path="url(#p886e0b9b87)" style="fill: none; stroke: #1f77b4; stroke-width: 1.5; stroke-linecap: square"/>
   </g>
   <g id="line2d_57">
    <path d="M 56.986582 252.56976
L 57.368691 156.341721
L 57.7508 240.485733
L 58.132909 171.53932
L 58.515018 245.850755
L 58.897127 220.765692
L 59.279235 168.740904
L 59.661344 196.501744
L 60.043453 248.999738
L 60.425562 203.422527
L 61.18978 244.405244
L 61.571889 304.594548
L 61.953998 254.55107
L 62.718216 196.268245
L 63.100325 243.033894
L 63.482434 259.017337
L 63.864543 197.214731
L 64.246652 261.565498
L 64.628761 225.87364
L 65.01087 226.586628
L 65.392979 226.586628
L 65.775088 261.565498
L 66.157197 225.87364
L 66.539305 275.222652
L 66.921414 259.017337
L 67.303523 267.531341
L 67.685632 252.56976
L 68.067741 286.062945
L 68.44985 248.999738
L 69.214068 261.565498
L 69.596177 221.95413
L 69.978286 247.378911
L 70.360395 245.850755
L 70.742504 245.850755
L 71.124613 211.113837
L 71.506722 261.565498
L 71.888831 212.357571
L 72.27094 267.531341
L 72.653049 241.729467
L 73.035158 243.033894
L 73.417266 271.101364
L 73.799375 231.31695
L 74.181484 217.487863
L 74.563593 191.784101
L 74.945702 224.502291
L 75.327811 206.992549
L 75.70992 239.297295
L 76.092029 198.700416
L 76.474138 184.141982
L 76.856247 304.594548
L 77.238356 214.568371
L 77.620465 304.594548
L 78.002574 221.95413
L 78.384683 200.544972
L 78.766792 212.785347
L 79.53101 160.031365
L 79.913119 201.65911
L 80.295227 192.180189
L 80.677336 146.0643
L 81.059445 205.970687
L 81.441554 197.456683
L 81.823663 225.87364
L 82.205772 146.931472
L 82.587881 221.95413
L 82.96999 170.455302
L 83.352099 182.564635
L 83.734208 228.847308
L 84.116317 172.09827
L 84.498426 183.127507
L 84.880535 212.357571
L 85.262644 183.41345
L 85.644753 228.847308
L 86.026862 193.404928
L 86.408971 122.596103
L 86.79108 192.380456
L 87.173188 194.253744
L 87.555297 213.220079
L 88.319515 194.688476
L 88.701624 156.922375
L 89.083733 205.310519
L 89.465842 183.848183
L 89.847951 204.66626
L 90.23006 199.475411
L 90.612169 169.24378
L 90.994278 209.54071
L 91.376387 194.688476
L 91.758496 195.57974
L 92.522714 171.447288
L 92.904823 183.994679
L 93.286932 162.151369
L 93.669041 204.66626
L 94.05115 166.207844
L 94.433258 157.298559
L 94.815367 171.173076
L 95.197476 119.939335
L 95.961694 147.450623
L 96.343803 127.639568
L 96.725912 170.81178
L 97.108021 157.956021
L 97.49013 205.970687
L 98.254348 132.011895
L 98.636457 122.699758
L 99.400675 161.764825
L 99.782784 75.858099
L 100.164893 80.742327
L 100.547002 77.352827
L 100.929111 86.092939
L 101.311219 84.818353
L 101.693328 133.127822
L 102.075437 163.345707
L 102.457546 154.427632
L 102.839655 120.060037
L 103.221764 153.007717
L 103.603873 151.571911
L 103.985982 267.531341
L 104.368091 130.440569
L 104.7502 129.871917
L 105.132309 175.507396
L 105.514418 174.253942
L 105.896527 177.97014
L 106.278636 135.366597
L 106.660745 210.315704
L 107.424963 180.041804
L 107.807072 174.873324
L 108.18918 216.478859
L 108.571289 178.324257
L 108.953398 194.253744
L 109.335507 172.669156
L 109.717616 228.847308
L 110.099725 165.907442
L 110.481834 221.95413
L 110.863943 175.188481
L 111.246052 171.724342
L 111.628161 245.850755
L 112.01027 244.405244
L 112.392379 218.536447
L 112.774488 180.943808
L 113.156597 197.947255
L 113.538706 166.511659
L 114.302924 213.661998
L 114.685033 182.985674
L 115.067142 201.945054
L 115.44925 209.54071
L 115.831359 286.062945
L 116.213468 304.594548
L 116.595577 177.048137
L 116.977686 192.380456
L 117.359795 212.785347
L 117.741904 206.992549
L 118.124013 256.691048
L 118.506122 190.070924
L 118.888231 261.565498
L 119.27034 199.214576
L 119.652449 201.376193
L 120.034558 243.033894
L 120.416667 210.711792
L 120.798776 220.765692
L 121.180885 271.101364
L 121.562994 193.614619
L 121.945103 240.485733
L 122.327211 248.999738
L 122.70932 208.055024
L 123.091429 238.159445
L 123.473538 211.113837
L 123.855647 261.565498
L 124.237756 261.565498
L 124.619865 254.55107
L 125.001974 267.531341
L 125.384083 304.594548
L 125.766192 228.847308
L 125.766934 346.6
M 126.529912 346.6
L 126.53041 267.531341
L 126.912519 238.159445
L 127.294628 280.097101
L 127.676737 254.55107
L 127.677317 346.6
M 128.440362 346.6
L 128.440955 252.56976
L 128.823064 280.097101
L 129.205172 234.038157
L 129.587281 304.594548
L 129.96939 267.531341
L 130.351499 243.033894
L 130.733608 239.297295
L 131.115717 256.691048
L 131.497826 236.019467
L 131.879935 236.019467
L 132.262044 254.55107
L 132.644153 217.487863
L 133.026262 205.970687
L 133.408371 304.594548
L 133.79048 197.456683
L 134.172589 193.825967
L 134.554698 250.725204
L 134.936807 275.222652
L 135.318916 256.691048
L 135.701025 186.134657
L 136.083133 206.64757
L 136.465242 275.222652
L 136.847351 215.033347
L 137.22946 193.196869
L 137.611569 225.87364
L 137.993678 195.130394
L 138.375787 215.988286
L 138.757896 196.036768
L 139.140005 236.019467
L 139.522114 248.999738
L 139.904223 214.568371
L 140.286332 208.787548
L 140.668441 236.019467
L 141.05055 275.222652
L 141.432659 215.506553
L 141.814768 207.342037
L 142.196877 165.907442
L 142.578986 207.696154
L 142.961095 192.180189
L 143.343203 183.41345
L 143.725312 198.446998
L 144.107421 243.033894
L 144.871639 144.780197
L 145.253748 196.97495
L 145.635857 185.35057
L 146.017966 156.081899
L 146.400075 236.019467
L 146.782184 182.564635
L 147.164293 159.321533
L 147.546402 199.475411
L 147.928511 172.669156
L 148.31062 174.356181
L 148.692729 189.887174
L 149.074838 182.425749
L 149.456947 131.594796
L 149.839056 304.594548
L 150.221164 174.56184
L 150.603273 230.468135
L 150.985382 212.785347
L 151.367491 229.64544
L 151.7496 194.688476
L 152.131709 205.310519
L 152.513818 178.925079
L 152.895927 195.130394
L 153.278036 191.393796
L 153.660145 204.66626
L 154.042254 178.205696
L 154.424363 223.197864
L 154.806472 156.656877
L 155.188581 205.970687
L 155.57069 139.647214
L 155.952799 114.75006
L 156.334908 178.205696
L 156.717017 200.544972
L 157.099125 135.605949
L 157.481234 232.193601
L 157.863343 157.515921
L 158.245452 179.664356
L 158.627561 156.237489
L 159.00967 196.268245
L 159.391779 138.605085
L 159.773888 133.127822
L 160.155997 176.598791
L 160.538106 140.441957
L 161.302324 149.311231
L 161.684433 108.204268
L 162.066542 42.83921
L 162.448651 133.928611
L 162.83076 93.426955
L 163.212869 148.287363
L 163.594978 144.644998
L 164.359195 124.415335
L 164.741304 197.456683
L 165.123413 190.629873
L 165.505522 202.821705
L 165.887631 154.720894
L 166.26974 90.160202
L 166.651849 173.252498
L 167.033958 224.502291
L 167.416067 149.838255
L 167.798176 177.620652
L 168.180285 167.762669
L 168.562394 166.588155
L 168.944503 160.515278
L 169.326612 165.758498
L 169.708721 147.600823
L 170.09083 165.243631
L 170.472939 144.144007
L 170.855048 177.390173
L 171.237156 147.152732
L 171.619265 184.290101
L 172.001374 169.075101
L 172.383483 205.310519
L 172.765592 179.046881
L 173.147701 188.115967
L 173.52981 152.190611
L 173.911919 185.196475
L 174.294028 256.691048
L 174.676137 165.170882
L 175.058246 221.95413
L 175.440355 156.341721
L 175.822464 208.787548
L 176.204573 243.033894
L 176.586682 261.565498
L 176.968791 172.669156
L 177.3509 238.159445
L 177.733009 181.207214
L 178.115117 238.159445
L 178.497226 204.037162
L 178.879335 216.478859
L 179.261444 220.765692
L 179.643553 271.101364
L 180.025662 304.594548
L 180.407771 225.87364
L 180.78988 245.850755
L 181.171989 323.126152
L 181.554098 218.536447
L 181.936207 236.019467
L 182.318316 261.565498
L 182.700425 231.31695
L 183.082534 214.568371
L 183.083365 346.6
M 183.84637 346.6
L 183.846752 286.062945
L 184.228861 230.468135
L 184.61097 218.536447
L 184.993078 236.019467
L 185.375187 234.038157
L 185.757296 213.661998
L 186.139405 243.033894
L 186.521514 304.594548
L 186.903623 261.565498
L 187.285732 293.754255
L 187.667841 259.017337
L 188.04995 286.062945
L 188.432059 293.754255
L 188.814168 280.097101
L 189.196277 275.222652
L 189.578386 237.06805
L 189.960495 267.531341
L 190.342604 205.310519
L 190.724713 239.297295
L 191.106822 243.033894
L 191.488931 261.565498
L 191.87104 247.378911
L 192.253148 293.754255
L 192.635257 304.594548
L 193.017366 224.502291
L 193.399475 180.943808
L 193.781584 200.544972
L 194.163693 229.64544
L 194.545802 304.594548
L 194.927911 202.821705
L 195.31002 232.193601
L 195.692129 220.765692
L 196.074238 236.019467
L 196.456347 230.468135
L 196.838456 201.65911
L 197.220565 229.64544
L 197.602674 223.197864
L 197.984783 180.424657
L 198.366892 224.502291
L 198.749001 224.502291
L 199.131109 212.785347
L 199.513218 229.64544
L 200.277436 196.97495
L 200.659545 225.87364
L 201.041654 203.728078
L 201.423763 215.033347
L 201.805872 164.881847
L 202.187981 275.222652
L 202.57009 241.729467
L 202.952199 236.019467
L 203.334308 204.66626
L 203.716417 271.101364
L 204.098526 192.785546
L 204.480635 200.544972
L 204.862744 267.531341
L 205.244853 247.378911
L 205.626962 261.565498
L 206.00907 196.268245
L 206.391179 180.943808
L 206.773288 171.173076
L 207.155397 197.947255
L 207.537506 159.911743
L 207.919615 177.275674
L 208.301724 165.316579
L 208.683833 208.418778
L 209.065942 206.306987
L 209.448051 174.253942
L 209.83016 211.936531
L 210.212269 208.055024
L 210.594378 267.531341
L 211.358596 177.275674
L 211.740705 208.418778
L 212.122814 188.115967
L 212.504923 146.675628
L 212.887032 232.193601
L 213.26914 157.625269
L 213.651249 267.531341
L 214.033358 201.096238
L 214.797576 150.924532
L 215.179685 173.449808
L 215.561794 176.376919
L 215.943903 248.999738
L 216.326012 192.380456
L 216.708121 177.97014
L 217.09023 183.848183
L 217.472339 133.171686
L 217.473681 346.6
M 218.235669 346.6
L 218.236557 205.638566
L 218.618666 192.990416
L 219.000775 193.614619
L 219.382884 189.16455
L 219.764993 214.111344
L 220.147101 205.970687
L 220.52921 174.356181
L 220.911319 173.056633
L 221.293428 153.850586
L 221.675537 236.019467
L 222.057646 164.312986
L 222.439755 230.468135
L 222.821864 176.266669
L 223.203973 183.41345
L 223.586082 200.273544
L 223.968191 158.516533
L 224.3503 136.987423
L 224.732409 219.627841
L 225.114518 156.081899
L 225.496627 183.127507
L 225.878736 148.598244
L 226.260845 200.004844
L 226.642954 267.531341
L 227.025062 252.56976
L 227.407171 205.970687
L 227.78928 192.785546
L 228.171389 163.277936
L 228.553498 174.152093
L 228.935607 146.242656
L 229.317716 193.614619
L 229.699825 155.367551
L 230.081934 187.439084
L 230.464043 168.410832
L 230.846152 174.152093
L 231.228261 172.669156
L 231.61037 165.758498
L 231.992479 151.181606
L 232.374588 234.038157
L 233.520915 130.184159
L 233.903023 213.661998
L 234.285132 193.825967
L 234.667241 140.528527
L 235.04935 186.454846
L 235.431459 177.97014
L 235.813568 150.754513
L 236.195677 107.321774
L 236.577786 186.454846
L 236.959895 145.676056
L 237.724113 185.975989
L 238.106222 152.778227
L 238.488331 252.56976
L 238.87044 202.526282
L 239.634658 167.523602
L 240.016767 165.684336
L 240.398876 191.009106
L 241.163093 128.491838
L 241.545202 145.571142
L 241.927311 116.574157
L 242.30942 145.851832
L 242.691529 116.645042
L 243.073638 138.284256
L 243.455747 135.366597
L 243.837856 142.476508
L 244.219965 129.717152
L 244.602074 93.018095
L 244.984183 174.665265
L 245.366292 106.298243
L 245.748401 135.082174
L 246.13051 119.64656
L 246.512619 65.046123
L 246.894728 111.320919
L 247.276837 126.900291
L 247.658946 50.66129
L 248.041054 50.66129
L 248.423163 126.900291
L 248.805272 111.320919
L 249.187381 65.046123
L 249.56949 119.64656
L 249.951599 135.082174
L 250.333708 106.298243
L 250.715817 174.665265
L 251.097926 93.018095
L 251.480035 129.717152
L 251.862144 142.476508
L 252.244253 135.366597
L 252.626362 138.284256
L 253.008471 116.645042
L 253.39058 145.851832
L 253.772689 116.574157
L 254.154798 145.571142
L 254.536907 128.491838
L 255.301124 191.009106
L 255.683233 165.684336
L 256.065342 167.523602
L 256.82956 202.526282
L 257.211669 252.56976
L 257.593778 152.778227
L 257.975887 185.975989
L 258.740105 145.676056
L 259.122214 186.454846
L 259.504323 107.321774
L 259.886432 150.754513
L 260.268541 177.97014
L 260.65065 186.454846
L 261.032759 140.528527
L 261.414868 193.825967
L 261.796977 213.661998
L 262.179085 130.184159
L 263.325412 234.038157
L 263.707521 151.181606
L 264.08963 165.758498
L 264.471739 172.669156
L 264.853848 174.152093
L 265.235957 168.410832
L 265.618066 187.439084
L 266.000175 155.367551
L 266.382284 193.614619
L 266.764393 146.242656
L 267.146502 174.152093
L 267.528611 163.277936
L 267.91072 192.785546
L 268.292829 205.970687
L 268.674938 252.56976
L 269.057046 267.531341
L 269.821264 148.598244
L 270.203373 183.127507
L 270.585482 156.081899
L 270.967591 219.627841
L 271.3497 136.987423
L 271.731809 158.516533
L 272.113918 200.273544
L 272.496027 183.41345
L 272.878136 176.266669
L 273.260245 230.468135
L 273.642354 164.312986
L 274.024463 236.019467
L 274.406572 153.850586
L 274.788681 173.056633
L 275.17079 174.356181
L 275.552899 205.970687
L 275.935007 214.111344
L 276.317116 189.16455
L 276.699225 193.614619
L 277.081334 192.990416
L 277.463443 205.638566
L 277.464331 346.6
M 278.226319 346.6
L 278.227661 133.171686
L 278.60977 183.848183
L 278.991879 177.97014
L 279.373988 192.380456
L 279.756097 248.999738
L 280.138206 176.376919
L 280.520315 173.449808
L 280.902424 150.924532
L 281.666642 201.096238
L 282.048751 267.531341
L 282.43086 157.625269
L 282.812968 232.193601
L 283.195077 146.675628
L 283.577186 188.115967
L 283.959295 208.418778
L 284.341404 177.275674
L 284.723513 215.506553
L 285.105622 267.531341
L 285.487731 208.055024
L 285.86984 211.936531
L 286.251949 196.268245
L 286.634058 206.306987
L 287.016167 155.317249
L 287.780385 177.275674
L 288.162494 160.031365
L 288.544603 208.055024
L 288.926712 217.487863
L 289.69093 175.72214
L 290.073038 194.908522
L 290.455147 220.190714
L 290.837256 166.511659
L 291.219365 204.037162
L 291.601474 227.319152
L 291.983583 261.565498
L 292.365692 222.568765
L 292.747801 238.159445
L 293.12991 211.113837
L 293.512019 204.66626
L 293.894128 165.389727
L 294.276237 215.506553
L 294.658346 203.422527
L 295.040455 183.994679
L 295.422564 219.076575
L 295.804673 240.485733
L 296.568891 218.007015
L 296.950999 222.568765
L 297.333108 197.947255
L 297.715217 165.025974
L 298.097326 210.315704
L 298.861544 201.65911
L 299.243653 256.691048
L 299.625762 252.56976
L 300.007871 267.531341
L 300.38998 245.850755
L 300.772089 215.506553
L 301.154198 259.017337
L 301.536307 267.531341
L 301.918416 239.297295
L 302.300525 198.95626
L 302.682634 304.594548
L 303.064743 275.222652
L 303.446852 195.57974
L 303.82896 235.010462
L 304.211069 254.55107
L 304.593178 239.297295
L 304.975287 304.594548
L 305.357396 174.665265
L 305.739505 271.101364
L 306.121614 304.594548
L 306.503723 230.468135
L 306.885832 250.725204
L 307.267941 286.062945
L 307.65005 261.565498
L 307.650586 346.6
M 308.413633 346.6
L 308.414268 245.850755
L 308.796377 304.594548
L 309.178486 225.87364
L 309.560595 256.691048
L 309.942704 212.785347
L 310.324813 280.097101
L 310.706922 202.234089
L 311.08903 304.594548
L 311.471139 264.382359
L 311.853248 245.850755
L 312.235357 267.531341
L 312.999575 178.925079
L 313.381684 226.586628
L 313.763793 231.31695
L 314.145902 248.999738
L 314.528011 256.691048
L 314.91012 304.594548
L 315.292229 214.568371
L 315.674338 261.565498
L 316.056447 213.661998
L 316.438556 220.765692
L 316.820665 216.478859
L 317.202774 204.037162
L 317.584883 238.159445
L 317.966991 181.207214
L 318.3491 238.159445
L 318.731209 172.669156
L 319.113318 261.565498
L 319.495427 243.033894
L 319.877536 208.787548
L 320.259645 156.341721
L 320.641754 221.95413
L 321.023863 165.170882
L 321.405972 256.691048
L 321.788081 185.196475
L 322.17019 152.190611
L 322.552299 188.115967
L 322.934408 179.046881
L 323.316517 205.310519
L 323.698626 169.075101
L 324.080735 184.290101
L 324.462844 147.152732
L 324.844952 177.390173
L 325.227061 144.144007
L 325.60917 165.243631
L 325.991279 147.600823
L 326.373388 165.758498
L 326.755497 160.515278
L 327.137606 166.588155
L 327.519715 167.762669
L 327.901824 177.620652
L 328.283933 149.838255
L 328.666042 224.502291
L 329.048151 173.252498
L 329.43026 90.160202
L 330.194478 202.821705
L 330.576587 190.629873
L 330.958696 197.456683
L 331.340805 124.415335
L 332.105022 144.644998
L 332.487131 148.287363
L 332.86924 93.426955
L 333.251349 133.928611
L 333.633458 42.83921
L 334.015567 108.204268
L 334.397676 149.311231
L 335.161894 140.441957
L 335.544003 176.598791
L 335.926112 133.127822
L 336.308221 138.605085
L 336.69033 196.268245
L 337.072439 156.237489
L 337.454548 179.664356
L 337.836657 157.515921
L 338.218766 232.193601
L 338.600875 135.605949
L 338.982983 200.544972
L 339.365092 178.205696
L 339.747201 114.75006
L 340.12931 139.647214
L 340.511419 205.970687
L 340.893528 156.656877
L 341.275637 223.197864
L 341.657746 178.205696
L 342.039855 204.66626
L 342.421964 191.393796
L 342.804073 195.130394
L 343.186182 178.925079
L 343.568291 205.310519
L 343.9504 194.688476
L 344.332509 229.64544
L 344.714618 212.785347
L 345.096727 230.468135
L 345.478836 174.56184
L 345.860944 304.594548
L 346.243053 131.594796
L 346.625162 182.425749
L 347.007271 189.887174
L 347.38938 174.356181
L 347.771489 172.669156
L 348.153598 199.475411
L 348.535707 159.321533
L 348.917816 182.564635
L 349.299925 236.019467
L 349.682034 156.081899
L 350.064143 185.35057
L 350.446252 196.97495
L 350.828361 144.780197
L 351.592579 243.033894
L 351.974688 198.446998
L 352.356797 183.41345
L 352.738905 192.180189
L 353.121014 207.696154
L 353.503123 165.907442
L 353.885232 207.342037
L 354.267341 215.506553
L 354.64945 275.222652
L 355.031559 236.019467
L 355.413668 208.787548
L 355.795777 214.568371
L 356.177886 248.999738
L 356.559995 236.019467
L 356.942104 196.036768
L 357.324213 215.988286
L 357.706322 195.130394
L 358.088431 225.87364
L 358.47054 193.196869
L 358.852649 215.033347
L 359.234758 275.222652
L 359.616867 206.64757
L 359.998975 186.134657
L 360.381084 256.691048
L 360.763193 275.222652
L 361.145302 250.725204
L 361.527411 193.825967
L 361.90952 197.456683
L 362.291629 304.594548
L 362.673738 209.54071
L 363.055847 210.315704
L 363.437956 286.062945
L 363.820065 280.097101
L 364.202174 236.019467
L 364.584283 261.565498
L 364.966392 229.64544
L 365.348501 250.725204
L 366.112719 261.565498
L 366.113254 346.6
M 366.876268 346.6
L 366.876936 240.485733
L 367.259045 259.017337
L 367.641154 304.594548
L 368.023263 240.485733
L 368.405372 256.691048
L 368.787481 304.594548
L 369.16959 256.691048
L 369.551699 267.531341
L 369.933808 250.725204
L 370.315917 261.565498
L 370.698026 245.850755
L 371.080135 243.033894
L 371.462244 250.725204
L 371.844353 275.222652
L 372.226462 256.691048
L 372.608571 215.506553
L 372.99068 241.729467
L 373.372789 181.47324
L 373.754897 225.87364
L 374.137006 196.036768
L 374.519115 271.101364
L 374.901224 227.319152
L 375.283333 267.531341
L 375.665442 267.531341
L 376.047551 204.349861
L 376.42966 304.594548
L 376.811769 261.565498
L 377.193878 194.253744
L 377.575987 193.404928
L 377.958096 209.925399
L 378.340205 201.096238
L 378.722314 189.523421
L 379.104423 204.986449
L 379.486532 151.791236
L 379.868641 196.036768
L 380.25075 196.036768
L 380.632858 202.526282
L 381.014967 184.439046
L 381.397076 176.82252
L 381.779185 183.127507
L 382.161294 225.179174
L 382.543403 195.57974
L 382.925512 180.424657
L 383.307621 187.439084
L 383.68973 184.588824
L 384.071839 227.319152
L 384.453948 176.156872
L 384.836057 177.048137
L 385.218166 208.787548
L 385.600275 142.915318
L 385.982384 165.316579
L 386.364493 203.728078
L 386.746602 190.818817
L 387.128711 188.810433
L 387.51082 134.064439
L 387.892928 183.702485
L 388.275037 181.207214
L 388.657146 133.127822
L 389.039255 154.671793
L 389.421364 165.09833
L 389.803473 169.075101
L 390.185582 166.664871
L 390.567691 175.294364
L 390.9498 147.751871
L 391.331909 156.656877
L 391.714018 181.47324
L 392.096127 177.161663
L 392.478236 191.393796
L 392.860345 108.947818
L 393.242454 141.619921
L 393.624563 140.3844
L 394.006672 119.239379
L 394.388781 58.601735
L 394.770889 84.962635
L 395.152998 77.852673
L 395.535107 56.857216
L 395.917216 118.557283
L 396.299325 153.613778
L 396.681434 88.79017
L 397.063543 181.47324
L 397.445652 121.453327
L 397.827761 142.075391
L 398.20987 132.307784
L 398.591979 178.683128
L 398.974088 107.296744
L 399.356197 141.14249
L 399.738306 146.20689
L 400.120415 130.144929
L 400.502524 172.7655
L 400.884633 171.173076
L 401.266742 157.298559
L 401.64885 166.207844
L 402.030959 204.66626
L 402.413068 162.151369
L 402.795177 183.994679
L 403.177286 171.447288
L 403.941504 195.57974
L 404.323613 194.688476
L 404.705722 209.54071
L 405.087831 169.24378
L 405.46994 199.475411
L 405.852049 204.66626
L 406.234158 183.848183
L 406.616267 205.310519
L 406.998376 156.922375
L 407.380485 194.688476
L 408.144703 213.220079
L 408.526812 194.253744
L 408.90892 192.380456
L 409.291029 122.596103
L 409.673138 193.404928
L 410.055247 228.847308
L 410.437356 183.41345
L 410.819465 212.357571
L 411.201574 183.127507
L 411.583683 172.09827
L 411.965792 228.847308
L 412.347901 182.564635
L 412.73001 170.455302
L 413.112119 221.95413
L 413.494228 146.931472
L 413.876337 225.87364
L 414.258446 197.456683
L 414.640555 205.970687
L 415.022664 146.0643
L 415.404773 192.180189
L 415.786881 201.65911
L 416.16899 160.031365
L 416.551099 182.287581
L 416.933208 212.785347
L 417.315317 200.544972
L 417.697426 221.95413
L 418.079535 304.594548
L 418.461644 214.568371
L 418.843753 304.594548
L 419.225862 184.141982
L 419.607971 198.700416
L 419.99008 239.297295
L 420.372189 206.992549
L 420.754298 224.502291
L 421.136407 191.784101
L 421.518516 217.487863
L 421.900625 231.31695
L 422.282734 271.101364
L 422.664842 243.033894
L 423.046951 241.729467
L 423.42906 267.531341
L 423.811169 212.357571
L 424.193278 261.565498
L 424.575387 211.113837
L 424.957496 245.850755
L 425.339605 245.850755
L 425.721714 247.378911
L 426.103823 221.95413
L 426.485932 261.565498
L 427.25015 248.999738
L 427.632259 286.062945
L 428.014368 252.56976
L 428.396477 267.531341
L 428.778586 259.017337
L 429.160695 275.222652
L 429.542803 225.87364
L 429.924912 261.565498
L 430.307021 226.586628
L 430.68913 226.586628
L 431.071239 225.87364
L 431.453348 261.565498
L 431.835457 197.214731
L 432.217566 259.017337
L 432.599675 243.033894
L 432.981784 196.268245
L 433.746002 254.55107
L 434.128111 304.594548
L 434.51022 244.405244
L 435.274438 203.422527
L 435.656547 248.999738
L 436.038656 196.501744
L 436.420765 168.740904
L 436.802873 220.765692
L 437.184982 245.850755
L 437.567091 171.53932
L 437.9492 240.485733
L 438.331309 156.341721
L 438.713418 252.56976
L 438.713418 252.56976
" clip-path="url(#p886e0b9b87)" style="fill: none; stroke-dasharray: 5.55,2.4; stroke-dashoffset: 0; stroke: #ff7f0e; stroke-width: 1.5"/>
   </g>
   <g id="line2d_58">
    <path d="M 37.90024 264.360981
L 457.79976 264.360981
" clip-path="url(#p886e0b9b87)" style="fill: none; stroke-dasharray: 5.55,2.4; stroke-dashoffset: 0; stroke: #000000; stroke-width: 1.5"/>
   </g>
   <g id="patch_3">
    <path d="M 37.90024 325.921635
L 37.90024 18.118365
" style="fill: none; stroke: #000000; stroke-width: 0.8; stroke-linejoin: miter; stroke-linecap: square"/>
   </g>
   <g id="patch_4">
    <path d="M 457.79976 325.921635
L 457.79976 18.118365
" style="fill: none; stroke: #000000; stroke-width: 0.8; stroke-linejoin: miter; stroke-linecap: square"/>
   </g>
   <g id="patch_5">
    <path d="M 37.90024 325.921635
L 457.79976 325.921635
" style="fill: none; stroke: #000000; stroke-width: 0.8; stroke-linejoin: miter; stroke-linecap: square"/>
   </g>
   <g id="patch_6">
    <path d="M 37.90024 18.118365
L 457.79976 18.118365
" style="fill: none; stroke: #000000; stroke-width: 0.8; stroke-linejoin: miter; stroke-linecap: square"/>
   </g>
   <g id="text_16">
    <!-- relative deviation of numerical from true derivative -->
    <g transform="translate(93.7925 12.118365)scale(0.12 -0.12)">
     <defs>
      <path id="DejaVuSans-72" d="M 2631 2963
Q 2534 3019 2420 3045
Q 2306 3072 2169 3072
Q 1681 3072 1420 2755
Q 1159 2438 1159 1844
L 1159 0
L 581 0
L 581 3500
L 1159 3500
L 1159 2956
Q 1341 3275 1631 3429
Q 1922 3584 2338 3584
Q 2397 3584 2469 3576
Q 2541 3569 2628 3553
L 2631 2963
z
" transform="scale(0.015625)"/>
      <path id="DejaVuSans-65" d="M 3597 1894
L 3597 1613
L 953 1613
Q 991 1019 1311 708
Q 1631 397 2203 397
Q 2534 397 2845 478
Q 3156 559 3463 722
L 3463 178
Q 3153 47 2828 -22
Q 2503 -91 2169 -91
Q 1331 -91 842 396
Q 353 884 353 1716
Q 353 2575 817 3079
Q 1281 3584 2069 3584
Q 2775 3584 3186 3129
Q 3597 2675 3597 1894
z
M 3022 2063
Q 3016 2534 2758 2815
Q 2500 3097 2075 3097
Q 1594 3097 1305 2825
Q 1016 2553 972 2059
L 3022 2063
z
" transform="scale(0.015625)"/>
      <path id="DejaVuSans-6c" d="M 603 4863
L 1178 4863
L 1178 0
L 603 0
L 603 4863
z
" transform="scale(0.015625)"/>
      <path id="DejaVuSans-61" d="M 2194 1759
Q 1497 1759 1228 1600
Q 959 1441 959 1056
Q 959 750 1161 570
Q 1363 391 1709 391
Q 2188 391 2477 730
Q 2766 1069 2766 1631
L 2766 1759
L 2194 1759
z
M 3341 1997
L 3341 0
L 2766 0
L 2766 531
Q 2569 213 2275 61
Q 1981 -91 1556 -91
Q 1019 -91 701 211
Q 384 513 384 1019
Q 384 1609 779 1909
Q 1175 2209 1959 2209
L 2766 2209
L 2766 2266
Q 2766 2663 2505 2880
Q 2244 3097 1772 3097
Q 1472 3097 1187 3025
Q 903 2953 641 2809
L 641 3341
Q 956 3463 1253 3523
Q 1550 3584 1831 3584
Q 2591 3584 2966 3190
Q 3341 2797 3341 1997
z
" transform="scale(0.015625)"/>
      <path id="DejaVuSans-74" d="M 1172 4494
L 1172 3500
L 2356 3500
L 2356 3053
L 1172 3053
L 1172 1153
Q 1172 725 1289 603
Q 1406 481 1766 481
L 2356 481
L 2356 0
L 1766 0
Q 1100 0 847 248
Q 594 497 594 1153
L 594 3053
L 172 3053
L 172 3500
L 594 3500
L 594 4494
L 1172 4494
z
" transform="scale(0.015625)"/>
      <path id="DejaVuSans-69" d="M 603 3500
L 1178 3500
L 1178 0
L 603 0
L 603 3500
z
M 603 4863
L 1178 4863
L 1178 4134
L 603 4134
L 603 4863
z
" transform="scale(0.015625)"/>
      <path id="DejaVuSans-76" d="M 191 3500
L 800 3500
L 1894 563
L 2988 3500
L 3597 3500
L 2284 0
L 1503 0
L 191 3500
z
" transform="scale(0.015625)"/>
      <path id="DejaVuSans-20" transform="scale(0.015625)"/>
      <path id="DejaVuSans-64" d="M 2906 2969
L 2906 4863
L 3481 4863
L 3481 0
L 2906 0
L 2906 525
Q 2725 213 2448 61
Q 2172 -91 1784 -91
Q 1150 -91 751 415
Q 353 922 353 1747
Q 353 2572 751 3078
Q 1150 3584 1784 3584
Q 2172 3584 2448 3432
Q 2725 3281 2906 2969
z
M 947 1747
Q 947 1113 1208 752
Q 1469 391 1925 391
Q 2381 391 2643 752
Q 2906 1113 2906 1747
Q 2906 2381 2643 2742
Q 2381 3103 1925 3103
Q 1469 3103 1208 2742
Q 947 2381 947 1747
z
" transform="scale(0.015625)"/>
      <path id="DejaVuSans-6f" d="M 1959 3097
Q 1497 3097 1228 2736
Q 959 2375 959 1747
Q 959 1119 1226 758
Q 1494 397 1959 397
Q 2419 397 2687 759
Q 2956 1122 2956 1747
Q 2956 2369 2687 2733
Q 2419 3097 1959 3097
z
M 1959 3584
Q 2709 3584 3137 3096
Q 3566 2609 3566 1747
Q 3566 888 3137 398
Q 2709 -91 1959 -91
Q 1206 -91 779 398
Q 353 888 353 1747
Q 353 2609 779 3096
Q 1206 3584 1959 3584
z
" transform="scale(0.015625)"/>
      <path id="DejaVuSans-6e" d="M 3513 2113
L 3513 0
L 2938 0
L 2938 2094
Q 2938 2591 2744 2837
Q 2550 3084 2163 3084
Q 1697 3084 1428 2787
Q 1159 2491 1159 1978
L 1159 0
L 581 0
L 581 3500
L 1159 3500
L 1159 2956
Q 1366 3272 1645 3428
Q 1925 3584 2291 3584
Q 2894 3584 3203 3211
Q 3513 2838 3513 2113
z
" transform="scale(0.015625)"/>
      <path id="DejaVuSans-66" d="M 2375 4863
L 2375 4384
L 1825 4384
Q 1516 4384 1395 4259
Q 1275 4134 1275 3809
L 1275 3500
L 2222 3500
L 2222 3053
L 1275 3053
L 1275 0
L 697 0
L 697 3053
L 147 3053
L 147 3500
L 697 3500
L 697 3744
Q 697 4328 969 4595
Q 1241 4863 1831 4863
L 2375 4863
z
" transform="scale(0.015625)"/>
      <path id="DejaVuSans-75" d="M 544 1381
L 544 3500
L 1119 3500
L 1119 1403
Q 1119 906 1312 657
Q 1506 409 1894 409
Q 2359 409 2629 706
Q 2900 1003 2900 1516
L 2900 3500
L 3475 3500
L 3475 0
L 2900 0
L 2900 538
Q 2691 219 2414 64
Q 2138 -91 1772 -91
Q 1169 -91 856 284
Q 544 659 544 1381
z
M 1991 3584
L 1991 3584
z
" transform="scale(0.015625)"/>
      <path id="DejaVuSans-6d" d="M 3328 2828
Q 3544 3216 3844 3400
Q 4144 3584 4550 3584
Q 5097 3584 5394 3201
Q 5691 2819 5691 2113
L 5691 0
L 5113 0
L 5113 2094
Q 5113 2597 4934 2840
Q 4756 3084 4391 3084
Q 3944 3084 3684 2787
Q 3425 2491 3425 1978
L 3425 0
L 2847 0
L 2847 2094
Q 2847 2600 2669 2842
Q 2491 3084 2119 3084
Q 1678 3084 1418 2786
Q 1159 2488 1159 1978
L 1159 0
L 581 0
L 581 3500
L 1159 3500
L 1159 2956
Q 1356 3278 1631 3431
Q 1906 3584 2284 3584
Q 2666 3584 2933 3390
Q 3200 3197 3328 2828
z
" transform="scale(0.015625)"/>
      <path id="DejaVuSans-63" d="M 3122 3366
L 3122 2828
Q 2878 2963 2633 3030
Q 2388 3097 2138 3097
Q 1578 3097 1268 2742
Q 959 2388 959 1747
Q 959 1106 1268 751
Q 1578 397 2138 397
Q 2388 397 2633 464
Q 2878 531 3122 666
L 3122 134
Q 2881 22 2623 -34
Q 2366 -91 2075 -91
Q 1284 -91 818 406
Q 353 903 353 1747
Q 353 2603 823 3093
Q 1294 3584 2113 3584
Q 2378 3584 2631 3529
Q 2884 3475 3122 3366
z
" transform="scale(0.015625)"/>
     </defs>
     <use xlink:href="#DejaVuSans-72"/>
     <use xlink:href="#DejaVuSans-65" x="38.863281"/>
     <use xlink:href="#DejaVuSans-6c" x="100.386719"/>
     <use xlink:href="#DejaVuSans-61" x="128.169922"/>
     <use xlink:href="#DejaVuSans-74" x="189.449219"/>
     <use xlink:href="#DejaVuSans-69" x="228.658203"/>
     <use xlink:href="#DejaVuSans-76" x="256.441406"/>
     <use xlink:href="#DejaVuSans-65" x="315.621094"/>
     <use xlink:href="#DejaVuSans-20" x="377.144531"/>
     <use xlink:href="#DejaVuSans-64" x="408.931641"/>
     <use xlink:href="#DejaVuSans-65" x="472.408203"/>
     <use xlink:href="#DejaVuSans-76" x="533.931641"/>
     <use xlink:href="#DejaVuSans-69" x="593.111328"/>
     <use xlink:href="#DejaVuSans-61" x="620.894531"/>
     <use xlink:href="#DejaVuSans-74" x="682.173828"/>
     <use xlink:href="#DejaVuSans-69" x="721.382812"/>
     <use xlink:href="#DejaVuSans-6f" x="749.166016"/>
     <use xlink:href="#DejaVuSans-6e" x="810.347656"/>
     <use xlink:href="#DejaVuSans-20" x="873.726562"/>
     <use xlink:href="#DejaVuSans-6f" x="905.513672"/>
     <use xlink:href="#DejaVuSans-66" x="966.695312"/>
     <use xlink:href="#DejaVuSans-20" x="1001.900391"/>
     <use xlink:href="#DejaVuSans-6e" x="1033.6875"/>
     <use xlink:href="#DejaVuSans-75" x="1097.066406"/>
     <use xlink:href="#DejaVuSans-6d" x="1160.445312"/>
     <use xlink:href="#DejaVuSans-65" x="1257.857422"/>
     <use xlink:href="#DejaVuSans-72" x="1319.380859"/>
     <use xlink:href="#DejaVuSans-69" x="1360.494141"/>
     <use xlink:href="#DejaVuSans-63" x="1388.277344"/>
     <use xlink:href="#DejaVuSans-61" x="1443.257812"/>
     <use xlink:href="#DejaVuSans-6c" x="1504.537109"/>
     <use xlink:href="#DejaVuSans-20" x="1532.320312"/>
     <use xlink:href="#DejaVuSans-66" x="1564.107422"/>
     <use xlink:href="#DejaVuSans-72" x="1599.3125"/>
     <use xlink:href="#DejaVuSans-6f" x="1638.175781"/>
     <use xlink:href="#DejaVuSans-6d" x="1699.357422"/>
     <use xlink:href="#DejaVuSans-20" x="1796.769531"/>
     <use xlink:href="#DejaVuSans-74" x="1828.556641"/>
     <use xlink:href="#DejaVuSans-72" x="1867.765625"/>
     <use xlink:href="#DejaVuSans-75" x="1908.878906"/>
     <use xlink:href="#DejaVuSans-65" x="1972.257812"/>
     <use xlink:href="#DejaVuSans-20" x="2033.78125"/>
     <use xlink:href="#DejaVuSans-64" x="2065.568359"/>
     <use xlink:href="#DejaVuSans-65" x="2129.044922"/>
     <use xlink:href="#DejaVuSans-72" x="2190.568359"/>
     <use xlink:href="#DejaVuSans-69" x="2231.681641"/>
     <use xlink:href="#DejaVuSans-76" x="2259.464844"/>
     <use xlink:href="#DejaVuSans-61" x="2318.644531"/>
     <use xlink:href="#DejaVuSans-74" x="2379.923828"/>
     <use xlink:href="#DejaVuSans-69" x="2419.132812"/>
     <use xlink:href="#DejaVuSans-76" x="2446.916016"/>
     <use xlink:href="#DejaVuSans-65" x="2506.095703"/>
    </g>
   </g>
   <g id="legend_1">
    <g id="patch_7">
     <path d="M 278.42476 55.474615
L 450.79976 55.474615
Q 452.79976 55.474615 452.79976 53.474615
L 452.79976 25.118365
Q 452.79976 23.118365 450.79976 23.118365
L 278.42476 23.118365
Q 276.42476 23.118365 276.42476 25.118365
L 276.42476 53.474615
Q 276.42476 55.474615 278.42476 55.474615
z
" style="fill: #ffffff; opacity: 0.8; stroke: #cccccc; stroke-linejoin: miter"/>
    </g>
    <g id="text_17">
     <!-- f(x) = sin(x)/x -->
     <g transform="translate(329.95601 34.716802)scale(0.1 -0.1)">
      <defs>
       <path id="DejaVuSans-28" d="M 1984 4856
Q 1566 4138 1362 3434
Q 1159 2731 1159 2009
Q 1159 1288 1364 580
Q 1569 -128 1984 -844
L 1484 -844
Q 1016 -109 783 600
Q 550 1309 550 2009
Q 550 2706 781 3412
Q 1013 4119 1484 4856
L 1984 4856
z
" transform="scale(0.015625)"/>
       <path id="DejaVuSans-78" d="M 3513 3500
L 2247 1797
L 3578 0
L 2900 0
L 1881 1375
L 863 0
L 184 0
L 1544 1831
L 300 3500
L 978 3500
L 1906 2253
L 2834 3500
L 3513 3500
z
" transform="scale(0.015625)"/>
       <path id="DejaVuSans-29" d="M 513 4856
L 1013 4856
Q 1481 4119 1714 3412
Q 1947 2706 1947 2009
Q 1947 1309 1714 600
Q 1481 -109 1013 -844
L 513 -844
Q 928 -128 1133 580
Q 1338 1288 1338 2009
Q 1338 2731 1133 3434
Q 928 4138 513 4856
z
" transform="scale(0.015625)"/>
       <path id="DejaVuSans-3d" d="M 678 2906
L 4684 2906
L 4684 2381
L 678 2381
L 678 2906
z
M 678 1631
L 4684 1631
L 4684 1100
L 678 1100
L 678 1631
z
" transform="scale(0.015625)"/>
       <path id="DejaVuSans-73" d="M 2834 3397
L 2834 2853
Q 2591 2978 2328 3040
Q 2066 3103 1784 3103
Q 1356 3103 1142 2972
Q 928 2841 928 2578
Q 928 2378 1081 2264
Q 1234 2150 1697 2047
L 1894 2003
Q 2506 1872 2764 1633
Q 3022 1394 3022 966
Q 3022 478 2636 193
Q 2250 -91 1575 -91
Q 1294 -91 989 -36
Q 684 19 347 128
L 347 722
Q 666 556 975 473
Q 1284 391 1588 391
Q 1994 391 2212 530
Q 2431 669 2431 922
Q 2431 1156 2273 1281
Q 2116 1406 1581 1522
L 1381 1569
Q 847 1681 609 1914
Q 372 2147 372 2553
Q 372 3047 722 3315
Q 1072 3584 1716 3584
Q 2034 3584 2315 3537
Q 2597 3491 2834 3397
z
" transform="scale(0.015625)"/>
       <path id="DejaVuSans-2f" d="M 1625 4666
L 2156 4666
L 531 -594
L 0 -594
L 1625 4666
z
" transform="scale(0.015625)"/>
      </defs>
      <use xlink:href="#DejaVuSans-66"/>
      <use xlink:href="#DejaVuSans-28" x="35.205078"/>
      <use xlink:href="#DejaVuSans-78" x="74.21875"/>
      <use xlink:href="#DejaVuSans-29" x="133.398438"/>
      <use xlink:href="#DejaVuSans-20" x="172.412109"/>
      <use xlink:href="#DejaVuSans-3d" x="204.199219"/>
      <use xlink:href="#DejaVuSans-20" x="287.988281"/>
      <use xlink:href="#DejaVuSans-73" x="319.775391"/>
      <use xlink:href="#DejaVuSans-69" x="371.875"/>
      <use xlink:href="#DejaVuSans-6e" x="399.658203"/>
      <use xlink:href="#DejaVuSans-28" x="463.037109"/>
      <use xlink:href="#DejaVuSans-78" x="502.050781"/>
      <use xlink:href="#DejaVuSans-29" x="561.230469"/>
      <use xlink:href="#DejaVuSans-2f" x="600.244141"/>
      <use xlink:href="#DejaVuSans-78" x="633.935547"/>
     </g>
    </g>
    <g id="line2d_59">
     <path d="M 280.42476 45.894927
L 290.42476 45.894927
L 300.42476 45.894927
" style="fill: none; stroke: #1f77b4; stroke-width: 1.5; stroke-linecap: square"/>
    </g>
    <g id="text_18">
     <!-- Jacobi -->
     <g transform="translate(308.42476 49.394927)scale(0.1 -0.1)">
      <defs>
       <path id="DejaVuSans-4a" d="M 628 4666
L 1259 4666
L 1259 325
Q 1259 -519 939 -900
Q 619 -1281 -91 -1281
L -331 -1281
L -331 -750
L -134 -750
Q 284 -750 456 -515
Q 628 -281 628 325
L 628 4666
z
" transform="scale(0.015625)"/>
       <path id="DejaVuSans-62" d="M 3116 1747
Q 3116 2381 2855 2742
Q 2594 3103 2138 3103
Q 1681 3103 1420 2742
Q 1159 2381 1159 1747
Q 1159 1113 1420 752
Q 1681 391 2138 391
Q 2594 391 2855 752
Q 3116 1113 3116 1747
z
M 1159 2969
Q 1341 3281 1617 3432
Q 1894 3584 2278 3584
Q 2916 3584 3314 3078
Q 3713 2572 3713 1747
Q 3713 922 3314 415
Q 2916 -91 2278 -91
Q 1894 -91 1617 61
Q 1341 213 1159 525
L 1159 0
L 581 0
L 581 4863
L 1159 4863
L 1159 2969
z
" transform="scale(0.015625)"/>
      </defs>
      <use xlink:href="#DejaVuSans-4a"/>
      <use xlink:href="#DejaVuSans-61" x="29.492188"/>
      <use xlink:href="#DejaVuSans-63" x="90.771484"/>
      <use xlink:href="#DejaVuSans-6f" x="145.751953"/>
      <use xlink:href="#DejaVuSans-62" x="206.933594"/>
      <use xlink:href="#DejaVuSans-69" x="270.410156"/>
     </g>
    </g>
    <g id="line2d_60">
     <path d="M 358.246635 45.894927
L 368.246635 45.894927
L 378.246635 45.894927
" style="fill: none; stroke-dasharray: 5.55,2.4; stroke-dashoffset: 0; stroke: #ff7f0e; stroke-width: 1.5"/>
    </g>
    <g id="text_19">
     <!-- numdifftools -->
     <g transform="translate(386.246635 49.394927)scale(0.1 -0.1)">
      <use xlink:href="#DejaVuSans-6e"/>
      <use xlink:href="#DejaVuSans-75" x="63.378906"/>
      <use xlink:href="#DejaVuSans-6d" x="126.757812"/>
      <use xlink:href="#DejaVuSans-64" x="224.169922"/>
      <use xlink:href="#DejaVuSans-69" x="287.646484"/>
      <use xlink:href="#DejaVuSans-66" x="315.429688"/>
      <use xlink:href="#DejaVuSans-66" x="350.634766"/>
      <use xlink:href="#DejaVuSans-74" x="384.089844"/>
      <use xlink:href="#DejaVuSans-6f" x="423.298828"/>
      <use xlink:href="#DejaVuSans-6f" x="484.480469"/>
      <use xlink:href="#DejaVuSans-6c" x="545.662109"/>
      <use xlink:href="#DejaVuSans-73" x="573.445312"/>
     </g>
    </g>
   </g>
  </g>
 </g>
 <defs>
  <clipPath id="p886e0b9b87">
   <rect x="37.90024" y="18.118365" width="419.89952" height="307.80327"/>
  </clipPath>
 </defs>
</svg>
