<?xml version="1.0" encoding="utf-8" standalone="no"?>
<!DOCTYPE svg PUBLIC "-//W3C//DTD SVG 1.1//EN"
  "http://www.w3.org/Graphics/SVG/1.1/DTD/svg11.dtd">
<svg xmlns:xlink="http://www.w3.org/1999/xlink" width="460.8pt" height="345.6pt" viewBox="0 0 460.8 345.6" xmlns="http://www.w3.org/2000/svg" version="1.1">
 <metadata>
  <rdf:RDF xmlns:dc="http://purl.org/dc/elements/1.1/" xmlns:cc="http://creativecommons.org/ns#" xmlns:rdf="http://www.w3.org/1999/02/22-rdf-syntax-ns#">
   <cc:Work>
    <dc:type rdf:resource="http://purl.org/dc/dcmitype/StillImage"/>
    <dc:date>2022-01-06T15:19:22.825401</dc:date>
    <dc:format>image/svg+xml</dc:format>
    <dc:creator>
     <cc:Agent>
      <dc:title>Matplotlib v3.5.1, https://matplotlib.org/</dc:title>
     </cc:Agent>
    </dc:creator>
   </cc:Work>
  </rdf:RDF>
 </metadata>
 <defs>
  <style type="text/css">*{stroke-linejoin: round; stroke-linecap: butt}</style>
 </defs>
 <g id="figure_1">
  <g id="patch_1">
   <path d="M 0 345.6
L 460.8 345.6
L 460.8 0
L 0 0
z
" style="fill: #ffffff"/>
  </g>
  <g id="axes_1">
   <g id="patch_2">
    <path d="M 37.90024 325.921635
L 457.79976 325.921635
L 457.79976 18.118365
L 37.90024 18.118365
z
" style="fill: #ffffff"/>
   </g>
   <g id="matplotlib.axis_1">
    <g id="xtick_1">
     <g id="line2d_1">
      <defs>
       <path id="macb0f4e34c" d="M 0 0
L 0 3.5
" style="stroke: #000000; stroke-width: 0.8"/>
      </defs>
      <g>
       <use xlink:href="#macb0f4e34c" x="56.986582" y="325.921635" style="stroke: #000000; stroke-width: 0.8"/>
      </g>
     </g>
     <g id="text_1">
      <!-- −10.0 -->
      <g transform="translate(41.663926 340.520072)scale(0.1 -0.1)">
       <defs>
        <path id="DejaVuSans-2212" d="M 678 2272
L 4684 2272
L 4684 1741
L 678 1741
L 678 2272
z
" transform="scale(0.015625)"/>
        <path id="DejaVuSans-31" d="M 794 531
L 1825 531
L 1825 4091
L 703 3866
L 703 4441
L 1819 4666
L 2450 4666
L 2450 531
L 3481 531
L 3481 0
L 794 0
L 794 531
z
" transform="scale(0.015625)"/>
        <path id="DejaVuSans-30" d="M 2034 4250
Q 1547 4250 1301 3770
Q 1056 3291 1056 2328
Q 1056 1369 1301 889
Q 1547 409 2034 409
Q 2525 409 2770 889
Q 3016 1369 3016 2328
Q 3016 3291 2770 3770
Q 2525 4250 2034 4250
z
M 2034 4750
Q 2819 4750 3233 4129
Q 3647 3509 3647 2328
Q 3647 1150 3233 529
Q 2819 -91 2034 -91
Q 1250 -91 836 529
Q 422 1150 422 2328
Q 422 3509 836 4129
Q 1250 4750 2034 4750
z
" transform="scale(0.015625)"/>
        <path id="DejaVuSans-2e" d="M 684 794
L 1344 794
L 1344 0
L 684 0
L 684 794
z
" transform="scale(0.015625)"/>
       </defs>
       <use xlink:href="#DejaVuSans-2212"/>
       <use xlink:href="#DejaVuSans-31" x="83.789062"/>
       <use xlink:href="#DejaVuSans-30" x="147.412109"/>
       <use xlink:href="#DejaVuSans-2e" x="211.035156"/>
       <use xlink:href="#DejaVuSans-30" x="242.822266"/>
      </g>
     </g>
    </g>
    <g id="xtick_2">
     <g id="line2d_2">
      <g>
       <use xlink:href="#macb0f4e34c" x="104.702436" y="325.921635" style="stroke: #000000; stroke-width: 0.8"/>
      </g>
     </g>
     <g id="text_2">
      <!-- −7.5 -->
      <g transform="translate(92.56103 340.520072)scale(0.1 -0.1)">
       <defs>
        <path id="DejaVuSans-37" d="M 525 4666
L 3525 4666
L 3525 4397
L 1831 0
L 1172 0
L 2766 4134
L 525 4134
L 525 4666
z
" transform="scale(0.015625)"/>
        <path id="DejaVuSans-35" d="M 691 4666
L 3169 4666
L 3169 4134
L 1269 4134
L 1269 2991
Q 1406 3038 1543 3061
Q 1681 3084 1819 3084
Q 2600 3084 3056 2656
Q 3513 2228 3513 1497
Q 3513 744 3044 326
Q 2575 -91 1722 -91
Q 1428 -91 1123 -41
Q 819 9 494 109
L 494 744
Q 775 591 1075 516
Q 1375 441 1709 441
Q 2250 441 2565 725
Q 2881 1009 2881 1497
Q 2881 1984 2565 2268
Q 2250 2553 1709 2553
Q 1456 2553 1204 2497
Q 953 2441 691 2322
L 691 4666
z
" transform="scale(0.015625)"/>
       </defs>
       <use xlink:href="#DejaVuSans-2212"/>
       <use xlink:href="#DejaVuSans-37" x="83.789062"/>
       <use xlink:href="#DejaVuSans-2e" x="147.412109"/>
       <use xlink:href="#DejaVuSans-35" x="179.199219"/>
      </g>
     </g>
    </g>
    <g id="xtick_3">
     <g id="line2d_3">
      <g>
       <use xlink:href="#macb0f4e34c" x="152.418291" y="325.921635" style="stroke: #000000; stroke-width: 0.8"/>
      </g>
     </g>
     <g id="text_3">
      <!-- −5.0 -->
      <g transform="translate(140.276885 340.520072)scale(0.1 -0.1)">
       <use xlink:href="#DejaVuSans-2212"/>
       <use xlink:href="#DejaVuSans-35" x="83.789062"/>
       <use xlink:href="#DejaVuSans-2e" x="147.412109"/>
       <use xlink:href="#DejaVuSans-30" x="179.199219"/>
      </g>
     </g>
    </g>
    <g id="xtick_4">
     <g id="line2d_4">
      <g>
       <use xlink:href="#macb0f4e34c" x="200.134145" y="325.921635" style="stroke: #000000; stroke-width: 0.8"/>
      </g>
     </g>
     <g id="text_4">
      <!-- −2.5 -->
      <g transform="translate(187.992739 340.520072)scale(0.1 -0.1)">
       <defs>
        <path id="DejaVuSans-32" d="M 1228 531
L 3431 531
L 3431 0
L 469 0
L 469 531
Q 828 903 1448 1529
Q 2069 2156 2228 2338
Q 2531 2678 2651 2914
Q 2772 3150 2772 3378
Q 2772 3750 2511 3984
Q 2250 4219 1831 4219
Q 1534 4219 1204 4116
Q 875 4013 500 3803
L 500 4441
Q 881 4594 1212 4672
Q 1544 4750 1819 4750
Q 2544 4750 2975 4387
Q 3406 4025 3406 3419
Q 3406 3131 3298 2873
Q 3191 2616 2906 2266
Q 2828 2175 2409 1742
Q 1991 1309 1228 531
z
" transform="scale(0.015625)"/>
       </defs>
       <use xlink:href="#DejaVuSans-2212"/>
       <use xlink:href="#DejaVuSans-32" x="83.789062"/>
       <use xlink:href="#DejaVuSans-2e" x="147.412109"/>
       <use xlink:href="#DejaVuSans-35" x="179.199219"/>
      </g>
     </g>
    </g>
    <g id="xtick_5">
     <g id="line2d_5">
      <g>
       <use xlink:href="#macb0f4e34c" x="247.85" y="325.921635" style="stroke: #000000; stroke-width: 0.8"/>
      </g>
     </g>
     <g id="text_5">
      <!-- 0.0 -->
      <g transform="translate(239.898438 340.520072)scale(0.1 -0.1)">
       <use xlink:href="#DejaVuSans-30"/>
       <use xlink:href="#DejaVuSans-2e" x="63.623047"/>
       <use xlink:href="#DejaVuSans-30" x="95.410156"/>
      </g>
     </g>
    </g>
    <g id="xtick_6">
     <g id="line2d_6">
      <g>
       <use xlink:href="#macb0f4e34c" x="295.565855" y="325.921635" style="stroke: #000000; stroke-width: 0.8"/>
      </g>
     </g>
     <g id="text_6">
      <!-- 2.5 -->
      <g transform="translate(287.614292 340.520072)scale(0.1 -0.1)">
       <use xlink:href="#DejaVuSans-32"/>
       <use xlink:href="#DejaVuSans-2e" x="63.623047"/>
       <use xlink:href="#DejaVuSans-35" x="95.410156"/>
      </g>
     </g>
    </g>
    <g id="xtick_7">
     <g id="line2d_7">
      <g>
       <use xlink:href="#macb0f4e34c" x="343.281709" y="325.921635" style="stroke: #000000; stroke-width: 0.8"/>
      </g>
     </g>
     <g id="text_7">
      <!-- 5.0 -->
      <g transform="translate(335.330147 340.520072)scale(0.1 -0.1)">
       <use xlink:href="#DejaVuSans-35"/>
       <use xlink:href="#DejaVuSans-2e" x="63.623047"/>
       <use xlink:href="#DejaVuSans-30" x="95.410156"/>
      </g>
     </g>
    </g>
    <g id="xtick_8">
     <g id="line2d_8">
      <g>
       <use xlink:href="#macb0f4e34c" x="390.997564" y="325.921635" style="stroke: #000000; stroke-width: 0.8"/>
      </g>
     </g>
     <g id="text_8">
      <!-- 7.5 -->
      <g transform="translate(383.046001 340.520072)scale(0.1 -0.1)">
       <use xlink:href="#DejaVuSans-37"/>
       <use xlink:href="#DejaVuSans-2e" x="63.623047"/>
       <use xlink:href="#DejaVuSans-35" x="95.410156"/>
      </g>
     </g>
    </g>
    <g id="xtick_9">
     <g id="line2d_9">
      <g>
       <use xlink:href="#macb0f4e34c" x="438.713418" y="325.921635" style="stroke: #000000; stroke-width: 0.8"/>
      </g>
     </g>
     <g id="text_9">
      <!-- 10.0 -->
      <g transform="translate(427.580606 340.520072)scale(0.1 -0.1)">
       <use xlink:href="#DejaVuSans-31"/>
       <use xlink:href="#DejaVuSans-30" x="63.623047"/>
       <use xlink:href="#DejaVuSans-2e" x="127.246094"/>
       <use xlink:href="#DejaVuSans-30" x="159.033203"/>
      </g>
     </g>
    </g>
   </g>
   <g id="matplotlib.axis_2">
    <g id="ytick_1">
     <g id="line2d_10">
      <defs>
       <path id="m6a576cdaff" d="M 0 0
L -3.5 0
" style="stroke: #000000; stroke-width: 0.8"/>
      </defs>
      <g>
       <use xlink:href="#m6a576cdaff" x="37.90024" y="325.921635" style="stroke: #000000; stroke-width: 0.8"/>
      </g>
     </g>
     <g id="text_10">
      <!-- $\mathdefault{10^{-16}}$ -->
      <g transform="translate(3.00024 329.720854)scale(0.1 -0.1)">
       <defs>
        <path id="DejaVuSans-36" d="M 2113 2584
Q 1688 2584 1439 2293
Q 1191 2003 1191 1497
Q 1191 994 1439 701
Q 1688 409 2113 409
Q 2538 409 2786 701
Q 3034 994 3034 1497
Q 3034 2003 2786 2293
Q 2538 2584 2113 2584
z
M 3366 4563
L 3366 3988
Q 3128 4100 2886 4159
Q 2644 4219 2406 4219
Q 1781 4219 1451 3797
Q 1122 3375 1075 2522
Q 1259 2794 1537 2939
Q 1816 3084 2150 3084
Q 2853 3084 3261 2657
Q 3669 2231 3669 1497
Q 3669 778 3244 343
Q 2819 -91 2113 -91
Q 1303 -91 875 529
Q 447 1150 447 2328
Q 447 3434 972 4092
Q 1497 4750 2381 4750
Q 2619 4750 2861 4703
Q 3103 4656 3366 4563
z
" transform="scale(0.015625)"/>
       </defs>
       <use xlink:href="#DejaVuSans-31" transform="translate(0 0.765625)"/>
       <use xlink:href="#DejaVuSans-30" transform="translate(63.623047 0.765625)"/>
       <use xlink:href="#DejaVuSans-2212" transform="translate(128.203125 39.046875)scale(0.7)"/>
       <use xlink:href="#DejaVuSans-31" transform="translate(186.855469 39.046875)scale(0.7)"/>
       <use xlink:href="#DejaVuSans-36" transform="translate(231.391602 39.046875)scale(0.7)"/>
      </g>
     </g>
    </g>
    <g id="ytick_2">
     <g id="line2d_11">
      <g>
       <use xlink:href="#m6a576cdaff" x="37.90024" y="287.446226" style="stroke: #000000; stroke-width: 0.8"/>
      </g>
     </g>
     <g id="text_11">
      <!-- $\mathdefault{10^{-14}}$ -->
      <g transform="translate(3.00024 291.245445)scale(0.1 -0.1)">
       <defs>
        <path id="DejaVuSans-34" d="M 2419 4116
L 825 1625
L 2419 1625
L 2419 4116
z
M 2253 4666
L 3047 4666
L 3047 1625
L 3713 1625
L 3713 1100
L 3047 1100
L 3047 0
L 2419 0
L 2419 1100
L 313 1100
L 313 1709
L 2253 4666
z
" transform="scale(0.015625)"/>
       </defs>
       <use xlink:href="#DejaVuSans-31" transform="translate(0 0.684375)"/>
       <use xlink:href="#DejaVuSans-30" transform="translate(63.623047 0.684375)"/>
       <use xlink:href="#DejaVuSans-2212" transform="translate(128.203125 38.965625)scale(0.7)"/>
       <use xlink:href="#DejaVuSans-31" transform="translate(186.855469 38.965625)scale(0.7)"/>
       <use xlink:href="#DejaVuSans-34" transform="translate(231.391602 38.965625)scale(0.7)"/>
      </g>
     </g>
    </g>
    <g id="ytick_3">
     <g id="line2d_12">
      <g>
       <use xlink:href="#m6a576cdaff" x="37.90024" y="248.970817" style="stroke: #000000; stroke-width: 0.8"/>
      </g>
     </g>
     <g id="text_12">
      <!-- $\mathdefault{10^{-12}}$ -->
      <g transform="translate(3.00024 252.770036)scale(0.1 -0.1)">
       <use xlink:href="#DejaVuSans-31" transform="translate(0 0.765625)"/>
       <use xlink:href="#DejaVuSans-30" transform="translate(63.623047 0.765625)"/>
       <use xlink:href="#DejaVuSans-2212" transform="translate(128.203125 39.046875)scale(0.7)"/>
       <use xlink:href="#DejaVuSans-31" transform="translate(186.855469 39.046875)scale(0.7)"/>
       <use xlink:href="#DejaVuSans-32" transform="translate(231.391602 39.046875)scale(0.7)"/>
      </g>
     </g>
    </g>
    <g id="ytick_4">
     <g id="line2d_13">
      <g>
       <use xlink:href="#m6a576cdaff" x="37.90024" y="210.495409" style="stroke: #000000; stroke-width: 0.8"/>
      </g>
     </g>
     <g id="text_13">
      <!-- $\mathdefault{10^{-10}}$ -->
      <g transform="translate(3.00024 214.294627)scale(0.1 -0.1)">
       <use xlink:href="#DejaVuSans-31" transform="translate(0 0.765625)"/>
       <use xlink:href="#DejaVuSans-30" transform="translate(63.623047 0.765625)"/>
       <use xlink:href="#DejaVuSans-2212" transform="translate(128.203125 39.046875)scale(0.7)"/>
       <use xlink:href="#DejaVuSans-31" transform="translate(186.855469 39.046875)scale(0.7)"/>
       <use xlink:href="#DejaVuSans-30" transform="translate(231.391602 39.046875)scale(0.7)"/>
      </g>
     </g>
    </g>
    <g id="ytick_5">
     <g id="line2d_14">
      <g>
       <use xlink:href="#m6a576cdaff" x="37.90024" y="172.02" style="stroke: #000000; stroke-width: 0.8"/>
      </g>
     </g>
     <g id="text_14">
      <!-- $\mathdefault{10^{-8}}$ -->
      <g transform="translate(7.40024 175.819219)scale(0.1 -0.1)">
       <defs>
        <path id="DejaVuSans-38" d="M 2034 2216
Q 1584 2216 1326 1975
Q 1069 1734 1069 1313
Q 1069 891 1326 650
Q 1584 409 2034 409
Q 2484 409 2743 651
Q 3003 894 3003 1313
Q 3003 1734 2745 1975
Q 2488 2216 2034 2216
z
M 1403 2484
Q 997 2584 770 2862
Q 544 3141 544 3541
Q 544 4100 942 4425
Q 1341 4750 2034 4750
Q 2731 4750 3128 4425
Q 3525 4100 3525 3541
Q 3525 3141 3298 2862
Q 3072 2584 2669 2484
Q 3125 2378 3379 2068
Q 3634 1759 3634 1313
Q 3634 634 3220 271
Q 2806 -91 2034 -91
Q 1263 -91 848 271
Q 434 634 434 1313
Q 434 1759 690 2068
Q 947 2378 1403 2484
z
M 1172 3481
Q 1172 3119 1398 2916
Q 1625 2713 2034 2713
Q 2441 2713 2670 2916
Q 2900 3119 2900 3481
Q 2900 3844 2670 4047
Q 2441 4250 2034 4250
Q 1625 4250 1398 4047
Q 1172 3844 1172 3481
z
" transform="scale(0.015625)"/>
       </defs>
       <use xlink:href="#DejaVuSans-31" transform="translate(0 0.765625)"/>
       <use xlink:href="#DejaVuSans-30" transform="translate(63.623047 0.765625)"/>
       <use xlink:href="#DejaVuSans-2212" transform="translate(128.203125 39.046875)scale(0.7)"/>
       <use xlink:href="#DejaVuSans-38" transform="translate(186.855469 39.046875)scale(0.7)"/>
      </g>
     </g>
    </g>
    <g id="ytick_6">
     <g id="line2d_15">
      <g>
       <use xlink:href="#m6a576cdaff" x="37.90024" y="133.544591" style="stroke: #000000; stroke-width: 0.8"/>
      </g>
     </g>
     <g id="text_15">
      <!-- $\mathdefault{10^{-6}}$ -->
      <g transform="translate(7.40024 137.34381)scale(0.1 -0.1)">
       <use xlink:href="#DejaVuSans-31" transform="translate(0 0.765625)"/>
       <use xlink:href="#DejaVuSans-30" transform="translate(63.623047 0.765625)"/>
       <use xlink:href="#DejaVuSans-2212" transform="translate(128.203125 39.046875)scale(0.7)"/>
       <use xlink:href="#DejaVuSans-36" transform="translate(186.855469 39.046875)scale(0.7)"/>
      </g>
     </g>
    </g>
    <g id="ytick_7">
     <g id="line2d_16">
      <g>
       <use xlink:href="#m6a576cdaff" x="37.90024" y="95.069182" style="stroke: #000000; stroke-width: 0.8"/>
      </g>
     </g>
     <g id="text_16">
      <!-- $\mathdefault{10^{-4}}$ -->
      <g transform="translate(7.40024 98.868401)scale(0.1 -0.1)">
       <use xlink:href="#DejaVuSans-31" transform="translate(0 0.684375)"/>
       <use xlink:href="#DejaVuSans-30" transform="translate(63.623047 0.684375)"/>
       <use xlink:href="#DejaVuSans-2212" transform="translate(128.203125 38.965625)scale(0.7)"/>
       <use xlink:href="#DejaVuSans-34" transform="translate(186.855469 38.965625)scale(0.7)"/>
      </g>
     </g>
    </g>
    <g id="ytick_8">
     <g id="line2d_17">
      <g>
       <use xlink:href="#m6a576cdaff" x="37.90024" y="56.593774" style="stroke: #000000; stroke-width: 0.8"/>
      </g>
     </g>
     <g id="text_17">
      <!-- $\mathdefault{10^{-2}}$ -->
      <g transform="translate(7.40024 60.392992)scale(0.1 -0.1)">
       <use xlink:href="#DejaVuSans-31" transform="translate(0 0.765625)"/>
       <use xlink:href="#DejaVuSans-30" transform="translate(63.623047 0.765625)"/>
       <use xlink:href="#DejaVuSans-2212" transform="translate(128.203125 39.046875)scale(0.7)"/>
       <use xlink:href="#DejaVuSans-32" transform="translate(186.855469 39.046875)scale(0.7)"/>
      </g>
     </g>
    </g>
    <g id="ytick_9">
     <g id="line2d_18">
      <g>
       <use xlink:href="#m6a576cdaff" x="37.90024" y="18.118365" style="stroke: #000000; stroke-width: 0.8"/>
      </g>
     </g>
     <g id="text_18">
      <!-- $\mathdefault{10^{0}}$ -->
      <g transform="translate(13.30024 21.917584)scale(0.1 -0.1)">
       <use xlink:href="#DejaVuSans-31" transform="translate(0 0.765625)"/>
       <use xlink:href="#DejaVuSans-30" transform="translate(63.623047 0.765625)"/>
       <use xlink:href="#DejaVuSans-30" transform="translate(128.203125 39.046875)scale(0.7)"/>
      </g>
     </g>
    </g>
   </g>
   <g id="line2d_19">
    <path d="M 56.986582 294.879445
L 57.7508 302.999174
L 58.132909 304.287077
L 58.515018 296.092416
L 58.897127 293.060403
L 59.279235 304.287077
L 59.661344 303.618334
L 60.043453 325.048046
L 60.425562 288.436964
L 60.807671 313.465794
L 61.18978 315.869329
L 61.571889 325.048046
L 61.953998 307.674668
L 62.718216 310.078203
L 63.100325 307.674668
L 63.864543 319.25692
L 64.246652 300.019216
L 64.628761 298.15489
L 65.01087 313.465794
L 65.392979 307.674668
L 65.775088 310.078203
L 66.157197 310.078203
L 66.539305 319.25692
L 66.921414 307.674668
L 67.303523 311.601468
L 67.304229 346.6
M 68.449182 346.6
L 68.44985 313.465794
L 68.831959 311.601468
L 69.214068 319.25692
L 69.596177 311.601468
L 69.978286 319.25692
L 70.360395 313.465794
L 70.742504 295.585908
L 71.506722 310.078203
L 71.888831 325.048046
L 72.27094 325.048046
L 72.653049 313.465794
L 73.035158 319.25692
L 73.417266 319.25692
L 73.799375 301.377034
L 74.181484 313.465794
L 74.563593 319.25692
L 75.327811 299.222916
L 75.70992 301.883542
L 76.092029 297.208048
L 76.474138 300.899485
L 76.856247 302.999174
L 77.238356 325.048046
L 77.620465 305.014042
L 78.002574 303.618334
L 78.384683 296.631624
L 78.766792 302.999174
L 79.148901 293.820456
L 79.53101 292.704825
L 79.913119 290.171755
L 80.295227 290.432865
L 80.677336 286.572638
L 81.059445 284.127433
L 81.441554 295.108359
L 81.823663 301.883542
L 82.205772 286.656607
L 82.587881 311.601468
L 82.96999 310.078203
L 83.352099 290.171755
L 83.734208 319.25692
L 84.116317 300.019216
L 84.498426 313.465794
L 84.880535 291.567463
L 85.262644 311.601468
L 85.644753 293.43179
L 86.026862 298.15489
L 86.408971 304.287077
L 86.79108 282.338263
L 87.173188 298.495951
L 87.555297 293.060403
L 87.937406 310.078203
L 88.319515 306.690611
L 88.701624 291.720767
L 89.083733 289.201992
L 89.465842 294.22809
L 89.847951 293.43179
L 90.23006 283.64296
L 90.612169 290.566545
L 90.994278 293.43179
L 91.376387 319.25692
L 92.140605 288.64849
L 92.522714 301.883542
L 92.904823 299.222916
L 93.286932 274.118475
L 93.669041 288.02933
L 94.05115 291.416922
L 94.433258 286.007361
L 94.815367 296.631624
L 95.197476 269.241138
L 95.579585 281.849538
L 95.961694 277.174043
L 96.343803 294.021787
L 96.725912 281.387827
L 97.108021 301.377034
L 97.49013 274.194085
L 97.872239 275.507344
L 98.254348 266.523456
L 98.636457 281.035993
L 99.018566 265.364344
L 99.400675 278.589503
L 100.164893 254.38933
L 100.547002 247.279689
L 100.929111 268.911841
L 101.311219 278.151322
L 101.693328 281.035993
L 102.075437 270.934051
L 102.457546 271.80005
L 102.839655 281.708326
L 103.221764 297.208048
L 103.603873 278.751738
L 103.985982 303.618334
L 104.368091 290.30129
L 104.7502 288.64849
L 105.132309 284.003656
L 105.514418 277.56271
L 105.896527 297.208048
L 106.278636 292.704825
L 106.660745 297.827207
L 107.042854 280.950302
L 107.424963 283.64296
L 107.807072 307.674668
L 108.18918 293.060403
L 108.571289 306.690611
L 108.953398 313.465794
L 109.335507 297.208048
L 109.717616 293.623863
L 110.099725 302.999174
L 110.481834 296.631624
L 110.863943 306.690611
L 111.246052 304.287077
L 111.628161 305.810342
L 112.01027 305.810342
L 112.392379 310.078203
L 112.774488 293.820456
L 113.156597 303.618334
L 113.538706 295.835324
L 113.920815 300.899485
L 114.302924 294.656637
L 114.685033 295.108359
L 115.067142 287.269277
L 115.44925 292.704825
L 115.831359 292.363764
L 116.213468 288.865511
L 116.595577 296.092416
L 116.977686 290.171755
L 117.359795 325.048046
L 117.741904 301.377034
L 118.124013 319.25692
L 118.506122 300.899485
L 118.888231 305.014042
L 119.27034 303.618334
L 119.652449 319.25692
L 120.034558 313.465794
L 120.798776 292.532554
L 121.180885 308.7903
L 121.562994 308.7903
L 121.945103 304.287077
L 122.327211 306.690611
L 122.70932 310.078203
L 123.091429 299.222916
L 123.473538 297.208048
L 123.855647 311.601468
L 124.237756 305.810342
L 124.619865 319.25692
L 125.001974 303.618334
L 125.384083 302.999174
L 125.766192 319.25692
L 126.148301 313.465794
L 126.53041 305.810342
L 126.531232 346.6
M 127.293922 346.6
L 127.294628 311.601468
L 127.676737 313.465794
L 128.058846 319.25692
L 128.823064 319.25692
L 129.205172 310.078203
L 129.587281 310.078203
L 129.96939 311.601468
L 130.351499 319.25692
L 130.733608 304.287077
L 130.734461 346.6
M 131.497158 346.6
L 131.497826 313.465794
L 131.879935 315.869329
L 132.262044 296.092416
L 132.644153 308.7903
L 133.026262 313.465794
L 133.408371 315.869329
L 133.79048 313.465794
L 134.172589 300.899485
L 134.554698 300.019216
L 134.936807 300.019216
L 135.318916 294.656637
L 135.701025 310.078203
L 136.083133 300.019216
L 136.465242 302.999174
L 136.847351 295.585908
L 137.22946 302.42275
L 137.611569 297.511893
L 137.993678 315.869329
L 138.375787 298.495951
L 138.757896 305.014042
L 139.140005 306.690611
L 139.522114 294.879445
L 139.904223 291.720767
L 140.286332 296.357671
L 140.668441 292.363764
L 141.05055 295.108359
L 141.432659 294.879445
L 141.814768 289.088319
L 142.196877 298.851529
L 142.578986 290.30129
L 142.961095 285.332614
L 143.343203 294.879445
L 143.725312 288.542057
L 144.107421 287.930456
L 144.48953 289.317233
L 144.871639 315.869329
L 145.253748 284.911273
L 145.635857 284.575692
L 146.017966 290.566545
L 146.400075 293.43179
L 146.782184 319.25692
L 147.164293 289.552596
L 147.546402 290.30129
L 147.928511 290.044198
L 148.31062 288.542057
L 148.692729 308.7903
L 149.074838 284.253072
L 149.456947 289.794782
L 149.839056 297.511893
L 150.221164 284.775419
L 150.603273 287.089596
L 150.985382 292.704825
L 151.367491 295.585908
L 152.131709 282.750931
L 152.513818 283.526107
L 152.895927 296.092416
L 153.278036 286.085811
L 153.660145 315.869329
L 154.042254 282.857364
L 154.424363 294.22809
L 154.806472 278.243302
L 155.188581 289.088319
L 155.57069 292.036081
L 155.952799 289.317233
L 156.334908 293.43179
L 156.717017 290.30129
L 157.099125 288.542057
L 157.481234 325.048046
L 158.245452 278.39889
L 158.627561 272.607764
L 159.00967 297.208048
L 159.391779 280.453829
L 159.773888 290.840498
L 160.155997 275.641741
L 160.538106 269.085163
L 160.920215 295.108359
L 161.684433 257.55458
L 162.066542 237.726642
L 162.448651 269.023579
L 162.83076 281.122572
L 163.212869 267.202314
L 163.594978 277.910878
L 163.977087 268.308553
L 164.359195 284.253072
L 165.123413 279.188911
L 165.505522 277.506067
L 165.887631 272.927912
L 166.26974 283.185046
L 166.651849 277.174043
L 167.033958 288.129389
L 167.416067 294.879445
L 167.798176 288.02933
L 168.180285 278.090559
L 168.562394 287.269277
L 168.944503 286.085811
L 169.326612 285.477919
L 170.09083 283.129532
L 170.472939 279.947321
L 170.855048 297.511893
L 171.237156 291.12374
L 171.619265 279.613824
L 172.001374 301.883542
L 172.383483 292.363764
L 172.765592 301.883542
L 173.147701 284.380629
L 173.52981 289.552596
L 173.911919 299.222916
L 174.294028 305.014042
L 175.058246 293.820456
L 175.440355 291.567463
L 175.822464 293.060403
L 176.204573 307.674668
L 176.586682 296.631624
L 176.968791 310.078203
L 177.733009 284.775419
L 178.115117 310.078203
L 178.497226 295.585908
L 178.879335 291.12374
L 179.261444 292.704825
L 179.643553 304.287077
L 180.025662 310.078203
L 180.407771 293.43179
L 180.78988 305.014042
L 181.171989 304.287077
L 181.554098 313.465794
L 181.936207 319.25692
L 182.318316 300.899485
L 182.700425 298.15489
L 183.082534 298.495951
L 183.464643 319.25692
L 183.846752 313.465794
L 184.61097 313.465794
L 184.993078 296.631624
L 185.757296 307.674668
L 186.139405 308.7903
L 186.140168 346.6
M 186.902955 346.6
L 186.903623 313.465794
L 187.285732 319.25692
L 187.667841 313.465794
L 187.66851 346.6
M 188.431391 346.6
L 188.432059 313.465794
L 188.814168 319.25692
L 189.196277 313.465794
L 190.342604 304.287077
L 190.724713 298.851529
L 191.106822 300.447763
L 191.488931 305.810342
L 191.87104 302.999174
L 192.253148 313.465794
L 192.635257 305.810342
L 193.017366 305.014042
L 193.399475 319.25692
L 193.781584 319.25692
L 194.163693 294.879445
L 194.545802 301.883542
L 194.927911 302.999174
L 195.31002 296.631624
L 195.692129 297.208048
L 196.074238 302.42275
L 196.456347 296.631624
L 196.838456 301.883542
L 197.220565 315.869329
L 197.602674 300.019216
L 197.984783 294.879445
L 198.366892 305.014042
L 198.749001 300.899485
L 199.131109 300.899485
L 199.513218 302.999174
L 199.895327 293.820456
L 200.277436 299.222916
L 200.659545 295.343722
L 201.041654 302.999174
L 201.805872 289.794782
L 202.187981 290.044198
L 202.57009 300.019216
L 202.952199 304.287077
L 203.334308 310.078203
L 203.716417 300.019216
L 204.098526 302.999174
L 204.480635 294.656637
L 204.862744 305.810342
L 205.244853 313.465794
L 206.00907 307.674668
L 206.391179 294.656637
L 206.773288 298.851529
L 207.155397 292.363764
L 207.537506 308.7903
L 207.919615 310.078203
L 208.301724 299.222916
L 208.683833 292.704825
L 209.065942 300.899485
L 209.448051 306.690611
L 209.83016 297.208048
L 210.212269 292.036081
L 210.594378 300.899485
L 210.976487 298.495951
L 211.358596 301.883542
L 211.740705 286.085811
L 212.122814 287.089596
L 212.504923 285.625796
L 212.887032 285.477919
L 213.26914 319.25692
L 213.651249 299.222916
L 214.033358 313.465794
L 214.415467 304.287077
L 214.797576 284.708311
L 215.179685 307.674668
L 215.561794 298.495951
L 215.943903 292.704825
L 216.326012 293.820456
L 216.708121 284.708311
L 217.09023 288.230661
L 217.472339 286.244955
L 217.854448 287.089596
L 218.236557 285.404951
L 218.618666 287.089596
L 219.000775 313.465794
L 219.001443 346.6
M 219.763741 346.6
L 219.764993 284.445146
L 220.147101 297.827207
L 220.52921 304.287077
L 220.911319 292.880722
L 221.293428 293.43179
L 221.675537 291.720767
L 222.057646 319.25692
L 222.821864 279.909602
L 223.203973 281.210058
L 223.586082 286.827119
L 223.968191 296.631624
L 224.3503 289.434086
L 224.732409 308.7903
L 225.114518 313.465794
L 225.496627 284.003656
L 225.878736 289.918559
L 226.260845 284.003656
L 226.642954 306.690611
L 227.025062 311.601468
L 227.407171 285.477919
L 227.78928 286.40719
L 228.171389 282.188621
L 228.553498 283.64296
L 228.935607 282.857364
L 229.317716 283.76147
L 229.699825 281.849538
L 230.081934 294.22809
L 230.464043 283.353836
L 230.846152 280.698378
L 231.228261 286.913698
L 231.229463 346.6
M 231.991117 346.6
L 231.992479 278.984293
L 232.374588 279.328161
L 232.756697 292.704825
L 233.138806 272.67082
L 233.520915 325.048046
L 233.903023 283.297193
L 234.285132 283.526107
L 234.667241 288.64849
L 235.04935 279.613824
L 235.431459 275.824367
L 235.813568 298.495951
L 236.195677 297.208048
L 236.577786 304.287077
L 237.342004 275.94057
L 237.724113 277.851833
L 238.106222 276.547137
L 238.488331 290.30129
L 238.87044 291.720767
L 239.252549 282.490635
L 239.634658 290.840498
L 240.016767 288.230661
L 240.398876 281.478151
L 240.780985 284.510164
L 241.163093 278.090559
L 241.545202 269.003152
L 241.927311 277.910878
L 242.30942 274.137314
L 242.691529 280.294685
L 243.073638 266.676479
L 243.455747 265.605365
L 243.837856 281.849538
L 244.219965 273.059487
L 244.602074 258.004431
L 244.984183 271.743215
L 245.366292 260.823807
L 245.748401 275.375075
L 246.13051 267.023333
L 246.512619 251.4282
L 246.894728 259.514033
L 247.276837 261.585686
L 247.658946 241.02011
L 248.041054 241.02011
L 248.423163 261.585686
L 248.805272 259.514033
L 249.187381 251.4282
L 249.56949 267.023333
L 249.951599 275.375075
L 250.333708 260.823807
L 250.715817 271.743215
L 251.097926 258.004431
L 251.480035 273.059487
L 251.862144 281.849538
L 252.244253 265.605365
L 252.626362 266.676479
L 253.008471 280.294685
L 253.39058 274.137314
L 253.772689 277.910878
L 254.154798 269.003152
L 254.536907 278.090559
L 254.919015 284.510164
L 255.301124 281.478151
L 255.683233 288.230661
L 256.065342 290.840498
L 256.447451 282.490635
L 256.82956 291.720767
L 257.211669 290.30129
L 257.593778 276.547137
L 257.975887 277.851833
L 258.357996 275.94057
L 259.122214 304.287077
L 259.504323 297.208048
L 259.886432 298.495951
L 260.268541 275.824367
L 260.65065 279.613824
L 261.032759 288.64849
L 261.414868 283.526107
L 261.796977 283.297193
L 262.179085 325.048046
L 262.561194 272.67082
L 262.943303 292.704825
L 263.325412 279.328161
L 263.707521 278.984293
L 263.708883 346.6
M 264.470537 346.6
L 264.471739 286.913698
L 264.853848 280.698378
L 265.235957 283.353836
L 265.618066 294.22809
L 266.000175 281.849538
L 266.382284 283.76147
L 266.764393 282.857364
L 267.146502 283.64296
L 267.528611 282.188621
L 267.91072 286.40719
L 268.292829 285.477919
L 268.674938 311.601468
L 269.057046 306.690611
L 269.439155 284.003656
L 269.821264 289.918559
L 270.203373 284.003656
L 270.585482 313.465794
L 270.967591 308.7903
L 271.3497 289.434086
L 271.731809 296.631624
L 272.113918 286.827119
L 272.496027 281.210058
L 272.878136 279.909602
L 273.642354 319.25692
L 274.024463 291.720767
L 274.406572 293.43179
L 274.788681 292.880722
L 275.17079 304.287077
L 275.552899 297.827207
L 275.935007 284.445146
L 275.936259 346.6
M 276.698557 346.6
L 276.699225 313.465794
L 277.081334 287.089596
L 277.463443 285.404951
L 277.845552 287.089596
L 278.227661 286.244955
L 278.60977 288.230661
L 278.991879 284.708311
L 279.373988 293.820456
L 279.756097 292.704825
L 280.138206 298.495951
L 280.520315 307.674668
L 280.902424 284.708311
L 281.284533 304.287077
L 281.666642 313.465794
L 282.048751 299.222916
L 282.43086 319.25692
L 282.812968 285.477919
L 283.195077 285.625796
L 283.577186 287.089596
L 283.959295 286.085811
L 284.341404 301.883542
L 284.723513 298.495951
L 285.105622 300.899485
L 285.487731 292.036081
L 285.86984 297.208048
L 286.251949 310.078203
L 286.634058 300.019216
L 287.016167 311.601468
L 287.398276 297.827207
L 287.780385 310.078203
L 288.162494 292.704825
L 288.544603 293.820456
L 288.926712 307.674668
L 289.308821 297.208048
L 289.69093 297.827207
L 290.073038 293.820456
L 290.455147 298.15489
L 290.837256 296.092416
L 291.219365 287.832737
L 291.601474 296.092416
L 291.983583 293.820456
L 292.365692 300.019216
L 292.747801 292.704825
L 293.12991 290.980919
L 293.512019 303.618334
L 293.894128 300.899485
L 294.276237 302.999174
L 294.658346 296.631624
L 294.659353 346.6
M 295.421455 346.6
L 295.422564 291.567463
L 296.186782 305.014042
L 296.568891 292.363764
L 296.950999 300.019216
L 297.333108 289.794782
L 297.715217 297.208048
L 298.097326 313.465794
L 298.479435 310.078203
L 298.861544 298.15489
L 299.243653 293.43179
L 299.625762 325.048046
L 300.007871 310.078203
L 300.38998 325.048046
L 300.772089 301.883542
L 301.154198 313.465794
L 301.536307 313.465794
L 301.918416 296.357671
L 302.300525 310.078203
L 302.682634 305.810342
L 303.064743 305.810342
L 303.446852 307.674668
L 303.82896 319.25692
L 304.211069 302.999174
L 304.593178 307.674668
L 304.975287 305.810342
L 305.357396 315.869329
L 305.739505 319.25692
L 305.740057 346.6
M 306.503171 346.6
L 306.503723 319.25692
L 306.885832 313.465794
L 307.267941 313.465794
L 307.268609 346.6
M 308.03149 346.6
L 308.032159 313.465794
L 308.414268 315.869329
L 308.796377 319.25692
L 309.178486 311.601468
L 309.560595 319.25692
L 309.561146 346.6
M 310.706117 346.6
L 310.706922 306.690611
L 311.08903 313.465794
L 311.471139 313.465794
L 311.853248 307.674668
L 312.235357 307.674668
L 312.617466 319.25692
L 312.999575 299.222916
L 313.381684 294.439616
L 313.763793 313.465794
L 314.145902 299.222916
L 314.528011 302.999174
L 314.91012 310.078203
L 315.292229 313.465794
L 315.674338 302.999174
L 316.438556 292.704825
L 316.820665 291.12374
L 317.202774 295.585908
L 317.584883 310.078203
L 317.966991 284.775419
L 318.731209 310.078203
L 319.113318 296.631624
L 319.495427 307.674668
L 319.877536 293.060403
L 320.259645 291.567463
L 320.641754 293.820456
L 321.405972 305.014042
L 321.788081 299.222916
L 322.17019 289.552596
L 322.552299 284.380629
L 322.934408 301.883542
L 323.316517 292.363764
L 323.698626 301.883542
L 324.080735 279.613824
L 324.462844 291.12374
L 324.844952 297.511893
L 325.227061 279.947321
L 325.60917 283.129532
L 326.373388 285.477919
L 326.755497 286.085811
L 327.137606 287.269277
L 327.519715 278.090559
L 327.901824 288.02933
L 328.283933 294.879445
L 328.666042 288.129389
L 329.048151 277.174043
L 329.43026 283.185046
L 329.812369 272.927912
L 330.194478 277.506067
L 330.576587 279.188911
L 331.340805 284.253072
L 331.722913 268.308553
L 332.105022 277.910878
L 332.487131 267.202314
L 332.86924 281.122572
L 333.251349 269.023579
L 333.633458 237.726642
L 334.779785 295.108359
L 335.161894 269.085163
L 335.544003 275.641741
L 335.926112 290.840498
L 336.308221 280.453829
L 336.69033 297.208048
L 337.072439 272.607764
L 337.454548 278.39889
L 338.218766 325.048046
L 338.600875 288.542057
L 338.982983 290.30129
L 339.365092 293.43179
L 339.747201 289.317233
L 340.12931 292.036081
L 340.511419 289.088319
L 340.893528 278.243302
L 341.275637 294.22809
L 341.657746 282.857364
L 342.039855 315.869329
L 342.421964 286.085811
L 342.804073 296.092416
L 343.186182 283.526107
L 343.568291 282.750931
L 344.332509 295.585908
L 344.714618 292.704825
L 345.096727 287.089596
L 345.478836 284.775419
L 345.860944 297.511893
L 346.625162 284.253072
L 347.007271 308.7903
L 347.38938 288.542057
L 347.771489 290.044198
L 348.153598 290.30129
L 348.535707 289.552596
L 348.917816 319.25692
L 349.299925 293.43179
L 349.682034 290.566545
L 350.064143 284.575692
L 350.446252 284.911273
L 350.828361 315.869329
L 351.21047 289.317233
L 351.592579 287.930456
L 351.974688 288.542057
L 352.356797 294.879445
L 352.738905 285.332614
L 353.121014 290.30129
L 353.503123 298.851529
L 353.885232 289.088319
L 354.267341 294.879445
L 354.64945 295.108359
L 355.031559 292.363764
L 355.413668 296.357671
L 355.795777 291.720767
L 356.177886 294.879445
L 356.559995 306.690611
L 356.942104 305.014042
L 357.324213 298.495951
L 357.706322 315.869329
L 358.088431 297.511893
L 358.47054 302.42275
L 358.852649 295.585908
L 359.234758 302.999174
L 359.616867 300.019216
L 359.998975 310.078203
L 360.381084 294.656637
L 360.763193 300.019216
L 361.145302 300.019216
L 361.527411 300.899485
L 361.90952 313.465794
L 362.291629 315.869329
L 362.673738 301.883542
L 363.055847 315.869329
L 363.437956 308.7903
L 363.820065 313.465794
L 364.202174 307.674668
L 364.584283 311.601468
L 364.966392 302.999174
L 365.348501 310.078203
L 365.73061 313.465794
L 365.731278 346.6
M 366.494043 346.6
L 366.494828 307.674668
L 366.495612 346.6
M 367.258425 346.6
L 367.259045 315.869329
L 367.641154 319.25692
L 368.787481 319.25692
L 369.16959 315.869329
L 369.17021 346.6
M 369.933023 346.6
L 369.933808 307.674668
L 370.315917 315.869329
L 370.698026 305.810342
L 371.080135 307.674668
L 371.462244 301.883542
L 371.844353 294.22809
L 372.226462 319.25692
L 372.608571 302.999174
L 372.99068 304.287077
L 373.372789 301.883542
L 373.754897 308.7903
L 374.137006 301.377034
L 374.519115 297.827207
L 374.901224 301.377034
L 375.283333 300.447763
L 375.665442 301.883542
L 376.047551 301.883542
L 376.42966 325.048046
L 376.811769 300.019216
L 377.193878 310.078203
L 377.575987 285.55153
L 377.958096 311.601468
L 378.340205 292.198316
L 378.722314 293.244033
L 379.104423 305.810342
L 379.486532 295.343722
L 379.868641 295.343722
L 380.632858 287.546258
L 381.014967 297.208048
L 381.397076 303.618334
L 381.779185 296.631624
L 382.161294 293.820456
L 382.543403 305.810342
L 382.925512 281.755132
L 383.307621 290.30129
L 383.68973 280.950302
L 384.071839 297.827207
L 384.453948 290.044198
L 384.836057 285.776337
L 385.218166 290.840498
L 385.600275 298.495951
L 385.982384 292.036081
L 386.746602 305.810342
L 387.128711 279.188911
L 387.51082 290.171755
L 387.892928 283.410866
L 388.275037 313.465794
L 388.657146 294.22809
L 389.039255 291.12374
L 389.421364 281.387827
L 389.803473 313.465794
L 390.185582 298.851529
L 390.567691 290.171755
L 391.331909 279.085976
L 391.714018 306.690611
L 392.096127 272.483063
L 392.478236 274.543062
L 392.860345 280.334188
L 393.242454 300.899485
L 393.624563 278.000236
L 394.006672 263.140921
L 394.388781 271.972915
L 394.770889 277.119967
L 395.152998 248.079702
L 395.535107 254.262553
L 395.917216 266.722938
L 396.299325 274.784083
L 396.681434 271.037518
L 397.063543 265.477294
L 397.445652 288.542057
L 397.827761 279.686793
L 398.20987 273.643018
L 398.591979 286.489504
L 398.974088 283.297193
L 399.356197 269.220173
L 400.120415 286.572638
L 400.502524 282.965169
L 400.884633 296.631624
L 401.266742 286.007361
L 401.64885 291.416922
L 402.030959 288.02933
L 402.413068 274.118475
L 402.795177 299.222916
L 403.177286 301.883542
L 403.559395 288.64849
L 404.323613 319.25692
L 404.705722 293.43179
L 405.087831 290.566545
L 405.46994 283.64296
L 405.852049 293.43179
L 406.234158 294.22809
L 406.616267 289.201992
L 406.998376 291.720767
L 407.380485 306.690611
L 407.762594 310.078203
L 408.144703 293.060403
L 408.526812 298.495951
L 408.90892 282.338263
L 409.291029 304.287077
L 410.055247 293.43179
L 410.437356 311.601468
L 410.819465 291.567463
L 411.201574 313.465794
L 411.583683 300.019216
L 411.965792 319.25692
L 412.347901 290.171755
L 412.73001 310.078203
L 413.112119 311.601468
L 413.494228 286.656607
L 413.876337 301.883542
L 414.258446 295.108359
L 414.640555 284.127433
L 415.022664 286.572638
L 415.404773 290.432865
L 415.786881 290.171755
L 416.16899 292.704825
L 416.551099 293.820456
L 416.933208 302.999174
L 417.315317 296.631624
L 417.697426 303.618334
L 418.079535 305.014042
L 418.461644 325.048046
L 418.843753 302.999174
L 419.225862 300.899485
L 419.607971 297.208048
L 419.99008 301.883542
L 420.372189 299.222916
L 421.136407 319.25692
L 421.518516 313.465794
L 421.900625 301.377034
L 422.282734 319.25692
L 422.664842 319.25692
L 423.046951 313.465794
L 423.42906 325.048046
L 423.811169 325.048046
L 424.193278 310.078203
L 424.957496 295.585908
L 425.339605 313.465794
L 425.721714 319.25692
L 426.103823 311.601468
L 426.485932 319.25692
L 426.868041 311.601468
L 427.25015 313.465794
L 427.250818 346.6
M 428.395771 346.6
L 428.396477 311.601468
L 428.778586 307.674668
L 429.160695 319.25692
L 429.542803 310.078203
L 429.924912 310.078203
L 430.307021 307.674668
L 430.68913 313.465794
L 431.071239 298.15489
L 431.453348 300.019216
L 431.835457 319.25692
L 432.599675 307.674668
L 432.981784 310.078203
L 433.746002 307.674668
L 434.128111 325.048046
L 434.51022 315.869329
L 434.892329 313.465794
L 435.274438 288.436964
L 435.656547 325.048046
L 436.038656 303.618334
L 436.420765 304.287077
L 436.802873 293.060403
L 437.184982 296.092416
L 437.567091 304.287077
L 437.9492 302.999174
L 438.713418 294.879445
L 438.713418 294.879445
" clip-path="url(#pc57aa8fc2a)" style="fill: none; stroke: #1f77b4; stroke-width: 1.5; stroke-linecap: square"/>
   </g>
   <g id="line2d_20">
    <path d="M 56.986582 302.999174
L 57.368691 272.927912
L 57.7508 299.222916
L 58.132909 277.677162
L 58.515018 300.899485
L 58.897127 293.060403
L 59.279235 276.802657
L 59.661344 285.477919
L 60.043453 301.883542
L 60.425562 287.640664
L 61.18978 300.447763
L 61.571889 319.25692
L 61.953998 303.618334
L 62.718216 285.404951
L 63.100325 300.019216
L 63.482434 305.014042
L 63.864543 285.700728
L 64.246652 305.810342
L 64.628761 294.656637
L 65.01087 294.879445
L 65.392979 294.879445
L 65.775088 305.810342
L 66.157197 294.656637
L 66.539305 310.078203
L 66.921414 305.014042
L 67.303523 307.674668
L 67.685632 302.999174
L 68.067741 313.465794
L 68.44985 301.883542
L 69.214068 305.810342
L 69.596177 293.43179
L 69.978286 301.377034
L 70.360395 300.899485
L 70.742504 300.899485
L 71.124613 290.044198
L 71.506722 305.810342
L 71.888831 290.432865
L 72.27094 307.674668
L 72.653049 299.611583
L 73.035158 300.019216
L 73.417266 308.7903
L 73.799375 296.357671
L 74.181484 292.036081
L 74.563593 284.003656
L 74.945702 294.22809
L 75.327811 288.756296
L 75.70992 298.851529
L 76.092029 286.165004
L 76.474138 281.615493
L 76.856247 319.25692
L 77.238356 291.12374
L 77.620465 319.25692
L 78.002574 293.43179
L 78.384683 286.741428
L 78.766792 290.566545
L 79.53101 274.080926
L 79.913119 287.089596
L 80.295227 284.127433
L 80.677336 269.716218
L 81.059445 288.436964
L 81.441554 285.776337
L 81.823663 294.656637
L 82.205772 269.987209
L 82.587881 293.43179
L 82.96999 277.338406
L 83.352099 281.122572
L 83.734208 295.585908
L 84.116317 277.851833
L 84.498426 281.29847
L 84.880535 290.432865
L 85.262644 281.387827
L 85.644753 295.585908
L 86.026862 284.510164
L 86.408971 262.382406
L 86.79108 284.190016
L 87.173188 284.775419
L 87.555297 290.702399
L 88.319515 284.911273
L 88.701624 273.109366
L 89.083733 288.230661
L 89.465842 281.523681
L 89.847951 288.02933
L 90.23006 286.40719
L 90.612169 276.959805
L 90.994278 289.552596
L 91.376387 284.911273
L 91.758496 285.189793
L 92.522714 277.648401
L 92.904823 281.569461
L 93.286932 274.743427
L 93.669041 288.02933
L 94.05115 276.011075
L 94.433258 273.226924
L 94.815367 277.56271
L 95.197476 261.552166
L 95.961694 270.149444
L 96.343803 263.958489
L 96.725912 277.449805
L 97.108021 273.432381
L 97.49013 288.436964
L 98.254348 265.324841
L 98.636457 262.414798
L 99.400675 274.622632
L 99.782784 247.77678
L 100.164893 249.303101
L 100.547002 248.243883
L 100.929111 250.975167
L 101.311219 250.576859
L 101.693328 265.673568
L 102.075437 275.116657
L 102.457546 272.329759
L 102.839655 261.589886
L 103.221764 271.886036
L 103.603873 271.437346
L 103.985982 307.674668
L 104.368091 264.833802
L 104.7502 264.656098
L 105.132309 278.917185
L 105.514418 278.525481
L 105.896527 279.686793
L 106.278636 266.373185
L 106.660745 289.794782
L 107.424963 280.334188
L 107.807072 278.719038
L 108.18918 291.720767
L 108.571289 279.797455
L 108.953398 284.775419
L 109.335507 278.030235
L 109.717616 295.585908
L 110.099725 275.9172
L 110.481834 293.43179
L 110.863943 278.817524
L 111.246052 277.734981
L 111.628161 300.899485
L 112.01027 300.447763
L 112.392379 292.363764
L 112.774488 280.616064
L 113.156597 285.929641
L 113.538706 276.106017
L 114.302924 290.840498
L 114.685033 281.254147
L 115.067142 287.178953
L 115.44925 289.552596
L 115.831359 313.465794
L 116.213468 319.25692
L 116.595577 279.398667
L 116.977686 284.190016
L 117.359795 290.566545
L 117.741904 288.756296
L 118.124013 304.287077
L 118.506122 283.468288
L 118.888231 305.810342
L 119.27034 286.325679
L 119.652449 287.001184
L 120.034558 300.019216
L 120.416667 289.918559
L 120.798776 293.060403
L 121.180885 308.7903
L 121.562994 284.575692
L 121.945103 299.222916
L 122.327211 301.883542
L 122.70932 289.088319
L 123.091429 298.495951
L 123.473538 290.044198
L 123.855647 305.810342
L 124.237756 305.810342
L 124.619865 303.618334
L 125.001974 307.674668
L 125.384083 319.25692
L 125.766192 295.585908
L 125.76722 346.6
M 126.529625 346.6
L 126.53041 307.674668
L 126.912519 298.495951
L 127.294628 311.601468
L 127.676737 303.618334
L 127.677603 346.6
M 128.440076 346.6
L 128.440955 302.999174
L 128.823064 311.601468
L 129.205172 297.208048
L 129.587281 319.25692
L 129.96939 307.674668
L 130.351499 300.019216
L 130.733608 298.851529
L 131.115717 304.287077
L 131.497826 297.827207
L 131.879935 297.827207
L 132.262044 303.618334
L 132.644153 292.036081
L 133.026262 288.436964
L 133.408371 319.25692
L 133.79048 285.776337
L 134.172589 284.641739
L 134.554698 302.42275
L 134.936807 310.078203
L 135.318916 304.287077
L 135.701025 282.238204
L 136.083133 288.64849
L 136.465242 310.078203
L 136.847351 291.269045
L 137.22946 284.445146
L 137.611569 294.656637
L 137.993678 285.049372
L 138.375787 291.567463
L 138.757896 285.332614
L 139.140005 297.827207
L 139.522114 301.883542
L 139.904223 291.12374
L 140.286332 289.317233
L 140.668441 297.827207
L 141.05055 310.078203
L 141.432659 291.416922
L 141.814768 288.865511
L 142.196877 275.9172
L 142.578986 288.976172
L 142.961095 284.127433
L 143.343203 281.387827
L 143.725312 286.085811
L 144.107421 300.019216
L 144.871639 269.314935
L 145.253748 285.625796
L 145.635857 281.993177
L 146.017966 272.846718
L 146.400075 297.827207
L 146.782184 281.122572
L 147.164293 273.859103
L 147.546402 286.40719
L 147.928511 278.030235
L 148.31062 278.557431
L 148.692729 283.410866
L 149.074838 281.079171
L 149.456947 265.194498
L 149.839056 319.25692
L 150.221164 278.621699
L 150.603273 296.092416
L 150.985382 290.566545
L 151.367491 295.835324
L 151.7496 284.911273
L 152.131709 288.230661
L 152.513818 279.985211
L 152.895927 285.049372
L 153.278036 283.881685
L 153.660145 288.02933
L 154.042254 279.760404
L 154.424363 293.820456
L 154.806472 273.026398
L 155.188581 288.436964
L 155.57069 267.710879
L 155.952799 259.930518
L 156.334908 279.760404
L 156.717017 286.741428
L 157.099125 266.447983
L 157.481234 296.631624
L 157.863343 273.29485
L 158.245452 280.216235
L 158.627561 272.895339
L 159.00967 285.404951
L 159.391779 267.385213
L 159.773888 265.673568
L 160.155997 279.258246
L 160.538106 267.959236
L 161.302324 270.730884
L 161.684433 257.884958
L 162.066542 237.458377
L 162.448651 265.923815
L 162.83076 253.267047
L 163.212869 270.410925
L 163.594978 269.272686
L 164.359195 262.950916
L 164.741304 285.776337
L 165.123413 283.64296
L 165.505522 287.452907
L 165.887631 272.421404
L 166.26974 252.246187
L 166.651849 278.21253
L 167.033958 294.22809
L 167.416067 270.895579
L 167.798176 279.577578
L 168.180285 276.496958
L 168.562394 276.129923
L 168.944503 274.232148
L 169.326612 275.870655
L 169.708721 270.196381
L 170.09083 275.709759
L 170.472939 269.116126
L 170.855048 279.505553
L 171.237156 270.056353
L 171.619265 281.661781
L 172.001374 276.907093
L 172.383483 288.230661
L 172.765592 280.023274
L 173.147701 282.857364
L 173.52981 271.63069
L 173.911919 281.945022
L 174.294028 304.287077
L 174.676137 275.687025
L 175.058246 293.43179
L 175.440355 272.927912
L 175.822464 289.317233
L 176.204573 300.019216
L 176.586682 305.810342
L 176.968791 278.030235
L 177.3509 298.495951
L 177.733009 280.698378
L 178.115117 298.495951
L 178.497226 287.832737
L 178.879335 291.720767
L 179.261444 293.060403
L 179.643553 308.7903
L 180.025662 319.25692
L 180.407771 294.656637
L 180.78988 300.899485
L 181.171989 325.048046
L 181.554098 292.363764
L 181.936207 297.827207
L 182.318316 305.810342
L 182.700425 296.357671
L 183.082534 291.12374
L 183.083652 346.6
M 183.846083 346.6
L 183.846752 313.465794
L 184.228861 296.092416
L 184.61097 292.363764
L 184.993078 297.827207
L 185.375187 297.208048
L 185.757296 290.840498
L 186.139405 300.019216
L 186.521514 319.25692
L 186.903623 305.810342
L 187.285732 315.869329
L 187.667841 305.014042
L 188.04995 313.465794
L 188.432059 315.869329
L 188.814168 311.601468
L 189.196277 310.078203
L 189.578386 298.15489
L 189.960495 307.674668
L 190.342604 288.230661
L 190.724713 298.851529
L 191.106822 300.019216
L 191.488931 305.810342
L 191.87104 301.377034
L 192.253148 315.869329
L 192.635257 319.25692
L 193.017366 294.22809
L 193.399475 280.616064
L 193.781584 286.741428
L 194.163693 295.835324
L 194.545802 319.25692
L 194.927911 287.452907
L 195.31002 296.631624
L 195.692129 293.060403
L 196.074238 297.827207
L 196.456347 296.092416
L 196.838456 287.089596
L 197.220565 295.835324
L 197.602674 293.820456
L 197.984783 280.453829
L 198.366892 294.22809
L 198.749001 294.22809
L 199.131109 290.566545
L 199.513218 295.835324
L 200.277436 285.625796
L 200.659545 294.656637
L 201.041654 287.736148
L 201.423763 291.269045
L 201.805872 275.596701
L 202.187981 310.078203
L 202.57009 299.611583
L 202.952199 297.827207
L 203.334308 288.02933
L 203.716417 308.7903
L 204.098526 284.316607
L 204.480635 286.741428
L 204.862744 307.674668
L 205.244853 301.377034
L 205.626962 305.810342
L 206.00907 285.404951
L 206.391179 280.616064
L 206.773288 277.56271
L 207.155397 285.929641
L 207.537506 274.043544
L 207.919615 279.469772
L 208.301724 275.732555
L 208.683833 289.201992
L 209.065942 288.542057
L 209.448051 278.525481
L 209.83016 290.30129
L 210.212269 289.088319
L 210.594378 307.674668
L 211.358596 279.469772
L 211.740705 289.201992
L 212.122814 282.857364
L 212.504923 269.907258
L 212.887032 296.631624
L 213.26914 273.329021
L 213.651249 307.674668
L 214.033358 286.913698
L 214.797576 271.23504
L 215.179685 278.274189
L 215.561794 279.188911
L 215.943903 301.883542
L 216.326012 284.190016
L 216.708121 279.686793
L 217.09023 281.523681
L 217.472339 265.687276
L 217.473967 346.6
M 218.235383 346.6
L 218.236557 288.333176
L 218.618666 284.380629
L 219.000775 284.575692
L 219.382884 283.185046
L 219.764993 290.980919
L 220.147101 288.436964
L 220.52921 278.557431
L 220.911319 278.151322
L 221.293428 272.149432
L 221.675537 297.827207
L 222.057646 275.418932
L 222.439755 296.092416
L 222.821864 279.154458
L 223.203973 281.387827
L 223.586082 286.656607
L 223.968191 273.607541
L 224.3503 266.879694
L 224.732409 292.704825
L 225.114518 272.846718
L 225.496627 281.29847
L 225.878736 270.508075
L 226.260845 286.572638
L 226.642954 307.674668
L 227.025062 302.999174
L 227.407171 288.436964
L 227.78928 284.316607
L 228.171389 275.095479
L 228.553498 278.493653
L 228.935607 269.771954
L 229.317716 284.575692
L 229.699825 272.623484
L 230.081934 282.645838
L 230.464043 276.699509
L 230.846152 278.493653
L 231.228261 278.030235
L 231.61037 275.870655
L 231.992479 271.315376
L 232.374588 297.208048
L 233.520915 264.753674
L 233.903023 290.840498
L 234.285132 284.641739
L 234.667241 267.986289
L 235.04935 282.338263
L 235.431459 279.686793
L 235.813568 271.181909
L 236.195677 257.609178
L 236.577786 282.338263
L 236.959895 269.594892
L 237.724113 282.188621
L 238.106222 271.81432
L 238.488331 302.999174
L 238.87044 287.360587
L 239.634658 276.42225
L 240.016767 275.847479
L 240.398876 283.76147
L 241.163093 264.224823
L 241.545202 269.562106
L 241.927311 260.500548
L 242.30942 269.649822
L 242.691529 260.5227
L 243.073638 267.284954
L 243.455747 266.373185
L 243.837856 268.595033
L 244.219965 264.607734
L 244.602074 253.139279
L 244.984183 278.654019
L 245.366292 257.289325
L 245.748401 266.284303
L 246.13051 261.460674
L 246.512619 244.398037
L 246.894728 258.858911
L 247.276837 263.727465
L 247.658946 239.902777
L 248.041054 239.902777
L 248.423163 263.727465
L 248.805272 258.858911
L 249.187381 244.398037
L 249.56949 261.460674
L 249.951599 266.284303
L 250.333708 257.289325
L 250.715817 278.654019
L 251.097926 253.139279
L 251.480035 264.607734
L 251.862144 268.595033
L 252.244253 266.373185
L 252.626362 267.284954
L 253.008471 260.5227
L 253.39058 269.649822
L 253.772689 260.500548
L 254.154798 269.562106
L 254.536907 264.224823
L 255.301124 283.76147
L 255.683233 275.847479
L 256.065342 276.42225
L 256.82956 287.360587
L 257.211669 302.999174
L 257.593778 271.81432
L 257.975887 282.188621
L 258.740105 269.594892
L 259.122214 282.338263
L 259.504323 257.609178
L 259.886432 271.181909
L 260.268541 279.686793
L 260.65065 282.338263
L 261.032759 267.986289
L 261.414868 284.641739
L 261.796977 290.840498
L 262.179085 264.753674
L 263.325412 297.208048
L 263.707521 271.315376
L 264.08963 275.870655
L 264.471739 278.030235
L 264.853848 278.493653
L 265.235957 276.699509
L 265.618066 282.645838
L 266.000175 272.623484
L 266.382284 284.575692
L 266.764393 269.771954
L 267.146502 278.493653
L 267.528611 275.095479
L 267.91072 284.316607
L 268.292829 288.436964
L 268.674938 302.999174
L 269.057046 307.674668
L 269.821264 270.508075
L 270.203373 281.29847
L 270.585482 272.846718
L 270.967591 292.704825
L 271.3497 266.879694
L 271.731809 273.607541
L 272.113918 286.656607
L 272.496027 281.387827
L 272.878136 279.154458
L 273.260245 296.092416
L 273.642354 275.418932
L 274.024463 297.827207
L 274.406572 272.149432
L 274.788681 278.151322
L 275.17079 278.557431
L 275.552899 288.436964
L 275.935007 290.980919
L 276.317116 283.185046
L 276.699225 284.575692
L 277.081334 284.380629
L 277.463443 288.333176
L 277.464617 346.6
M 278.226033 346.6
L 278.227661 265.687276
L 278.60977 281.523681
L 278.991879 279.686793
L 279.373988 284.190016
L 279.756097 301.883542
L 280.138206 279.188911
L 280.520315 278.274189
L 280.902424 271.23504
L 281.666642 286.913698
L 282.048751 307.674668
L 282.43086 273.329021
L 282.812968 296.631624
L 283.195077 269.907258
L 283.577186 282.857364
L 283.959295 289.201992
L 284.341404 279.469772
L 284.723513 291.416922
L 285.105622 307.674668
L 285.487731 289.088319
L 285.86984 290.30129
L 286.251949 285.404951
L 286.634058 288.542057
L 287.016167 272.607764
L 287.780385 279.469772
L 288.162494 274.080926
L 288.544603 289.088319
L 288.926712 292.036081
L 289.69093 278.984293
L 290.073038 284.980037
L 290.455147 292.880722
L 290.837256 276.106017
L 291.219365 287.832737
L 291.601474 295.108359
L 291.983583 305.810342
L 292.365692 293.623863
L 292.747801 298.495951
L 293.12991 290.044198
L 293.512019 288.02933
L 293.894128 275.755414
L 294.276237 291.416922
L 294.658346 287.640664
L 295.040455 281.569461
L 295.422564 292.532554
L 295.804673 299.222916
L 296.568891 292.198316
L 296.950999 293.623863
L 297.333108 285.929641
L 297.715217 275.641741
L 298.097326 289.794782
L 298.861544 287.089596
L 299.243653 304.287077
L 299.625762 302.999174
L 300.007871 307.674668
L 300.38998 300.899485
L 300.772089 291.416922
L 301.154198 305.014042
L 301.536307 307.674668
L 301.918416 298.851529
L 302.300525 286.244955
L 302.682634 319.25692
L 303.064743 310.078203
L 303.446852 285.189793
L 303.82896 297.511893
L 304.211069 303.618334
L 304.593178 298.851529
L 304.975287 319.25692
L 305.357396 278.654019
L 305.739505 308.7903
L 306.121614 319.25692
L 306.503723 296.092416
L 306.885832 302.42275
L 307.267941 313.465794
L 307.65005 305.810342
L 307.650872 346.6
M 308.413347 346.6
L 308.414268 300.899485
L 308.796377 319.25692
L 309.178486 294.656637
L 309.560595 304.287077
L 309.942704 290.566545
L 310.324813 311.601468
L 310.706922 287.269277
L 311.08903 319.25692
L 311.471139 306.690611
L 311.853248 300.899485
L 312.235357 307.674668
L 312.999575 279.985211
L 313.381684 294.879445
L 313.763793 296.357671
L 314.145902 301.883542
L 314.528011 304.287077
L 314.91012 319.25692
L 315.292229 291.12374
L 315.674338 305.810342
L 316.056447 290.840498
L 316.438556 293.060403
L 316.820665 291.720767
L 317.202774 287.832737
L 317.584883 298.495951
L 317.966991 280.698378
L 318.3491 298.495951
L 318.731209 278.030235
L 319.113318 305.810342
L 319.495427 300.019216
L 319.877536 289.317233
L 320.259645 272.927912
L 320.641754 293.43179
L 321.023863 275.687025
L 321.405972 304.287077
L 321.788081 281.945022
L 322.17019 271.63069
L 322.552299 282.857364
L 322.934408 280.023274
L 323.316517 288.230661
L 323.698626 276.907093
L 324.080735 281.661781
L 324.462844 270.056353
L 324.844952 279.505553
L 325.227061 269.116126
L 325.60917 275.709759
L 325.991279 270.196381
L 326.373388 275.870655
L 326.755497 274.232148
L 327.137606 276.129923
L 327.519715 276.496958
L 327.901824 279.577578
L 328.283933 270.895579
L 328.666042 294.22809
L 329.048151 278.21253
L 329.43026 252.246187
L 330.194478 287.452907
L 330.576587 283.64296
L 330.958696 285.776337
L 331.340805 262.950916
L 332.105022 269.272686
L 332.487131 270.410925
L 332.86924 253.267047
L 333.251349 265.923815
L 333.633458 237.458377
L 334.015567 257.884958
L 334.397676 270.730884
L 335.161894 267.959236
L 335.544003 279.258246
L 335.926112 265.673568
L 336.308221 267.385213
L 336.69033 285.404951
L 337.072439 272.895339
L 337.454548 280.216235
L 337.836657 273.29485
L 338.218766 296.631624
L 338.600875 266.447983
L 338.982983 286.741428
L 339.365092 279.760404
L 339.747201 259.930518
L 340.12931 267.710879
L 340.511419 288.436964
L 340.893528 273.026398
L 341.275637 293.820456
L 341.657746 279.760404
L 342.039855 288.02933
L 342.421964 283.881685
L 342.804073 285.049372
L 343.186182 279.985211
L 343.568291 288.230661
L 343.9504 284.911273
L 344.332509 295.835324
L 344.714618 290.566545
L 345.096727 296.092416
L 345.478836 278.621699
L 345.860944 319.25692
L 346.243053 265.194498
L 346.625162 281.079171
L 347.007271 283.410866
L 347.38938 278.557431
L 347.771489 278.030235
L 348.153598 286.40719
L 348.535707 273.859103
L 348.917816 281.122572
L 349.299925 297.827207
L 349.682034 272.846718
L 350.064143 281.993177
L 350.446252 285.625796
L 350.828361 269.314935
L 351.592579 300.019216
L 351.974688 286.085811
L 352.356797 281.387827
L 352.738905 284.127433
L 353.121014 288.976172
L 353.503123 275.9172
L 353.885232 288.865511
L 354.267341 291.416922
L 354.64945 310.078203
L 355.031559 297.827207
L 355.413668 289.317233
L 355.795777 291.12374
L 356.177886 301.883542
L 356.559995 297.827207
L 356.942104 285.332614
L 357.324213 291.567463
L 357.706322 285.049372
L 358.088431 294.656637
L 358.47054 284.445146
L 358.852649 291.269045
L 359.234758 310.078203
L 359.616867 288.64849
L 359.998975 282.238204
L 360.381084 304.287077
L 360.763193 310.078203
L 361.145302 302.42275
L 361.527411 284.641739
L 361.90952 285.776337
L 362.291629 319.25692
L 362.673738 289.552596
L 363.055847 289.794782
L 363.437956 313.465794
L 363.820065 311.601468
L 364.202174 297.827207
L 364.584283 305.810342
L 364.966392 295.835324
L 365.348501 302.42275
L 366.112719 305.810342
L 366.113541 346.6
M 366.875981 346.6
L 366.876936 299.222916
L 367.259045 305.014042
L 367.641154 319.25692
L 368.023263 299.222916
L 368.405372 304.287077
L 368.787481 319.25692
L 369.16959 304.287077
L 369.551699 307.674668
L 369.933808 302.42275
L 370.315917 305.810342
L 370.698026 300.899485
L 371.080135 300.019216
L 371.462244 302.42275
L 371.844353 310.078203
L 372.226462 304.287077
L 372.608571 291.416922
L 372.99068 299.611583
L 373.372789 280.781512
L 373.754897 294.656637
L 374.137006 285.332614
L 374.519115 308.7903
L 374.901224 295.108359
L 375.283333 307.674668
L 375.665442 307.674668
L 376.047551 287.930456
L 376.42966 319.25692
L 376.811769 305.810342
L 377.193878 284.775419
L 377.575987 284.510164
L 377.958096 289.672811
L 378.340205 286.913698
L 378.722314 283.297193
L 379.104423 288.129389
L 379.486532 271.505885
L 379.868641 285.332614
L 380.25075 285.332614
L 380.632858 287.360587
L 381.014967 281.708326
L 381.397076 279.328161
L 381.779185 281.29847
L 382.161294 294.439616
L 382.543403 285.189793
L 382.925512 280.453829
L 383.307621 282.645838
L 383.68973 281.755132
L 384.071839 295.108359
L 384.453948 279.120147
L 384.836057 279.398667
L 385.218166 289.317233
L 385.600275 268.732161
L 385.982384 275.732555
L 386.364493 287.736148
L 386.746602 283.702004
L 387.128711 283.074384
L 387.51082 265.966261
L 387.892928 281.478151
L 388.275037 280.698378
L 388.657146 265.673568
L 389.039255 272.406059
L 389.421364 275.664352
L 389.803473 276.907093
L 390.185582 276.153896
L 390.567691 278.850613
L 390.9498 270.243584
L 391.331909 273.026398
L 391.714018 280.781512
L 392.096127 279.434144
L 392.478236 283.881685
L 392.860345 258.117317
L 393.242454 268.327349
L 393.624563 267.941249
L 394.006672 261.33343
L 394.388781 242.384166
L 394.770889 250.621948
L 395.152998 248.400084
L 395.535107 241.839004
L 395.917216 261.120275
L 396.299325 272.07543
L 396.681434 251.818052
L 397.063543 280.781512
L 397.445652 262.025289
L 397.827761 268.469684
L 398.20987 265.417307
L 398.591979 279.909602
L 398.974088 257.601357
L 399.356197 268.178152
L 399.738306 269.760777
L 400.120415 264.741414
L 400.502524 278.060343
L 400.884633 277.56271
L 401.266742 273.226924
L 401.64885 276.011075
L 402.030959 288.02933
L 402.413068 274.743427
L 402.795177 281.569461
L 403.177286 277.648401
L 403.941504 285.189793
L 404.323613 284.911273
L 404.705722 289.552596
L 405.087831 276.959805
L 405.46994 286.40719
L 405.852049 288.02933
L 406.234158 281.523681
L 406.616267 288.230661
L 406.998376 273.109366
L 407.380485 284.911273
L 408.144703 290.702399
L 408.526812 284.775419
L 408.90892 284.190016
L 409.291029 262.382406
L 409.673138 284.510164
L 410.055247 295.585908
L 410.437356 281.387827
L 410.819465 290.432865
L 411.201574 281.29847
L 411.583683 277.851833
L 411.965792 295.585908
L 412.347901 281.122572
L 412.73001 277.338406
L 413.112119 293.43179
L 413.494228 269.987209
L 413.876337 294.656637
L 414.258446 285.776337
L 414.640555 288.436964
L 415.022664 269.716218
L 415.404773 284.127433
L 415.786881 287.089596
L 416.16899 274.080926
L 416.551099 281.035993
L 416.933208 290.566545
L 417.315317 286.741428
L 417.697426 293.43179
L 418.079535 319.25692
L 418.461644 291.12374
L 418.843753 319.25692
L 419.225862 281.615493
L 419.607971 286.165004
L 419.99008 298.851529
L 420.372189 288.756296
L 420.754298 294.22809
L 421.136407 284.003656
L 421.518516 292.036081
L 421.900625 296.357671
L 422.282734 308.7903
L 422.664842 300.019216
L 423.046951 299.611583
L 423.42906 307.674668
L 423.811169 290.432865
L 424.193278 305.810342
L 424.575387 290.044198
L 424.957496 300.899485
L 425.339605 300.899485
L 425.721714 301.377034
L 426.103823 293.43179
L 426.485932 305.810342
L 427.25015 301.883542
L 427.632259 313.465794
L 428.014368 302.999174
L 428.396477 307.674668
L 428.778586 305.014042
L 429.160695 310.078203
L 429.542803 294.656637
L 429.924912 305.810342
L 430.307021 294.879445
L 430.68913 294.879445
L 431.071239 294.656637
L 431.453348 305.810342
L 431.835457 285.700728
L 432.217566 305.014042
L 432.599675 300.019216
L 432.981784 285.404951
L 433.746002 303.618334
L 434.128111 319.25692
L 434.51022 300.447763
L 435.274438 287.640664
L 435.656547 301.883542
L 436.038656 285.477919
L 436.420765 276.802657
L 436.802873 293.060403
L 437.184982 300.899485
L 437.567091 277.677162
L 437.9492 299.222916
L 438.331309 272.927912
L 438.713418 302.999174
L 438.713418 302.999174
" clip-path="url(#pc57aa8fc2a)" style="fill: none; stroke-dasharray: 5.55,2.4; stroke-dashoffset: 0; stroke: #ff7f0e; stroke-width: 1.5"/>
   </g>
   <g id="line2d_21">
    <path d="M 37.90024 306.683931
L 457.79976 306.683931
" clip-path="url(#pc57aa8fc2a)" style="fill: none; stroke-dasharray: 5.55,2.4; stroke-dashoffset: 0; stroke: #000000; stroke-width: 1.5"/>
   </g>
   <g id="patch_3">
    <path d="M 37.90024 325.921635
L 37.90024 18.118365
" style="fill: none; stroke: #000000; stroke-width: 0.8; stroke-linejoin: miter; stroke-linecap: square"/>
   </g>
   <g id="patch_4">
    <path d="M 457.79976 325.921635
L 457.79976 18.118365
" style="fill: none; stroke: #000000; stroke-width: 0.8; stroke-linejoin: miter; stroke-linecap: square"/>
   </g>
   <g id="patch_5">
    <path d="M 37.90024 325.921635
L 457.79976 325.921635
" style="fill: none; stroke: #000000; stroke-width: 0.8; stroke-linejoin: miter; stroke-linecap: square"/>
   </g>
   <g id="patch_6">
    <path d="M 37.90024 18.118365
L 457.79976 18.118365
" style="fill: none; stroke: #000000; stroke-width: 0.8; stroke-linejoin: miter; stroke-linecap: square"/>
   </g>
   <g id="text_19">
    <!-- relative deviation of numerical from true derivative -->
    <g transform="translate(93.7925 12.118365)scale(0.12 -0.12)">
     <defs>
      <path id="DejaVuSans-72" d="M 2631 2963
Q 2534 3019 2420 3045
Q 2306 3072 2169 3072
Q 1681 3072 1420 2755
Q 1159 2438 1159 1844
L 1159 0
L 581 0
L 581 3500
L 1159 3500
L 1159 2956
Q 1341 3275 1631 3429
Q 1922 3584 2338 3584
Q 2397 3584 2469 3576
Q 2541 3569 2628 3553
L 2631 2963
z
" transform="scale(0.015625)"/>
      <path id="DejaVuSans-65" d="M 3597 1894
L 3597 1613
L 953 1613
Q 991 1019 1311 708
Q 1631 397 2203 397
Q 2534 397 2845 478
Q 3156 559 3463 722
L 3463 178
Q 3153 47 2828 -22
Q 2503 -91 2169 -91
Q 1331 -91 842 396
Q 353 884 353 1716
Q 353 2575 817 3079
Q 1281 3584 2069 3584
Q 2775 3584 3186 3129
Q 3597 2675 3597 1894
z
M 3022 2063
Q 3016 2534 2758 2815
Q 2500 3097 2075 3097
Q 1594 3097 1305 2825
Q 1016 2553 972 2059
L 3022 2063
z
" transform="scale(0.015625)"/>
      <path id="DejaVuSans-6c" d="M 603 4863
L 1178 4863
L 1178 0
L 603 0
L 603 4863
z
" transform="scale(0.015625)"/>
      <path id="DejaVuSans-61" d="M 2194 1759
Q 1497 1759 1228 1600
Q 959 1441 959 1056
Q 959 750 1161 570
Q 1363 391 1709 391
Q 2188 391 2477 730
Q 2766 1069 2766 1631
L 2766 1759
L 2194 1759
z
M 3341 1997
L 3341 0
L 2766 0
L 2766 531
Q 2569 213 2275 61
Q 1981 -91 1556 -91
Q 1019 -91 701 211
Q 384 513 384 1019
Q 384 1609 779 1909
Q 1175 2209 1959 2209
L 2766 2209
L 2766 2266
Q 2766 2663 2505 2880
Q 2244 3097 1772 3097
Q 1472 3097 1187 3025
Q 903 2953 641 2809
L 641 3341
Q 956 3463 1253 3523
Q 1550 3584 1831 3584
Q 2591 3584 2966 3190
Q 3341 2797 3341 1997
z
" transform="scale(0.015625)"/>
      <path id="DejaVuSans-74" d="M 1172 4494
L 1172 3500
L 2356 3500
L 2356 3053
L 1172 3053
L 1172 1153
Q 1172 725 1289 603
Q 1406 481 1766 481
L 2356 481
L 2356 0
L 1766 0
Q 1100 0 847 248
Q 594 497 594 1153
L 594 3053
L 172 3053
L 172 3500
L 594 3500
L 594 4494
L 1172 4494
z
" transform="scale(0.015625)"/>
      <path id="DejaVuSans-69" d="M 603 3500
L 1178 3500
L 1178 0
L 603 0
L 603 3500
z
M 603 4863
L 1178 4863
L 1178 4134
L 603 4134
L 603 4863
z
" transform="scale(0.015625)"/>
      <path id="DejaVuSans-76" d="M 191 3500
L 800 3500
L 1894 563
L 2988 3500
L 3597 3500
L 2284 0
L 1503 0
L 191 3500
z
" transform="scale(0.015625)"/>
      <path id="DejaVuSans-20" transform="scale(0.015625)"/>
      <path id="DejaVuSans-64" d="M 2906 2969
L 2906 4863
L 3481 4863
L 3481 0
L 2906 0
L 2906 525
Q 2725 213 2448 61
Q 2172 -91 1784 -91
Q 1150 -91 751 415
Q 353 922 353 1747
Q 353 2572 751 3078
Q 1150 3584 1784 3584
Q 2172 3584 2448 3432
Q 2725 3281 2906 2969
z
M 947 1747
Q 947 1113 1208 752
Q 1469 391 1925 391
Q 2381 391 2643 752
Q 2906 1113 2906 1747
Q 2906 2381 2643 2742
Q 2381 3103 1925 3103
Q 1469 3103 1208 2742
Q 947 2381 947 1747
z
" transform="scale(0.015625)"/>
      <path id="DejaVuSans-6f" d="M 1959 3097
Q 1497 3097 1228 2736
Q 959 2375 959 1747
Q 959 1119 1226 758
Q 1494 397 1959 397
Q 2419 397 2687 759
Q 2956 1122 2956 1747
Q 2956 2369 2687 2733
Q 2419 3097 1959 3097
z
M 1959 3584
Q 2709 3584 3137 3096
Q 3566 2609 3566 1747
Q 3566 888 3137 398
Q 2709 -91 1959 -91
Q 1206 -91 779 398
Q 353 888 353 1747
Q 353 2609 779 3096
Q 1206 3584 1959 3584
z
" transform="scale(0.015625)"/>
      <path id="DejaVuSans-6e" d="M 3513 2113
L 3513 0
L 2938 0
L 2938 2094
Q 2938 2591 2744 2837
Q 2550 3084 2163 3084
Q 1697 3084 1428 2787
Q 1159 2491 1159 1978
L 1159 0
L 581 0
L 581 3500
L 1159 3500
L 1159 2956
Q 1366 3272 1645 3428
Q 1925 3584 2291 3584
Q 2894 3584 3203 3211
Q 3513 2838 3513 2113
z
" transform="scale(0.015625)"/>
      <path id="DejaVuSans-66" d="M 2375 4863
L 2375 4384
L 1825 4384
Q 1516 4384 1395 4259
Q 1275 4134 1275 3809
L 1275 3500
L 2222 3500
L 2222 3053
L 1275 3053
L 1275 0
L 697 0
L 697 3053
L 147 3053
L 147 3500
L 697 3500
L 697 3744
Q 697 4328 969 4595
Q 1241 4863 1831 4863
L 2375 4863
z
" transform="scale(0.015625)"/>
      <path id="DejaVuSans-75" d="M 544 1381
L 544 3500
L 1119 3500
L 1119 1403
Q 1119 906 1312 657
Q 1506 409 1894 409
Q 2359 409 2629 706
Q 2900 1003 2900 1516
L 2900 3500
L 3475 3500
L 3475 0
L 2900 0
L 2900 538
Q 2691 219 2414 64
Q 2138 -91 1772 -91
Q 1169 -91 856 284
Q 544 659 544 1381
z
M 1991 3584
L 1991 3584
z
" transform="scale(0.015625)"/>
      <path id="DejaVuSans-6d" d="M 3328 2828
Q 3544 3216 3844 3400
Q 4144 3584 4550 3584
Q 5097 3584 5394 3201
Q 5691 2819 5691 2113
L 5691 0
L 5113 0
L 5113 2094
Q 5113 2597 4934 2840
Q 4756 3084 4391 3084
Q 3944 3084 3684 2787
Q 3425 2491 3425 1978
L 3425 0
L 2847 0
L 2847 2094
Q 2847 2600 2669 2842
Q 2491 3084 2119 3084
Q 1678 3084 1418 2786
Q 1159 2488 1159 1978
L 1159 0
L 581 0
L 581 3500
L 1159 3500
L 1159 2956
Q 1356 3278 1631 3431
Q 1906 3584 2284 3584
Q 2666 3584 2933 3390
Q 3200 3197 3328 2828
z
" transform="scale(0.015625)"/>
      <path id="DejaVuSans-63" d="M 3122 3366
L 3122 2828
Q 2878 2963 2633 3030
Q 2388 3097 2138 3097
Q 1578 3097 1268 2742
Q 959 2388 959 1747
Q 959 1106 1268 751
Q 1578 397 2138 397
Q 2388 397 2633 464
Q 2878 531 3122 666
L 3122 134
Q 2881 22 2623 -34
Q 2366 -91 2075 -91
Q 1284 -91 818 406
Q 353 903 353 1747
Q 353 2603 823 3093
Q 1294 3584 2113 3584
Q 2378 3584 2631 3529
Q 2884 3475 3122 3366
z
" transform="scale(0.015625)"/>
     </defs>
     <use xlink:href="#DejaVuSans-72"/>
     <use xlink:href="#DejaVuSans-65" x="38.863281"/>
     <use xlink:href="#DejaVuSans-6c" x="100.386719"/>
     <use xlink:href="#DejaVuSans-61" x="128.169922"/>
     <use xlink:href="#DejaVuSans-74" x="189.449219"/>
     <use xlink:href="#DejaVuSans-69" x="228.658203"/>
     <use xlink:href="#DejaVuSans-76" x="256.441406"/>
     <use xlink:href="#DejaVuSans-65" x="315.621094"/>
     <use xlink:href="#DejaVuSans-20" x="377.144531"/>
     <use xlink:href="#DejaVuSans-64" x="408.931641"/>
     <use xlink:href="#DejaVuSans-65" x="472.408203"/>
     <use xlink:href="#DejaVuSans-76" x="533.931641"/>
     <use xlink:href="#DejaVuSans-69" x="593.111328"/>
     <use xlink:href="#DejaVuSans-61" x="620.894531"/>
     <use xlink:href="#DejaVuSans-74" x="682.173828"/>
     <use xlink:href="#DejaVuSans-69" x="721.382812"/>
     <use xlink:href="#DejaVuSans-6f" x="749.166016"/>
     <use xlink:href="#DejaVuSans-6e" x="810.347656"/>
     <use xlink:href="#DejaVuSans-20" x="873.726562"/>
     <use xlink:href="#DejaVuSans-6f" x="905.513672"/>
     <use xlink:href="#DejaVuSans-66" x="966.695312"/>
     <use xlink:href="#DejaVuSans-20" x="1001.900391"/>
     <use xlink:href="#DejaVuSans-6e" x="1033.6875"/>
     <use xlink:href="#DejaVuSans-75" x="1097.066406"/>
     <use xlink:href="#DejaVuSans-6d" x="1160.445312"/>
     <use xlink:href="#DejaVuSans-65" x="1257.857422"/>
     <use xlink:href="#DejaVuSans-72" x="1319.380859"/>
     <use xlink:href="#DejaVuSans-69" x="1360.494141"/>
     <use xlink:href="#DejaVuSans-63" x="1388.277344"/>
     <use xlink:href="#DejaVuSans-61" x="1443.257812"/>
     <use xlink:href="#DejaVuSans-6c" x="1504.537109"/>
     <use xlink:href="#DejaVuSans-20" x="1532.320312"/>
     <use xlink:href="#DejaVuSans-66" x="1564.107422"/>
     <use xlink:href="#DejaVuSans-72" x="1599.3125"/>
     <use xlink:href="#DejaVuSans-6f" x="1638.175781"/>
     <use xlink:href="#DejaVuSans-6d" x="1699.357422"/>
     <use xlink:href="#DejaVuSans-20" x="1796.769531"/>
     <use xlink:href="#DejaVuSans-74" x="1828.556641"/>
     <use xlink:href="#DejaVuSans-72" x="1867.765625"/>
     <use xlink:href="#DejaVuSans-75" x="1908.878906"/>
     <use xlink:href="#DejaVuSans-65" x="1972.257812"/>
     <use xlink:href="#DejaVuSans-20" x="2033.78125"/>
     <use xlink:href="#DejaVuSans-64" x="2065.568359"/>
     <use xlink:href="#DejaVuSans-65" x="2129.044922"/>
     <use xlink:href="#DejaVuSans-72" x="2190.568359"/>
     <use xlink:href="#DejaVuSans-69" x="2231.681641"/>
     <use xlink:href="#DejaVuSans-76" x="2259.464844"/>
     <use xlink:href="#DejaVuSans-61" x="2318.644531"/>
     <use xlink:href="#DejaVuSans-74" x="2379.923828"/>
     <use xlink:href="#DejaVuSans-69" x="2419.132812"/>
     <use xlink:href="#DejaVuSans-76" x="2446.916016"/>
     <use xlink:href="#DejaVuSans-65" x="2506.095703"/>
    </g>
   </g>
   <g id="legend_1">
    <g id="patch_7">
     <path d="M 278.42476 55.474615
L 450.79976 55.474615
Q 452.79976 55.474615 452.79976 53.474615
L 452.79976 25.118365
Q 452.79976 23.118365 450.79976 23.118365
L 278.42476 23.118365
Q 276.42476 23.118365 276.42476 25.118365
L 276.42476 53.474615
Q 276.42476 55.474615 278.42476 55.474615
z
" style="fill: #ffffff; opacity: 0.8; stroke: #cccccc; stroke-linejoin: miter"/>
    </g>
    <g id="text_20">
     <!-- f(x) = sin(x)/x -->
     <g transform="translate(329.95601 34.716802)scale(0.1 -0.1)">
      <defs>
       <path id="DejaVuSans-28" d="M 1984 4856
Q 1566 4138 1362 3434
Q 1159 2731 1159 2009
Q 1159 1288 1364 580
Q 1569 -128 1984 -844
L 1484 -844
Q 1016 -109 783 600
Q 550 1309 550 2009
Q 550 2706 781 3412
Q 1013 4119 1484 4856
L 1984 4856
z
" transform="scale(0.015625)"/>
       <path id="DejaVuSans-78" d="M 3513 3500
L 2247 1797
L 3578 0
L 2900 0
L 1881 1375
L 863 0
L 184 0
L 1544 1831
L 300 3500
L 978 3500
L 1906 2253
L 2834 3500
L 3513 3500
z
" transform="scale(0.015625)"/>
       <path id="DejaVuSans-29" d="M 513 4856
L 1013 4856
Q 1481 4119 1714 3412
Q 1947 2706 1947 2009
Q 1947 1309 1714 600
Q 1481 -109 1013 -844
L 513 -844
Q 928 -128 1133 580
Q 1338 1288 1338 2009
Q 1338 2731 1133 3434
Q 928 4138 513 4856
z
" transform="scale(0.015625)"/>
       <path id="DejaVuSans-3d" d="M 678 2906
L 4684 2906
L 4684 2381
L 678 2381
L 678 2906
z
M 678 1631
L 4684 1631
L 4684 1100
L 678 1100
L 678 1631
z
" transform="scale(0.015625)"/>
       <path id="DejaVuSans-73" d="M 2834 3397
L 2834 2853
Q 2591 2978 2328 3040
Q 2066 3103 1784 3103
Q 1356 3103 1142 2972
Q 928 2841 928 2578
Q 928 2378 1081 2264
Q 1234 2150 1697 2047
L 1894 2003
Q 2506 1872 2764 1633
Q 3022 1394 3022 966
Q 3022 478 2636 193
Q 2250 -91 1575 -91
Q 1294 -91 989 -36
Q 684 19 347 128
L 347 722
Q 666 556 975 473
Q 1284 391 1588 391
Q 1994 391 2212 530
Q 2431 669 2431 922
Q 2431 1156 2273 1281
Q 2116 1406 1581 1522
L 1381 1569
Q 847 1681 609 1914
Q 372 2147 372 2553
Q 372 3047 722 3315
Q 1072 3584 1716 3584
Q 2034 3584 2315 3537
Q 2597 3491 2834 3397
z
" transform="scale(0.015625)"/>
       <path id="DejaVuSans-2f" d="M 1625 4666
L 2156 4666
L 531 -594
L 0 -594
L 1625 4666
z
" transform="scale(0.015625)"/>
      </defs>
      <use xlink:href="#DejaVuSans-66"/>
      <use xlink:href="#DejaVuSans-28" x="35.205078"/>
      <use xlink:href="#DejaVuSans-78" x="74.21875"/>
      <use xlink:href="#DejaVuSans-29" x="133.398438"/>
      <use xlink:href="#DejaVuSans-20" x="172.412109"/>
      <use xlink:href="#DejaVuSans-3d" x="204.199219"/>
      <use xlink:href="#DejaVuSans-20" x="287.988281"/>
      <use xlink:href="#DejaVuSans-73" x="319.775391"/>
      <use xlink:href="#DejaVuSans-69" x="371.875"/>
      <use xlink:href="#DejaVuSans-6e" x="399.658203"/>
      <use xlink:href="#DejaVuSans-28" x="463.037109"/>
      <use xlink:href="#DejaVuSans-78" x="502.050781"/>
      <use xlink:href="#DejaVuSans-29" x="561.230469"/>
      <use xlink:href="#DejaVuSans-2f" x="600.244141"/>
      <use xlink:href="#DejaVuSans-78" x="633.935547"/>
     </g>
    </g>
    <g id="line2d_22">
     <path d="M 280.42476 45.894927
L 290.42476 45.894927
L 300.42476 45.894927
" style="fill: none; stroke: #1f77b4; stroke-width: 1.5; stroke-linecap: square"/>
    </g>
    <g id="text_21">
     <!-- Jacobi -->
     <g transform="translate(308.42476 49.394927)scale(0.1 -0.1)">
      <defs>
       <path id="DejaVuSans-4a" d="M 628 4666
L 1259 4666
L 1259 325
Q 1259 -519 939 -900
Q 619 -1281 -91 -1281
L -331 -1281
L -331 -750
L -134 -750
Q 284 -750 456 -515
Q 628 -281 628 325
L 628 4666
z
" transform="scale(0.015625)"/>
       <path id="DejaVuSans-62" d="M 3116 1747
Q 3116 2381 2855 2742
Q 2594 3103 2138 3103
Q 1681 3103 1420 2742
Q 1159 2381 1159 1747
Q 1159 1113 1420 752
Q 1681 391 2138 391
Q 2594 391 2855 752
Q 3116 1113 3116 1747
z
M 1159 2969
Q 1341 3281 1617 3432
Q 1894 3584 2278 3584
Q 2916 3584 3314 3078
Q 3713 2572 3713 1747
Q 3713 922 3314 415
Q 2916 -91 2278 -91
Q 1894 -91 1617 61
Q 1341 213 1159 525
L 1159 0
L 581 0
L 581 4863
L 1159 4863
L 1159 2969
z
" transform="scale(0.015625)"/>
      </defs>
      <use xlink:href="#DejaVuSans-4a"/>
      <use xlink:href="#DejaVuSans-61" x="29.492188"/>
      <use xlink:href="#DejaVuSans-63" x="90.771484"/>
      <use xlink:href="#DejaVuSans-6f" x="145.751953"/>
      <use xlink:href="#DejaVuSans-62" x="206.933594"/>
      <use xlink:href="#DejaVuSans-69" x="270.410156"/>
     </g>
    </g>
    <g id="line2d_23">
     <path d="M 358.246635 45.894927
L 368.246635 45.894927
L 378.246635 45.894927
" style="fill: none; stroke-dasharray: 5.55,2.4; stroke-dashoffset: 0; stroke: #ff7f0e; stroke-width: 1.5"/>
    </g>
    <g id="text_22">
     <!-- numdifftools -->
     <g transform="translate(386.246635 49.394927)scale(0.1 -0.1)">
      <use xlink:href="#DejaVuSans-6e"/>
      <use xlink:href="#DejaVuSans-75" x="63.378906"/>
      <use xlink:href="#DejaVuSans-6d" x="126.757812"/>
      <use xlink:href="#DejaVuSans-64" x="224.169922"/>
      <use xlink:href="#DejaVuSans-69" x="287.646484"/>
      <use xlink:href="#DejaVuSans-66" x="315.429688"/>
      <use xlink:href="#DejaVuSans-66" x="350.634766"/>
      <use xlink:href="#DejaVuSans-74" x="384.089844"/>
      <use xlink:href="#DejaVuSans-6f" x="423.298828"/>
      <use xlink:href="#DejaVuSans-6f" x="484.480469"/>
      <use xlink:href="#DejaVuSans-6c" x="545.662109"/>
      <use xlink:href="#DejaVuSans-73" x="573.445312"/>
     </g>
    </g>
   </g>
  </g>
 </g>
 <defs>
  <clipPath id="pc57aa8fc2a">
   <rect x="37.90024" y="18.118365" width="419.89952" height="307.80327"/>
  </clipPath>
 </defs>
</svg>
