<?xml version="1.0" encoding="utf-8" standalone="no"?>
<!DOCTYPE svg PUBLIC "-//W3C//DTD SVG 1.1//EN"
  "http://www.w3.org/Graphics/SVG/1.1/DTD/svg11.dtd">
<svg xmlns:xlink="http://www.w3.org/1999/xlink" width="460.8pt" height="345.6pt" viewBox="0 0 460.8 345.6" xmlns="http://www.w3.org/2000/svg" version="1.1">
 <metadata>
  <rdf:RDF xmlns:dc="http://purl.org/dc/elements/1.1/" xmlns:cc="http://creativecommons.org/ns#" xmlns:rdf="http://www.w3.org/1999/02/22-rdf-syntax-ns#">
   <cc:Work>
    <dc:type rdf:resource="http://purl.org/dc/dcmitype/StillImage"/>
    <dc:date>2022-01-05T17:18:14.766297</dc:date>
    <dc:format>image/svg+xml</dc:format>
    <dc:creator>
     <cc:Agent>
      <dc:title>Matplotlib v3.5.1, https://matplotlib.org/</dc:title>
     </cc:Agent>
    </dc:creator>
   </cc:Work>
  </rdf:RDF>
 </metadata>
 <defs>
  <style type="text/css">*{stroke-linejoin: round; stroke-linecap: butt}</style>
 </defs>
 <g id="figure_1">
  <g id="patch_1">
   <path d="M 0 345.6 
L 460.8 345.6 
L 460.8 0 
L 0 0 
z
" style="fill: #ffffff"/>
  </g>
  <g id="axes_1">
   <g id="patch_2">
    <path d="M 37.90024 325.921635 
L 457.79976 325.921635 
L 457.79976 18.118365 
L 37.90024 18.118365 
z
" style="fill: #ffffff"/>
   </g>
   <g id="matplotlib.axis_1">
    <g id="xtick_1">
     <g id="line2d_1">
      <defs>
       <path id="m878cc85df4" d="M 0 0 
L 0 3.5 
" style="stroke: #000000; stroke-width: 0.8"/>
      </defs>
      <g>
       <use xlink:href="#m878cc85df4" x="56.986582" y="325.921635" style="stroke: #000000; stroke-width: 0.8"/>
      </g>
     </g>
     <g id="text_1">
      <!-- −10.0 -->
      <g transform="translate(41.663926 340.520072)scale(0.1 -0.1)">
       <defs>
        <path id="DejaVuSans-2212" d="M 678 2272 
L 4684 2272 
L 4684 1741 
L 678 1741 
L 678 2272 
z
" transform="scale(0.015625)"/>
        <path id="DejaVuSans-31" d="M 794 531 
L 1825 531 
L 1825 4091 
L 703 3866 
L 703 4441 
L 1819 4666 
L 2450 4666 
L 2450 531 
L 3481 531 
L 3481 0 
L 794 0 
L 794 531 
z
" transform="scale(0.015625)"/>
        <path id="DejaVuSans-30" d="M 2034 4250 
Q 1547 4250 1301 3770 
Q 1056 3291 1056 2328 
Q 1056 1369 1301 889 
Q 1547 409 2034 409 
Q 2525 409 2770 889 
Q 3016 1369 3016 2328 
Q 3016 3291 2770 3770 
Q 2525 4250 2034 4250 
z
M 2034 4750 
Q 2819 4750 3233 4129 
Q 3647 3509 3647 2328 
Q 3647 1150 3233 529 
Q 2819 -91 2034 -91 
Q 1250 -91 836 529 
Q 422 1150 422 2328 
Q 422 3509 836 4129 
Q 1250 4750 2034 4750 
z
" transform="scale(0.015625)"/>
        <path id="DejaVuSans-2e" d="M 684 794 
L 1344 794 
L 1344 0 
L 684 0 
L 684 794 
z
" transform="scale(0.015625)"/>
       </defs>
       <use xlink:href="#DejaVuSans-2212"/>
       <use xlink:href="#DejaVuSans-31" x="83.789062"/>
       <use xlink:href="#DejaVuSans-30" x="147.412109"/>
       <use xlink:href="#DejaVuSans-2e" x="211.035156"/>
       <use xlink:href="#DejaVuSans-30" x="242.822266"/>
      </g>
     </g>
    </g>
    <g id="xtick_2">
     <g id="line2d_2">
      <g>
       <use xlink:href="#m878cc85df4" x="104.702436" y="325.921635" style="stroke: #000000; stroke-width: 0.8"/>
      </g>
     </g>
     <g id="text_2">
      <!-- −7.5 -->
      <g transform="translate(92.56103 340.520072)scale(0.1 -0.1)">
       <defs>
        <path id="DejaVuSans-37" d="M 525 4666 
L 3525 4666 
L 3525 4397 
L 1831 0 
L 1172 0 
L 2766 4134 
L 525 4134 
L 525 4666 
z
" transform="scale(0.015625)"/>
        <path id="DejaVuSans-35" d="M 691 4666 
L 3169 4666 
L 3169 4134 
L 1269 4134 
L 1269 2991 
Q 1406 3038 1543 3061 
Q 1681 3084 1819 3084 
Q 2600 3084 3056 2656 
Q 3513 2228 3513 1497 
Q 3513 744 3044 326 
Q 2575 -91 1722 -91 
Q 1428 -91 1123 -41 
Q 819 9 494 109 
L 494 744 
Q 775 591 1075 516 
Q 1375 441 1709 441 
Q 2250 441 2565 725 
Q 2881 1009 2881 1497 
Q 2881 1984 2565 2268 
Q 2250 2553 1709 2553 
Q 1456 2553 1204 2497 
Q 953 2441 691 2322 
L 691 4666 
z
" transform="scale(0.015625)"/>
       </defs>
       <use xlink:href="#DejaVuSans-2212"/>
       <use xlink:href="#DejaVuSans-37" x="83.789062"/>
       <use xlink:href="#DejaVuSans-2e" x="147.412109"/>
       <use xlink:href="#DejaVuSans-35" x="179.199219"/>
      </g>
     </g>
    </g>
    <g id="xtick_3">
     <g id="line2d_3">
      <g>
       <use xlink:href="#m878cc85df4" x="152.418291" y="325.921635" style="stroke: #000000; stroke-width: 0.8"/>
      </g>
     </g>
     <g id="text_3">
      <!-- −5.0 -->
      <g transform="translate(140.276885 340.520072)scale(0.1 -0.1)">
       <use xlink:href="#DejaVuSans-2212"/>
       <use xlink:href="#DejaVuSans-35" x="83.789062"/>
       <use xlink:href="#DejaVuSans-2e" x="147.412109"/>
       <use xlink:href="#DejaVuSans-30" x="179.199219"/>
      </g>
     </g>
    </g>
    <g id="xtick_4">
     <g id="line2d_4">
      <g>
       <use xlink:href="#m878cc85df4" x="200.134145" y="325.921635" style="stroke: #000000; stroke-width: 0.8"/>
      </g>
     </g>
     <g id="text_4">
      <!-- −2.5 -->
      <g transform="translate(187.992739 340.520072)scale(0.1 -0.1)">
       <defs>
        <path id="DejaVuSans-32" d="M 1228 531 
L 3431 531 
L 3431 0 
L 469 0 
L 469 531 
Q 828 903 1448 1529 
Q 2069 2156 2228 2338 
Q 2531 2678 2651 2914 
Q 2772 3150 2772 3378 
Q 2772 3750 2511 3984 
Q 2250 4219 1831 4219 
Q 1534 4219 1204 4116 
Q 875 4013 500 3803 
L 500 4441 
Q 881 4594 1212 4672 
Q 1544 4750 1819 4750 
Q 2544 4750 2975 4387 
Q 3406 4025 3406 3419 
Q 3406 3131 3298 2873 
Q 3191 2616 2906 2266 
Q 2828 2175 2409 1742 
Q 1991 1309 1228 531 
z
" transform="scale(0.015625)"/>
       </defs>
       <use xlink:href="#DejaVuSans-2212"/>
       <use xlink:href="#DejaVuSans-32" x="83.789062"/>
       <use xlink:href="#DejaVuSans-2e" x="147.412109"/>
       <use xlink:href="#DejaVuSans-35" x="179.199219"/>
      </g>
     </g>
    </g>
    <g id="xtick_5">
     <g id="line2d_5">
      <g>
       <use xlink:href="#m878cc85df4" x="247.85" y="325.921635" style="stroke: #000000; stroke-width: 0.8"/>
      </g>
     </g>
     <g id="text_5">
      <!-- 0.0 -->
      <g transform="translate(239.898438 340.520072)scale(0.1 -0.1)">
       <use xlink:href="#DejaVuSans-30"/>
       <use xlink:href="#DejaVuSans-2e" x="63.623047"/>
       <use xlink:href="#DejaVuSans-30" x="95.410156"/>
      </g>
     </g>
    </g>
    <g id="xtick_6">
     <g id="line2d_6">
      <g>
       <use xlink:href="#m878cc85df4" x="295.565855" y="325.921635" style="stroke: #000000; stroke-width: 0.8"/>
      </g>
     </g>
     <g id="text_6">
      <!-- 2.5 -->
      <g transform="translate(287.614292 340.520072)scale(0.1 -0.1)">
       <use xlink:href="#DejaVuSans-32"/>
       <use xlink:href="#DejaVuSans-2e" x="63.623047"/>
       <use xlink:href="#DejaVuSans-35" x="95.410156"/>
      </g>
     </g>
    </g>
    <g id="xtick_7">
     <g id="line2d_7">
      <g>
       <use xlink:href="#m878cc85df4" x="343.281709" y="325.921635" style="stroke: #000000; stroke-width: 0.8"/>
      </g>
     </g>
     <g id="text_7">
      <!-- 5.0 -->
      <g transform="translate(335.330147 340.520072)scale(0.1 -0.1)">
       <use xlink:href="#DejaVuSans-35"/>
       <use xlink:href="#DejaVuSans-2e" x="63.623047"/>
       <use xlink:href="#DejaVuSans-30" x="95.410156"/>
      </g>
     </g>
    </g>
    <g id="xtick_8">
     <g id="line2d_8">
      <g>
       <use xlink:href="#m878cc85df4" x="390.997564" y="325.921635" style="stroke: #000000; stroke-width: 0.8"/>
      </g>
     </g>
     <g id="text_8">
      <!-- 7.5 -->
      <g transform="translate(383.046001 340.520072)scale(0.1 -0.1)">
       <use xlink:href="#DejaVuSans-37"/>
       <use xlink:href="#DejaVuSans-2e" x="63.623047"/>
       <use xlink:href="#DejaVuSans-35" x="95.410156"/>
      </g>
     </g>
    </g>
    <g id="xtick_9">
     <g id="line2d_9">
      <g>
       <use xlink:href="#m878cc85df4" x="438.713418" y="325.921635" style="stroke: #000000; stroke-width: 0.8"/>
      </g>
     </g>
     <g id="text_9">
      <!-- 10.0 -->
      <g transform="translate(427.580606 340.520072)scale(0.1 -0.1)">
       <use xlink:href="#DejaVuSans-31"/>
       <use xlink:href="#DejaVuSans-30" x="63.623047"/>
       <use xlink:href="#DejaVuSans-2e" x="127.246094"/>
       <use xlink:href="#DejaVuSans-30" x="159.033203"/>
      </g>
     </g>
    </g>
   </g>
   <g id="matplotlib.axis_2">
    <g id="ytick_1">
     <g id="line2d_10">
      <defs>
       <path id="m626b40c1fe" d="M 0 0 
L -3.5 0 
" style="stroke: #000000; stroke-width: 0.8"/>
      </defs>
      <g>
       <use xlink:href="#m626b40c1fe" x="37.90024" y="325.921635" style="stroke: #000000; stroke-width: 0.8"/>
      </g>
     </g>
     <g id="text_10">
      <!-- $\mathdefault{10^{-16}}$ -->
      <g transform="translate(3.00024 329.720854)scale(0.1 -0.1)">
       <defs>
        <path id="DejaVuSans-36" d="M 2113 2584 
Q 1688 2584 1439 2293 
Q 1191 2003 1191 1497 
Q 1191 994 1439 701 
Q 1688 409 2113 409 
Q 2538 409 2786 701 
Q 3034 994 3034 1497 
Q 3034 2003 2786 2293 
Q 2538 2584 2113 2584 
z
M 3366 4563 
L 3366 3988 
Q 3128 4100 2886 4159 
Q 2644 4219 2406 4219 
Q 1781 4219 1451 3797 
Q 1122 3375 1075 2522 
Q 1259 2794 1537 2939 
Q 1816 3084 2150 3084 
Q 2853 3084 3261 2657 
Q 3669 2231 3669 1497 
Q 3669 778 3244 343 
Q 2819 -91 2113 -91 
Q 1303 -91 875 529 
Q 447 1150 447 2328 
Q 447 3434 972 4092 
Q 1497 4750 2381 4750 
Q 2619 4750 2861 4703 
Q 3103 4656 3366 4563 
z
" transform="scale(0.015625)"/>
       </defs>
       <use xlink:href="#DejaVuSans-31" transform="translate(0 0.765625)"/>
       <use xlink:href="#DejaVuSans-30" transform="translate(63.623047 0.765625)"/>
       <use xlink:href="#DejaVuSans-2212" transform="translate(128.203125 39.046875)scale(0.7)"/>
       <use xlink:href="#DejaVuSans-31" transform="translate(186.855469 39.046875)scale(0.7)"/>
       <use xlink:href="#DejaVuSans-36" transform="translate(231.391602 39.046875)scale(0.7)"/>
      </g>
     </g>
    </g>
    <g id="ytick_2">
     <g id="line2d_11">
      <g>
       <use xlink:href="#m626b40c1fe" x="37.90024" y="274.62109" style="stroke: #000000; stroke-width: 0.8"/>
      </g>
     </g>
     <g id="text_11">
      <!-- $\mathdefault{10^{-15}}$ -->
      <g transform="translate(3.00024 278.420309)scale(0.1 -0.1)">
       <use xlink:href="#DejaVuSans-31" transform="translate(0 0.684375)"/>
       <use xlink:href="#DejaVuSans-30" transform="translate(63.623047 0.684375)"/>
       <use xlink:href="#DejaVuSans-2212" transform="translate(128.203125 38.965625)scale(0.7)"/>
       <use xlink:href="#DejaVuSans-31" transform="translate(186.855469 38.965625)scale(0.7)"/>
       <use xlink:href="#DejaVuSans-35" transform="translate(231.391602 38.965625)scale(0.7)"/>
      </g>
     </g>
    </g>
    <g id="ytick_3">
     <g id="line2d_12">
      <g>
       <use xlink:href="#m626b40c1fe" x="37.90024" y="223.320545" style="stroke: #000000; stroke-width: 0.8"/>
      </g>
     </g>
     <g id="text_12">
      <!-- $\mathdefault{10^{-14}}$ -->
      <g transform="translate(3.00024 227.119764)scale(0.1 -0.1)">
       <defs>
        <path id="DejaVuSans-34" d="M 2419 4116 
L 825 1625 
L 2419 1625 
L 2419 4116 
z
M 2253 4666 
L 3047 4666 
L 3047 1625 
L 3713 1625 
L 3713 1100 
L 3047 1100 
L 3047 0 
L 2419 0 
L 2419 1100 
L 313 1100 
L 313 1709 
L 2253 4666 
z
" transform="scale(0.015625)"/>
       </defs>
       <use xlink:href="#DejaVuSans-31" transform="translate(0 0.684375)"/>
       <use xlink:href="#DejaVuSans-30" transform="translate(63.623047 0.684375)"/>
       <use xlink:href="#DejaVuSans-2212" transform="translate(128.203125 38.965625)scale(0.7)"/>
       <use xlink:href="#DejaVuSans-31" transform="translate(186.855469 38.965625)scale(0.7)"/>
       <use xlink:href="#DejaVuSans-34" transform="translate(231.391602 38.965625)scale(0.7)"/>
      </g>
     </g>
    </g>
    <g id="ytick_4">
     <g id="line2d_13">
      <g>
       <use xlink:href="#m626b40c1fe" x="37.90024" y="172.02" style="stroke: #000000; stroke-width: 0.8"/>
      </g>
     </g>
     <g id="text_13">
      <!-- $\mathdefault{10^{-13}}$ -->
      <g transform="translate(3.00024 175.819219)scale(0.1 -0.1)">
       <defs>
        <path id="DejaVuSans-33" d="M 2597 2516 
Q 3050 2419 3304 2112 
Q 3559 1806 3559 1356 
Q 3559 666 3084 287 
Q 2609 -91 1734 -91 
Q 1441 -91 1130 -33 
Q 819 25 488 141 
L 488 750 
Q 750 597 1062 519 
Q 1375 441 1716 441 
Q 2309 441 2620 675 
Q 2931 909 2931 1356 
Q 2931 1769 2642 2001 
Q 2353 2234 1838 2234 
L 1294 2234 
L 1294 2753 
L 1863 2753 
Q 2328 2753 2575 2939 
Q 2822 3125 2822 3475 
Q 2822 3834 2567 4026 
Q 2313 4219 1838 4219 
Q 1578 4219 1281 4162 
Q 984 4106 628 3988 
L 628 4550 
Q 988 4650 1302 4700 
Q 1616 4750 1894 4750 
Q 2613 4750 3031 4423 
Q 3450 4097 3450 3541 
Q 3450 3153 3228 2886 
Q 3006 2619 2597 2516 
z
" transform="scale(0.015625)"/>
       </defs>
       <use xlink:href="#DejaVuSans-31" transform="translate(0 0.765625)"/>
       <use xlink:href="#DejaVuSans-30" transform="translate(63.623047 0.765625)"/>
       <use xlink:href="#DejaVuSans-2212" transform="translate(128.203125 39.046875)scale(0.7)"/>
       <use xlink:href="#DejaVuSans-31" transform="translate(186.855469 39.046875)scale(0.7)"/>
       <use xlink:href="#DejaVuSans-33" transform="translate(231.391602 39.046875)scale(0.7)"/>
      </g>
     </g>
    </g>
    <g id="ytick_5">
     <g id="line2d_14">
      <g>
       <use xlink:href="#m626b40c1fe" x="37.90024" y="120.719455" style="stroke: #000000; stroke-width: 0.8"/>
      </g>
     </g>
     <g id="text_14">
      <!-- $\mathdefault{10^{-12}}$ -->
      <g transform="translate(3.00024 124.518674)scale(0.1 -0.1)">
       <use xlink:href="#DejaVuSans-31" transform="translate(0 0.765625)"/>
       <use xlink:href="#DejaVuSans-30" transform="translate(63.623047 0.765625)"/>
       <use xlink:href="#DejaVuSans-2212" transform="translate(128.203125 39.046875)scale(0.7)"/>
       <use xlink:href="#DejaVuSans-31" transform="translate(186.855469 39.046875)scale(0.7)"/>
       <use xlink:href="#DejaVuSans-32" transform="translate(231.391602 39.046875)scale(0.7)"/>
      </g>
     </g>
    </g>
    <g id="ytick_6">
     <g id="line2d_15">
      <g>
       <use xlink:href="#m626b40c1fe" x="37.90024" y="69.41891" style="stroke: #000000; stroke-width: 0.8"/>
      </g>
     </g>
     <g id="text_15">
      <!-- $\mathdefault{10^{-11}}$ -->
      <g transform="translate(3.00024 73.218129)scale(0.1 -0.1)">
       <use xlink:href="#DejaVuSans-31" transform="translate(0 0.684375)"/>
       <use xlink:href="#DejaVuSans-30" transform="translate(63.623047 0.684375)"/>
       <use xlink:href="#DejaVuSans-2212" transform="translate(128.203125 38.965625)scale(0.7)"/>
       <use xlink:href="#DejaVuSans-31" transform="translate(186.855469 38.965625)scale(0.7)"/>
       <use xlink:href="#DejaVuSans-31" transform="translate(231.391602 38.965625)scale(0.7)"/>
      </g>
     </g>
    </g>
    <g id="ytick_7">
     <g id="line2d_16">
      <g>
       <use xlink:href="#m626b40c1fe" x="37.90024" y="18.118365" style="stroke: #000000; stroke-width: 0.8"/>
      </g>
     </g>
     <g id="text_16">
      <!-- $\mathdefault{10^{-10}}$ -->
      <g transform="translate(3.00024 21.917584)scale(0.1 -0.1)">
       <use xlink:href="#DejaVuSans-31" transform="translate(0 0.765625)"/>
       <use xlink:href="#DejaVuSans-30" transform="translate(63.623047 0.765625)"/>
       <use xlink:href="#DejaVuSans-2212" transform="translate(128.203125 39.046875)scale(0.7)"/>
       <use xlink:href="#DejaVuSans-31" transform="translate(186.855469 39.046875)scale(0.7)"/>
       <use xlink:href="#DejaVuSans-30" transform="translate(231.391602 39.046875)scale(0.7)"/>
      </g>
     </g>
    </g>
    <g id="ytick_8">
     <g id="line2d_17">
      <defs>
       <path id="m53b0c9786e" d="M 0 0 
L -2 0 
" style="stroke: #000000; stroke-width: 0.6"/>
      </defs>
      <g>
       <use xlink:href="#m53b0c9786e" x="37.90024" y="310.478632" style="stroke: #000000; stroke-width: 0.6"/>
      </g>
     </g>
    </g>
    <g id="ytick_9">
     <g id="line2d_18">
      <g>
       <use xlink:href="#m53b0c9786e" x="37.90024" y="301.445055" style="stroke: #000000; stroke-width: 0.6"/>
      </g>
     </g>
    </g>
    <g id="ytick_10">
     <g id="line2d_19">
      <g>
       <use xlink:href="#m53b0c9786e" x="37.90024" y="295.035629" style="stroke: #000000; stroke-width: 0.6"/>
      </g>
     </g>
    </g>
    <g id="ytick_11">
     <g id="line2d_20">
      <g>
       <use xlink:href="#m53b0c9786e" x="37.90024" y="290.064093" style="stroke: #000000; stroke-width: 0.6"/>
      </g>
     </g>
    </g>
    <g id="ytick_12">
     <g id="line2d_21">
      <g>
       <use xlink:href="#m53b0c9786e" x="37.90024" y="286.002052" style="stroke: #000000; stroke-width: 0.6"/>
      </g>
     </g>
    </g>
    <g id="ytick_13">
     <g id="line2d_22">
      <g>
       <use xlink:href="#m53b0c9786e" x="37.90024" y="282.567645" style="stroke: #000000; stroke-width: 0.6"/>
      </g>
     </g>
    </g>
    <g id="ytick_14">
     <g id="line2d_23">
      <g>
       <use xlink:href="#m53b0c9786e" x="37.90024" y="279.592626" style="stroke: #000000; stroke-width: 0.6"/>
      </g>
     </g>
    </g>
    <g id="ytick_15">
     <g id="line2d_24">
      <g>
       <use xlink:href="#m53b0c9786e" x="37.90024" y="276.968474" style="stroke: #000000; stroke-width: 0.6"/>
      </g>
     </g>
    </g>
    <g id="ytick_16">
     <g id="line2d_25">
      <g>
       <use xlink:href="#m53b0c9786e" x="37.90024" y="259.178087" style="stroke: #000000; stroke-width: 0.6"/>
      </g>
     </g>
    </g>
    <g id="ytick_17">
     <g id="line2d_26">
      <g>
       <use xlink:href="#m53b0c9786e" x="37.90024" y="250.14451" style="stroke: #000000; stroke-width: 0.6"/>
      </g>
     </g>
    </g>
    <g id="ytick_18">
     <g id="line2d_27">
      <g>
       <use xlink:href="#m53b0c9786e" x="37.90024" y="243.735084" style="stroke: #000000; stroke-width: 0.6"/>
      </g>
     </g>
    </g>
    <g id="ytick_19">
     <g id="line2d_28">
      <g>
       <use xlink:href="#m53b0c9786e" x="37.90024" y="238.763548" style="stroke: #000000; stroke-width: 0.6"/>
      </g>
     </g>
    </g>
    <g id="ytick_20">
     <g id="line2d_29">
      <g>
       <use xlink:href="#m53b0c9786e" x="37.90024" y="234.701507" style="stroke: #000000; stroke-width: 0.6"/>
      </g>
     </g>
    </g>
    <g id="ytick_21">
     <g id="line2d_30">
      <g>
       <use xlink:href="#m53b0c9786e" x="37.90024" y="231.2671" style="stroke: #000000; stroke-width: 0.6"/>
      </g>
     </g>
    </g>
    <g id="ytick_22">
     <g id="line2d_31">
      <g>
       <use xlink:href="#m53b0c9786e" x="37.90024" y="228.292081" style="stroke: #000000; stroke-width: 0.6"/>
      </g>
     </g>
    </g>
    <g id="ytick_23">
     <g id="line2d_32">
      <g>
       <use xlink:href="#m53b0c9786e" x="37.90024" y="225.667929" style="stroke: #000000; stroke-width: 0.6"/>
      </g>
     </g>
    </g>
    <g id="ytick_24">
     <g id="line2d_33">
      <g>
       <use xlink:href="#m53b0c9786e" x="37.90024" y="207.877542" style="stroke: #000000; stroke-width: 0.6"/>
      </g>
     </g>
    </g>
    <g id="ytick_25">
     <g id="line2d_34">
      <g>
       <use xlink:href="#m53b0c9786e" x="37.90024" y="198.843965" style="stroke: #000000; stroke-width: 0.6"/>
      </g>
     </g>
    </g>
    <g id="ytick_26">
     <g id="line2d_35">
      <g>
       <use xlink:href="#m53b0c9786e" x="37.90024" y="192.434539" style="stroke: #000000; stroke-width: 0.6"/>
      </g>
     </g>
    </g>
    <g id="ytick_27">
     <g id="line2d_36">
      <g>
       <use xlink:href="#m53b0c9786e" x="37.90024" y="187.463003" style="stroke: #000000; stroke-width: 0.6"/>
      </g>
     </g>
    </g>
    <g id="ytick_28">
     <g id="line2d_37">
      <g>
       <use xlink:href="#m53b0c9786e" x="37.90024" y="183.400962" style="stroke: #000000; stroke-width: 0.6"/>
      </g>
     </g>
    </g>
    <g id="ytick_29">
     <g id="line2d_38">
      <g>
       <use xlink:href="#m53b0c9786e" x="37.90024" y="179.966555" style="stroke: #000000; stroke-width: 0.6"/>
      </g>
     </g>
    </g>
    <g id="ytick_30">
     <g id="line2d_39">
      <g>
       <use xlink:href="#m53b0c9786e" x="37.90024" y="176.991536" style="stroke: #000000; stroke-width: 0.6"/>
      </g>
     </g>
    </g>
    <g id="ytick_31">
     <g id="line2d_40">
      <g>
       <use xlink:href="#m53b0c9786e" x="37.90024" y="174.367384" style="stroke: #000000; stroke-width: 0.6"/>
      </g>
     </g>
    </g>
    <g id="ytick_32">
     <g id="line2d_41">
      <g>
       <use xlink:href="#m53b0c9786e" x="37.90024" y="156.576997" style="stroke: #000000; stroke-width: 0.6"/>
      </g>
     </g>
    </g>
    <g id="ytick_33">
     <g id="line2d_42">
      <g>
       <use xlink:href="#m53b0c9786e" x="37.90024" y="147.54342" style="stroke: #000000; stroke-width: 0.6"/>
      </g>
     </g>
    </g>
    <g id="ytick_34">
     <g id="line2d_43">
      <g>
       <use xlink:href="#m53b0c9786e" x="37.90024" y="141.133994" style="stroke: #000000; stroke-width: 0.6"/>
      </g>
     </g>
    </g>
    <g id="ytick_35">
     <g id="line2d_44">
      <g>
       <use xlink:href="#m53b0c9786e" x="37.90024" y="136.162458" style="stroke: #000000; stroke-width: 0.6"/>
      </g>
     </g>
    </g>
    <g id="ytick_36">
     <g id="line2d_45">
      <g>
       <use xlink:href="#m53b0c9786e" x="37.90024" y="132.100417" style="stroke: #000000; stroke-width: 0.6"/>
      </g>
     </g>
    </g>
    <g id="ytick_37">
     <g id="line2d_46">
      <g>
       <use xlink:href="#m53b0c9786e" x="37.90024" y="128.66601" style="stroke: #000000; stroke-width: 0.6"/>
      </g>
     </g>
    </g>
    <g id="ytick_38">
     <g id="line2d_47">
      <g>
       <use xlink:href="#m53b0c9786e" x="37.90024" y="125.690991" style="stroke: #000000; stroke-width: 0.6"/>
      </g>
     </g>
    </g>
    <g id="ytick_39">
     <g id="line2d_48">
      <g>
       <use xlink:href="#m53b0c9786e" x="37.90024" y="123.066839" style="stroke: #000000; stroke-width: 0.6"/>
      </g>
     </g>
    </g>
    <g id="ytick_40">
     <g id="line2d_49">
      <g>
       <use xlink:href="#m53b0c9786e" x="37.90024" y="105.276452" style="stroke: #000000; stroke-width: 0.6"/>
      </g>
     </g>
    </g>
    <g id="ytick_41">
     <g id="line2d_50">
      <g>
       <use xlink:href="#m53b0c9786e" x="37.90024" y="96.242875" style="stroke: #000000; stroke-width: 0.6"/>
      </g>
     </g>
    </g>
    <g id="ytick_42">
     <g id="line2d_51">
      <g>
       <use xlink:href="#m53b0c9786e" x="37.90024" y="89.833449" style="stroke: #000000; stroke-width: 0.6"/>
      </g>
     </g>
    </g>
    <g id="ytick_43">
     <g id="line2d_52">
      <g>
       <use xlink:href="#m53b0c9786e" x="37.90024" y="84.861913" style="stroke: #000000; stroke-width: 0.6"/>
      </g>
     </g>
    </g>
    <g id="ytick_44">
     <g id="line2d_53">
      <g>
       <use xlink:href="#m53b0c9786e" x="37.90024" y="80.799872" style="stroke: #000000; stroke-width: 0.6"/>
      </g>
     </g>
    </g>
    <g id="ytick_45">
     <g id="line2d_54">
      <g>
       <use xlink:href="#m53b0c9786e" x="37.90024" y="77.365465" style="stroke: #000000; stroke-width: 0.6"/>
      </g>
     </g>
    </g>
    <g id="ytick_46">
     <g id="line2d_55">
      <g>
       <use xlink:href="#m53b0c9786e" x="37.90024" y="74.390446" style="stroke: #000000; stroke-width: 0.6"/>
      </g>
     </g>
    </g>
    <g id="ytick_47">
     <g id="line2d_56">
      <g>
       <use xlink:href="#m53b0c9786e" x="37.90024" y="71.766294" style="stroke: #000000; stroke-width: 0.6"/>
      </g>
     </g>
    </g>
    <g id="ytick_48">
     <g id="line2d_57">
      <g>
       <use xlink:href="#m53b0c9786e" x="37.90024" y="53.975907" style="stroke: #000000; stroke-width: 0.6"/>
      </g>
     </g>
    </g>
    <g id="ytick_49">
     <g id="line2d_58">
      <g>
       <use xlink:href="#m53b0c9786e" x="37.90024" y="44.94233" style="stroke: #000000; stroke-width: 0.6"/>
      </g>
     </g>
    </g>
    <g id="ytick_50">
     <g id="line2d_59">
      <g>
       <use xlink:href="#m53b0c9786e" x="37.90024" y="38.532904" style="stroke: #000000; stroke-width: 0.6"/>
      </g>
     </g>
    </g>
    <g id="ytick_51">
     <g id="line2d_60">
      <g>
       <use xlink:href="#m53b0c9786e" x="37.90024" y="33.561368" style="stroke: #000000; stroke-width: 0.6"/>
      </g>
     </g>
    </g>
    <g id="ytick_52">
     <g id="line2d_61">
      <g>
       <use xlink:href="#m53b0c9786e" x="37.90024" y="29.499327" style="stroke: #000000; stroke-width: 0.6"/>
      </g>
     </g>
    </g>
    <g id="ytick_53">
     <g id="line2d_62">
      <g>
       <use xlink:href="#m53b0c9786e" x="37.90024" y="26.06492" style="stroke: #000000; stroke-width: 0.6"/>
      </g>
     </g>
    </g>
    <g id="ytick_54">
     <g id="line2d_63">
      <g>
       <use xlink:href="#m53b0c9786e" x="37.90024" y="23.089901" style="stroke: #000000; stroke-width: 0.6"/>
      </g>
     </g>
    </g>
    <g id="ytick_55">
     <g id="line2d_64">
      <g>
       <use xlink:href="#m53b0c9786e" x="37.90024" y="20.465749" style="stroke: #000000; stroke-width: 0.6"/>
      </g>
     </g>
    </g>
   </g>
   <g id="line2d_65">
    <path d="M 56.986582 256.848518 
L 57.368691 226.526581 
L 57.7508 251.003162 
L 58.132909 225.412372 
L 58.515018 246.377051 
L 58.897127 238.291682 
L 59.279235 239.794243 
L 59.661344 237.343474 
L 60.043453 245.026362 
L 60.425562 225.962512 
L 60.807671 230.934048 
L 61.18978 253.734685 
L 61.571889 247.81494 
L 61.953998 260.469365 
L 62.336107 280.238075 
L 62.718216 292.70606 
L 63.100325 277.263057 
L 63.482434 292.70606 
L 63.864543 277.263057 
L 64.246652 268.229479 
L 64.628761 251.876981 
L 65.01087 243.752899 
L 65.392979 260.469365 
L 65.775088 283.672482 
L 66.157197 283.672482 
L 66.539305 264.795073 
L 66.539924 346.6 
M 67.303078 346.6 
L 67.303523 287.734523 
L 67.303969 346.6 
M 68.449676 346.6 
L 68.44985 323.592065 
L 68.831959 287.734523 
L 69.214068 308.149063 
L 69.596177 268.229479 
L 69.978286 277.263057 
L 70.360395 292.70606 
L 70.742504 245.026362 
L 71.124613 266.446164 
L 71.506722 308.149063 
L 71.888831 241.405515 
L 72.27094 268.229479 
L 72.653049 259.195902 
L 73.417266 308.149063 
L 73.799375 260.469365 
L 74.563593 216.560669 
L 75.327811 254.72505 
L 75.70992 308.149063 
L 76.474138 239.282047 
L 76.856247 252.786477 
L 77.238356 220.117156 
L 77.620465 252.786477 
L 78.002574 232.371937 
L 78.384683 254.72505 
L 79.148901 212.256457 
L 79.53101 261.820054 
L 79.913119 230.588622 
L 80.295227 209.969369 
L 80.677336 220.990975 
L 81.059445 214.47043 
L 81.441554 244.380533 
L 81.823663 261.820054 
L 82.205772 221.214892 
L 82.587881 229.58336 
L 82.96999 245.026362 
L 83.352099 218.071726 
L 83.734208 229.58336 
L 84.116317 196.964502 
L 84.880535 234.310511 
L 85.262644 212.106426 
L 85.644753 308.149063 
L 86.026862 216.928934 
L 86.408971 198.051525 
L 86.79108 224.875489 
L 87.173188 240.855375 
L 87.555297 251.876981 
L 87.937406 207.649172 
L 88.319515 214.140357 
L 88.701624 202.628723 
L 89.083733 216.928934 
L 89.465842 199.702617 
L 89.847951 219.276319 
L 90.23006 213.1785 
L 90.612169 191.60235 
L 90.994278 208.144293 
L 91.376387 209.432487 
L 91.758496 216.744041 
L 92.140605 203.222879 
L 92.522714 194.256308 
L 92.904823 200.576436 
L 93.286932 187.779876 
L 93.669041 220.332419 
L 94.05115 188.912106 
L 94.433258 207.405677 
L 95.197476 174.773644 
L 95.579585 208.396042 
L 95.961694 195.928057 
L 96.725912 191.60235 
L 97.108021 203.526007 
L 97.49013 196.366358 
L 97.872239 191.483526 
L 98.254348 167.526492 
L 98.636457 153.740802 
L 99.018566 164.435526 
L 99.400675 199.702617 
L 99.782784 148.028188 
L 100.164893 127.579968 
L 100.547002 116.209779 
L 100.929111 156.032599 
L 101.311219 150.988766 
L 101.693328 161.046418 
L 102.075437 195.498214 
L 102.457546 181.597409 
L 102.839655 155.484225 
L 103.221764 249.35207 
L 103.603873 186.042929 
L 103.985982 266.446164 
L 104.7502 166.771181 
L 105.132309 197.892951 
L 105.514418 196.964502 
L 105.896527 261.820054 
L 106.278636 214.805467 
L 106.660745 215.665788 
L 107.042854 205.99808 
L 107.424963 200.135243 
L 107.807072 209.699311 
L 108.18918 238.291682 
L 108.571289 206.22659 
L 108.953398 231.284915 
L 109.335507 202.628723 
L 109.717616 216.198392 
L 110.099725 240.855375 
L 110.481834 247.81494 
L 110.863943 197.972097 
L 111.246052 210.519509 
L 111.628161 308.149063 
L 112.01027 247.81494 
L 112.392379 247.81494 
L 112.774488 246.377051 
L 113.156597 216.019439 
L 113.538706 196.813454 
L 113.920815 209.432487 
L 114.302924 217.303389 
L 114.685033 207.649172 
L 115.067142 222.84868 
L 115.44925 268.229479 
L 115.831359 264.795073 
L 116.213468 287.734523 
L 116.595577 216.560669 
L 117.359795 240.855375 
L 117.741904 234.719321 
L 118.124013 272.29152 
L 118.506122 218.466064 
L 118.888231 308.149063 
L 119.27034 231.641395 
L 119.652449 223.092174 
L 120.034558 249.35207 
L 120.416667 228.621503 
L 120.798776 236.884085 
L 121.180885 277.263057 
L 121.562994 245.026362 
L 121.945103 292.70606 
L 122.327211 274.638905 
L 122.70932 233.909067 
L 123.855647 259.195902 
L 124.237756 280.238075 
L 124.619865 263.257943 
L 125.001974 292.70606 
L 125.766192 272.29152 
L 126.148301 277.263057 
L 126.53041 272.29152 
L 126.530972 346.6 
M 127.294183 346.6 
L 127.294628 287.734523 
L 127.676737 308.149063 
L 128.058846 308.149063 
L 128.059137 346.6 
M 128.822773 346.6 
L 128.823064 308.149063 
L 129.205172 277.263057 
L 129.587281 272.29152 
L 129.96939 277.263057 
L 130.351499 252.786477 
L 130.733608 268.229479 
L 130.734201 346.6 
M 131.497535 346.6 
L 131.497826 308.149063 
L 131.879935 256.848518 
L 133.026262 223.839045 
L 133.408371 232.371937 
L 133.79048 283.672482 
L 134.172589 230.588622 
L 134.554698 283.672482 
L 134.936807 256.848518 
L 135.701025 229.58336 
L 136.083133 227.105303 
L 136.465242 264.795073 
L 137.22946 221.441083 
L 137.611569 241.405515 
L 137.993678 308.149063 
L 138.375787 231.641395 
L 138.757896 217.493004 
L 139.140005 274.638905 
L 139.904223 234.719321 
L 140.286332 228.93753 
L 140.668441 246.377051 
L 141.05055 249.35207 
L 141.432659 245.691473 
L 142.196877 206.926528 
L 142.578986 230.934048 
L 142.961095 217.684245 
L 143.343203 245.026362 
L 143.725312 226.242761 
L 144.107421 224.611823 
L 144.48953 255.761495 
L 144.871639 224.875489 
L 145.253748 216.560669 
L 145.635857 215.665788 
L 146.017966 227.105303 
L 146.400075 277.263057 
L 146.782184 229.58336 
L 147.164293 228.93753 
L 147.546402 218.071726 
L 147.928511 202.628723 
L 148.31062 197.735498 
L 148.692729 213.1785 
L 149.074838 214.805467 
L 149.456947 209.699311 
L 149.839056 250.162324 
L 150.221164 200.135243 
L 150.603273 222.369531 
L 150.985382 255.761495 
L 151.367491 245.026362 
L 151.7496 205.547973 
L 152.131709 261.820054 
L 152.513818 202.628723 
L 152.895927 261.820054 
L 153.278036 205.106779 
L 153.660145 232.371937 
L 154.042254 202.43414 
L 154.424363 214.805467 
L 154.806472 198.779415 
L 155.188581 227.69946 
L 155.57069 213.815102 
L 155.952799 253.734685 
L 156.334908 191.014465 
L 156.717017 237.343474 
L 157.099125 249.35207 
L 157.481234 181.483641 
L 157.863343 196.514395 
L 158.245452 199.194316 
L 158.627561 183.751313 
L 159.00967 249.35207 
L 159.391779 190.783587 
L 159.773888 240.318492 
L 160.155997 223.33836 
L 160.538106 164.647713 
L 160.920215 170.277362 
L 161.302324 186.417384 
L 162.066542 90.734988 
L 162.448651 151.672841 
L 162.83076 136.777373 
L 163.212869 169.336779 
L 163.594978 173.495516 
L 163.977087 172.286751 
L 164.359195 204.249768 
L 164.741304 187.729754 
L 165.123413 201.301038 
L 165.505522 199.027427 
L 165.887631 184.60504 
L 166.26974 225.412372 
L 166.651849 195.928057 
L 167.033958 233.127248 
L 167.416067 239.282047 
L 167.798176 224.875489 
L 168.180285 198.372099 
L 168.562394 224.351241 
L 168.944503 214.47043 
L 169.326612 238.781363 
L 169.708721 194.799738 
L 170.09083 191.60235 
L 170.472939 189.773258 
L 170.855048 224.093671 
L 171.237156 186.417384 
L 171.619265 202.43414 
L 172.001374 224.875489 
L 172.383483 272.29152 
L 172.765592 208.650668 
L 173.147701 215.145619 
L 173.52981 235.992785 
L 173.911919 211.957398 
L 174.294028 247.81494 
L 174.676137 224.351241 
L 175.058246 240.318492 
L 175.440355 184.60504 
L 175.822464 193.85726 
L 176.204573 277.263057 
L 176.586682 247.81494 
L 176.968791 201.485932 
L 177.3509 246.377051 
L 177.733009 216.198392 
L 178.115117 249.35207 
L 178.497226 220.117156 
L 178.879335 233.127248 
L 179.261444 237.343474 
L 179.643553 274.638905 
L 180.025662 283.672482 
L 180.407771 239.282047 
L 180.78988 233.909067 
L 181.171989 308.149063 
L 181.554098 231.641395 
L 181.936207 247.81494 
L 182.318316 259.195902 
L 182.700425 251.876981 
L 183.082534 252.786477 
L 183.464643 277.263057 
L 183.846752 292.70606 
L 184.228861 268.229479 
L 184.61097 292.70606 
L 184.993078 247.81494 
L 185.375187 264.795073 
L 185.757296 272.29152 
L 186.139405 261.820054 
L 186.140046 346.6 
M 186.903216 346.6 
L 186.903623 292.70606 
L 187.285732 308.149063 
L 187.667841 308.149063 
L 188.04995 277.263057 
L 188.050474 346.6 
M 188.813877 346.6 
L 188.814168 308.149063 
L 189.196277 270.168053 
L 189.578386 264.795073 
L 189.960495 272.29152 
L 190.342604 268.229479 
L 190.724713 253.734685 
L 191.106822 257.991309 
L 191.488931 254.72505 
L 191.87104 264.795073 
L 192.253148 292.70606 
L 192.635257 308.149063 
L 193.399475 222.84868 
L 193.781584 272.29152 
L 194.163693 243.142462 
L 194.545802 272.29152 
L 194.927911 283.672482 
L 195.31002 247.084398 
L 195.692129 236.433978 
L 196.074238 240.318492 
L 196.456347 247.81494 
L 197.220565 277.263057 
L 197.602674 256.848518 
L 197.984783 242.548306 
L 198.366892 237.343474 
L 198.749001 245.026362 
L 199.131109 237.812534 
L 199.513218 245.026362 
L 199.895327 292.70606 
L 200.277436 215.145619 
L 200.659545 250.162324 
L 201.041654 236.884085 
L 201.423763 231.284915 
L 201.805872 229.58336 
L 202.187981 277.263057 
L 202.57009 256.848518 
L 202.952199 242.548306 
L 203.334308 237.812534 
L 203.716417 323.592065 
L 204.098526 222.369531 
L 204.480635 232.371937 
L 204.862744 272.29152 
L 205.244853 263.257943 
L 205.626962 283.672482 
L 206.00907 228.93753 
L 206.391179 242.548306 
L 206.773288 230.24847 
L 207.155397 229.913433 
L 207.537506 251.876981 
L 207.919615 233.127248 
L 208.301724 260.469365 
L 208.683833 226.242761 
L 209.065942 283.672482 
L 209.448051 201.860386 
L 209.83016 264.795073 
L 210.212269 235.560159 
L 210.594378 277.263057 
L 210.976487 225.962512 
L 211.358596 237.343474 
L 212.122814 206.457468 
L 212.504923 190.956521 
L 212.887032 233.909067 
L 213.26914 197.579149 
L 213.651249 254.72505 
L 214.033358 208.650668 
L 214.415467 199.531891 
L 214.797576 238.781363 
L 215.179685 210.799759 
L 215.561794 201.209163 
L 215.943903 242.548306 
L 216.326012 226.526581 
L 216.708121 200.048043 
L 217.09023 206.690764 
L 217.472339 218.466064 
L 217.854448 223.33836 
L 219.000775 208.144293 
L 219.382884 230.934048 
L 219.764993 215.841912 
L 220.147101 216.560669 
L 220.52921 200.665733 
L 220.911319 193.207665 
L 221.293428 207.164815 
L 221.675537 240.318492 
L 222.057646 185.858035 
L 222.439755 244.380533 
L 222.821864 203.222879 
L 223.203973 206.690764 
L 223.586082 221.669593 
L 223.968191 277.263057 
L 224.3503 210.519509 
L 224.732409 280.238075 
L 225.114518 211.083578 
L 225.496627 214.140357 
L 225.878736 208.396042 
L 226.260845 230.588622 
L 226.642954 229.58336 
L 227.025062 287.734523 
L 227.407171 187.234632 
L 227.78928 209.038148 
L 228.171389 189.71845 
L 228.553498 202.43414 
L 228.935607 183.835229 
L 229.317716 213.494528 
L 229.699825 215.491046 
L 230.464043 198.861779 
L 230.846152 195.928057 
L 231.228261 190.10497 
L 231.229442 346.6 
M 231.991809 346.6 
L 231.992479 257.991309 
L 232.374588 200.845408 
L 232.756697 216.560669 
L 233.138806 183.919461 
L 233.520915 179.49469 
L 233.903023 212.256457 
L 234.285132 220.549782 
L 234.667241 171.451477 
L 235.04935 205.77189 
L 235.813568 177.16461 
L 236.195677 218.665882 
L 236.577786 216.928934 
L 237.724113 184.431657 
L 238.488331 231.641395 
L 238.87044 277.263057 
L 239.252549 210.105636 
L 239.634658 184.735968 
L 240.016767 206.22659 
L 240.398876 205.884698 
L 240.780985 215.491046 
L 241.163093 160.288588 
L 241.545202 174.139014 
L 241.927311 175.981347 
L 242.30942 203.222879 
L 242.691529 148.643306 
L 243.073638 167.934553 
L 243.455747 165.078249 
L 243.837856 208.396042 
L 244.219965 184.955906 
L 244.602074 144.809091 
L 244.984183 203.424505 
L 245.366292 141.325772 
L 245.748401 138.227131 
L 246.13051 148.931013 
L 246.512619 127.272475 
L 246.894728 148.834698 
L 247.276837 148.966141 
L 247.658946 193.595145 
L 248.041054 193.595145 
L 248.423163 148.966141 
L 248.805272 148.834698 
L 249.187381 127.272475 
L 249.56949 148.931013 
L 249.951599 138.227131 
L 250.333708 141.325772 
L 250.715817 203.424505 
L 251.097926 144.809091 
L 251.480035 184.955906 
L 251.862144 208.396042 
L 252.244253 165.078249 
L 252.626362 167.934553 
L 253.008471 148.643306 
L 253.39058 203.222879 
L 253.772689 175.981347 
L 254.154798 174.139014 
L 254.536907 160.288588 
L 254.919015 215.491046 
L 255.301124 205.884698 
L 255.683233 206.22659 
L 256.065342 184.735968 
L 256.447451 210.105636 
L 256.82956 277.263057 
L 257.211669 231.641395 
L 257.975887 184.431657 
L 258.357996 192.638795 
L 259.122214 216.928934 
L 259.504323 218.665882 
L 259.886432 177.16461 
L 260.65065 205.77189 
L 261.032759 171.451477 
L 261.414868 220.549782 
L 261.796977 212.256457 
L 262.179085 179.49469 
L 262.561194 183.919461 
L 262.943303 216.560669 
L 263.325412 200.845408 
L 263.707521 257.991309 
L 263.708191 346.6 
M 264.470558 346.6 
L 264.471739 190.10497 
L 264.853848 195.928057 
L 265.235957 198.861779 
L 266.000175 215.491046 
L 266.382284 213.494528 
L 266.764393 183.835229 
L 267.146502 202.43414 
L 267.528611 189.71845 
L 267.91072 209.038148 
L 268.292829 187.234632 
L 268.674938 287.734523 
L 269.057046 229.58336 
L 269.439155 230.588622 
L 269.821264 208.396042 
L 270.203373 214.140357 
L 270.585482 211.083578 
L 270.967591 280.238075 
L 271.3497 210.519509 
L 271.731809 277.263057 
L 272.113918 221.669593 
L 272.496027 206.690764 
L 272.878136 203.222879 
L 273.260245 244.380533 
L 273.642354 185.858035 
L 274.024463 240.318492 
L 274.406572 207.164815 
L 274.788681 193.207665 
L 275.17079 200.665733 
L 275.552899 216.560669 
L 275.935007 215.841912 
L 276.317116 230.934048 
L 276.699225 208.144293 
L 277.845552 223.33836 
L 278.227661 218.466064 
L 278.60977 206.690764 
L 278.991879 200.048043 
L 279.373988 226.526581 
L 279.756097 242.548306 
L 280.138206 201.209163 
L 280.520315 210.799759 
L 280.902424 238.781363 
L 281.284533 199.531891 
L 281.666642 208.650668 
L 282.048751 254.72505 
L 282.43086 197.579149 
L 282.812968 233.909067 
L 283.195077 190.956521 
L 284.341404 237.343474 
L 284.723513 225.962512 
L 285.105622 277.263057 
L 285.487731 235.560159 
L 285.86984 264.795073 
L 286.251949 217.493004 
L 286.634058 283.672482 
L 287.016167 203.627973 
L 287.398276 251.003162 
L 287.780385 232.371937 
L 288.162494 277.263057 
L 288.544603 241.405515 
L 288.926712 232.371937 
L 289.69093 200.576436 
L 290.455147 251.876981 
L 290.837256 249.35207 
L 291.219365 224.351241 
L 291.983583 268.229479 
L 292.365692 233.909067 
L 292.747801 210.519509 
L 293.894128 259.195902 
L 294.276237 230.934048 
L 294.658346 233.127248 
L 295.040455 241.405515 
L 295.422564 240.855375 
L 295.804673 251.003162 
L 296.186782 308.149063 
L 296.568891 236.433978 
L 296.950999 239.794243 
L 297.333108 229.58336 
L 297.715217 245.026362 
L 298.097326 240.855375 
L 298.479435 234.719321 
L 298.861544 224.875489 
L 299.243653 239.282047 
L 299.625762 323.592065 
L 300.007871 299.115485 
L 300.38998 254.72505 
L 300.772089 232.371937 
L 301.154198 292.70606 
L 301.536307 292.70606 
L 301.918416 247.084398 
L 302.300525 283.672482 
L 302.682634 308.149063 
L 303.064743 272.29152 
L 303.82896 292.70606 
L 304.211069 264.795073 
L 304.593178 283.672482 
L 304.975287 272.29152 
L 305.357396 253.734685 
L 305.739505 283.672482 
L 306.121614 277.263057 
L 306.503723 308.149063 
L 307.267941 292.70606 
L 307.268349 346.6 
M 308.0318 346.6 
L 308.032159 299.115485 
L 308.414268 299.115485 
L 308.796377 308.149063 
L 308.796668 346.6 
M 309.560304 346.6 
L 309.560595 308.149063 
L 309.942704 233.127248 
L 310.324813 287.734523 
L 310.706922 227.69946 
L 311.08903 292.70606 
L 311.471139 292.70606 
L 311.853248 261.820054 
L 312.235357 264.795073 
L 312.617466 249.35207 
L 312.999575 259.195902 
L 313.381684 241.969584 
L 313.763793 256.848518 
L 314.145902 254.72505 
L 314.528011 264.795073 
L 314.91012 283.672482 
L 315.292229 231.641395 
L 315.674338 264.795073 
L 316.056447 256.848518 
L 316.438556 237.343474 
L 316.820665 233.127248 
L 317.202774 220.117156 
L 317.584883 249.35207 
L 317.966991 216.198392 
L 318.3491 246.377051 
L 318.731209 201.485932 
L 319.113318 247.81494 
L 319.495427 277.263057 
L 319.877536 193.85726 
L 320.259645 184.60504 
L 320.641754 240.318492 
L 321.023863 224.351241 
L 321.405972 247.81494 
L 321.788081 211.957398 
L 322.17019 235.992785 
L 322.552299 215.145619 
L 322.934408 208.650668 
L 323.316517 272.29152 
L 323.698626 224.875489 
L 324.462844 186.417384 
L 324.844952 224.093671 
L 325.227061 189.773258 
L 325.60917 191.60235 
L 325.991279 194.799738 
L 326.373388 238.781363 
L 326.755497 214.47043 
L 327.137606 224.351241 
L 327.519715 198.372099 
L 327.901824 224.875489 
L 328.283933 239.282047 
L 328.666042 233.127248 
L 329.048151 195.928057 
L 329.43026 225.412372 
L 329.812369 184.60504 
L 330.194478 199.027427 
L 330.576587 201.301038 
L 330.958696 187.729754 
L 331.340805 204.249768 
L 331.722913 172.286751 
L 332.105022 173.495516 
L 332.487131 169.336779 
L 332.86924 136.777373 
L 333.251349 151.672841 
L 333.633458 90.734988 
L 334.397676 186.417384 
L 334.779785 170.277362 
L 335.161894 164.647713 
L 335.544003 223.33836 
L 335.926112 240.318492 
L 336.308221 190.783587 
L 336.69033 249.35207 
L 337.072439 183.751313 
L 337.454548 199.194316 
L 337.836657 196.514395 
L 338.218766 181.483641 
L 338.600875 249.35207 
L 338.982983 237.343474 
L 339.365092 191.014465 
L 339.747201 253.734685 
L 340.12931 213.815102 
L 340.511419 227.69946 
L 340.893528 198.779415 
L 341.275637 214.805467 
L 341.657746 202.43414 
L 342.039855 232.371937 
L 342.421964 205.106779 
L 342.804073 261.820054 
L 343.186182 202.628723 
L 343.568291 261.820054 
L 343.9504 205.547973 
L 344.332509 245.026362 
L 344.714618 255.761495 
L 345.096727 222.369531 
L 345.478836 200.135243 
L 345.860944 250.162324 
L 346.243053 209.699311 
L 346.625162 214.805467 
L 347.007271 213.1785 
L 347.38938 197.735498 
L 347.771489 202.628723 
L 348.153598 218.071726 
L 348.535707 228.93753 
L 348.917816 229.58336 
L 349.299925 277.263057 
L 349.682034 227.105303 
L 350.064143 215.665788 
L 350.446252 216.560669 
L 350.828361 224.875489 
L 351.21047 255.761495 
L 351.592579 224.611823 
L 351.974688 226.242761 
L 352.356797 245.026362 
L 352.738905 217.684245 
L 353.121014 230.934048 
L 353.503123 206.926528 
L 354.267341 245.691473 
L 354.64945 249.35207 
L 355.031559 246.377051 
L 355.413668 228.93753 
L 355.795777 234.719321 
L 356.559995 274.638905 
L 356.942104 217.493004 
L 357.324213 231.641395 
L 357.706322 308.149063 
L 358.088431 241.405515 
L 358.47054 221.441083 
L 359.234758 264.795073 
L 359.616867 227.105303 
L 359.998975 229.58336 
L 360.763193 256.848518 
L 361.145302 283.672482 
L 361.527411 230.588622 
L 361.90952 283.672482 
L 362.291629 232.371937 
L 362.673738 261.820054 
L 363.055847 280.238075 
L 363.437956 280.238075 
L 363.820065 259.195902 
L 364.202174 260.469365 
L 364.202825 346.6 
M 364.965683 346.6 
L 364.966392 252.786477 
L 365.348501 263.257943 
L 365.73061 299.115485 
L 366.112719 287.734523 
L 366.494828 292.70606 
L 366.495235 346.6 
M 367.640863 346.6 
L 367.641154 308.149063 
L 367.641445 346.6 
M 368.40481 346.6 
L 368.405372 272.29152 
L 368.787481 308.149063 
L 369.16959 261.820054 
L 369.551699 272.29152 
L 369.933808 277.263057 
L 370.315917 252.786477 
L 370.698026 272.29152 
L 371.080135 277.263057 
L 371.462244 252.786477 
L 371.844353 241.405515 
L 372.226462 261.820054 
L 372.608571 227.69946 
L 372.99068 268.229479 
L 373.372789 261.820054 
L 373.754897 239.282047 
L 374.137006 266.446164 
L 374.519115 283.672482 
L 374.901224 266.446164 
L 375.283333 241.405515 
L 375.665442 277.263057 
L 376.047551 225.685744 
L 376.42966 323.592065 
L 376.811769 256.848518 
L 377.193878 221.214892 
L 377.575987 218.268022 
L 377.958096 239.282047 
L 378.340205 241.405515 
L 378.722314 209.969369 
L 379.104423 215.841912 
L 379.486532 239.282047 
L 379.868641 212.866893 
L 380.25075 274.638905 
L 380.632858 223.587296 
L 381.014967 209.300263 
L 381.397076 200.048043 
L 381.779185 208.650668 
L 382.161294 240.318492 
L 382.543403 259.195902 
L 382.925512 208.144293 
L 383.307621 243.752899 
L 383.68973 205.99808 
L 384.071839 251.003162 
L 384.453948 199.447017 
L 384.836057 200.755389 
L 385.218166 232.371937 
L 385.600275 227.69946 
L 385.982384 210.380695 
L 386.364493 221.669593 
L 386.746602 237.343474 
L 387.128711 201.301038 
L 387.51082 283.672482 
L 387.892928 174.030465 
L 388.275037 214.805467 
L 388.657146 213.1785 
L 389.039255 180.960272 
L 389.803473 203.627973 
L 390.185582 201.860386 
L 390.567691 198.534133 
L 390.9498 205.326284 
L 391.331909 201.026543 
L 391.714018 173.761385 
L 392.096127 224.093671 
L 392.478236 193.336078 
L 392.860345 204.355109 
L 393.242454 165.187196 
L 393.624563 152.266192 
L 394.006672 158.506396 
L 394.388781 159.163335 
L 394.770889 158.533386 
L 395.152998 118.343147 
L 395.535107 106.991107 
L 396.681434 216.928934 
L 397.063543 164.736725 
L 397.445652 162.193983 
L 397.827761 168.037747 
L 398.20987 161.940803 
L 398.591979 199.61709 
L 398.974088 182.929096 
L 399.356197 174.717736 
L 399.738306 198.372099 
L 400.120415 173.681291 
L 400.502524 194.189302 
L 400.884633 192.452354 
L 401.266742 207.405677 
L 401.64885 188.912106 
L 402.030959 220.332419 
L 402.413068 187.779876 
L 402.795177 200.576436 
L 403.177286 194.256308 
L 403.559395 203.222879 
L 403.941504 216.744041 
L 404.323613 209.432487 
L 404.705722 208.144293 
L 405.087831 191.60235 
L 405.46994 213.1785 
L 405.852049 219.276319 
L 406.234158 199.702617 
L 406.616267 216.928934 
L 406.998376 202.628723 
L 407.380485 214.140357 
L 407.762594 207.649172 
L 408.144703 251.876981 
L 408.526812 240.855375 
L 408.90892 224.875489 
L 409.291029 198.051525 
L 409.673138 216.928934 
L 410.055247 308.149063 
L 410.437356 212.106426 
L 410.819465 234.310511 
L 411.201574 218.071726 
L 411.583683 196.964502 
L 411.965792 229.58336 
L 412.347901 218.071726 
L 412.73001 245.026362 
L 413.112119 229.58336 
L 413.494228 221.214892 
L 413.876337 261.820054 
L 414.258446 244.380533 
L 414.640555 214.47043 
L 415.022664 220.990975 
L 415.404773 209.969369 
L 415.786881 230.588622 
L 416.16899 261.820054 
L 416.551099 212.256457 
L 417.315317 254.72505 
L 417.697426 232.371937 
L 418.079535 252.786477 
L 418.461644 220.117156 
L 418.843753 252.786477 
L 419.225862 239.282047 
L 419.99008 308.149063 
L 420.372189 254.72505 
L 421.136407 216.560669 
L 421.518516 235.560159 
L 421.900625 260.469365 
L 422.282734 308.149063 
L 423.046951 259.195902 
L 423.42906 268.229479 
L 423.811169 241.405515 
L 424.193278 308.149063 
L 424.575387 266.446164 
L 424.957496 245.026362 
L 425.339605 292.70606 
L 425.721714 277.263057 
L 426.103823 268.229479 
L 426.485932 308.149063 
L 426.868041 287.734523 
L 427.25015 323.592065 
L 427.250324 346.6 
M 428.396031 346.6 
L 428.396477 287.734523 
L 428.396922 346.6 
M 429.160076 346.6 
L 429.160695 264.795073 
L 429.542803 283.672482 
L 429.924912 283.672482 
L 430.68913 243.752899 
L 431.071239 251.876981 
L 431.453348 268.229479 
L 431.835457 277.263057 
L 432.217566 292.70606 
L 432.599675 277.263057 
L 432.981784 292.70606 
L 433.363893 280.238075 
L 433.746002 260.469365 
L 434.128111 247.81494 
L 434.51022 253.734685 
L 434.892329 230.934048 
L 435.274438 225.962512 
L 435.656547 245.026362 
L 436.038656 237.343474 
L 436.420765 239.794243 
L 436.802873 238.291682 
L 437.184982 246.377051 
L 437.567091 225.412372 
L 437.9492 251.003162 
L 438.331309 226.526581 
L 438.713418 256.848518 
L 438.713418 256.848518 
" clip-path="url(#p71421ba7fd)" style="fill: none; stroke: #1f77b4; stroke-width: 1.5; stroke-linecap: square"/>
   </g>
   <g id="line2d_66">
    <path d="M 56.986582 264.795073 
L 57.368691 184.60504 
L 57.7508 254.72505 
L 58.132909 197.269706 
L 58.515018 259.195902 
L 58.897127 238.291682 
L 59.279235 194.937692 
L 59.661344 218.071726 
L 60.043453 261.820054 
L 60.425562 223.839045 
L 61.18978 257.991309 
L 61.571889 308.149063 
L 61.953998 266.446164 
L 62.718216 217.877143 
L 63.100325 256.848518 
L 63.482434 270.168053 
L 63.864543 218.665882 
L 64.246652 272.29152 
L 64.628761 242.548306 
L 65.01087 243.142462 
L 65.392979 243.142462 
L 65.775088 272.29152 
L 66.157197 242.548306 
L 66.539305 283.672482 
L 66.921414 270.168053 
L 67.303523 277.263057 
L 67.685632 264.795073 
L 68.067741 292.70606 
L 68.44985 261.820054 
L 69.214068 272.29152 
L 69.596177 239.282047 
L 69.978286 260.469365 
L 70.360395 259.195902 
L 70.742504 259.195902 
L 71.124613 230.24847 
L 71.506722 272.29152 
L 71.888831 231.284915 
L 72.27094 277.263057 
L 72.653049 255.761495 
L 73.035158 256.848518 
L 73.417266 280.238075 
L 73.799375 247.084398 
L 74.181484 235.560159 
L 74.563593 214.140357 
L 74.945702 241.405515 
L 75.327811 226.814063 
L 75.70992 253.734685 
L 76.092029 219.903953 
L 76.474138 207.771924 
L 76.856247 308.149063 
L 77.238356 233.127248 
L 77.620465 308.149063 
L 78.002574 239.282047 
L 78.384683 221.441083 
L 78.766792 231.641395 
L 79.53101 187.679743 
L 79.913119 222.369531 
L 80.295227 214.47043 
L 80.677336 176.040523 
L 81.059445 225.962512 
L 81.441554 218.867508 
L 81.823663 242.548306 
L 82.205772 176.763166 
L 82.587881 239.282047 
L 82.96999 196.366358 
L 83.352099 206.457468 
L 83.734208 245.026362 
L 84.116317 197.735498 
L 84.498426 206.926528 
L 84.880535 231.284915 
L 85.262644 207.164815 
L 85.644753 245.026362 
L 86.026862 215.491046 
L 86.408971 156.483692 
L 86.79108 214.637319 
L 87.173188 216.198392 
L 87.555297 232.003672 
L 88.319515 216.560669 
L 88.701624 185.088919 
L 89.083733 225.412372 
L 89.465842 207.527092 
L 89.847951 224.875489 
L 90.23006 220.549782 
L 90.612169 195.356756 
L 90.994278 228.93753 
L 91.376387 216.560669 
L 91.758496 217.303389 
L 92.522714 197.193012 
L 92.904823 207.649172 
L 93.286932 189.446413 
L 93.669041 224.875489 
L 94.05115 192.826809 
L 94.433258 185.402405 
L 94.815367 196.964502 
L 95.197476 154.269718 
L 95.961694 177.195792 
L 96.343803 160.686579 
L 96.725912 196.663423 
L 97.108021 185.95029 
L 97.49013 225.962512 
L 98.254348 164.330185 
L 98.636457 156.570071 
L 99.400675 189.124294 
L 99.782784 117.535355 
L 100.164893 121.605545 
L 100.547002 118.780962 
L 100.929111 126.064388 
L 101.311219 125.002233 
L 101.693328 165.260124 
L 102.075437 190.441695 
L 102.457546 183.009966 
L 102.839655 154.370303 
L 103.221764 181.826703 
L 103.603873 180.630199 
L 103.985982 277.263057 
L 104.368091 163.020747 
L 104.7502 162.54687 
L 105.132309 200.576436 
L 105.514418 199.531891 
L 105.896527 202.628723 
L 106.278636 167.12577 
L 106.660745 229.58336 
L 107.424963 204.355109 
L 107.807072 200.048043 
L 108.18918 234.719321 
L 108.571289 202.92382 
L 108.953398 216.198392 
L 109.335507 198.211235 
L 109.717616 245.026362 
L 110.099725 192.576474 
L 110.481834 239.282047 
L 110.863943 200.310673 
L 111.246052 197.42389 
L 111.628161 259.195902 
L 112.01027 257.991309 
L 112.392379 236.433978 
L 112.774488 205.106779 
L 113.156597 219.276319 
L 113.538706 193.079988 
L 114.302924 232.371937 
L 114.685033 206.808334 
L 115.067142 222.607817 
L 115.44925 228.93753 
L 115.831359 292.70606 
L 116.213468 308.149063 
L 116.595577 201.860386 
L 116.977686 214.637319 
L 117.359795 231.641395 
L 117.741904 226.814063 
L 118.124013 268.229479 
L 118.506122 212.712709 
L 118.888231 272.29152 
L 119.27034 220.332419 
L 119.652449 222.133767 
L 120.034558 256.848518 
L 120.416667 229.913433 
L 120.798776 238.291682 
L 121.180885 280.238075 
L 121.562994 215.665788 
L 121.945103 254.72505 
L 122.327211 261.820054 
L 122.70932 227.69946 
L 123.091429 252.786477 
L 123.473538 230.24847 
L 123.855647 272.29152 
L 124.237756 272.29152 
L 124.619865 266.446164 
L 125.001974 277.263057 
L 125.384083 308.149063 
L 125.766192 245.026362 
L 125.76696 346.6 
M 126.529886 346.6 
L 126.53041 277.263057 
L 126.912519 252.786477 
L 127.294628 287.734523 
L 127.676737 266.446164 
L 127.677343 346.6 
M 128.440336 346.6 
L 128.440955 264.795073 
L 128.823064 287.734523 
L 129.205172 249.35207 
L 129.587281 308.149063 
L 129.96939 277.263057 
L 130.351499 256.848518 
L 130.733608 253.734685 
L 131.115717 268.229479 
L 131.497826 251.003162 
L 131.879935 251.003162 
L 132.262044 266.446164 
L 132.644153 235.560159 
L 133.026262 225.962512 
L 133.408371 308.149063 
L 133.79048 218.867508 
L 134.172589 215.841912 
L 134.554698 263.257943 
L 134.936807 283.672482 
L 135.318916 268.229479 
L 135.701025 209.432487 
L 136.083133 226.526581 
L 136.465242 283.672482 
L 136.847351 233.514728 
L 137.22946 215.317663 
L 137.611569 242.548306 
L 137.993678 216.928934 
L 138.375787 234.310511 
L 138.757896 217.684245 
L 139.140005 251.003162 
L 139.522114 261.820054 
L 139.904223 233.127248 
L 140.286332 228.309896 
L 140.668441 251.003162 
L 141.05055 283.672482 
L 141.432659 233.909067 
L 141.814768 227.105303 
L 142.196877 192.576474 
L 142.578986 227.400401 
L 142.961095 214.47043 
L 143.343203 207.164815 
L 143.725312 219.692771 
L 144.107421 256.848518 
L 144.871639 174.970436 
L 145.253748 218.466064 
L 145.635857 208.779081 
L 146.017966 184.388522 
L 146.400075 251.003162 
L 146.782184 206.457468 
L 147.164293 187.088216 
L 147.546402 220.549782 
L 147.928511 198.211235 
L 148.31062 199.61709 
L 148.692729 212.559584 
L 149.074838 206.34173 
L 149.456947 163.982603 
L 149.839056 308.149063 
L 150.221164 199.788472 
L 150.603273 246.377051 
L 150.985382 231.641395 
L 151.367491 245.691473 
L 151.7496 216.560669 
L 152.131709 225.412372 
L 152.513818 203.424505 
L 152.895927 216.928934 
L 153.278036 213.815102 
L 153.660145 224.875489 
L 154.042254 202.82502 
L 154.424363 240.318492 
L 154.806472 184.86767 
L 155.188581 225.962512 
L 155.57069 170.692951 
L 155.952799 149.945323 
L 156.334908 202.82502 
L 156.717017 221.441083 
L 157.099125 167.32523 
L 157.481234 247.81494 
L 157.863343 185.58354 
L 158.245452 204.040569 
L 158.627561 184.51818 
L 159.00967 217.877143 
L 159.391779 169.82451 
L 159.773888 165.260124 
L 160.155997 201.485932 
L 160.538106 171.355237 
L 161.302324 178.746299 
L 161.684433 144.490496 
L 162.066542 90.019614 
L 162.448651 165.927448 
L 162.83076 132.176068 
L 163.212869 177.893075 
L 163.594978 174.857771 
L 164.359195 157.999718 
L 164.741304 218.867508 
L 165.123413 213.1785 
L 165.505522 223.33836 
L 165.887631 183.254351 
L 166.26974 129.453774 
L 166.651849 198.697354 
L 167.033958 241.405515 
L 167.416067 179.185485 
L 167.798176 202.337483 
L 168.180285 194.122496 
L 168.562394 193.143735 
L 168.944503 188.083004 
L 169.326612 192.452354 
L 169.708721 177.320958 
L 170.09083 192.023299 
L 170.472939 174.440278 
L 170.855048 202.145417 
L 171.237156 176.947549 
L 171.619265 207.895357 
L 172.001374 195.21619 
L 172.383483 225.412372 
L 172.765592 203.526007 
L 173.147701 211.083578 
L 173.52981 181.145781 
L 173.911919 208.650668 
L 174.294028 268.229479 
L 174.676137 191.962674 
L 175.058246 239.282047 
L 175.440355 184.60504 
L 175.822464 228.309896 
L 176.204573 256.848518 
L 176.586682 272.29152 
L 176.968791 198.211235 
L 177.3509 252.786477 
L 177.733009 205.326284 
L 178.115117 252.786477 
L 178.497226 224.351241 
L 178.879335 234.719321 
L 179.261444 238.291682 
L 179.643553 280.238075 
L 180.025662 308.149063 
L 180.407771 242.548306 
L 180.78988 259.195902 
L 181.171989 323.592065 
L 181.554098 236.433978 
L 181.936207 251.003162 
L 182.318316 272.29152 
L 182.700425 247.084398 
L 183.082534 233.127248 
L 183.083391 346.6 
M 183.846344 346.6 
L 183.846752 292.70606 
L 184.228861 246.377051 
L 184.61097 236.433978 
L 184.993078 251.003162 
L 185.375187 249.35207 
L 185.757296 232.371937 
L 186.139405 256.848518 
L 186.521514 308.149063 
L 186.903623 272.29152 
L 187.285732 299.115485 
L 187.667841 270.168053 
L 188.04995 292.70606 
L 188.432059 299.115485 
L 188.814168 287.734523 
L 189.196277 283.672482 
L 189.578386 251.876981 
L 189.960495 277.263057 
L 190.342604 225.412372 
L 190.724713 253.734685 
L 191.106822 256.848518 
L 191.488931 272.29152 
L 191.87104 260.469365 
L 192.253148 299.115485 
L 192.635257 308.149063 
L 193.017366 241.405515 
L 193.399475 205.106779 
L 193.781584 221.441083 
L 194.163693 245.691473 
L 194.545802 308.149063 
L 194.927911 223.33836 
L 195.31002 247.81494 
L 195.692129 238.291682 
L 196.074238 251.003162 
L 196.456347 246.377051 
L 196.838456 222.369531 
L 197.220565 245.691473 
L 197.602674 240.318492 
L 197.984783 204.674153 
L 198.366892 241.405515 
L 198.749001 241.405515 
L 199.131109 231.641395 
L 199.513218 245.691473 
L 200.277436 218.466064 
L 200.659545 242.548306 
L 201.041654 224.093671 
L 201.423763 233.514728 
L 201.805872 191.721812 
L 202.187981 283.672482 
L 202.57009 255.761495 
L 202.952199 251.003162 
L 203.334308 224.875489 
L 203.716417 280.238075 
L 204.098526 214.974894 
L 204.480635 221.441083 
L 204.862744 277.263057 
L 205.244853 260.469365 
L 205.626962 272.29152 
L 206.00907 217.877143 
L 206.391179 205.106779 
L 206.773288 196.964502 
L 207.155397 219.276319 
L 207.537506 187.580058 
L 207.919615 202.050001 
L 208.301724 192.084089 
L 208.683833 228.002587 
L 209.065942 226.242761 
L 209.448051 199.531891 
L 209.83016 230.934048 
L 210.212269 227.69946 
L 210.594378 277.263057 
L 211.358596 202.050001 
L 211.740705 228.002587 
L 212.122814 211.083578 
L 212.504923 176.549963 
L 212.887032 247.81494 
L 213.26914 185.674663 
L 213.651249 277.263057 
L 214.033358 221.900471 
L 214.797576 180.090716 
L 215.179685 198.861779 
L 215.561794 201.301038 
L 215.943903 261.820054 
L 216.326012 214.637319 
L 216.708121 202.628723 
L 217.09023 207.527092 
L 217.472339 165.296678 
L 217.473707 346.6 
M 218.235643 346.6 
L 218.236557 225.685744 
L 218.618666 215.145619 
L 219.000775 215.665788 
L 219.382884 211.957398 
L 219.764993 232.746392 
L 220.147101 225.962512 
L 220.52921 199.61709 
L 220.911319 198.534133 
L 221.293428 182.529094 
L 221.675537 251.003162 
L 222.057646 191.247761 
L 222.439755 246.377051 
L 222.821864 201.209163 
L 223.203973 207.164815 
L 223.586082 221.214892 
L 223.968191 186.417384 
L 224.3503 168.476459 
L 224.732409 237.343474 
L 225.114518 184.388522 
L 225.496627 206.926528 
L 225.878736 178.152142 
L 226.260845 220.990975 
L 226.642954 277.263057 
L 227.025062 264.795073 
L 227.407171 225.962512 
L 227.78928 214.974894 
L 228.171389 190.385219 
L 228.553498 199.447017 
L 228.935607 176.189153 
L 229.317716 215.665788 
L 229.699825 183.793231 
L 230.081934 210.519509 
L 230.464043 194.662633 
L 230.846152 199.447017 
L 231.228261 198.211235 
L 231.61037 192.452354 
L 231.992479 180.304944 
L 232.374588 249.35207 
L 233.520915 162.807072 
L 233.903023 232.371937 
L 234.285132 215.841912 
L 234.667241 171.427378 
L 235.04935 209.699311 
L 235.431459 202.628723 
L 235.813568 179.949033 
L 236.195677 143.755084 
L 236.577786 209.699311 
L 236.959895 175.716986 
L 237.724113 209.300263 
L 238.106222 181.635461 
L 238.488331 264.795073 
L 238.87044 223.092174 
L 239.634658 193.923274 
L 240.016767 192.390552 
L 240.398876 213.494528 
L 241.163093 161.396804 
L 241.545202 175.629558 
L 241.927311 151.465404 
L 242.30942 175.863466 
L 242.691529 151.524475 
L 243.073638 169.557153 
L 243.455747 167.12577 
L 243.837856 173.050696 
L 244.219965 162.417899 
L 244.602074 131.835352 
L 244.984183 199.87466 
L 245.366292 142.902142 
L 245.748401 166.888751 
L 246.13051 154.025739 
L 246.512619 108.525375 
L 246.894728 147.087705 
L 247.276837 160.070515 
L 247.658946 96.538014 
L 248.041054 96.538014 
L 248.423163 160.070515 
L 248.805272 147.087705 
L 249.187381 108.525375 
L 249.56949 154.025739 
L 249.951599 166.888751 
L 250.333708 142.902142 
L 250.715817 199.87466 
L 251.097926 131.835352 
L 251.480035 162.417899 
L 251.862144 173.050696 
L 252.244253 167.12577 
L 252.626362 169.557153 
L 253.008471 151.524475 
L 253.39058 175.863466 
L 253.772689 151.465404 
L 254.154798 175.629558 
L 254.536907 161.396804 
L 255.301124 213.494528 
L 255.683233 192.390552 
L 256.065342 193.923274 
L 256.82956 223.092174 
L 257.211669 264.795073 
L 257.593778 181.635461 
L 257.975887 209.300263 
L 258.740105 175.716986 
L 259.122214 209.699311 
L 259.504323 143.755084 
L 259.886432 179.949033 
L 260.268541 202.628723 
L 260.65065 209.699311 
L 261.032759 171.427378 
L 261.414868 215.841912 
L 261.796977 232.371937 
L 262.179085 162.807072 
L 263.325412 249.35207 
L 263.707521 180.304944 
L 264.08963 192.452354 
L 264.471739 198.211235 
L 264.853848 199.447017 
L 265.235957 194.662633 
L 265.618066 210.519509 
L 266.000175 183.793231 
L 266.382284 215.665788 
L 266.764393 176.189153 
L 267.146502 199.447017 
L 267.528611 190.385219 
L 267.91072 214.974894 
L 268.292829 225.962512 
L 268.674938 264.795073 
L 269.057046 277.263057 
L 269.821264 178.152142 
L 270.203373 206.926528 
L 270.585482 184.388522 
L 270.967591 237.343474 
L 271.3497 168.476459 
L 271.731809 186.417384 
L 272.113918 221.214892 
L 272.496027 207.164815 
L 272.878136 201.209163 
L 273.260245 246.377051 
L 273.642354 191.247761 
L 274.024463 251.003162 
L 274.406572 182.529094 
L 274.788681 198.534133 
L 275.17079 199.61709 
L 275.552899 225.962512 
L 275.935007 232.746392 
L 276.317116 211.957398 
L 276.699225 215.665788 
L 277.081334 215.145619 
L 277.463443 225.685744 
L 277.464357 346.6 
M 278.226293 346.6 
L 278.227661 165.296678 
L 278.60977 207.527092 
L 278.991879 202.628723 
L 279.373988 214.637319 
L 279.756097 261.820054 
L 280.138206 201.301038 
L 280.520315 198.861779 
L 280.902424 180.090716 
L 281.666642 221.900471 
L 282.048751 277.263057 
L 282.43086 185.674663 
L 282.812968 247.81494 
L 283.195077 176.549963 
L 283.577186 211.083578 
L 283.959295 228.002587 
L 284.341404 202.050001 
L 284.723513 233.909067 
L 285.105622 277.263057 
L 285.487731 227.69946 
L 285.86984 230.934048 
L 286.251949 217.877143 
L 286.634058 226.242761 
L 287.016167 183.751313 
L 287.780385 202.050001 
L 288.162494 187.679743 
L 288.544603 227.69946 
L 288.926712 235.560159 
L 289.69093 200.755389 
L 290.073038 216.744041 
L 290.455147 237.812534 
L 290.837256 193.079988 
L 291.219365 224.351241 
L 291.601474 243.752899 
L 291.983583 272.29152 
L 292.365692 239.794243 
L 292.747801 252.786477 
L 293.12991 230.24847 
L 293.512019 224.875489 
L 293.894128 192.145045 
L 294.276237 233.909067 
L 294.658346 223.839045 
L 295.040455 207.649172 
L 295.422564 236.884085 
L 295.804673 254.72505 
L 296.568891 235.992785 
L 296.950999 239.794243 
L 297.333108 219.276319 
L 297.715217 191.841917 
L 298.097326 229.58336 
L 298.861544 222.369531 
L 299.243653 268.229479 
L 299.625762 264.795073 
L 300.007871 277.263057 
L 300.38998 259.195902 
L 300.772089 233.909067 
L 301.154198 270.168053 
L 301.536307 277.263057 
L 301.918416 253.734685 
L 302.300525 220.117156 
L 302.682634 308.149063 
L 303.064743 283.672482 
L 303.446852 217.303389 
L 303.82896 250.162324 
L 304.211069 266.446164 
L 304.593178 253.734685 
L 304.975287 308.149063 
L 305.357396 199.87466 
L 305.739505 280.238075 
L 306.121614 308.149063 
L 306.503723 246.377051 
L 306.885832 263.257943 
L 307.267941 292.70606 
L 307.65005 272.29152 
L 307.650612 346.6 
M 308.413607 346.6 
L 308.414268 259.195902 
L 308.796377 308.149063 
L 309.178486 242.548306 
L 309.560595 268.229479 
L 309.942704 231.641395 
L 310.324813 287.734523 
L 310.706922 222.84868 
L 311.08903 308.149063 
L 311.471139 274.638905 
L 311.853248 259.195902 
L 312.235357 277.263057 
L 312.999575 203.424505 
L 313.381684 243.142462 
L 313.763793 247.084398 
L 314.145902 261.820054 
L 314.528011 268.229479 
L 314.91012 308.149063 
L 315.292229 233.127248 
L 315.674338 272.29152 
L 316.056447 232.371937 
L 316.438556 238.291682 
L 316.820665 234.719321 
L 317.202774 224.351241 
L 317.584883 252.786477 
L 317.966991 205.326284 
L 318.3491 252.786477 
L 318.731209 198.211235 
L 319.113318 272.29152 
L 319.495427 256.848518 
L 319.877536 228.309896 
L 320.259645 184.60504 
L 320.641754 239.282047 
L 321.023863 191.962674 
L 321.405972 268.229479 
L 321.788081 208.650668 
L 322.17019 181.145781 
L 322.552299 211.083578 
L 322.934408 203.526007 
L 323.316517 225.412372 
L 323.698626 195.21619 
L 324.080735 207.895357 
L 324.462844 176.947549 
L 324.844952 202.145417 
L 325.227061 174.440278 
L 325.60917 192.023299 
L 325.991279 177.320958 
L 326.373388 192.452354 
L 326.755497 188.083004 
L 327.137606 193.143735 
L 327.519715 194.122496 
L 327.901824 202.337483 
L 328.283933 179.185485 
L 328.666042 241.405515 
L 329.048151 198.697354 
L 329.43026 129.453774 
L 330.194478 223.33836 
L 330.576587 213.1785 
L 330.958696 218.867508 
L 331.340805 157.999718 
L 332.105022 174.857771 
L 332.487131 177.893075 
L 332.86924 132.176068 
L 333.251349 165.927448 
L 333.633458 90.019614 
L 334.015567 144.490496 
L 334.397676 178.746299 
L 335.161894 171.355237 
L 335.544003 201.485932 
L 335.926112 165.260124 
L 336.308221 169.82451 
L 336.69033 217.877143 
L 337.072439 184.51818 
L 337.454548 204.040569 
L 337.836657 185.58354 
L 338.218766 247.81494 
L 338.600875 167.32523 
L 338.982983 221.441083 
L 339.365092 202.82502 
L 339.747201 149.945323 
L 340.12931 170.692951 
L 340.511419 225.962512 
L 340.893528 184.86767 
L 341.275637 240.318492 
L 341.657746 202.82502 
L 342.039855 224.875489 
L 342.421964 213.815102 
L 342.804073 216.928934 
L 343.186182 203.424505 
L 343.568291 225.412372 
L 343.9504 216.560669 
L 344.332509 245.691473 
L 344.714618 231.641395 
L 345.096727 246.377051 
L 345.478836 199.788472 
L 345.860944 308.149063 
L 346.243053 163.982603 
L 346.625162 206.34173 
L 347.007271 212.559584 
L 347.38938 199.61709 
L 347.771489 198.211235 
L 348.153598 220.549782 
L 348.535707 187.088216 
L 348.917816 206.457468 
L 349.299925 251.003162 
L 349.682034 184.388522 
L 350.064143 208.779081 
L 350.446252 218.466064 
L 350.828361 174.970436 
L 351.592579 256.848518 
L 351.974688 219.692771 
L 352.356797 207.164815 
L 352.738905 214.47043 
L 353.121014 227.400401 
L 353.503123 192.576474 
L 353.885232 227.105303 
L 354.267341 233.909067 
L 354.64945 283.672482 
L 355.031559 251.003162 
L 355.413668 228.309896 
L 355.795777 233.127248 
L 356.177886 261.820054 
L 356.559995 251.003162 
L 356.942104 217.684245 
L 357.324213 234.310511 
L 357.706322 216.928934 
L 358.088431 242.548306 
L 358.47054 215.317663 
L 358.852649 233.514728 
L 359.234758 283.672482 
L 359.616867 226.526581 
L 359.998975 209.432487 
L 360.381084 268.229479 
L 360.763193 283.672482 
L 361.145302 263.257943 
L 361.527411 215.841912 
L 361.90952 218.867508 
L 362.291629 308.149063 
L 362.673738 228.93753 
L 363.055847 229.58336 
L 363.437956 292.70606 
L 363.820065 287.734523 
L 364.202174 251.003162 
L 364.584283 272.29152 
L 364.966392 245.691473 
L 365.348501 263.257943 
L 366.112719 272.29152 
L 366.11328 346.6 
M 366.876242 346.6 
L 366.876936 254.72505 
L 367.259045 270.168053 
L 367.641154 308.149063 
L 368.023263 254.72505 
L 368.405372 268.229479 
L 368.787481 308.149063 
L 369.16959 268.229479 
L 369.551699 277.263057 
L 369.933808 263.257943 
L 370.315917 272.29152 
L 370.698026 259.195902 
L 371.080135 256.848518 
L 371.462244 263.257943 
L 371.844353 283.672482 
L 372.226462 268.229479 
L 372.608571 233.909067 
L 372.99068 255.761495 
L 373.372789 205.547973 
L 373.754897 242.548306 
L 374.137006 217.684245 
L 374.519115 280.238075 
L 374.901224 243.752899 
L 375.283333 277.263057 
L 375.665442 277.263057 
L 376.047551 224.611823 
L 376.42966 308.149063 
L 376.811769 272.29152 
L 377.193878 216.198392 
L 377.575987 215.491046 
L 377.958096 229.258105 
L 378.340205 221.900471 
L 378.722314 212.256457 
L 379.104423 225.142313 
L 379.486532 180.812969 
L 379.868641 217.684245 
L 380.25075 217.684245 
L 380.632858 223.092174 
L 381.014967 208.019477 
L 381.397076 201.672372 
L 381.779185 206.926528 
L 382.161294 241.969584 
L 382.543403 217.303389 
L 382.925512 204.674153 
L 383.307621 210.519509 
L 383.68973 208.144293 
L 384.071839 243.752899 
L 384.453948 201.117666 
L 384.836057 201.860386 
L 385.218166 228.309896 
L 385.600275 173.41637 
L 385.982384 192.084089 
L 386.364493 224.093671 
L 386.746602 213.335954 
L 387.128711 211.6623 
L 387.51082 166.040638 
L 387.892928 207.405677 
L 388.275037 205.326284 
L 388.657146 165.260124 
L 389.039255 183.213434 
L 389.421364 191.902214 
L 389.803473 195.21619 
L 390.185582 193.207665 
L 390.567691 200.398909 
L 390.9498 177.446832 
L 391.331909 184.86767 
L 391.714018 205.547973 
L 392.096127 201.954992 
L 392.478236 213.815102 
L 392.860345 145.110121 
L 393.242454 172.336873 
L 393.624563 171.307272 
L 394.006672 153.686422 
L 394.388781 103.155052 
L 394.770889 125.122469 
L 395.152998 119.1975 
L 395.535107 101.701286 
L 395.917216 153.118008 
L 396.299325 182.331754 
L 396.681434 128.312081 
L 397.063543 205.547973 
L 397.445652 155.531378 
L 397.827761 172.716432 
L 398.20987 164.576759 
L 398.591979 203.222879 
L 398.974088 143.734226 
L 399.356197 171.939014 
L 399.738306 176.159347 
L 400.120415 162.77438 
L 400.502524 198.291522 
L 400.884633 196.964502 
L 401.266742 185.402405 
L 401.64885 192.826809 
L 402.030959 224.875489 
L 402.413068 189.446413 
L 402.795177 207.649172 
L 403.177286 197.193012 
L 403.941504 217.303389 
L 404.323613 216.560669 
L 404.705722 228.93753 
L 405.087831 195.356756 
L 405.46994 220.549782 
L 405.852049 224.875489 
L 406.234158 207.527092 
L 406.616267 225.412372 
L 406.998376 185.088919 
L 407.380485 216.560669 
L 408.144703 232.003672 
L 408.526812 216.198392 
L 408.90892 214.637319 
L 409.291029 156.483692 
L 409.673138 215.491046 
L 410.055247 245.026362 
L 410.437356 207.164815 
L 410.819465 231.284915 
L 411.201574 206.926528 
L 411.583683 197.735498 
L 411.965792 245.026362 
L 412.347901 206.457468 
L 412.73001 196.366358 
L 413.112119 239.282047 
L 413.494228 176.763166 
L 413.876337 242.548306 
L 414.258446 218.867508 
L 414.640555 225.962512 
L 415.022664 176.040523 
L 415.404773 214.47043 
L 415.786881 222.369531 
L 416.16899 187.679743 
L 416.551099 206.22659 
L 416.933208 231.641395 
L 417.315317 221.441083 
L 417.697426 239.282047 
L 418.079535 308.149063 
L 418.461644 233.127248 
L 418.843753 308.149063 
L 419.225862 207.771924 
L 419.607971 219.903953 
L 419.99008 253.734685 
L 420.372189 226.814063 
L 420.754298 241.405515 
L 421.136407 214.140357 
L 421.518516 235.560159 
L 421.900625 247.084398 
L 422.282734 280.238075 
L 422.664842 256.848518 
L 423.046951 255.761495 
L 423.42906 277.263057 
L 423.811169 231.284915 
L 424.193278 272.29152 
L 424.575387 230.24847 
L 424.957496 259.195902 
L 425.339605 259.195902 
L 425.721714 260.469365 
L 426.103823 239.282047 
L 426.485932 272.29152 
L 427.25015 261.820054 
L 427.632259 292.70606 
L 428.014368 264.795073 
L 428.396477 277.263057 
L 428.778586 270.168053 
L 429.160695 283.672482 
L 429.542803 242.548306 
L 429.924912 272.29152 
L 430.307021 243.142462 
L 430.68913 243.142462 
L 431.071239 242.548306 
L 431.453348 272.29152 
L 431.835457 218.665882 
L 432.217566 270.168053 
L 432.599675 256.848518 
L 432.981784 217.877143 
L 433.746002 266.446164 
L 434.128111 308.149063 
L 434.51022 257.991309 
L 435.274438 223.839045 
L 435.656547 261.820054 
L 436.038656 218.071726 
L 436.420765 194.937692 
L 436.802873 238.291682 
L 437.184982 259.195902 
L 437.567091 197.269706 
L 437.9492 254.72505 
L 438.331309 184.60504 
L 438.713418 264.795073 
L 438.713418 264.795073 
" clip-path="url(#p71421ba7fd)" style="fill: none; stroke-dasharray: 5.55,2.4; stroke-dashoffset: 0; stroke: #ff7f0e; stroke-width: 1.5"/>
   </g>
   <g id="line2d_67">
    <path d="M 37.90024 274.62109 
L 457.79976 274.62109 
" clip-path="url(#p71421ba7fd)" style="fill: none; stroke-dasharray: 5.55,2.4; stroke-dashoffset: 0; stroke: #000000; stroke-width: 1.5"/>
   </g>
   <g id="patch_3">
    <path d="M 37.90024 325.921635 
L 37.90024 18.118365 
" style="fill: none; stroke: #000000; stroke-width: 0.8; stroke-linejoin: miter; stroke-linecap: square"/>
   </g>
   <g id="patch_4">
    <path d="M 457.79976 325.921635 
L 457.79976 18.118365 
" style="fill: none; stroke: #000000; stroke-width: 0.8; stroke-linejoin: miter; stroke-linecap: square"/>
   </g>
   <g id="patch_5">
    <path d="M 37.90024 325.921635 
L 457.79976 325.921635 
" style="fill: none; stroke: #000000; stroke-width: 0.8; stroke-linejoin: miter; stroke-linecap: square"/>
   </g>
   <g id="patch_6">
    <path d="M 37.90024 18.118365 
L 457.79976 18.118365 
" style="fill: none; stroke: #000000; stroke-width: 0.8; stroke-linejoin: miter; stroke-linecap: square"/>
   </g>
   <g id="text_17">
    <!-- relative deviation of numerical from true derivative -->
    <g transform="translate(93.7925 12.118365)scale(0.12 -0.12)">
     <defs>
      <path id="DejaVuSans-72" d="M 2631 2963 
Q 2534 3019 2420 3045 
Q 2306 3072 2169 3072 
Q 1681 3072 1420 2755 
Q 1159 2438 1159 1844 
L 1159 0 
L 581 0 
L 581 3500 
L 1159 3500 
L 1159 2956 
Q 1341 3275 1631 3429 
Q 1922 3584 2338 3584 
Q 2397 3584 2469 3576 
Q 2541 3569 2628 3553 
L 2631 2963 
z
" transform="scale(0.015625)"/>
      <path id="DejaVuSans-65" d="M 3597 1894 
L 3597 1613 
L 953 1613 
Q 991 1019 1311 708 
Q 1631 397 2203 397 
Q 2534 397 2845 478 
Q 3156 559 3463 722 
L 3463 178 
Q 3153 47 2828 -22 
Q 2503 -91 2169 -91 
Q 1331 -91 842 396 
Q 353 884 353 1716 
Q 353 2575 817 3079 
Q 1281 3584 2069 3584 
Q 2775 3584 3186 3129 
Q 3597 2675 3597 1894 
z
M 3022 2063 
Q 3016 2534 2758 2815 
Q 2500 3097 2075 3097 
Q 1594 3097 1305 2825 
Q 1016 2553 972 2059 
L 3022 2063 
z
" transform="scale(0.015625)"/>
      <path id="DejaVuSans-6c" d="M 603 4863 
L 1178 4863 
L 1178 0 
L 603 0 
L 603 4863 
z
" transform="scale(0.015625)"/>
      <path id="DejaVuSans-61" d="M 2194 1759 
Q 1497 1759 1228 1600 
Q 959 1441 959 1056 
Q 959 750 1161 570 
Q 1363 391 1709 391 
Q 2188 391 2477 730 
Q 2766 1069 2766 1631 
L 2766 1759 
L 2194 1759 
z
M 3341 1997 
L 3341 0 
L 2766 0 
L 2766 531 
Q 2569 213 2275 61 
Q 1981 -91 1556 -91 
Q 1019 -91 701 211 
Q 384 513 384 1019 
Q 384 1609 779 1909 
Q 1175 2209 1959 2209 
L 2766 2209 
L 2766 2266 
Q 2766 2663 2505 2880 
Q 2244 3097 1772 3097 
Q 1472 3097 1187 3025 
Q 903 2953 641 2809 
L 641 3341 
Q 956 3463 1253 3523 
Q 1550 3584 1831 3584 
Q 2591 3584 2966 3190 
Q 3341 2797 3341 1997 
z
" transform="scale(0.015625)"/>
      <path id="DejaVuSans-74" d="M 1172 4494 
L 1172 3500 
L 2356 3500 
L 2356 3053 
L 1172 3053 
L 1172 1153 
Q 1172 725 1289 603 
Q 1406 481 1766 481 
L 2356 481 
L 2356 0 
L 1766 0 
Q 1100 0 847 248 
Q 594 497 594 1153 
L 594 3053 
L 172 3053 
L 172 3500 
L 594 3500 
L 594 4494 
L 1172 4494 
z
" transform="scale(0.015625)"/>
      <path id="DejaVuSans-69" d="M 603 3500 
L 1178 3500 
L 1178 0 
L 603 0 
L 603 3500 
z
M 603 4863 
L 1178 4863 
L 1178 4134 
L 603 4134 
L 603 4863 
z
" transform="scale(0.015625)"/>
      <path id="DejaVuSans-76" d="M 191 3500 
L 800 3500 
L 1894 563 
L 2988 3500 
L 3597 3500 
L 2284 0 
L 1503 0 
L 191 3500 
z
" transform="scale(0.015625)"/>
      <path id="DejaVuSans-20" transform="scale(0.015625)"/>
      <path id="DejaVuSans-64" d="M 2906 2969 
L 2906 4863 
L 3481 4863 
L 3481 0 
L 2906 0 
L 2906 525 
Q 2725 213 2448 61 
Q 2172 -91 1784 -91 
Q 1150 -91 751 415 
Q 353 922 353 1747 
Q 353 2572 751 3078 
Q 1150 3584 1784 3584 
Q 2172 3584 2448 3432 
Q 2725 3281 2906 2969 
z
M 947 1747 
Q 947 1113 1208 752 
Q 1469 391 1925 391 
Q 2381 391 2643 752 
Q 2906 1113 2906 1747 
Q 2906 2381 2643 2742 
Q 2381 3103 1925 3103 
Q 1469 3103 1208 2742 
Q 947 2381 947 1747 
z
" transform="scale(0.015625)"/>
      <path id="DejaVuSans-6f" d="M 1959 3097 
Q 1497 3097 1228 2736 
Q 959 2375 959 1747 
Q 959 1119 1226 758 
Q 1494 397 1959 397 
Q 2419 397 2687 759 
Q 2956 1122 2956 1747 
Q 2956 2369 2687 2733 
Q 2419 3097 1959 3097 
z
M 1959 3584 
Q 2709 3584 3137 3096 
Q 3566 2609 3566 1747 
Q 3566 888 3137 398 
Q 2709 -91 1959 -91 
Q 1206 -91 779 398 
Q 353 888 353 1747 
Q 353 2609 779 3096 
Q 1206 3584 1959 3584 
z
" transform="scale(0.015625)"/>
      <path id="DejaVuSans-6e" d="M 3513 2113 
L 3513 0 
L 2938 0 
L 2938 2094 
Q 2938 2591 2744 2837 
Q 2550 3084 2163 3084 
Q 1697 3084 1428 2787 
Q 1159 2491 1159 1978 
L 1159 0 
L 581 0 
L 581 3500 
L 1159 3500 
L 1159 2956 
Q 1366 3272 1645 3428 
Q 1925 3584 2291 3584 
Q 2894 3584 3203 3211 
Q 3513 2838 3513 2113 
z
" transform="scale(0.015625)"/>
      <path id="DejaVuSans-66" d="M 2375 4863 
L 2375 4384 
L 1825 4384 
Q 1516 4384 1395 4259 
Q 1275 4134 1275 3809 
L 1275 3500 
L 2222 3500 
L 2222 3053 
L 1275 3053 
L 1275 0 
L 697 0 
L 697 3053 
L 147 3053 
L 147 3500 
L 697 3500 
L 697 3744 
Q 697 4328 969 4595 
Q 1241 4863 1831 4863 
L 2375 4863 
z
" transform="scale(0.015625)"/>
      <path id="DejaVuSans-75" d="M 544 1381 
L 544 3500 
L 1119 3500 
L 1119 1403 
Q 1119 906 1312 657 
Q 1506 409 1894 409 
Q 2359 409 2629 706 
Q 2900 1003 2900 1516 
L 2900 3500 
L 3475 3500 
L 3475 0 
L 2900 0 
L 2900 538 
Q 2691 219 2414 64 
Q 2138 -91 1772 -91 
Q 1169 -91 856 284 
Q 544 659 544 1381 
z
M 1991 3584 
L 1991 3584 
z
" transform="scale(0.015625)"/>
      <path id="DejaVuSans-6d" d="M 3328 2828 
Q 3544 3216 3844 3400 
Q 4144 3584 4550 3584 
Q 5097 3584 5394 3201 
Q 5691 2819 5691 2113 
L 5691 0 
L 5113 0 
L 5113 2094 
Q 5113 2597 4934 2840 
Q 4756 3084 4391 3084 
Q 3944 3084 3684 2787 
Q 3425 2491 3425 1978 
L 3425 0 
L 2847 0 
L 2847 2094 
Q 2847 2600 2669 2842 
Q 2491 3084 2119 3084 
Q 1678 3084 1418 2786 
Q 1159 2488 1159 1978 
L 1159 0 
L 581 0 
L 581 3500 
L 1159 3500 
L 1159 2956 
Q 1356 3278 1631 3431 
Q 1906 3584 2284 3584 
Q 2666 3584 2933 3390 
Q 3200 3197 3328 2828 
z
" transform="scale(0.015625)"/>
      <path id="DejaVuSans-63" d="M 3122 3366 
L 3122 2828 
Q 2878 2963 2633 3030 
Q 2388 3097 2138 3097 
Q 1578 3097 1268 2742 
Q 959 2388 959 1747 
Q 959 1106 1268 751 
Q 1578 397 2138 397 
Q 2388 397 2633 464 
Q 2878 531 3122 666 
L 3122 134 
Q 2881 22 2623 -34 
Q 2366 -91 2075 -91 
Q 1284 -91 818 406 
Q 353 903 353 1747 
Q 353 2603 823 3093 
Q 1294 3584 2113 3584 
Q 2378 3584 2631 3529 
Q 2884 3475 3122 3366 
z
" transform="scale(0.015625)"/>
     </defs>
     <use xlink:href="#DejaVuSans-72"/>
     <use xlink:href="#DejaVuSans-65" x="38.863281"/>
     <use xlink:href="#DejaVuSans-6c" x="100.386719"/>
     <use xlink:href="#DejaVuSans-61" x="128.169922"/>
     <use xlink:href="#DejaVuSans-74" x="189.449219"/>
     <use xlink:href="#DejaVuSans-69" x="228.658203"/>
     <use xlink:href="#DejaVuSans-76" x="256.441406"/>
     <use xlink:href="#DejaVuSans-65" x="315.621094"/>
     <use xlink:href="#DejaVuSans-20" x="377.144531"/>
     <use xlink:href="#DejaVuSans-64" x="408.931641"/>
     <use xlink:href="#DejaVuSans-65" x="472.408203"/>
     <use xlink:href="#DejaVuSans-76" x="533.931641"/>
     <use xlink:href="#DejaVuSans-69" x="593.111328"/>
     <use xlink:href="#DejaVuSans-61" x="620.894531"/>
     <use xlink:href="#DejaVuSans-74" x="682.173828"/>
     <use xlink:href="#DejaVuSans-69" x="721.382812"/>
     <use xlink:href="#DejaVuSans-6f" x="749.166016"/>
     <use xlink:href="#DejaVuSans-6e" x="810.347656"/>
     <use xlink:href="#DejaVuSans-20" x="873.726562"/>
     <use xlink:href="#DejaVuSans-6f" x="905.513672"/>
     <use xlink:href="#DejaVuSans-66" x="966.695312"/>
     <use xlink:href="#DejaVuSans-20" x="1001.900391"/>
     <use xlink:href="#DejaVuSans-6e" x="1033.6875"/>
     <use xlink:href="#DejaVuSans-75" x="1097.066406"/>
     <use xlink:href="#DejaVuSans-6d" x="1160.445312"/>
     <use xlink:href="#DejaVuSans-65" x="1257.857422"/>
     <use xlink:href="#DejaVuSans-72" x="1319.380859"/>
     <use xlink:href="#DejaVuSans-69" x="1360.494141"/>
     <use xlink:href="#DejaVuSans-63" x="1388.277344"/>
     <use xlink:href="#DejaVuSans-61" x="1443.257812"/>
     <use xlink:href="#DejaVuSans-6c" x="1504.537109"/>
     <use xlink:href="#DejaVuSans-20" x="1532.320312"/>
     <use xlink:href="#DejaVuSans-66" x="1564.107422"/>
     <use xlink:href="#DejaVuSans-72" x="1599.3125"/>
     <use xlink:href="#DejaVuSans-6f" x="1638.175781"/>
     <use xlink:href="#DejaVuSans-6d" x="1699.357422"/>
     <use xlink:href="#DejaVuSans-20" x="1796.769531"/>
     <use xlink:href="#DejaVuSans-74" x="1828.556641"/>
     <use xlink:href="#DejaVuSans-72" x="1867.765625"/>
     <use xlink:href="#DejaVuSans-75" x="1908.878906"/>
     <use xlink:href="#DejaVuSans-65" x="1972.257812"/>
     <use xlink:href="#DejaVuSans-20" x="2033.78125"/>
     <use xlink:href="#DejaVuSans-64" x="2065.568359"/>
     <use xlink:href="#DejaVuSans-65" x="2129.044922"/>
     <use xlink:href="#DejaVuSans-72" x="2190.568359"/>
     <use xlink:href="#DejaVuSans-69" x="2231.681641"/>
     <use xlink:href="#DejaVuSans-76" x="2259.464844"/>
     <use xlink:href="#DejaVuSans-61" x="2318.644531"/>
     <use xlink:href="#DejaVuSans-74" x="2379.923828"/>
     <use xlink:href="#DejaVuSans-69" x="2419.132812"/>
     <use xlink:href="#DejaVuSans-76" x="2446.916016"/>
     <use xlink:href="#DejaVuSans-65" x="2506.095703"/>
    </g>
   </g>
   <g id="legend_1">
    <g id="patch_7">
     <path d="M 278.42476 55.474615 
L 450.79976 55.474615 
Q 452.79976 55.474615 452.79976 53.474615 
L 452.79976 25.118365 
Q 452.79976 23.118365 450.79976 23.118365 
L 278.42476 23.118365 
Q 276.42476 23.118365 276.42476 25.118365 
L 276.42476 53.474615 
Q 276.42476 55.474615 278.42476 55.474615 
z
" style="fill: #ffffff; opacity: 0.8; stroke: #cccccc; stroke-linejoin: miter"/>
    </g>
    <g id="text_18">
     <!-- f(x) = sin(x)/x -->
     <g transform="translate(329.95601 34.716802)scale(0.1 -0.1)">
      <defs>
       <path id="DejaVuSans-28" d="M 1984 4856 
Q 1566 4138 1362 3434 
Q 1159 2731 1159 2009 
Q 1159 1288 1364 580 
Q 1569 -128 1984 -844 
L 1484 -844 
Q 1016 -109 783 600 
Q 550 1309 550 2009 
Q 550 2706 781 3412 
Q 1013 4119 1484 4856 
L 1984 4856 
z
" transform="scale(0.015625)"/>
       <path id="DejaVuSans-78" d="M 3513 3500 
L 2247 1797 
L 3578 0 
L 2900 0 
L 1881 1375 
L 863 0 
L 184 0 
L 1544 1831 
L 300 3500 
L 978 3500 
L 1906 2253 
L 2834 3500 
L 3513 3500 
z
" transform="scale(0.015625)"/>
       <path id="DejaVuSans-29" d="M 513 4856 
L 1013 4856 
Q 1481 4119 1714 3412 
Q 1947 2706 1947 2009 
Q 1947 1309 1714 600 
Q 1481 -109 1013 -844 
L 513 -844 
Q 928 -128 1133 580 
Q 1338 1288 1338 2009 
Q 1338 2731 1133 3434 
Q 928 4138 513 4856 
z
" transform="scale(0.015625)"/>
       <path id="DejaVuSans-3d" d="M 678 2906 
L 4684 2906 
L 4684 2381 
L 678 2381 
L 678 2906 
z
M 678 1631 
L 4684 1631 
L 4684 1100 
L 678 1100 
L 678 1631 
z
" transform="scale(0.015625)"/>
       <path id="DejaVuSans-73" d="M 2834 3397 
L 2834 2853 
Q 2591 2978 2328 3040 
Q 2066 3103 1784 3103 
Q 1356 3103 1142 2972 
Q 928 2841 928 2578 
Q 928 2378 1081 2264 
Q 1234 2150 1697 2047 
L 1894 2003 
Q 2506 1872 2764 1633 
Q 3022 1394 3022 966 
Q 3022 478 2636 193 
Q 2250 -91 1575 -91 
Q 1294 -91 989 -36 
Q 684 19 347 128 
L 347 722 
Q 666 556 975 473 
Q 1284 391 1588 391 
Q 1994 391 2212 530 
Q 2431 669 2431 922 
Q 2431 1156 2273 1281 
Q 2116 1406 1581 1522 
L 1381 1569 
Q 847 1681 609 1914 
Q 372 2147 372 2553 
Q 372 3047 722 3315 
Q 1072 3584 1716 3584 
Q 2034 3584 2315 3537 
Q 2597 3491 2834 3397 
z
" transform="scale(0.015625)"/>
       <path id="DejaVuSans-2f" d="M 1625 4666 
L 2156 4666 
L 531 -594 
L 0 -594 
L 1625 4666 
z
" transform="scale(0.015625)"/>
      </defs>
      <use xlink:href="#DejaVuSans-66"/>
      <use xlink:href="#DejaVuSans-28" x="35.205078"/>
      <use xlink:href="#DejaVuSans-78" x="74.21875"/>
      <use xlink:href="#DejaVuSans-29" x="133.398438"/>
      <use xlink:href="#DejaVuSans-20" x="172.412109"/>
      <use xlink:href="#DejaVuSans-3d" x="204.199219"/>
      <use xlink:href="#DejaVuSans-20" x="287.988281"/>
      <use xlink:href="#DejaVuSans-73" x="319.775391"/>
      <use xlink:href="#DejaVuSans-69" x="371.875"/>
      <use xlink:href="#DejaVuSans-6e" x="399.658203"/>
      <use xlink:href="#DejaVuSans-28" x="463.037109"/>
      <use xlink:href="#DejaVuSans-78" x="502.050781"/>
      <use xlink:href="#DejaVuSans-29" x="561.230469"/>
      <use xlink:href="#DejaVuSans-2f" x="600.244141"/>
      <use xlink:href="#DejaVuSans-78" x="633.935547"/>
     </g>
    </g>
    <g id="line2d_68">
     <path d="M 280.42476 45.894927 
L 290.42476 45.894927 
L 300.42476 45.894927 
" style="fill: none; stroke: #1f77b4; stroke-width: 1.5; stroke-linecap: square"/>
    </g>
    <g id="text_19">
     <!-- Jacobi -->
     <g transform="translate(308.42476 49.394927)scale(0.1 -0.1)">
      <defs>
       <path id="DejaVuSans-4a" d="M 628 4666 
L 1259 4666 
L 1259 325 
Q 1259 -519 939 -900 
Q 619 -1281 -91 -1281 
L -331 -1281 
L -331 -750 
L -134 -750 
Q 284 -750 456 -515 
Q 628 -281 628 325 
L 628 4666 
z
" transform="scale(0.015625)"/>
       <path id="DejaVuSans-62" d="M 3116 1747 
Q 3116 2381 2855 2742 
Q 2594 3103 2138 3103 
Q 1681 3103 1420 2742 
Q 1159 2381 1159 1747 
Q 1159 1113 1420 752 
Q 1681 391 2138 391 
Q 2594 391 2855 752 
Q 3116 1113 3116 1747 
z
M 1159 2969 
Q 1341 3281 1617 3432 
Q 1894 3584 2278 3584 
Q 2916 3584 3314 3078 
Q 3713 2572 3713 1747 
Q 3713 922 3314 415 
Q 2916 -91 2278 -91 
Q 1894 -91 1617 61 
Q 1341 213 1159 525 
L 1159 0 
L 581 0 
L 581 4863 
L 1159 4863 
L 1159 2969 
z
" transform="scale(0.015625)"/>
      </defs>
      <use xlink:href="#DejaVuSans-4a"/>
      <use xlink:href="#DejaVuSans-61" x="29.492188"/>
      <use xlink:href="#DejaVuSans-63" x="90.771484"/>
      <use xlink:href="#DejaVuSans-6f" x="145.751953"/>
      <use xlink:href="#DejaVuSans-62" x="206.933594"/>
      <use xlink:href="#DejaVuSans-69" x="270.410156"/>
     </g>
    </g>
    <g id="line2d_69">
     <path d="M 358.246635 45.894927 
L 368.246635 45.894927 
L 378.246635 45.894927 
" style="fill: none; stroke-dasharray: 5.55,2.4; stroke-dashoffset: 0; stroke: #ff7f0e; stroke-width: 1.5"/>
    </g>
    <g id="text_20">
     <!-- numdifftools -->
     <g transform="translate(386.246635 49.394927)scale(0.1 -0.1)">
      <use xlink:href="#DejaVuSans-6e"/>
      <use xlink:href="#DejaVuSans-75" x="63.378906"/>
      <use xlink:href="#DejaVuSans-6d" x="126.757812"/>
      <use xlink:href="#DejaVuSans-64" x="224.169922"/>
      <use xlink:href="#DejaVuSans-69" x="287.646484"/>
      <use xlink:href="#DejaVuSans-66" x="315.429688"/>
      <use xlink:href="#DejaVuSans-66" x="350.634766"/>
      <use xlink:href="#DejaVuSans-74" x="384.089844"/>
      <use xlink:href="#DejaVuSans-6f" x="423.298828"/>
      <use xlink:href="#DejaVuSans-6f" x="484.480469"/>
      <use xlink:href="#DejaVuSans-6c" x="545.662109"/>
      <use xlink:href="#DejaVuSans-73" x="573.445312"/>
     </g>
    </g>
   </g>
  </g>
 </g>
 <defs>
  <clipPath id="p71421ba7fd">
   <rect x="37.90024" y="18.118365" width="419.89952" height="307.80327"/>
  </clipPath>
 </defs>
</svg>
