<?xml version="1.0" encoding="utf-8" standalone="no"?>
<!DOCTYPE svg PUBLIC "-//W3C//DTD SVG 1.1//EN"
  "http://www.w3.org/Graphics/SVG/1.1/DTD/svg11.dtd">
<svg xmlns:xlink="http://www.w3.org/1999/xlink" width="460.8pt" height="345.6pt" viewBox="0 0 460.8 345.6" xmlns="http://www.w3.org/2000/svg" version="1.1">
 <metadata>
  <rdf:RDF xmlns:dc="http://purl.org/dc/elements/1.1/" xmlns:cc="http://creativecommons.org/ns#" xmlns:rdf="http://www.w3.org/1999/02/22-rdf-syntax-ns#">
   <cc:Work>
    <dc:type rdf:resource="http://purl.org/dc/dcmitype/StillImage"/>
    <dc:date>2022-09-15T20:44:35.078606</dc:date>
    <dc:format>image/svg+xml</dc:format>
    <dc:creator>
     <cc:Agent>
      <dc:title>Matplotlib v3.5.3, https://matplotlib.org/</dc:title>
     </cc:Agent>
    </dc:creator>
   </cc:Work>
  </rdf:RDF>
 </metadata>
 <defs>
  <style type="text/css">*{stroke-linejoin: round; stroke-linecap: butt}</style>
 </defs>
 <g id="figure_1">
  <g id="patch_1">
   <path d="M 0 345.6
L 460.8 345.6
L 460.8 0
L 0 0
z
" style="fill: #ffffff"/>
  </g>
  <g id="axes_1">
   <g id="patch_2">
    <path d="M 52.10024 325.921635
L 457.79976 325.921635
L 457.79976 19.104615
L 52.10024 19.104615
z
" style="fill: #ffffff"/>
   </g>
   <g id="PolyCollection_1">
    <path d="M 70.541127 233.382984
L 70.541127 75726.2043
L 72.394483 75726.2043
L 74.247838 75726.2043
L 76.101194 75726.2043
L 77.954549 75726.2043
L 79.807905 75726.2043
L 81.66126 75726.2043
L 83.514616 75726.2043
L 85.367971 75726.2043
L 87.221327 75726.2043
L 89.074682 75726.2043
L 90.928038 75726.2043
L 92.781393 75726.2043
L 94.634749 75726.2043
L 96.488104 75726.2043
L 98.34146 75726.2043
L 100.194815 75726.2043
L 102.048171 75726.2043
L 103.901526 75726.2043
L 105.754882 75726.2043
L 107.608237 75726.2043
L 109.461593 75726.2043
L 111.314948 75726.2043
L 113.168304 75726.2043
L 115.021659 75726.2043
L 116.875015 75726.2043
L 118.72837 75726.2043
L 120.581726 75726.2043
L 122.435081 75726.2043
L 124.288437 75726.2043
L 126.141792 75726.2043
L 127.995148 75726.2043
L 129.848503 75726.2043
L 131.701859 75726.2043
L 133.555214 75726.2043
L 135.40857 75726.2043
L 137.261925 75726.2043
L 139.115281 75726.2043
L 140.968636 75726.2043
L 142.821992 75726.2043
L 144.675347 75726.2043
L 146.528703 75726.2043
L 148.382058 75726.2043
L 150.235414 75726.2043
L 152.088769 75726.2043
L 153.942125 75726.2043
L 155.79548 75726.2043
L 157.648836 75726.2043
L 159.502192 75726.2043
L 161.355547 75726.2043
L 163.208903 75726.2043
L 165.062258 75726.2043
L 166.915614 75726.2043
L 168.768969 75726.2043
L 170.622325 75726.2043
L 172.47568 75726.2043
L 174.329036 75726.2043
L 176.182391 75726.2043
L 178.035747 75726.2043
L 179.889102 75726.2043
L 181.742458 75726.2043
L 183.595813 75726.2043
L 185.449169 75726.2043
L 187.302524 75726.2043
L 189.15588 75726.2043
L 191.009235 75726.2043
L 192.862591 75726.2043
L 194.715946 75726.2043
L 196.569302 75726.2043
L 198.422657 75726.2043
L 200.276013 75726.2043
L 202.129368 75726.2043
L 203.982724 75726.2043
L 205.836079 75726.2043
L 207.689435 75726.2043
L 209.54279 75726.2043
L 211.396146 75726.2043
L 213.249501 75726.2043
L 215.102857 75726.2043
L 216.956212 75726.2043
L 218.809568 75726.2043
L 220.662923 75726.2043
L 222.516279 75726.2043
L 224.369634 75726.2043
L 226.22299 75726.2043
L 228.076345 75726.2043
L 229.929701 75726.2043
L 231.783056 75726.2043
L 233.636412 75726.2043
L 235.489767 75726.2043
L 237.343123 75726.2043
L 239.196478 75726.2043
L 241.049834 75726.2043
L 242.903189 75726.2043
L 244.756545 75726.2043
L 246.6099 75726.2043
L 248.463256 75726.2043
L 250.316611 75726.2043
L 252.169967 75726.2043
L 254.023322 75726.2043
L 255.876678 75726.2043
L 257.730033 75726.2043
L 259.583389 75726.2043
L 261.436744 75726.2043
L 263.2901 75726.2043
L 265.143455 75726.2043
L 266.996811 75726.2043
L 268.850166 75726.2043
L 270.703522 75726.2043
L 272.556877 75726.2043
L 274.410233 75726.2043
L 276.263588 75726.2043
L 278.116944 75726.2043
L 279.970299 75726.2043
L 281.823655 75726.2043
L 283.67701 75726.2043
L 285.530366 75726.2043
L 287.383721 75726.2043
L 289.237077 75726.2043
L 291.090432 75726.2043
L 292.943788 75726.2043
L 294.797143 75726.2043
L 296.650499 75726.2043
L 298.503854 75726.2043
L 300.35721 75726.2043
L 302.210565 75726.2043
L 304.063921 75726.2043
L 305.917276 75726.2043
L 307.770632 75726.2043
L 309.623987 75726.2043
L 311.477343 75726.2043
L 313.330698 75726.2043
L 315.184054 75726.2043
L 317.037409 75726.2043
L 318.890765 75726.2043
L 320.74412 75726.2043
L 322.597476 75726.2043
L 324.450831 75726.2043
L 326.304187 75726.2043
L 328.157542 75726.2043
L 330.010898 75726.2043
L 331.864253 75726.2043
L 333.717609 75726.2043
L 335.570964 75726.2043
L 337.42432 75726.2043
L 339.277675 75726.2043
L 341.131031 75726.2043
L 342.984386 75726.2043
L 344.837742 75726.2043
L 346.691097 75726.2043
L 348.544453 75726.2043
L 350.397808 75726.2043
L 352.251164 75726.2043
L 354.10452 75726.2043
L 355.957875 75726.2043
L 357.811231 75726.2043
L 359.664586 75726.2043
L 361.517942 75726.2043
L 363.371297 75726.2043
L 365.224653 75726.2043
L 367.078008 75726.2043
L 368.931364 75726.2043
L 370.784719 75726.2043
L 372.638075 75726.2043
L 374.49143 75726.2043
L 376.344786 75726.2043
L 378.198141 75726.2043
L 380.051497 75726.2043
L 381.904852 75726.2043
L 383.758208 75726.2043
L 385.611563 75726.2043
L 387.464919 75726.2043
L 389.318274 75726.2043
L 391.17163 75726.2043
L 393.024985 75726.2043
L 394.878341 75726.2043
L 396.731696 75726.2043
L 398.585052 75726.2043
L 400.438407 75726.2043
L 402.291763 75726.2043
L 404.145118 75726.2043
L 405.998474 75726.2043
L 407.851829 75726.2043
L 409.705185 75726.2043
L 411.55854 75726.2043
L 413.411896 75726.2043
L 415.265251 75726.2043
L 417.118607 75726.2043
L 418.971962 75726.2043
L 420.825318 75726.2043
L 422.678673 75726.2043
L 424.532029 75726.2043
L 426.385384 75726.2043
L 428.23874 75726.2043
L 430.092095 75726.2043
L 431.945451 75726.2043
L 433.798806 75726.2043
L 435.652162 75726.2043
L 437.505517 75726.2043
L 439.358873 75726.2043
L 439.358873 233.382984
L 439.358873 233.382984
L 437.505517 218.823774
L 435.652162 307.637993
L 433.798806 390.556642
L 431.945451 250.354374
L 430.092095 316.679148
L 428.23874 362.737014
L 426.385384 279.796324
L 424.532029 247.423672
L 422.678673 303.709172
L 420.825318 252.782426
L 418.971962 309.12304
L 417.118607 228.178795
L 415.265251 233.676754
L 413.411896 231.19243
L 411.55854 227.059093
L 409.705185 241.67065
L 407.851829 266.370724
L 405.998474 238.993803
L 404.145118 209.904166
L 402.291763 227.829096
L 400.438407 193.065587
L 398.585052 221.712546
L 396.731696 304.337054
L 394.878341 365.017829
L 393.024985 272.812809
L 391.17163 179.309773
L 389.318274 210.844381
L 387.464919 205.559834
L 385.611563 282.196347
L 383.758208 250.480509
L 381.904852 281.207015
L 380.051497 278.326136
L 378.198141 238.355437
L 376.344786 230.183243
L 374.49143 222.632768
L 372.638075 301.533234
L 370.784719 368.615172
L 368.931364 314.079002
L 367.078008 275.999336
L 365.224653 242.635149
L 363.371297 228.131381
L 361.517942 191.410905
L 359.664586 247.209149
L 357.811231 168.928351
L 355.957875 181.336278
L 354.10452 200.135686
L 352.251164 228.845367
L 350.397808 186.535929
L 348.544453 279.232379
L 346.691097 226.727088
L 344.837742 268.284382
L 342.984386 209.123385
L 341.131031 187.96626
L 339.277675 230.624777
L 337.42432 216.710095
L 335.570964 233.21448
L 333.717609 228.887198
L 331.864253 169.253337
L 330.010898 226.275919
L 328.157542 157.614571
L 326.304187 169.00565
L 324.450831 208.083266
L 322.597476 217.882805
L 320.74412 198.684489
L 318.890765 172.519663
L 317.037409 259.856672
L 315.184054 234.024505
L 313.330698 415.385348
L 311.477343 299.344327
L 309.623987 272.656703
L 307.770632 225.842839
L 305.917276 212.545656
L 304.063921 273.118922
L 302.210565 197.413569
L 300.35721 145.279013
L 298.503854 222.146978
L 296.650499 189.476963
L 294.797143 201.39719
L 292.943788 155.297805
L 291.090432 199.579025
L 289.237077 160.200852
L 287.383721 167.245306
L 285.530366 156.911506
L 283.67701 180.217797
L 281.823655 287.433479
L 279.970299 114.734126
L 278.116944 140.239412
L 276.263588 201.832447
L 274.410233 129.46529
L 272.556877 173.614886
L 270.703522 196.501218
L 268.850166 97.425014
L 266.996811 150.104697
L 265.143455 184.271746
L 263.2901 212.588848
L 261.436744 157.124449
L 259.583389 186.188047
L 257.730033 181.749526
L 255.876678 151.402154
L 254.023322 175.583755
L 252.169967 195.891846
L 250.316611 255.362424
L 248.463256 144.608221
L 246.6099 161.336529
L 244.756545 204.27889
L 242.903189 206.144603
L 241.049834 169.128531
L 239.196478 133.228333
L 237.343123 173.138727
L 235.489767 165.737071
L 233.636412 144.433185
L 231.783056 199.418554
L 229.929701 175.462784
L 228.076345 188.882994
L 226.22299 143.502199
L 224.369634 315.590811
L 222.516279 172.737806
L 220.662923 160.200852
L 218.809568 176.241068
L 216.956212 172.672539
L 215.102857 217.882805
L 213.249501 197.290469
L 211.396146 222.146978
L 209.54279 183.313562
L 207.689435 191.895036
L 205.836079 182.414911
L 203.982724 244.553324
L 202.129368 212.36271
L 200.276013 272.656703
L 198.422657 261.739739
L 196.569302 374.339888
L 194.715946 227.272486
L 192.862591 268.820635
L 191.009235 227.390227
L 189.15588 249.697831
L 187.302524 292.145511
L 185.449169 215.730904
L 183.595813 229.297275
L 181.742458 256.162075
L 179.889102 251.997313
L 178.035747 216.835478
L 176.182391 192.535408
L 174.329036 235.844317
L 172.47568 213.432102
L 170.622325 253.305606
L 168.768969 288.709368
L 166.915614 188.162907
L 165.062258 239.523153
L 163.208903 238.56687
L 161.355547 181.944358
L 159.502192 206.100109
L 157.648836 153.303545
L 155.79548 246.439152
L 153.942125 217.66188
L 152.088769 229.395555
L 150.235414 212.255562
L 148.382058 268.645768
L 146.528703 403.503708
L 144.675347 195.419024
L 142.821992 293.100766
L 140.968636 314.079002
L 139.115281 329.396526
L 137.261925 301.533234
L 135.40857 356.909323
L 133.555214 230.183243
L 131.701859 298.836841
L 129.848503 278.326136
L 127.995148 241.509363
L 126.141792 250.480509
L 124.288437 207.325103
L 122.435081 205.559834
L 120.581726 276.658281
L 118.72837 179.309773
L 116.875015 324.662546
L 115.021659 365.017829
L 113.168304 175.201648
L 111.314948 221.712546
L 109.461593 255.177599
L 107.608237 227.829096
L 105.754882 202.483219
L 103.901526 238.993803
L 102.048171 209.21602
L 100.194815 241.67065
L 98.34146 220.363689
L 96.488104 231.19243
L 94.634749 233.676754
L 92.781393 228.178795
L 90.928038 249.962215
L 89.074682 252.782426
L 87.221327 267.084193
L 85.367971 247.423672
L 83.514616 287.178992
L 81.66126 362.737014
L 79.807905 263.560533
L 77.954549 250.354374
L 76.101194 264.85808
L 74.247838 307.637993
L 72.394483 248.541349
L 70.541127 233.382984
z
" clip-path="url(#pc42b3cb369)" style="fill: #1f77b4; fill-opacity: 0.5"/>
   </g>
   <g id="matplotlib.axis_1">
    <g id="xtick_1">
     <g id="line2d_1">
      <defs>
       <path id="m18501b49a6" d="M 0 0
L 0 3.5
" style="stroke: #000000; stroke-width: 0.8"/>
      </defs>
      <g>
       <use xlink:href="#m18501b49a6" x="70.541127" y="325.921635" style="stroke: #000000; stroke-width: 0.8"/>
      </g>
     </g>
     <g id="text_1">
      <!-- −10.0 -->
      <g transform="translate(55.218471 340.520072)scale(0.1 -0.1)">
       <defs>
        <path id="DejaVuSans-2212" d="M 678 2272
L 4684 2272
L 4684 1741
L 678 1741
L 678 2272
z
" transform="scale(0.015625)"/>
        <path id="DejaVuSans-31" d="M 794 531
L 1825 531
L 1825 4091
L 703 3866
L 703 4441
L 1819 4666
L 2450 4666
L 2450 531
L 3481 531
L 3481 0
L 794 0
L 794 531
z
" transform="scale(0.015625)"/>
        <path id="DejaVuSans-30" d="M 2034 4250
Q 1547 4250 1301 3770
Q 1056 3291 1056 2328
Q 1056 1369 1301 889
Q 1547 409 2034 409
Q 2525 409 2770 889
Q 3016 1369 3016 2328
Q 3016 3291 2770 3770
Q 2525 4250 2034 4250
z
M 2034 4750
Q 2819 4750 3233 4129
Q 3647 3509 3647 2328
Q 3647 1150 3233 529
Q 2819 -91 2034 -91
Q 1250 -91 836 529
Q 422 1150 422 2328
Q 422 3509 836 4129
Q 1250 4750 2034 4750
z
" transform="scale(0.015625)"/>
        <path id="DejaVuSans-2e" d="M 684 794
L 1344 794
L 1344 0
L 684 0
L 684 794
z
" transform="scale(0.015625)"/>
       </defs>
       <use xlink:href="#DejaVuSans-2212"/>
       <use xlink:href="#DejaVuSans-31" x="83.789062"/>
       <use xlink:href="#DejaVuSans-30" x="147.412109"/>
       <use xlink:href="#DejaVuSans-2e" x="211.035156"/>
       <use xlink:href="#DejaVuSans-30" x="242.822266"/>
      </g>
     </g>
    </g>
    <g id="xtick_2">
     <g id="line2d_2">
      <g>
       <use xlink:href="#m18501b49a6" x="116.643345" y="325.921635" style="stroke: #000000; stroke-width: 0.8"/>
      </g>
     </g>
     <g id="text_2">
      <!-- −7.5 -->
      <g transform="translate(104.501939 340.520072)scale(0.1 -0.1)">
       <defs>
        <path id="DejaVuSans-37" d="M 525 4666
L 3525 4666
L 3525 4397
L 1831 0
L 1172 0
L 2766 4134
L 525 4134
L 525 4666
z
" transform="scale(0.015625)"/>
        <path id="DejaVuSans-35" d="M 691 4666
L 3169 4666
L 3169 4134
L 1269 4134
L 1269 2991
Q 1406 3038 1543 3061
Q 1681 3084 1819 3084
Q 2600 3084 3056 2656
Q 3513 2228 3513 1497
Q 3513 744 3044 326
Q 2575 -91 1722 -91
Q 1428 -91 1123 -41
Q 819 9 494 109
L 494 744
Q 775 591 1075 516
Q 1375 441 1709 441
Q 2250 441 2565 725
Q 2881 1009 2881 1497
Q 2881 1984 2565 2268
Q 2250 2553 1709 2553
Q 1456 2553 1204 2497
Q 953 2441 691 2322
L 691 4666
z
" transform="scale(0.015625)"/>
       </defs>
       <use xlink:href="#DejaVuSans-2212"/>
       <use xlink:href="#DejaVuSans-37" x="83.789062"/>
       <use xlink:href="#DejaVuSans-2e" x="147.412109"/>
       <use xlink:href="#DejaVuSans-35" x="179.199219"/>
      </g>
     </g>
    </g>
    <g id="xtick_3">
     <g id="line2d_3">
      <g>
       <use xlink:href="#m18501b49a6" x="162.745564" y="325.921635" style="stroke: #000000; stroke-width: 0.8"/>
      </g>
     </g>
     <g id="text_3">
      <!-- −5.0 -->
      <g transform="translate(150.604157 340.520072)scale(0.1 -0.1)">
       <use xlink:href="#DejaVuSans-2212"/>
       <use xlink:href="#DejaVuSans-35" x="83.789062"/>
       <use xlink:href="#DejaVuSans-2e" x="147.412109"/>
       <use xlink:href="#DejaVuSans-30" x="179.199219"/>
      </g>
     </g>
    </g>
    <g id="xtick_4">
     <g id="line2d_4">
      <g>
       <use xlink:href="#m18501b49a6" x="208.847782" y="325.921635" style="stroke: #000000; stroke-width: 0.8"/>
      </g>
     </g>
     <g id="text_4">
      <!-- −2.5 -->
      <g transform="translate(196.706376 340.520072)scale(0.1 -0.1)">
       <defs>
        <path id="DejaVuSans-32" d="M 1228 531
L 3431 531
L 3431 0
L 469 0
L 469 531
Q 828 903 1448 1529
Q 2069 2156 2228 2338
Q 2531 2678 2651 2914
Q 2772 3150 2772 3378
Q 2772 3750 2511 3984
Q 2250 4219 1831 4219
Q 1534 4219 1204 4116
Q 875 4013 500 3803
L 500 4441
Q 881 4594 1212 4672
Q 1544 4750 1819 4750
Q 2544 4750 2975 4387
Q 3406 4025 3406 3419
Q 3406 3131 3298 2873
Q 3191 2616 2906 2266
Q 2828 2175 2409 1742
Q 1991 1309 1228 531
z
" transform="scale(0.015625)"/>
       </defs>
       <use xlink:href="#DejaVuSans-2212"/>
       <use xlink:href="#DejaVuSans-32" x="83.789062"/>
       <use xlink:href="#DejaVuSans-2e" x="147.412109"/>
       <use xlink:href="#DejaVuSans-35" x="179.199219"/>
      </g>
     </g>
    </g>
    <g id="xtick_5">
     <g id="line2d_5">
      <g>
       <use xlink:href="#m18501b49a6" x="254.95" y="325.921635" style="stroke: #000000; stroke-width: 0.8"/>
      </g>
     </g>
     <g id="text_5">
      <!-- 0.0 -->
      <g transform="translate(246.998437 340.520072)scale(0.1 -0.1)">
       <use xlink:href="#DejaVuSans-30"/>
       <use xlink:href="#DejaVuSans-2e" x="63.623047"/>
       <use xlink:href="#DejaVuSans-30" x="95.410156"/>
      </g>
     </g>
    </g>
    <g id="xtick_6">
     <g id="line2d_6">
      <g>
       <use xlink:href="#m18501b49a6" x="301.052218" y="325.921635" style="stroke: #000000; stroke-width: 0.8"/>
      </g>
     </g>
     <g id="text_6">
      <!-- 2.5 -->
      <g transform="translate(293.100656 340.520072)scale(0.1 -0.1)">
       <use xlink:href="#DejaVuSans-32"/>
       <use xlink:href="#DejaVuSans-2e" x="63.623047"/>
       <use xlink:href="#DejaVuSans-35" x="95.410156"/>
      </g>
     </g>
    </g>
    <g id="xtick_7">
     <g id="line2d_7">
      <g>
       <use xlink:href="#m18501b49a6" x="347.154436" y="325.921635" style="stroke: #000000; stroke-width: 0.8"/>
      </g>
     </g>
     <g id="text_7">
      <!-- 5.0 -->
      <g transform="translate(339.202874 340.520072)scale(0.1 -0.1)">
       <use xlink:href="#DejaVuSans-35"/>
       <use xlink:href="#DejaVuSans-2e" x="63.623047"/>
       <use xlink:href="#DejaVuSans-30" x="95.410156"/>
      </g>
     </g>
    </g>
    <g id="xtick_8">
     <g id="line2d_8">
      <g>
       <use xlink:href="#m18501b49a6" x="393.256655" y="325.921635" style="stroke: #000000; stroke-width: 0.8"/>
      </g>
     </g>
     <g id="text_8">
      <!-- 7.5 -->
      <g transform="translate(385.305092 340.520072)scale(0.1 -0.1)">
       <use xlink:href="#DejaVuSans-37"/>
       <use xlink:href="#DejaVuSans-2e" x="63.623047"/>
       <use xlink:href="#DejaVuSans-35" x="95.410156"/>
      </g>
     </g>
    </g>
    <g id="xtick_9">
     <g id="line2d_9">
      <g>
       <use xlink:href="#m18501b49a6" x="439.358873" y="325.921635" style="stroke: #000000; stroke-width: 0.8"/>
      </g>
     </g>
     <g id="text_9">
      <!-- 10.0 -->
      <g transform="translate(428.22606 340.520072)scale(0.1 -0.1)">
       <use xlink:href="#DejaVuSans-31"/>
       <use xlink:href="#DejaVuSans-30" x="63.623047"/>
       <use xlink:href="#DejaVuSans-2e" x="127.246094"/>
       <use xlink:href="#DejaVuSans-30" x="159.033203"/>
      </g>
     </g>
    </g>
   </g>
   <g id="matplotlib.axis_2">
    <g id="ytick_1">
     <g id="line2d_10">
      <defs>
       <path id="m50079f4f0d" d="M 0 0
L -3.5 0
" style="stroke: #000000; stroke-width: 0.8"/>
      </defs>
      <g>
       <use xlink:href="#m50079f4f0d" x="52.10024" y="325.921635" style="stroke: #000000; stroke-width: 0.8"/>
      </g>
     </g>
     <g id="text_10">
      <!-- $\mathdefault{10^{-17}}$ -->
      <g transform="translate(17.20024 329.720854)scale(0.1 -0.1)">
       <use xlink:href="#DejaVuSans-31" transform="translate(0 0.684375)"/>
       <use xlink:href="#DejaVuSans-30" transform="translate(63.623047 0.684375)"/>
       <use xlink:href="#DejaVuSans-2212" transform="translate(128.203125 38.965625)scale(0.7)"/>
       <use xlink:href="#DejaVuSans-31" transform="translate(186.855469 38.965625)scale(0.7)"/>
       <use xlink:href="#DejaVuSans-37" transform="translate(231.391602 38.965625)scale(0.7)"/>
      </g>
     </g>
    </g>
    <g id="ytick_2">
     <g id="line2d_11">
      <g>
       <use xlink:href="#m50079f4f0d" x="52.10024" y="249.21738" style="stroke: #000000; stroke-width: 0.8"/>
      </g>
     </g>
     <g id="text_11">
      <!-- $\mathdefault{10^{-16}}$ -->
      <g transform="translate(17.20024 253.016599)scale(0.1 -0.1)">
       <defs>
        <path id="DejaVuSans-36" d="M 2113 2584
Q 1688 2584 1439 2293
Q 1191 2003 1191 1497
Q 1191 994 1439 701
Q 1688 409 2113 409
Q 2538 409 2786 701
Q 3034 994 3034 1497
Q 3034 2003 2786 2293
Q 2538 2584 2113 2584
z
M 3366 4563
L 3366 3988
Q 3128 4100 2886 4159
Q 2644 4219 2406 4219
Q 1781 4219 1451 3797
Q 1122 3375 1075 2522
Q 1259 2794 1537 2939
Q 1816 3084 2150 3084
Q 2853 3084 3261 2657
Q 3669 2231 3669 1497
Q 3669 778 3244 343
Q 2819 -91 2113 -91
Q 1303 -91 875 529
Q 447 1150 447 2328
Q 447 3434 972 4092
Q 1497 4750 2381 4750
Q 2619 4750 2861 4703
Q 3103 4656 3366 4563
z
" transform="scale(0.015625)"/>
       </defs>
       <use xlink:href="#DejaVuSans-31" transform="translate(0 0.765625)"/>
       <use xlink:href="#DejaVuSans-30" transform="translate(63.623047 0.765625)"/>
       <use xlink:href="#DejaVuSans-2212" transform="translate(128.203125 39.046875)scale(0.7)"/>
       <use xlink:href="#DejaVuSans-31" transform="translate(186.855469 39.046875)scale(0.7)"/>
       <use xlink:href="#DejaVuSans-36" transform="translate(231.391602 39.046875)scale(0.7)"/>
      </g>
     </g>
    </g>
    <g id="ytick_3">
     <g id="line2d_12">
      <g>
       <use xlink:href="#m50079f4f0d" x="52.10024" y="172.513125" style="stroke: #000000; stroke-width: 0.8"/>
      </g>
     </g>
     <g id="text_12">
      <!-- $\mathdefault{10^{-15}}$ -->
      <g transform="translate(17.20024 176.312344)scale(0.1 -0.1)">
       <use xlink:href="#DejaVuSans-31" transform="translate(0 0.684375)"/>
       <use xlink:href="#DejaVuSans-30" transform="translate(63.623047 0.684375)"/>
       <use xlink:href="#DejaVuSans-2212" transform="translate(128.203125 38.965625)scale(0.7)"/>
       <use xlink:href="#DejaVuSans-31" transform="translate(186.855469 38.965625)scale(0.7)"/>
       <use xlink:href="#DejaVuSans-35" transform="translate(231.391602 38.965625)scale(0.7)"/>
      </g>
     </g>
    </g>
    <g id="ytick_4">
     <g id="line2d_13">
      <g>
       <use xlink:href="#m50079f4f0d" x="52.10024" y="95.80887" style="stroke: #000000; stroke-width: 0.8"/>
      </g>
     </g>
     <g id="text_13">
      <!-- $\mathdefault{10^{-14}}$ -->
      <g transform="translate(17.20024 99.608089)scale(0.1 -0.1)">
       <defs>
        <path id="DejaVuSans-34" d="M 2419 4116
L 825 1625
L 2419 1625
L 2419 4116
z
M 2253 4666
L 3047 4666
L 3047 1625
L 3713 1625
L 3713 1100
L 3047 1100
L 3047 0
L 2419 0
L 2419 1100
L 313 1100
L 313 1709
L 2253 4666
z
" transform="scale(0.015625)"/>
       </defs>
       <use xlink:href="#DejaVuSans-31" transform="translate(0 0.684375)"/>
       <use xlink:href="#DejaVuSans-30" transform="translate(63.623047 0.684375)"/>
       <use xlink:href="#DejaVuSans-2212" transform="translate(128.203125 38.965625)scale(0.7)"/>
       <use xlink:href="#DejaVuSans-31" transform="translate(186.855469 38.965625)scale(0.7)"/>
       <use xlink:href="#DejaVuSans-34" transform="translate(231.391602 38.965625)scale(0.7)"/>
      </g>
     </g>
    </g>
    <g id="ytick_5">
     <g id="line2d_14">
      <g>
       <use xlink:href="#m50079f4f0d" x="52.10024" y="19.104615" style="stroke: #000000; stroke-width: 0.8"/>
      </g>
     </g>
     <g id="text_14">
      <!-- $\mathdefault{10^{-13}}$ -->
      <g transform="translate(17.20024 22.903834)scale(0.1 -0.1)">
       <defs>
        <path id="DejaVuSans-33" d="M 2597 2516
Q 3050 2419 3304 2112
Q 3559 1806 3559 1356
Q 3559 666 3084 287
Q 2609 -91 1734 -91
Q 1441 -91 1130 -33
Q 819 25 488 141
L 488 750
Q 750 597 1062 519
Q 1375 441 1716 441
Q 2309 441 2620 675
Q 2931 909 2931 1356
Q 2931 1769 2642 2001
Q 2353 2234 1838 2234
L 1294 2234
L 1294 2753
L 1863 2753
Q 2328 2753 2575 2939
Q 2822 3125 2822 3475
Q 2822 3834 2567 4026
Q 2313 4219 1838 4219
Q 1578 4219 1281 4162
Q 984 4106 628 3988
L 628 4550
Q 988 4650 1302 4700
Q 1616 4750 1894 4750
Q 2613 4750 3031 4423
Q 3450 4097 3450 3541
Q 3450 3153 3228 2886
Q 3006 2619 2597 2516
z
" transform="scale(0.015625)"/>
       </defs>
       <use xlink:href="#DejaVuSans-31" transform="translate(0 0.765625)"/>
       <use xlink:href="#DejaVuSans-30" transform="translate(63.623047 0.765625)"/>
       <use xlink:href="#DejaVuSans-2212" transform="translate(128.203125 39.046875)scale(0.7)"/>
       <use xlink:href="#DejaVuSans-31" transform="translate(186.855469 39.046875)scale(0.7)"/>
       <use xlink:href="#DejaVuSans-33" transform="translate(231.391602 39.046875)scale(0.7)"/>
      </g>
     </g>
    </g>
    <g id="ytick_6">
     <g id="line2d_15">
      <defs>
       <path id="m6e5901df97" d="M 0 0
L -2 0
" style="stroke: #000000; stroke-width: 0.6"/>
      </defs>
      <g>
       <use xlink:href="#m6e5901df97" x="52.10024" y="302.831353" style="stroke: #000000; stroke-width: 0.6"/>
      </g>
     </g>
    </g>
    <g id="ytick_7">
     <g id="line2d_16">
      <g>
       <use xlink:href="#m6e5901df97" x="52.10024" y="289.324405" style="stroke: #000000; stroke-width: 0.6"/>
      </g>
     </g>
    </g>
    <g id="ytick_8">
     <g id="line2d_17">
      <g>
       <use xlink:href="#m6e5901df97" x="52.10024" y="279.741072" style="stroke: #000000; stroke-width: 0.6"/>
      </g>
     </g>
    </g>
    <g id="ytick_9">
     <g id="line2d_18">
      <g>
       <use xlink:href="#m6e5901df97" x="52.10024" y="272.307662" style="stroke: #000000; stroke-width: 0.6"/>
      </g>
     </g>
    </g>
    <g id="ytick_10">
     <g id="line2d_19">
      <g>
       <use xlink:href="#m6e5901df97" x="52.10024" y="266.234123" style="stroke: #000000; stroke-width: 0.6"/>
      </g>
     </g>
    </g>
    <g id="ytick_11">
     <g id="line2d_20">
      <g>
       <use xlink:href="#m6e5901df97" x="52.10024" y="261.099019" style="stroke: #000000; stroke-width: 0.6"/>
      </g>
     </g>
    </g>
    <g id="ytick_12">
     <g id="line2d_21">
      <g>
       <use xlink:href="#m6e5901df97" x="52.10024" y="256.65079" style="stroke: #000000; stroke-width: 0.6"/>
      </g>
     </g>
    </g>
    <g id="ytick_13">
     <g id="line2d_22">
      <g>
       <use xlink:href="#m6e5901df97" x="52.10024" y="252.727174" style="stroke: #000000; stroke-width: 0.6"/>
      </g>
     </g>
    </g>
    <g id="ytick_14">
     <g id="line2d_23">
      <g>
       <use xlink:href="#m6e5901df97" x="52.10024" y="226.127098" style="stroke: #000000; stroke-width: 0.6"/>
      </g>
     </g>
    </g>
    <g id="ytick_15">
     <g id="line2d_24">
      <g>
       <use xlink:href="#m6e5901df97" x="52.10024" y="212.62015" style="stroke: #000000; stroke-width: 0.6"/>
      </g>
     </g>
    </g>
    <g id="ytick_16">
     <g id="line2d_25">
      <g>
       <use xlink:href="#m6e5901df97" x="52.10024" y="203.036817" style="stroke: #000000; stroke-width: 0.6"/>
      </g>
     </g>
    </g>
    <g id="ytick_17">
     <g id="line2d_26">
      <g>
       <use xlink:href="#m6e5901df97" x="52.10024" y="195.603407" style="stroke: #000000; stroke-width: 0.6"/>
      </g>
     </g>
    </g>
    <g id="ytick_18">
     <g id="line2d_27">
      <g>
       <use xlink:href="#m6e5901df97" x="52.10024" y="189.529868" style="stroke: #000000; stroke-width: 0.6"/>
      </g>
     </g>
    </g>
    <g id="ytick_19">
     <g id="line2d_28">
      <g>
       <use xlink:href="#m6e5901df97" x="52.10024" y="184.394764" style="stroke: #000000; stroke-width: 0.6"/>
      </g>
     </g>
    </g>
    <g id="ytick_20">
     <g id="line2d_29">
      <g>
       <use xlink:href="#m6e5901df97" x="52.10024" y="179.946535" style="stroke: #000000; stroke-width: 0.6"/>
      </g>
     </g>
    </g>
    <g id="ytick_21">
     <g id="line2d_30">
      <g>
       <use xlink:href="#m6e5901df97" x="52.10024" y="176.022919" style="stroke: #000000; stroke-width: 0.6"/>
      </g>
     </g>
    </g>
    <g id="ytick_22">
     <g id="line2d_31">
      <g>
       <use xlink:href="#m6e5901df97" x="52.10024" y="149.422843" style="stroke: #000000; stroke-width: 0.6"/>
      </g>
     </g>
    </g>
    <g id="ytick_23">
     <g id="line2d_32">
      <g>
       <use xlink:href="#m6e5901df97" x="52.10024" y="135.915895" style="stroke: #000000; stroke-width: 0.6"/>
      </g>
     </g>
    </g>
    <g id="ytick_24">
     <g id="line2d_33">
      <g>
       <use xlink:href="#m6e5901df97" x="52.10024" y="126.332562" style="stroke: #000000; stroke-width: 0.6"/>
      </g>
     </g>
    </g>
    <g id="ytick_25">
     <g id="line2d_34">
      <g>
       <use xlink:href="#m6e5901df97" x="52.10024" y="118.899152" style="stroke: #000000; stroke-width: 0.6"/>
      </g>
     </g>
    </g>
    <g id="ytick_26">
     <g id="line2d_35">
      <g>
       <use xlink:href="#m6e5901df97" x="52.10024" y="112.825613" style="stroke: #000000; stroke-width: 0.6"/>
      </g>
     </g>
    </g>
    <g id="ytick_27">
     <g id="line2d_36">
      <g>
       <use xlink:href="#m6e5901df97" x="52.10024" y="107.690509" style="stroke: #000000; stroke-width: 0.6"/>
      </g>
     </g>
    </g>
    <g id="ytick_28">
     <g id="line2d_37">
      <g>
       <use xlink:href="#m6e5901df97" x="52.10024" y="103.24228" style="stroke: #000000; stroke-width: 0.6"/>
      </g>
     </g>
    </g>
    <g id="ytick_29">
     <g id="line2d_38">
      <g>
       <use xlink:href="#m6e5901df97" x="52.10024" y="99.318664" style="stroke: #000000; stroke-width: 0.6"/>
      </g>
     </g>
    </g>
    <g id="ytick_30">
     <g id="line2d_39">
      <g>
       <use xlink:href="#m6e5901df97" x="52.10024" y="72.718588" style="stroke: #000000; stroke-width: 0.6"/>
      </g>
     </g>
    </g>
    <g id="ytick_31">
     <g id="line2d_40">
      <g>
       <use xlink:href="#m6e5901df97" x="52.10024" y="59.21164" style="stroke: #000000; stroke-width: 0.6"/>
      </g>
     </g>
    </g>
    <g id="ytick_32">
     <g id="line2d_41">
      <g>
       <use xlink:href="#m6e5901df97" x="52.10024" y="49.628307" style="stroke: #000000; stroke-width: 0.6"/>
      </g>
     </g>
    </g>
    <g id="ytick_33">
     <g id="line2d_42">
      <g>
       <use xlink:href="#m6e5901df97" x="52.10024" y="42.194897" style="stroke: #000000; stroke-width: 0.6"/>
      </g>
     </g>
    </g>
    <g id="ytick_34">
     <g id="line2d_43">
      <g>
       <use xlink:href="#m6e5901df97" x="52.10024" y="36.121358" style="stroke: #000000; stroke-width: 0.6"/>
      </g>
     </g>
    </g>
    <g id="ytick_35">
     <g id="line2d_44">
      <g>
       <use xlink:href="#m6e5901df97" x="52.10024" y="30.986254" style="stroke: #000000; stroke-width: 0.6"/>
      </g>
     </g>
    </g>
    <g id="ytick_36">
     <g id="line2d_45">
      <g>
       <use xlink:href="#m6e5901df97" x="52.10024" y="26.538025" style="stroke: #000000; stroke-width: 0.6"/>
      </g>
     </g>
    </g>
    <g id="ytick_37">
     <g id="line2d_46">
      <g>
       <use xlink:href="#m6e5901df97" x="52.10024" y="22.614409" style="stroke: #000000; stroke-width: 0.6"/>
      </g>
     </g>
    </g>
    <g id="text_15">
     <!-- $|f'_\mathrm{num}(x) - f'(x)|$ -->
     <g transform="translate(10.80024 210.263125)rotate(-90)scale(0.1 -0.1)">
      <defs>
       <path id="DejaVuSans-7c" d="M 1344 4891
L 1344 -1509
L 813 -1509
L 813 4891
L 1344 4891
z
" transform="scale(0.015625)"/>
       <path id="DejaVuSans-Oblique-66" d="M 3059 4863
L 2969 4384
L 2419 4384
Q 2106 4384 1964 4261
Q 1822 4138 1753 3809
L 1691 3500
L 2638 3500
L 2553 3053
L 1606 3053
L 1013 0
L 434 0
L 1031 3053
L 481 3053
L 563 3500
L 1113 3500
L 1159 3744
Q 1278 4363 1576 4613
Q 1875 4863 2516 4863
L 3059 4863
z
" transform="scale(0.015625)"/>
       <path id="Cmsy10-30" d="M 225 347
Q 184 359 184 409
L 966 3316
Q 1003 3434 1093 3506
Q 1184 3578 1300 3578
Q 1450 3578 1564 3479
Q 1678 3381 1678 3231
Q 1678 3166 1644 3084
L 488 319
Q 466 275 428 275
Q 394 275 320 306
Q 247 338 225 347
z
" transform="scale(0.015625)"/>
       <path id="DejaVuSans-6e" d="M 3513 2113
L 3513 0
L 2938 0
L 2938 2094
Q 2938 2591 2744 2837
Q 2550 3084 2163 3084
Q 1697 3084 1428 2787
Q 1159 2491 1159 1978
L 1159 0
L 581 0
L 581 3500
L 1159 3500
L 1159 2956
Q 1366 3272 1645 3428
Q 1925 3584 2291 3584
Q 2894 3584 3203 3211
Q 3513 2838 3513 2113
z
" transform="scale(0.015625)"/>
       <path id="DejaVuSans-75" d="M 544 1381
L 544 3500
L 1119 3500
L 1119 1403
Q 1119 906 1312 657
Q 1506 409 1894 409
Q 2359 409 2629 706
Q 2900 1003 2900 1516
L 2900 3500
L 3475 3500
L 3475 0
L 2900 0
L 2900 538
Q 2691 219 2414 64
Q 2138 -91 1772 -91
Q 1169 -91 856 284
Q 544 659 544 1381
z
M 1991 3584
L 1991 3584
z
" transform="scale(0.015625)"/>
       <path id="DejaVuSans-6d" d="M 3328 2828
Q 3544 3216 3844 3400
Q 4144 3584 4550 3584
Q 5097 3584 5394 3201
Q 5691 2819 5691 2113
L 5691 0
L 5113 0
L 5113 2094
Q 5113 2597 4934 2840
Q 4756 3084 4391 3084
Q 3944 3084 3684 2787
Q 3425 2491 3425 1978
L 3425 0
L 2847 0
L 2847 2094
Q 2847 2600 2669 2842
Q 2491 3084 2119 3084
Q 1678 3084 1418 2786
Q 1159 2488 1159 1978
L 1159 0
L 581 0
L 581 3500
L 1159 3500
L 1159 2956
Q 1356 3278 1631 3431
Q 1906 3584 2284 3584
Q 2666 3584 2933 3390
Q 3200 3197 3328 2828
z
" transform="scale(0.015625)"/>
       <path id="DejaVuSans-28" d="M 1984 4856
Q 1566 4138 1362 3434
Q 1159 2731 1159 2009
Q 1159 1288 1364 580
Q 1569 -128 1984 -844
L 1484 -844
Q 1016 -109 783 600
Q 550 1309 550 2009
Q 550 2706 781 3412
Q 1013 4119 1484 4856
L 1984 4856
z
" transform="scale(0.015625)"/>
       <path id="DejaVuSans-Oblique-78" d="M 3841 3500
L 2234 1784
L 3219 0
L 2559 0
L 1819 1388
L 531 0
L -166 0
L 1556 1844
L 641 3500
L 1300 3500
L 1972 2234
L 3144 3500
L 3841 3500
z
" transform="scale(0.015625)"/>
       <path id="DejaVuSans-29" d="M 513 4856
L 1013 4856
Q 1481 4119 1714 3412
Q 1947 2706 1947 2009
Q 1947 1309 1714 600
Q 1481 -109 1013 -844
L 513 -844
Q 928 -128 1133 580
Q 1338 1288 1338 2009
Q 1338 2731 1133 3434
Q 928 4138 513 4856
z
" transform="scale(0.015625)"/>
      </defs>
      <use xlink:href="#DejaVuSans-7c" transform="translate(0 0.584375)"/>
      <use xlink:href="#DejaVuSans-Oblique-66" transform="translate(33.691406 0.584375)"/>
      <use xlink:href="#Cmsy10-30" transform="translate(76.344193 38.865625)scale(0.7)"/>
      <use xlink:href="#DejaVuSans-6e" transform="translate(99.278763 -15.821875)scale(0.7)"/>
      <use xlink:href="#DejaVuSans-75" transform="translate(143.643997 -15.821875)scale(0.7)"/>
      <use xlink:href="#DejaVuSans-6d" transform="translate(188.009232 -15.821875)scale(0.7)"/>
      <use xlink:href="#DejaVuSans-28" transform="translate(258.932083 0.584375)"/>
      <use xlink:href="#DejaVuSans-Oblique-78" transform="translate(297.945755 0.584375)"/>
      <use xlink:href="#DejaVuSans-29" transform="translate(357.125443 0.584375)"/>
      <use xlink:href="#DejaVuSans-2212" transform="translate(415.621536 0.584375)"/>
      <use xlink:href="#DejaVuSans-Oblique-66" transform="translate(518.893021 0.584375)"/>
      <use xlink:href="#Cmsy10-30" transform="translate(561.545807 38.865625)scale(0.7)"/>
      <use xlink:href="#DejaVuSans-28" transform="translate(583.523346 0.584375)"/>
      <use xlink:href="#DejaVuSans-Oblique-78" transform="translate(622.537018 0.584375)"/>
      <use xlink:href="#DejaVuSans-29" transform="translate(681.716706 0.584375)"/>
      <use xlink:href="#DejaVuSans-7c" transform="translate(720.730378 0.584375)"/>
     </g>
    </g>
   </g>
   <g id="line2d_47">
    <path d="M 70.541127 210.554748
L 72.394483 250.182451
L 74.247838 227.09217
L 76.101194 255.317555
L 77.954549 268.824504
L 79.807905 268.824504
L 79.809815 346.6
M 83.513272 346.6
L 83.514616 291.914785
L 85.367971 245.734222
L 87.221327 235.125817
L 89.074682 207.77712
L 90.928038 261.391093
L 92.781393 169.87336
L 94.634749 192.120249
L 96.488104 188.196633
L 98.34146 241.810606
L 100.194815 210.554748
L 102.048171 227.09217
L 103.901526 221.618868
L 105.754882 188.56884
L 107.608237 278.407836
L 109.461593 220.624399
L 111.314948 149.739911
L 113.168304 188.850751
L 115.021659 145.218836
L 116.875015 216.919225
L 118.72837 165.854972
L 120.581726 194.270171
L 122.435081 158.725785
L 122.439689 346.6
M 126.137305 346.6
L 126.141792 163.657765
L 127.995148 220.624399
L 129.848503 315.005067
L 131.701859 201.703581
L 133.555214 222.643941
L 135.40857 232.227273
L 137.261925 291.914785
L 142.821992 291.914785
L 144.675347 204.001888
L 146.528703 195.630043
L 148.382058 190.494939
L 150.235414 179.742636
L 152.088769 206.47059
L 153.942125 209.136992
L 155.79548 197.534117
L 157.648836 172.539761
L 159.502192 206.47059
L 161.355547 200.611279
L 163.208903 174.443836
L 165.062258 241.810606
L 166.915614 198.027641
L 168.768969 199.553659
L 170.622325 163.83543
L 172.47568 147.675786
L 174.329036 175.438305
L 176.182391 209.838328
L 178.035747 250.182451
L 179.889102 134.731043
L 181.742458 241.810606
L 183.595813 183.380309
L 185.449169 268.824504
L 187.302524 227.09217
L 189.15588 177.520998
L 191.009235 204.001888
L 192.862591 209.136992
L 194.715946 268.824504
L 198.422657 268.824504
L 200.276013 199.553659
L 200.279621 346.6
M 203.979499 346.6
L 203.982724 215.21053
L 205.836079 165.854972
L 207.689435 144.314376
L 209.54279 160.290027
L 211.396146 134.141431
L 213.249501 165.854972
L 215.102857 172.539761
L 216.956212 199.553659
L 218.809568 215.21053
L 220.662923 245.734222
L 222.516279 138.506275
L 224.369634 149.44948
L 226.22299 117.124688
L 228.076345 104.207352
L 229.929701 192.120249
L 231.783056 123.268431
L 233.636412 123.268431
L 235.489767 135.33128
L 237.343123 159.032813
L 239.196478 132.992619
L 241.049834 209.136992
L 242.903189 111.197577
L 244.756545 130.807427
L 246.6099 143.145406
L 248.463256 156.940774
L 250.316611 77.538937
L 252.169967 115.79288
L 254.023322 150.626713
L 255.876678 123.826527
L 257.730033 161.763536
L 259.583389 165.478559
L 261.436744 96.489625
L 263.2901 121.422974
L 265.143455 142.388277
L 266.996811 144.71333
L 268.850166 137.521605
L 270.703522 142.016069
L 272.556877 170.738661
L 274.410233 155.523018
L 276.263588 186.04671
L 278.116944 150.387915
L 279.970299 133.562073
L 281.823655 105.916046
L 283.67701 176.463378
L 285.530366 122.849404
L 287.383721 157.821325
L 287.388351 346.6
M 291.084825 346.6
L 291.090432 117.833486
L 292.943788 117.124688
L 294.797143 178.6133
L 296.650499 186.04671
L 298.503854 133.562073
L 300.35721 183.380309
L 302.210565 146.783078
L 304.063921 215.21053
L 305.917276 204.001888
L 307.770632 204.001888
L 309.623987 232.227273
L 311.477343 232.227273
L 313.330698 268.824504
L 315.184054 204.001888
L 317.037409 199.553659
L 318.890765 190.494939
L 320.74412 199.553659
L 322.597476 161.596557
L 324.450831 232.227273
L 326.304187 212.035535
L 328.157542 164.374185
L 330.010898 183.380309
L 331.864253 165.478559
L 333.717609 168.616145
L 335.570964 172.539761
L 337.42432 185.232609
L 339.277675 188.756515
L 341.131031 227.09217
L 342.984386 183.380309
L 344.837742 250.182451
L 346.691097 164.014049
L 348.544453 153.897709
L 350.397808 181.511843
L 352.251164 188.945254
L 354.10452 218.720324
L 355.957875 160.936887
L 357.811231 179.742636
L 359.664586 164.374185
L 361.517942 204.001888
L 363.371297 174.443836
L 365.224653 238.300812
L 367.078008 255.317555
L 368.931364 291.914785
L 372.638075 291.914785
L 374.49143 245.734222
L 376.344786 222.643941
L 378.198141 195.630043
L 380.051497 315.005067
L 381.904852 152.348023
L 383.758208 163.657765
L 385.611563 222.643941
L 387.464919 158.725785
L 389.318274 191.297683
L 391.17163 165.854972
L 393.024985 188.756515
L 394.878341 145.218836
L 396.731696 176.10744
L 398.585052 149.739911
L 400.438407 291.914785
L 402.291763 278.407836
L 404.145118 212.801367
L 405.998474 221.618868
L 407.851829 186.04671
L 409.705185 210.554748
L 411.55854 212.035535
L 413.411896 188.196633
L 415.265251 200.611279
L 417.118607 169.87336
L 418.971962 220.624399
L 420.825318 207.77712
L 422.678673 315.005067
L 424.532029 245.734222
L 426.385384 278.407836
L 426.387059 346.6
M 430.090752 346.6
L 430.092095 291.914785
L 431.945451 268.824504
L 433.798806 235.125817
L 435.652162 227.09217
L 437.505517 261.391093
L 439.358873 210.554748
L 439.358873 210.554748
" clip-path="url(#pc42b3cb369)" style="fill: none; stroke: #1f77b4; stroke-width: 1.5; stroke-linecap: square"/>
   </g>
   <g id="line2d_48">
    <path d="M 70.541127 241.810606
L 72.394483 255.317555
L 74.247838 157.821325
L 76.101194 182.123094
L 77.954549 291.914785
L 79.807905 315.005067
L 81.66126 245.734222
L 83.514616 315.005067
L 85.367971 238.300812
L 87.221327 268.824504
L 89.074682 175.438305
L 90.928038 154.163146
L 92.781393 159.655489
L 94.634749 172.539761
L 96.488104 177.520998
L 98.34146 180.321994
L 100.194815 238.300812
L 102.048171 148.312433
L 103.901526 187.464466
L 105.754882 182.123094
L 107.608237 127.656476
L 109.461593 104.118242
L 111.314948 108.132827
L 113.168304 98.074999
L 115.021659 146.14854
L 116.875015 190.100707
L 118.72837 166.815045
L 120.581726 146.464299
L 122.435081 144.314376
L 124.288437 132.294224
L 126.141792 159.971247
L 127.995148 268.824504
L 129.848503 261.391093
L 131.701859 222.643941
L 133.555214 199.553659
L 135.40857 222.643941
L 137.261925 255.317555
L 139.115281 291.914785
L 140.968636 255.317555
L 142.821992 118.013067
L 144.675347 197.534117
L 146.528703 197.534117
L 148.382058 227.09217
L 150.235414 83.585772
L 152.088769 137.521605
L 153.942125 145.117119
L 155.79548 121.224095
L 157.648836 170.738661
L 159.502192 178.6133
L 161.355547 115.332817
L 163.208903 204.001888
L 165.062258 102.525437
L 166.915614 218.720324
L 168.768969 180.615496
L 170.622325 169.238822
L 172.47568 168.641859
L 174.329036 153.70001
L 176.182391 117.124688
L 178.035747 220.624399
L 179.889102 136.408444
L 181.742458 171.17989
L 183.595813 137.521605
L 185.449169 184.686838
L 187.302524 174.443836
L 189.15588 209.136992
L 191.009235 155.523018
L 192.862591 178.6133
L 194.715946 174.443836
L 196.569302 232.227273
L 198.422657 222.643941
L 200.276013 204.001888
L 202.129368 133.562073
L 203.982724 268.824504
L 205.836079 245.734222
L 207.689435 156.652355
L 209.54279 139.866147
L 211.396146 141.283903
L 213.249501 148.536759
L 215.102857 136.565208
L 215.108006 346.6
M 218.803409 346.6
L 218.809568 95.284878
L 220.662923 70.078823
L 222.516279 90.227881
L 224.369634 114.109464
L 226.22299 215.21053
L 228.076345 110.185848
L 229.929701 121.224095
L 231.783056 121.224095
L 233.636412 245.734222
L 235.489767 199.553659
L 237.343123 188.945254
L 239.196478 45.854935
L 241.049834 197.534117
L 242.903189 154.97239
L 244.756545 137.521605
L 246.6099 146.783078
L 248.463256 132.711502
L 250.316611 77.726461
L 252.169967 88.144003
L 254.023322 199.814933
L 255.876678 137.079845
L 257.730033 130.413195
L 259.583389 151.353554
L 261.436744 86.847363
L 263.2901 124.777982
L 265.143455 128.509121
L 266.996811 105.916046
L 268.850166 103.852333
L 270.703522 156.652355
L 272.556877 174.443836
L 274.410233 88.999641
L 276.263588 157.821325
L 278.116944 93.340376
L 279.970299 71.922659
L 281.823655 105.666515
L 283.67701 101.467817
L 285.530366 176.463378
L 287.383721 127.297633
L 289.237077 100.602515
L 291.090432 96.773941
L 292.943788 88.25437
L 294.797143 124.999326
L 296.650499 222.643941
L 298.503854 124.558098
L 300.35721 159.032813
L 302.210565 137.199746
L 304.063921 128.263273
L 305.917276 144.314376
L 307.770632 157.821325
L 309.623987 232.227273
L 311.477343 137.199746
L 311.482477 346.6
M 315.179074 346.6
L 315.184054 143.530523
L 317.037409 180.911607
L 318.890765 156.652355
L 320.74412 148.989993
L 322.597476 142.388277
L 324.450831 209.136992
L 326.304187 146.358713
L 328.157542 62.036026
L 330.010898 222.643941
L 331.864253 115.249848
L 333.717609 199.553659
L 335.570964 127.566402
L 337.42432 97.880722
L 339.277675 169.980301
L 341.131031 139.264361
L 342.984386 162.611221
L 344.837742 198.528586
L 346.691097 204.001888
L 348.544453 151.109508
L 350.397808 206.47059
L 352.251164 227.09217
L 354.10452 238.300812
L 355.957875 133.27613
L 357.811231 135.33128
L 359.664586 125.222152
L 361.517942 78.32279
L 363.371297 170.738661
L 363.375611 346.6
M 367.07435 346.6
L 367.078008 197.534117
L 368.931364 255.317555
L 370.784719 291.914785
L 372.638075 255.317555
L 374.49143 209.136992
L 376.344786 199.553659
L 378.198141 165.854972
L 380.051497 261.391093
L 381.904852 153.373096
L 383.758208 159.971247
L 385.611563 216.919225
L 387.464919 144.314376
L 389.318274 149.915393
L 391.17163 166.815045
L 393.024985 193.177869
L 394.878341 146.14854
L 396.731696 120.049142
L 398.585052 108.132827
L 400.438407 135.483045
L 402.291763 127.656476
L 404.145118 130.478577
L 405.998474 187.464466
L 407.851829 153.897709
L 409.705185 238.300812
L 411.55854 125.559209
L 413.411896 177.520998
L 415.265251 204.001888
L 417.118607 159.655489
L 418.971962 201.703581
L 420.825318 175.438305
L 422.678673 196.568478
L 424.532029 238.300812
L 426.385384 220.624399
L 428.23874 245.734222
L 430.092095 241.810606
L 431.945451 291.914785
L 433.798806 210.554748
L 435.652162 157.821325
L 437.505517 152.096609
L 439.358873 241.810606
L 439.358873 241.810606
" clip-path="url(#pc42b3cb369)" style="fill: none; stroke-dasharray: 5.55,2.4; stroke-dashoffset: 0; stroke: #ff7f0e; stroke-width: 1.5"/>
   </g>
   <g id="line2d_49">
    <path d="M 52.10024 172.513125
L 457.79976 172.513125
" clip-path="url(#pc42b3cb369)" style="fill: none; stroke-dasharray: 5.55,2.4; stroke-dashoffset: 0; stroke: #000000; stroke-width: 1.5"/>
   </g>
   <g id="patch_3">
    <path d="M 52.10024 325.921635
L 52.10024 19.104615
" style="fill: none; stroke: #000000; stroke-width: 0.8; stroke-linejoin: miter; stroke-linecap: square"/>
   </g>
   <g id="patch_4">
    <path d="M 457.79976 325.921635
L 457.79976 19.104615
" style="fill: none; stroke: #000000; stroke-width: 0.8; stroke-linejoin: miter; stroke-linecap: square"/>
   </g>
   <g id="patch_5">
    <path d="M 52.10024 325.921635
L 457.79976 325.921635
" style="fill: none; stroke: #000000; stroke-width: 0.8; stroke-linejoin: miter; stroke-linecap: square"/>
   </g>
   <g id="patch_6">
    <path d="M 52.10024 19.104615
L 457.79976 19.104615
" style="fill: none; stroke: #000000; stroke-width: 0.8; stroke-linejoin: miter; stroke-linecap: square"/>
   </g>
   <g id="text_16">
    <!-- $f(x) = sin(x)/x,\quad f'(x) = cos(x) / x - sin(x) / x^2$ -->
    <g transform="translate(129.67 13.104615)scale(0.12 -0.12)">
     <defs>
      <path id="DejaVuSans-3d" d="M 678 2906
L 4684 2906
L 4684 2381
L 678 2381
L 678 2906
z
M 678 1631
L 4684 1631
L 4684 1100
L 678 1100
L 678 1631
z
" transform="scale(0.015625)"/>
      <path id="DejaVuSans-Oblique-73" d="M 3200 3397
L 3091 2853
Q 2863 2978 2609 3040
Q 2356 3103 2088 3103
Q 1634 3103 1373 2948
Q 1113 2794 1113 2528
Q 1113 2219 1719 2053
Q 1766 2041 1788 2034
L 1972 1978
Q 2547 1819 2739 1644
Q 2931 1469 2931 1166
Q 2931 609 2489 259
Q 2047 -91 1331 -91
Q 1053 -91 747 -37
Q 441 16 72 128
L 184 722
Q 500 559 806 475
Q 1113 391 1394 391
Q 1816 391 2080 572
Q 2344 753 2344 1031
Q 2344 1331 1650 1516
L 1591 1531
L 1394 1581
Q 956 1697 753 1886
Q 550 2075 550 2369
Q 550 2928 970 3256
Q 1391 3584 2113 3584
Q 2397 3584 2667 3537
Q 2938 3491 3200 3397
z
" transform="scale(0.015625)"/>
      <path id="DejaVuSans-Oblique-69" d="M 1172 4863
L 1747 4863
L 1606 4134
L 1031 4134
L 1172 4863
z
M 909 3500
L 1484 3500
L 800 0
L 225 0
L 909 3500
z
" transform="scale(0.015625)"/>
      <path id="DejaVuSans-Oblique-6e" d="M 3566 2113
L 3156 0
L 2578 0
L 2988 2091
Q 3016 2238 3031 2350
Q 3047 2463 3047 2528
Q 3047 2791 2881 2937
Q 2716 3084 2419 3084
Q 1956 3084 1622 2776
Q 1288 2469 1184 1941
L 800 0
L 225 0
L 903 3500
L 1478 3500
L 1363 2950
Q 1603 3253 1940 3418
Q 2278 3584 2650 3584
Q 3113 3584 3367 3334
Q 3622 3084 3622 2631
Q 3622 2519 3608 2391
Q 3594 2263 3566 2113
z
" transform="scale(0.015625)"/>
      <path id="DejaVuSans-2f" d="M 1625 4666
L 2156 4666
L 531 -594
L 0 -594
L 1625 4666
z
" transform="scale(0.015625)"/>
      <path id="DejaVuSans-2c" d="M 750 794
L 1409 794
L 1409 256
L 897 -744
L 494 -744
L 750 256
L 750 794
z
" transform="scale(0.015625)"/>
      <path id="DejaVuSans-Oblique-63" d="M 3431 3366
L 3316 2797
Q 3109 2947 2876 3022
Q 2644 3097 2394 3097
Q 2119 3097 1870 3000
Q 1622 2903 1453 2725
Q 1184 2453 1037 2087
Q 891 1722 891 1331
Q 891 859 1127 628
Q 1363 397 1844 397
Q 2081 397 2348 469
Q 2616 541 2906 684
L 2797 116
Q 2547 13 2283 -39
Q 2019 -91 1741 -91
Q 1044 -91 669 257
Q 294 606 294 1253
Q 294 1797 489 2255
Q 684 2713 1069 3078
Q 1331 3328 1684 3456
Q 2038 3584 2456 3584
Q 2700 3584 2940 3529
Q 3181 3475 3431 3366
z
" transform="scale(0.015625)"/>
      <path id="DejaVuSans-Oblique-6f" d="M 1625 -91
Q 1009 -91 651 289
Q 294 669 294 1325
Q 294 1706 417 2101
Q 541 2497 738 2766
Q 1047 3184 1428 3384
Q 1809 3584 2291 3584
Q 2888 3584 3255 3212
Q 3622 2841 3622 2241
Q 3622 1825 3500 1412
Q 3378 1000 3181 728
Q 2875 309 2494 109
Q 2113 -91 1625 -91
z
M 891 1344
Q 891 869 1089 633
Q 1288 397 1691 397
Q 2269 397 2648 901
Q 3028 1406 3028 2181
Q 3028 2634 2825 2865
Q 2622 3097 2228 3097
Q 1903 3097 1650 2945
Q 1397 2794 1197 2484
Q 1050 2253 970 1956
Q 891 1659 891 1344
z
" transform="scale(0.015625)"/>
     </defs>
     <use xlink:href="#DejaVuSans-Oblique-66" transform="translate(0 0.765625)"/>
     <use xlink:href="#DejaVuSans-28" transform="translate(35.205078 0.765625)"/>
     <use xlink:href="#DejaVuSans-Oblique-78" transform="translate(74.21875 0.765625)"/>
     <use xlink:href="#DejaVuSans-29" transform="translate(133.398438 0.765625)"/>
     <use xlink:href="#DejaVuSans-3d" transform="translate(191.894531 0.765625)"/>
     <use xlink:href="#DejaVuSans-Oblique-73" transform="translate(295.166016 0.765625)"/>
     <use xlink:href="#DejaVuSans-Oblique-69" transform="translate(347.265625 0.765625)"/>
     <use xlink:href="#DejaVuSans-Oblique-6e" transform="translate(375.048828 0.765625)"/>
     <use xlink:href="#DejaVuSans-28" transform="translate(438.427734 0.765625)"/>
     <use xlink:href="#DejaVuSans-Oblique-78" transform="translate(477.441406 0.765625)"/>
     <use xlink:href="#DejaVuSans-29" transform="translate(536.621094 0.765625)"/>
     <use xlink:href="#DejaVuSans-2f" transform="translate(575.634766 0.765625)"/>
     <use xlink:href="#DejaVuSans-Oblique-78" transform="translate(609.326172 0.765625)"/>
     <use xlink:href="#DejaVuSans-2c" transform="translate(668.505859 0.765625)"/>
     <use xlink:href="#DejaVuSans-Oblique-66" transform="translate(817.1875 0.765625)"/>
     <use xlink:href="#Cmsy10-30" transform="translate(859.840286 39.046875)scale(0.7)"/>
     <use xlink:href="#DejaVuSans-28" transform="translate(881.817826 0.765625)"/>
     <use xlink:href="#DejaVuSans-Oblique-78" transform="translate(920.831497 0.765625)"/>
     <use xlink:href="#DejaVuSans-29" transform="translate(980.011185 0.765625)"/>
     <use xlink:href="#DejaVuSans-3d" transform="translate(1038.507279 0.765625)"/>
     <use xlink:href="#DejaVuSans-Oblique-63" transform="translate(1141.778763 0.765625)"/>
     <use xlink:href="#DejaVuSans-Oblique-6f" transform="translate(1196.759232 0.765625)"/>
     <use xlink:href="#DejaVuSans-Oblique-73" transform="translate(1257.940872 0.765625)"/>
     <use xlink:href="#DejaVuSans-28" transform="translate(1310.040482 0.765625)"/>
     <use xlink:href="#DejaVuSans-Oblique-78" transform="translate(1349.054154 0.765625)"/>
     <use xlink:href="#DejaVuSans-29" transform="translate(1408.233841 0.765625)"/>
     <use xlink:href="#DejaVuSans-2f" transform="translate(1447.247513 0.765625)"/>
     <use xlink:href="#DejaVuSans-Oblique-78" transform="translate(1480.938919 0.765625)"/>
     <use xlink:href="#DejaVuSans-2212" transform="translate(1559.601029 0.765625)"/>
     <use xlink:href="#DejaVuSans-Oblique-73" transform="translate(1662.872513 0.765625)"/>
     <use xlink:href="#DejaVuSans-Oblique-69" transform="translate(1714.972122 0.765625)"/>
     <use xlink:href="#DejaVuSans-Oblique-6e" transform="translate(1742.755326 0.765625)"/>
     <use xlink:href="#DejaVuSans-28" transform="translate(1806.134232 0.765625)"/>
     <use xlink:href="#DejaVuSans-Oblique-78" transform="translate(1845.147904 0.765625)"/>
     <use xlink:href="#DejaVuSans-29" transform="translate(1904.327591 0.765625)"/>
     <use xlink:href="#DejaVuSans-2f" transform="translate(1943.341263 0.765625)"/>
     <use xlink:href="#DejaVuSans-Oblique-78" transform="translate(1977.032669 0.765625)"/>
     <use xlink:href="#DejaVuSans-32" transform="translate(2040.678503 39.046875)scale(0.7)"/>
    </g>
   </g>
   <g id="legend_1">
    <g id="line2d_50">
     <path d="M 111.069531 32.203053
L 121.069531 32.203053
L 131.069531 32.203053
" style="fill: none; stroke: #1f77b4; stroke-width: 1.5; stroke-linecap: square"/>
    </g>
    <g id="text_17">
     <!-- Jacobi -->
     <g transform="translate(139.069531 35.703053)scale(0.1 -0.1)">
      <defs>
       <path id="DejaVuSans-4a" d="M 628 4666
L 1259 4666
L 1259 325
Q 1259 -519 939 -900
Q 619 -1281 -91 -1281
L -331 -1281
L -331 -750
L -134 -750
Q 284 -750 456 -515
Q 628 -281 628 325
L 628 4666
z
" transform="scale(0.015625)"/>
       <path id="DejaVuSans-61" d="M 2194 1759
Q 1497 1759 1228 1600
Q 959 1441 959 1056
Q 959 750 1161 570
Q 1363 391 1709 391
Q 2188 391 2477 730
Q 2766 1069 2766 1631
L 2766 1759
L 2194 1759
z
M 3341 1997
L 3341 0
L 2766 0
L 2766 531
Q 2569 213 2275 61
Q 1981 -91 1556 -91
Q 1019 -91 701 211
Q 384 513 384 1019
Q 384 1609 779 1909
Q 1175 2209 1959 2209
L 2766 2209
L 2766 2266
Q 2766 2663 2505 2880
Q 2244 3097 1772 3097
Q 1472 3097 1187 3025
Q 903 2953 641 2809
L 641 3341
Q 956 3463 1253 3523
Q 1550 3584 1831 3584
Q 2591 3584 2966 3190
Q 3341 2797 3341 1997
z
" transform="scale(0.015625)"/>
       <path id="DejaVuSans-63" d="M 3122 3366
L 3122 2828
Q 2878 2963 2633 3030
Q 2388 3097 2138 3097
Q 1578 3097 1268 2742
Q 959 2388 959 1747
Q 959 1106 1268 751
Q 1578 397 2138 397
Q 2388 397 2633 464
Q 2878 531 3122 666
L 3122 134
Q 2881 22 2623 -34
Q 2366 -91 2075 -91
Q 1284 -91 818 406
Q 353 903 353 1747
Q 353 2603 823 3093
Q 1294 3584 2113 3584
Q 2378 3584 2631 3529
Q 2884 3475 3122 3366
z
" transform="scale(0.015625)"/>
       <path id="DejaVuSans-6f" d="M 1959 3097
Q 1497 3097 1228 2736
Q 959 2375 959 1747
Q 959 1119 1226 758
Q 1494 397 1959 397
Q 2419 397 2687 759
Q 2956 1122 2956 1747
Q 2956 2369 2687 2733
Q 2419 3097 1959 3097
z
M 1959 3584
Q 2709 3584 3137 3096
Q 3566 2609 3566 1747
Q 3566 888 3137 398
Q 2709 -91 1959 -91
Q 1206 -91 779 398
Q 353 888 353 1747
Q 353 2609 779 3096
Q 1206 3584 1959 3584
z
" transform="scale(0.015625)"/>
       <path id="DejaVuSans-62" d="M 3116 1747
Q 3116 2381 2855 2742
Q 2594 3103 2138 3103
Q 1681 3103 1420 2742
Q 1159 2381 1159 1747
Q 1159 1113 1420 752
Q 1681 391 2138 391
Q 2594 391 2855 752
Q 3116 1113 3116 1747
z
M 1159 2969
Q 1341 3281 1617 3432
Q 1894 3584 2278 3584
Q 2916 3584 3314 3078
Q 3713 2572 3713 1747
Q 3713 922 3314 415
Q 2916 -91 2278 -91
Q 1894 -91 1617 61
Q 1341 213 1159 525
L 1159 0
L 581 0
L 581 4863
L 1159 4863
L 1159 2969
z
" transform="scale(0.015625)"/>
       <path id="DejaVuSans-69" d="M 603 3500
L 1178 3500
L 1178 0
L 603 0
L 603 3500
z
M 603 4863
L 1178 4863
L 1178 4134
L 603 4134
L 603 4863
z
" transform="scale(0.015625)"/>
      </defs>
      <use xlink:href="#DejaVuSans-4a"/>
      <use xlink:href="#DejaVuSans-61" x="29.492188"/>
      <use xlink:href="#DejaVuSans-63" x="90.771484"/>
      <use xlink:href="#DejaVuSans-6f" x="145.751953"/>
      <use xlink:href="#DejaVuSans-62" x="206.933594"/>
      <use xlink:href="#DejaVuSans-69" x="270.410156"/>
     </g>
    </g>
    <g id="line2d_51">
     <path d="M 188.891406 32.203053
L 198.891406 32.203053
L 208.891406 32.203053
" style="fill: none; stroke-dasharray: 5.55,2.4; stroke-dashoffset: 0; stroke: #ff7f0e; stroke-width: 1.5"/>
    </g>
    <g id="text_18">
     <!-- numdifftools -->
     <g transform="translate(216.891406 35.703053)scale(0.1 -0.1)">
      <defs>
       <path id="DejaVuSans-64" d="M 2906 2969
L 2906 4863
L 3481 4863
L 3481 0
L 2906 0
L 2906 525
Q 2725 213 2448 61
Q 2172 -91 1784 -91
Q 1150 -91 751 415
Q 353 922 353 1747
Q 353 2572 751 3078
Q 1150 3584 1784 3584
Q 2172 3584 2448 3432
Q 2725 3281 2906 2969
z
M 947 1747
Q 947 1113 1208 752
Q 1469 391 1925 391
Q 2381 391 2643 752
Q 2906 1113 2906 1747
Q 2906 2381 2643 2742
Q 2381 3103 1925 3103
Q 1469 3103 1208 2742
Q 947 2381 947 1747
z
" transform="scale(0.015625)"/>
       <path id="DejaVuSans-66" d="M 2375 4863
L 2375 4384
L 1825 4384
Q 1516 4384 1395 4259
Q 1275 4134 1275 3809
L 1275 3500
L 2222 3500
L 2222 3053
L 1275 3053
L 1275 0
L 697 0
L 697 3053
L 147 3053
L 147 3500
L 697 3500
L 697 3744
Q 697 4328 969 4595
Q 1241 4863 1831 4863
L 2375 4863
z
" transform="scale(0.015625)"/>
       <path id="DejaVuSans-74" d="M 1172 4494
L 1172 3500
L 2356 3500
L 2356 3053
L 1172 3053
L 1172 1153
Q 1172 725 1289 603
Q 1406 481 1766 481
L 2356 481
L 2356 0
L 1766 0
Q 1100 0 847 248
Q 594 497 594 1153
L 594 3053
L 172 3053
L 172 3500
L 594 3500
L 594 4494
L 1172 4494
z
" transform="scale(0.015625)"/>
       <path id="DejaVuSans-6c" d="M 603 4863
L 1178 4863
L 1178 0
L 603 0
L 603 4863
z
" transform="scale(0.015625)"/>
       <path id="DejaVuSans-73" d="M 2834 3397
L 2834 2853
Q 2591 2978 2328 3040
Q 2066 3103 1784 3103
Q 1356 3103 1142 2972
Q 928 2841 928 2578
Q 928 2378 1081 2264
Q 1234 2150 1697 2047
L 1894 2003
Q 2506 1872 2764 1633
Q 3022 1394 3022 966
Q 3022 478 2636 193
Q 2250 -91 1575 -91
Q 1294 -91 989 -36
Q 684 19 347 128
L 347 722
Q 666 556 975 473
Q 1284 391 1588 391
Q 1994 391 2212 530
Q 2431 669 2431 922
Q 2431 1156 2273 1281
Q 2116 1406 1581 1522
L 1381 1569
Q 847 1681 609 1914
Q 372 2147 372 2553
Q 372 3047 722 3315
Q 1072 3584 1716 3584
Q 2034 3584 2315 3537
Q 2597 3491 2834 3397
z
" transform="scale(0.015625)"/>
      </defs>
      <use xlink:href="#DejaVuSans-6e"/>
      <use xlink:href="#DejaVuSans-75" x="63.378906"/>
      <use xlink:href="#DejaVuSans-6d" x="126.757812"/>
      <use xlink:href="#DejaVuSans-64" x="224.169922"/>
      <use xlink:href="#DejaVuSans-69" x="287.646484"/>
      <use xlink:href="#DejaVuSans-66" x="315.429688"/>
      <use xlink:href="#DejaVuSans-66" x="350.634766"/>
      <use xlink:href="#DejaVuSans-74" x="384.089844"/>
      <use xlink:href="#DejaVuSans-6f" x="423.298828"/>
      <use xlink:href="#DejaVuSans-6f" x="484.480469"/>
      <use xlink:href="#DejaVuSans-6c" x="545.662109"/>
      <use xlink:href="#DejaVuSans-73" x="573.445312"/>
     </g>
    </g>
    <g id="patch_7">
     <path d="M 299.444531 35.703053
L 319.444531 35.703053
L 319.444531 28.703053
L 299.444531 28.703053
z
" style="fill: #1f77b4; fill-opacity: 0.5"/>
    </g>
    <g id="text_19">
     <!-- error estimate -->
     <g transform="translate(327.444531 35.703053)scale(0.1 -0.1)">
      <defs>
       <path id="DejaVuSans-65" d="M 3597 1894
L 3597 1613
L 953 1613
Q 991 1019 1311 708
Q 1631 397 2203 397
Q 2534 397 2845 478
Q 3156 559 3463 722
L 3463 178
Q 3153 47 2828 -22
Q 2503 -91 2169 -91
Q 1331 -91 842 396
Q 353 884 353 1716
Q 353 2575 817 3079
Q 1281 3584 2069 3584
Q 2775 3584 3186 3129
Q 3597 2675 3597 1894
z
M 3022 2063
Q 3016 2534 2758 2815
Q 2500 3097 2075 3097
Q 1594 3097 1305 2825
Q 1016 2553 972 2059
L 3022 2063
z
" transform="scale(0.015625)"/>
       <path id="DejaVuSans-72" d="M 2631 2963
Q 2534 3019 2420 3045
Q 2306 3072 2169 3072
Q 1681 3072 1420 2755
Q 1159 2438 1159 1844
L 1159 0
L 581 0
L 581 3500
L 1159 3500
L 1159 2956
Q 1341 3275 1631 3429
Q 1922 3584 2338 3584
Q 2397 3584 2469 3576
Q 2541 3569 2628 3553
L 2631 2963
z
" transform="scale(0.015625)"/>
       <path id="DejaVuSans-20" transform="scale(0.015625)"/>
      </defs>
      <use xlink:href="#DejaVuSans-65"/>
      <use xlink:href="#DejaVuSans-72" x="61.523438"/>
      <use xlink:href="#DejaVuSans-72" x="100.886719"/>
      <use xlink:href="#DejaVuSans-6f" x="139.75"/>
      <use xlink:href="#DejaVuSans-72" x="200.931641"/>
      <use xlink:href="#DejaVuSans-20" x="242.044922"/>
      <use xlink:href="#DejaVuSans-65" x="273.832031"/>
      <use xlink:href="#DejaVuSans-73" x="335.355469"/>
      <use xlink:href="#DejaVuSans-74" x="387.455078"/>
      <use xlink:href="#DejaVuSans-69" x="426.664062"/>
      <use xlink:href="#DejaVuSans-6d" x="454.447266"/>
      <use xlink:href="#DejaVuSans-61" x="551.859375"/>
      <use xlink:href="#DejaVuSans-74" x="613.138672"/>
      <use xlink:href="#DejaVuSans-65" x="652.347656"/>
     </g>
    </g>
   </g>
  </g>
 </g>
 <defs>
  <clipPath id="pc42b3cb369">
   <rect x="52.10024" y="19.104615" width="405.69952" height="306.81702"/>
  </clipPath>
 </defs>
</svg>
